<svg width="375" height="185" viewBox="0 0 375 185" fill="none" xmlns="http://www.w3.org/2000/svg">
<path d="M162.737 7.404H159.401L158.849 9H157.085L160.097 0.611999H162.053L165.065 9H163.289L162.737 7.404ZM162.281 6.06L161.069 2.556L159.857 6.06H162.281ZM169.875 2.256C170.667 2.256 171.307 2.508 171.795 3.012C172.283 3.508 172.527 4.204 172.527 5.1V9H170.847V5.328C170.847 4.8 170.715 4.396 170.451 4.116C170.187 3.828 169.827 3.684 169.371 3.684C168.907 3.684 168.539 3.828 168.267 4.116C168.003 4.396 167.871 4.8 167.871 5.328V9H166.191V2.352H167.871V3.18C168.095 2.892 168.379 2.668 168.723 2.508C169.075 2.34 169.459 2.256 169.875 2.256ZM177.809 2.256C178.601 2.256 179.241 2.508 179.729 3.012C180.217 3.508 180.461 4.204 180.461 5.1V9H178.781V5.328C178.781 4.8 178.649 4.396 178.385 4.116C178.121 3.828 177.761 3.684 177.305 3.684C176.841 3.684 176.473 3.828 176.201 4.116C175.937 4.396 175.805 4.8 175.805 5.328V9H174.125V2.352H175.805V3.18C176.029 2.892 176.313 2.668 176.657 2.508C177.009 2.34 177.393 2.256 177.809 2.256ZM188.334 2.352V9H186.642V8.16C186.426 8.448 186.142 8.676 185.79 8.844C185.446 9.004 185.07 9.084 184.662 9.084C184.142 9.084 183.682 8.976 183.282 8.76C182.882 8.536 182.566 8.212 182.334 7.788C182.11 7.356 181.998 6.844 181.998 6.252V2.352H183.678V6.012C183.678 6.54 183.81 6.948 184.074 7.236C184.338 7.516 184.698 7.656 185.154 7.656C185.618 7.656 185.982 7.516 186.246 7.236C186.51 6.948 186.642 6.54 186.642 6.012V2.352H188.334ZM189.56 5.652C189.56 4.98 189.692 4.384 189.956 3.864C190.228 3.344 190.592 2.944 191.048 2.664C191.512 2.384 192.028 2.244 192.596 2.244C193.092 2.244 193.524 2.344 193.892 2.544C194.268 2.744 194.568 2.996 194.792 3.3V2.352H196.484V9H194.792V8.028C194.576 8.34 194.276 8.6 193.892 8.808C193.516 9.008 193.08 9.108 192.584 9.108C192.024 9.108 191.512 8.964 191.048 8.676C190.592 8.388 190.228 7.984 189.956 7.464C189.692 6.936 189.56 6.332 189.56 5.652ZM194.792 5.676C194.792 5.268 194.712 4.92 194.552 4.632C194.392 4.336 194.176 4.112 193.904 3.96C193.632 3.8 193.34 3.72 193.028 3.72C192.716 3.72 192.428 3.796 192.164 3.948C191.9 4.1 191.684 4.324 191.516 4.62C191.356 4.908 191.276 5.252 191.276 5.652C191.276 6.052 191.356 6.404 191.516 6.708C191.684 7.004 191.9 7.232 192.164 7.392C192.436 7.552 192.724 7.632 193.028 7.632C193.34 7.632 193.632 7.556 193.904 7.404C194.176 7.244 194.392 7.02 194.552 6.732C194.712 6.436 194.792 6.084 194.792 5.676ZM199.805 0.12V9H198.125V0.12H199.805ZM207.216 9.084C206.632 9.084 206.104 8.984 205.632 8.784C205.168 8.584 204.8 8.296 204.528 7.92C204.256 7.544 204.116 7.1 204.108 6.588H205.908C205.932 6.932 206.052 7.204 206.268 7.404C206.492 7.604 206.796 7.704 207.18 7.704C207.572 7.704 207.88 7.612 208.104 7.428C208.328 7.236 208.44 6.988 208.44 6.684C208.44 6.436 208.364 6.232 208.212 6.072C208.06 5.912 207.868 5.788 207.636 5.7C207.412 5.604 207.1 5.5 206.7 5.388C206.156 5.228 205.712 5.072 205.368 4.92C205.032 4.76 204.74 4.524 204.492 4.212C204.252 3.892 204.132 3.468 204.132 2.94C204.132 2.444 204.256 2.012 204.504 1.644C204.752 1.276 205.1 0.996 205.548 0.804C205.996 0.604 206.508 0.504 207.084 0.504C207.948 0.504 208.648 0.716 209.184 1.14C209.728 1.556 210.028 2.14 210.084 2.892H208.236C208.22 2.604 208.096 2.368 207.864 2.184C207.64 1.992 207.34 1.896 206.964 1.896C206.636 1.896 206.372 1.98 206.172 2.148C205.98 2.316 205.884 2.56 205.884 2.88C205.884 3.104 205.956 3.292 206.1 3.444C206.252 3.588 206.436 3.708 206.652 3.804C206.876 3.892 207.188 3.996 207.588 4.116C208.132 4.276 208.576 4.436 208.92 4.596C209.264 4.756 209.56 4.996 209.808 5.316C210.056 5.636 210.18 6.056 210.18 6.576C210.18 7.024 210.064 7.44 209.832 7.824C209.6 8.208 209.26 8.516 208.812 8.748C208.364 8.972 207.832 9.084 207.216 9.084ZM211.205 5.652C211.205 4.98 211.337 4.384 211.601 3.864C211.873 3.344 212.237 2.944 212.693 2.664C213.157 2.384 213.673 2.244 214.241 2.244C214.737 2.244 215.169 2.344 215.537 2.544C215.913 2.744 216.213 2.996 216.437 3.3V2.352H218.129V9H216.437V8.028C216.221 8.34 215.921 8.6 215.537 8.808C215.161 9.008 214.725 9.108 214.229 9.108C213.669 9.108 213.157 8.964 212.693 8.676C212.237 8.388 211.873 7.984 211.601 7.464C211.337 6.936 211.205 6.332 211.205 5.652ZM216.437 5.676C216.437 5.268 216.357 4.92 216.197 4.632C216.037 4.336 215.821 4.112 215.549 3.96C215.277 3.8 214.985 3.72 214.673 3.72C214.361 3.72 214.073 3.796 213.809 3.948C213.545 4.1 213.329 4.324 213.161 4.62C213.001 4.908 212.921 5.252 212.921 5.652C212.921 6.052 213.001 6.404 213.161 6.708C213.329 7.004 213.545 7.232 213.809 7.392C214.081 7.552 214.369 7.632 214.673 7.632C214.985 7.632 215.277 7.556 215.549 7.404C215.821 7.244 216.037 7.02 216.197 6.732C216.357 6.436 216.437 6.084 216.437 5.676ZM221.449 0.12V9H219.769V0.12H221.449ZM229.289 5.532C229.289 5.772 229.273 5.988 229.241 6.18H224.381C224.421 6.66 224.589 7.036 224.885 7.308C225.181 7.58 225.545 7.716 225.977 7.716C226.601 7.716 227.045 7.448 227.309 6.912H229.121C228.929 7.552 228.561 8.08 228.017 8.496C227.473 8.904 226.805 9.108 226.013 9.108C225.373 9.108 224.797 8.968 224.285 8.688C223.781 8.4 223.385 7.996 223.097 7.476C222.817 6.956 222.677 6.356 222.677 5.676C222.677 4.988 222.817 4.384 223.097 3.864C223.377 3.344 223.769 2.944 224.273 2.664C224.777 2.384 225.357 2.244 226.013 2.244C226.645 2.244 227.209 2.38 227.705 2.652C228.209 2.924 228.597 3.312 228.869 3.816C229.149 4.312 229.289 4.884 229.289 5.532ZM227.549 5.052C227.541 4.62 227.385 4.276 227.081 4.02C226.777 3.756 226.405 3.624 225.965 3.624C225.549 3.624 225.197 3.752 224.909 4.008C224.629 4.256 224.457 4.604 224.393 5.052H227.549ZM233.06 9.108C232.516 9.108 232.028 9.012 231.596 8.82C231.164 8.62 230.82 8.352 230.564 8.016C230.316 7.68 230.18 7.308 230.156 6.9H231.848C231.88 7.156 232.004 7.368 232.22 7.536C232.444 7.704 232.72 7.788 233.048 7.788C233.368 7.788 233.616 7.724 233.792 7.596C233.976 7.468 234.068 7.304 234.068 7.104C234.068 6.888 233.956 6.728 233.732 6.624C233.516 6.512 233.168 6.392 232.688 6.264C232.192 6.144 231.784 6.02 231.464 5.892C231.152 5.764 230.88 5.568 230.648 5.304C230.424 5.04 230.312 4.684 230.312 4.236C230.312 3.868 230.416 3.532 230.624 3.228C230.84 2.924 231.144 2.684 231.536 2.508C231.936 2.332 232.404 2.244 232.94 2.244C233.732 2.244 234.364 2.444 234.836 2.844C235.308 3.236 235.568 3.768 235.616 4.44H234.008C233.984 4.176 233.872 3.968 233.672 3.816C233.48 3.656 233.22 3.576 232.892 3.576C232.588 3.576 232.352 3.632 232.184 3.744C232.024 3.856 231.944 4.012 231.944 4.212C231.944 4.436 232.056 4.608 232.28 4.728C232.504 4.84 232.852 4.956 233.324 5.076C233.804 5.196 234.2 5.32 234.512 5.448C234.824 5.576 235.092 5.776 235.316 6.048C235.548 6.312 235.668 6.664 235.676 7.104C235.676 7.488 235.568 7.832 235.352 8.136C235.144 8.44 234.84 8.68 234.44 8.856C234.048 9.024 233.588 9.108 233.06 9.108Z" fill="black"/>
<line x1="30" y1="167.5" x2="375" y2="167.5" stroke="#CECECE"/>
<line x1="30" y1="167.5" x2="375" y2="167.5" stroke="#CECECE"/>
<line x1="30" y1="152.5" x2="375" y2="152.5" stroke="#CECECE"/>
<line x1="30" y1="152.5" x2="375" y2="152.5" stroke="#CECECE"/>
<line x1="30" y1="136.5" x2="375" y2="136.5" stroke="#CECECE"/>
<line x1="30" y1="136.5" x2="375" y2="136.5" stroke="#CECECE"/>
<line x1="30" y1="120.5" x2="375" y2="120.5" stroke="#CECECE"/>
<line x1="30" y1="120.5" x2="375" y2="120.5" stroke="#CECECE"/>
<line x1="30" y1="105.5" x2="375" y2="105.5" stroke="#CECECE"/>
<line x1="30" y1="105.5" x2="375" y2="105.5" stroke="#CECECE"/>
<line x1="30" y1="90.5" x2="375" y2="90.5" stroke="#CECECE"/>
<line x1="30" y1="90.5" x2="375" y2="90.5" stroke="#CECECE"/>
<line x1="30" y1="74.5" x2="375" y2="74.5" stroke="#CECECE"/>
<line x1="30" y1="74.5" x2="375" y2="74.5" stroke="#CECECE"/>
<line x1="30" y1="59.5" x2="375" y2="59.5" stroke="#CECECE"/>
<line x1="30" y1="59.5" x2="375" y2="59.5" stroke="#CECECE"/>
<line x1="30" y1="43.5" x2="375" y2="43.5" stroke="#CECECE"/>
<line x1="30" y1="43.5" x2="375" y2="43.5" stroke="#CECECE"/>
<path d="M46.97 182.42C47.61 181.887 48.12 181.443 48.5 181.09C48.88 180.73 49.1967 180.357 49.45 179.97C49.7033 179.583 49.83 179.203 49.83 178.83C49.83 178.49 49.75 178.223 49.59 178.03C49.43 177.837 49.1833 177.74 48.85 177.74C48.5167 177.74 48.26 177.853 48.08 178.08C47.9 178.3 47.8067 178.603 47.8 178.99H46.44C46.4667 178.19 46.7033 177.583 47.15 177.17C47.6033 176.757 48.1767 176.55 48.87 176.55C49.63 176.55 50.2133 176.753 50.62 177.16C51.0267 177.56 51.23 178.09 51.23 178.75C51.23 179.27 51.09 179.767 50.81 180.24C50.53 180.713 50.21 181.127 49.85 181.48C49.49 181.827 49.02 182.247 48.44 182.74H51.39V183.9H46.45V182.86L46.97 182.42ZM52.2722 180.26C52.2722 179.107 52.4789 178.203 52.8922 177.55C53.3122 176.897 54.0055 176.57 54.9722 176.57C55.9389 176.57 56.6289 176.897 57.0422 177.55C57.4622 178.203 57.6722 179.107 57.6722 180.26C57.6722 181.42 57.4622 182.33 57.0422 182.99C56.6289 183.65 55.9389 183.98 54.9722 183.98C54.0055 183.98 53.3122 183.65 52.8922 182.99C52.4789 182.33 52.2722 181.42 52.2722 180.26ZM56.2922 180.26C56.2922 179.767 56.2589 179.353 56.1922 179.02C56.1322 178.68 56.0055 178.403 55.8122 178.19C55.6255 177.977 55.3455 177.87 54.9722 177.87C54.5989 177.87 54.3155 177.977 54.1222 178.19C53.9355 178.403 53.8089 178.68 53.7422 179.02C53.6822 179.353 53.6522 179.767 53.6522 180.26C53.6522 180.767 53.6822 181.193 53.7422 181.54C53.8022 181.88 53.9289 182.157 54.1222 182.37C54.3155 182.577 54.5989 182.68 54.9722 182.68C55.3455 182.68 55.6289 182.577 55.8222 182.37C56.0155 182.157 56.1422 181.88 56.2022 181.54C56.2622 181.193 56.2922 180.767 56.2922 180.26ZM58.567 178V176.71H60.977V184H59.537V178H58.567ZM67.2601 177.92H64.0201V179.63C64.1601 179.457 64.3601 179.317 64.6201 179.21C64.8801 179.097 65.1567 179.04 65.4501 179.04C65.9834 179.04 66.4201 179.157 66.7601 179.39C67.1001 179.623 67.3467 179.923 67.5001 180.29C67.6534 180.65 67.7301 181.037 67.7301 181.45C67.7301 182.217 67.5101 182.833 67.0701 183.3C66.6367 183.767 66.0167 184 65.2101 184C64.4501 184 63.8434 183.81 63.3901 183.43C62.9367 183.05 62.6801 182.553 62.6201 181.94H63.9801C64.0401 182.207 64.1734 182.42 64.3801 182.58C64.5934 182.74 64.8634 182.82 65.1901 182.82C65.5834 182.82 65.8801 182.697 66.0801 182.45C66.2801 182.203 66.3801 181.877 66.3801 181.47C66.3801 181.057 66.2767 180.743 66.0701 180.53C65.8701 180.31 65.5734 180.2 65.1801 180.2C64.9001 180.2 64.6667 180.27 64.4801 180.41C64.2934 180.55 64.1601 180.737 64.0801 180.97H62.7401V176.69H67.2601V177.92Z" fill="#A7A7A7"/>
<path d="M143.97 182.42C144.61 181.887 145.12 181.443 145.5 181.09C145.88 180.73 146.197 180.357 146.45 179.97C146.703 179.583 146.83 179.203 146.83 178.83C146.83 178.49 146.75 178.223 146.59 178.03C146.43 177.837 146.183 177.74 145.85 177.74C145.517 177.74 145.26 177.853 145.08 178.08C144.9 178.3 144.807 178.603 144.8 178.99H143.44C143.467 178.19 143.703 177.583 144.15 177.17C144.603 176.757 145.177 176.55 145.87 176.55C146.63 176.55 147.213 176.753 147.62 177.16C148.027 177.56 148.23 178.09 148.23 178.75C148.23 179.27 148.09 179.767 147.81 180.24C147.53 180.713 147.21 181.127 146.85 181.48C146.49 181.827 146.02 182.247 145.44 182.74H148.39V183.9H143.45V182.86L143.97 182.42ZM149.272 180.26C149.272 179.107 149.479 178.203 149.892 177.55C150.312 176.897 151.006 176.57 151.972 176.57C152.939 176.57 153.629 176.897 154.042 177.55C154.462 178.203 154.672 179.107 154.672 180.26C154.672 181.42 154.462 182.33 154.042 182.99C153.629 183.65 152.939 183.98 151.972 183.98C151.006 183.98 150.312 183.65 149.892 182.99C149.479 182.33 149.272 181.42 149.272 180.26ZM153.292 180.26C153.292 179.767 153.259 179.353 153.192 179.02C153.132 178.68 153.006 178.403 152.812 178.19C152.626 177.977 152.346 177.87 151.972 177.87C151.599 177.87 151.316 177.977 151.122 178.19C150.936 178.403 150.809 178.68 150.742 179.02C150.682 179.353 150.652 179.767 150.652 180.26C150.652 180.767 150.682 181.193 150.742 181.54C150.802 181.88 150.929 182.157 151.122 182.37C151.316 182.577 151.599 182.68 151.972 182.68C152.346 182.68 152.629 182.577 152.822 182.37C153.016 182.157 153.142 181.88 153.202 181.54C153.262 181.193 153.292 180.767 153.292 180.26ZM155.567 178V176.71H157.977V184H156.537V178H155.567ZM164 177.77L161.34 184H159.92L162.6 177.93H159.18V176.73H164V177.77Z" fill="#A7A7A7"/>
<path d="M343.97 182.42C344.61 181.887 345.12 181.443 345.5 181.09C345.88 180.73 346.197 180.357 346.45 179.97C346.703 179.583 346.83 179.203 346.83 178.83C346.83 178.49 346.75 178.223 346.59 178.03C346.43 177.837 346.183 177.74 345.85 177.74C345.517 177.74 345.26 177.853 345.08 178.08C344.9 178.3 344.807 178.603 344.8 178.99H343.44C343.467 178.19 343.703 177.583 344.15 177.17C344.603 176.757 345.177 176.55 345.87 176.55C346.63 176.55 347.213 176.753 347.62 177.16C348.027 177.56 348.23 178.09 348.23 178.75C348.23 179.27 348.09 179.767 347.81 180.24C347.53 180.713 347.21 181.127 346.85 181.48C346.49 181.827 346.02 182.247 345.44 182.74H348.39V183.9H343.45V182.86L343.97 182.42ZM349.272 180.26C349.272 179.107 349.479 178.203 349.892 177.55C350.312 176.897 351.006 176.57 351.972 176.57C352.939 176.57 353.629 176.897 354.042 177.55C354.462 178.203 354.672 179.107 354.672 180.26C354.672 181.42 354.462 182.33 354.042 182.99C353.629 183.65 352.939 183.98 351.972 183.98C351.006 183.98 350.312 183.65 349.892 182.99C349.479 182.33 349.272 181.42 349.272 180.26ZM353.292 180.26C353.292 179.767 353.259 179.353 353.192 179.02C353.132 178.68 353.006 178.403 352.812 178.19C352.626 177.977 352.346 177.87 351.972 177.87C351.599 177.87 351.316 177.977 351.122 178.19C350.936 178.403 350.809 178.68 350.742 179.02C350.682 179.353 350.652 179.767 350.652 180.26C350.652 180.767 350.682 181.193 350.742 181.54C350.802 181.88 350.929 182.157 351.122 182.37C351.316 182.577 351.599 182.68 351.972 182.68C352.346 182.68 352.629 182.577 352.822 182.37C353.016 182.157 353.142 181.88 353.202 181.54C353.262 181.193 353.292 180.767 353.292 180.26ZM356.177 182.42C356.817 181.887 357.327 181.443 357.707 181.09C358.087 180.73 358.404 180.357 358.657 179.97C358.91 179.583 359.037 179.203 359.037 178.83C359.037 178.49 358.957 178.223 358.797 178.03C358.637 177.837 358.39 177.74 358.057 177.74C357.724 177.74 357.467 177.853 357.287 178.08C357.107 178.3 357.014 178.603 357.007 178.99H355.647C355.674 178.19 355.91 177.583 356.357 177.17C356.81 176.757 357.384 176.55 358.077 176.55C358.837 176.55 359.42 176.753 359.827 177.16C360.234 177.56 360.437 178.09 360.437 178.75C360.437 179.27 360.297 179.767 360.017 180.24C359.737 180.713 359.417 181.127 359.057 181.48C358.697 181.827 358.227 182.247 357.647 182.74H360.597V183.9H355.657V182.86L356.177 182.42ZM361.309 178V176.71H363.719V184H362.279V178H361.309Z" fill="#A7A7A7"/>
<path d="M299.97 182.42C300.61 181.887 301.12 181.443 301.5 181.09C301.88 180.73 302.197 180.357 302.45 179.97C302.703 179.583 302.83 179.203 302.83 178.83C302.83 178.49 302.75 178.223 302.59 178.03C302.43 177.837 302.183 177.74 301.85 177.74C301.517 177.74 301.26 177.853 301.08 178.08C300.9 178.3 300.807 178.603 300.8 178.99H299.44C299.467 178.19 299.703 177.583 300.15 177.17C300.603 176.757 301.177 176.55 301.87 176.55C302.63 176.55 303.213 176.753 303.62 177.16C304.027 177.56 304.23 178.09 304.23 178.75C304.23 179.27 304.09 179.767 303.81 180.24C303.53 180.713 303.21 181.127 302.85 181.48C302.49 181.827 302.02 182.247 301.44 182.74H304.39V183.9H299.45V182.86L299.97 182.42ZM305.272 180.26C305.272 179.107 305.479 178.203 305.892 177.55C306.312 176.897 307.006 176.57 307.972 176.57C308.939 176.57 309.629 176.897 310.042 177.55C310.462 178.203 310.672 179.107 310.672 180.26C310.672 181.42 310.462 182.33 310.042 182.99C309.629 183.65 308.939 183.98 307.972 183.98C307.006 183.98 306.312 183.65 305.892 182.99C305.479 182.33 305.272 181.42 305.272 180.26ZM309.292 180.26C309.292 179.767 309.259 179.353 309.192 179.02C309.132 178.68 309.006 178.403 308.812 178.19C308.626 177.977 308.346 177.87 307.972 177.87C307.599 177.87 307.316 177.977 307.122 178.19C306.936 178.403 306.809 178.68 306.742 179.02C306.682 179.353 306.652 179.767 306.652 180.26C306.652 180.767 306.682 181.193 306.742 181.54C306.802 181.88 306.929 182.157 307.122 182.37C307.316 182.577 307.599 182.68 307.972 182.68C308.346 182.68 308.629 182.577 308.822 182.37C309.016 182.157 309.142 181.88 309.202 181.54C309.262 181.193 309.292 180.767 309.292 180.26ZM312.177 182.42C312.817 181.887 313.327 181.443 313.707 181.09C314.087 180.73 314.404 180.357 314.657 179.97C314.91 179.583 315.037 179.203 315.037 178.83C315.037 178.49 314.957 178.223 314.797 178.03C314.637 177.837 314.39 177.74 314.057 177.74C313.724 177.74 313.467 177.853 313.287 178.08C313.107 178.3 313.014 178.603 313.007 178.99H311.647C311.674 178.19 311.91 177.583 312.357 177.17C312.81 176.757 313.384 176.55 314.077 176.55C314.837 176.55 315.42 176.753 315.827 177.16C316.234 177.56 316.437 178.09 316.437 178.75C316.437 179.27 316.297 179.767 316.017 180.24C315.737 180.713 315.417 181.127 315.057 181.48C314.697 181.827 314.227 182.247 313.647 182.74H316.597V183.9H311.657V182.86L312.177 182.42ZM317.479 180.26C317.479 179.107 317.686 178.203 318.099 177.55C318.519 176.897 319.213 176.57 320.179 176.57C321.146 176.57 321.836 176.897 322.249 177.55C322.669 178.203 322.879 179.107 322.879 180.26C322.879 181.42 322.669 182.33 322.249 182.99C321.836 183.65 321.146 183.98 320.179 183.98C319.213 183.98 318.519 183.65 318.099 182.99C317.686 182.33 317.479 181.42 317.479 180.26ZM321.499 180.26C321.499 179.767 321.466 179.353 321.399 179.02C321.339 178.68 321.213 178.403 321.019 178.19C320.833 177.977 320.553 177.87 320.179 177.87C319.806 177.87 319.523 177.977 319.329 178.19C319.143 178.403 319.016 178.68 318.949 179.02C318.889 179.353 318.859 179.767 318.859 180.26C318.859 180.767 318.889 181.193 318.949 181.54C319.009 181.88 319.136 182.157 319.329 182.37C319.523 182.577 319.806 182.68 320.179 182.68C320.553 182.68 320.836 182.577 321.029 182.37C321.223 182.157 321.349 181.88 321.409 181.54C321.469 181.193 321.499 180.767 321.499 180.26Z" fill="#A7A7A7"/>
<path d="M246.97 182.42C247.61 181.887 248.12 181.443 248.5 181.09C248.88 180.73 249.197 180.357 249.45 179.97C249.703 179.583 249.83 179.203 249.83 178.83C249.83 178.49 249.75 178.223 249.59 178.03C249.43 177.837 249.183 177.74 248.85 177.74C248.517 177.74 248.26 177.853 248.08 178.08C247.9 178.3 247.807 178.603 247.8 178.99H246.44C246.467 178.19 246.703 177.583 247.15 177.17C247.603 176.757 248.177 176.55 248.87 176.55C249.63 176.55 250.213 176.753 250.62 177.16C251.027 177.56 251.23 178.09 251.23 178.75C251.23 179.27 251.09 179.767 250.81 180.24C250.53 180.713 250.21 181.127 249.85 181.48C249.49 181.827 249.02 182.247 248.44 182.74H251.39V183.9H246.45V182.86L246.97 182.42ZM252.272 180.26C252.272 179.107 252.479 178.203 252.892 177.55C253.312 176.897 254.006 176.57 254.972 176.57C255.939 176.57 256.629 176.897 257.042 177.55C257.462 178.203 257.672 179.107 257.672 180.26C257.672 181.42 257.462 182.33 257.042 182.99C256.629 183.65 255.939 183.98 254.972 183.98C254.006 183.98 253.312 183.65 252.892 182.99C252.479 182.33 252.272 181.42 252.272 180.26ZM256.292 180.26C256.292 179.767 256.259 179.353 256.192 179.02C256.132 178.68 256.006 178.403 255.812 178.19C255.626 177.977 255.346 177.87 254.972 177.87C254.599 177.87 254.316 177.977 254.122 178.19C253.936 178.403 253.809 178.68 253.742 179.02C253.682 179.353 253.652 179.767 253.652 180.26C253.652 180.767 253.682 181.193 253.742 181.54C253.802 181.88 253.929 182.157 254.122 182.37C254.316 182.577 254.599 182.68 254.972 182.68C255.346 182.68 255.629 182.577 255.822 182.37C256.016 182.157 256.142 181.88 256.202 181.54C256.262 181.193 256.292 180.767 256.292 180.26ZM258.567 178V176.71H260.977V184H259.537V178H258.567ZM263.98 181.95C264.033 182.243 264.153 182.47 264.34 182.63C264.533 182.783 264.79 182.86 265.11 182.86C265.523 182.86 265.823 182.69 266.01 182.35C266.197 182.003 266.29 181.423 266.29 180.61C266.137 180.823 265.92 180.99 265.64 181.11C265.367 181.23 265.07 181.29 264.75 181.29C264.323 181.29 263.937 181.203 263.59 181.03C263.25 180.85 262.98 180.587 262.78 180.24C262.58 179.887 262.48 179.46 262.48 178.96C262.48 178.22 262.7 177.633 263.14 177.2C263.58 176.76 264.18 176.54 264.94 176.54C265.887 176.54 266.553 176.843 266.94 177.45C267.333 178.057 267.53 178.97 267.53 180.19C267.53 181.057 267.453 181.767 267.3 182.32C267.153 182.873 266.897 183.293 266.53 183.58C266.17 183.867 265.677 184.01 265.05 184.01C264.557 184.01 264.137 183.917 263.79 183.73C263.443 183.537 263.177 183.287 262.99 182.98C262.81 182.667 262.707 182.323 262.68 181.95H263.98ZM265.04 180.15C265.387 180.15 265.66 180.043 265.86 179.83C266.06 179.617 266.16 179.33 266.16 178.97C266.16 178.577 266.053 178.273 265.84 178.06C265.633 177.84 265.35 177.73 264.99 177.73C264.63 177.73 264.343 177.843 264.13 178.07C263.923 178.29 263.82 178.583 263.82 178.95C263.82 179.303 263.92 179.593 264.12 179.82C264.327 180.04 264.633 180.15 265.04 180.15Z" fill="#A7A7A7"/>
<path d="M197.97 182.42C198.61 181.887 199.12 181.443 199.5 181.09C199.88 180.73 200.197 180.357 200.45 179.97C200.703 179.583 200.83 179.203 200.83 178.83C200.83 178.49 200.75 178.223 200.59 178.03C200.43 177.837 200.183 177.74 199.85 177.74C199.517 177.74 199.26 177.853 199.08 178.08C198.9 178.3 198.807 178.603 198.8 178.99H197.44C197.467 178.19 197.703 177.583 198.15 177.17C198.603 176.757 199.177 176.55 199.87 176.55C200.63 176.55 201.213 176.753 201.62 177.16C202.027 177.56 202.23 178.09 202.23 178.75C202.23 179.27 202.09 179.767 201.81 180.24C201.53 180.713 201.21 181.127 200.85 181.48C200.49 181.827 200.02 182.247 199.44 182.74H202.39V183.9H197.45V182.86L197.97 182.42ZM203.272 180.26C203.272 179.107 203.479 178.203 203.892 177.55C204.312 176.897 205.006 176.57 205.972 176.57C206.939 176.57 207.629 176.897 208.042 177.55C208.462 178.203 208.672 179.107 208.672 180.26C208.672 181.42 208.462 182.33 208.042 182.99C207.629 183.65 206.939 183.98 205.972 183.98C205.006 183.98 204.312 183.65 203.892 182.99C203.479 182.33 203.272 181.42 203.272 180.26ZM207.292 180.26C207.292 179.767 207.259 179.353 207.192 179.02C207.132 178.68 207.006 178.403 206.812 178.19C206.626 177.977 206.346 177.87 205.972 177.87C205.599 177.87 205.316 177.977 205.122 178.19C204.936 178.403 204.809 178.68 204.742 179.02C204.682 179.353 204.652 179.767 204.652 180.26C204.652 180.767 204.682 181.193 204.742 181.54C204.802 181.88 204.929 182.157 205.122 182.37C205.316 182.577 205.599 182.68 205.972 182.68C206.346 182.68 206.629 182.577 206.822 182.37C207.016 182.157 207.142 181.88 207.202 181.54C207.262 181.193 207.292 180.767 207.292 180.26ZM209.567 178V176.71H211.977V184H210.537V178H209.567ZM214.58 180.14C213.913 179.793 213.58 179.257 213.58 178.53C213.58 178.17 213.67 177.843 213.85 177.55C214.037 177.25 214.313 177.013 214.68 176.84C215.053 176.66 215.507 176.57 216.04 176.57C216.573 176.57 217.023 176.66 217.39 176.84C217.763 177.013 218.04 177.25 218.22 177.55C218.407 177.843 218.5 178.17 218.5 178.53C218.5 178.897 218.41 179.22 218.23 179.5C218.05 179.773 217.81 179.987 217.51 180.14C217.877 180.3 218.163 180.533 218.37 180.84C218.577 181.147 218.68 181.51 218.68 181.93C218.68 182.383 218.563 182.78 218.33 183.12C218.103 183.453 217.79 183.71 217.39 183.89C216.99 184.07 216.54 184.16 216.04 184.16C215.54 184.16 215.09 184.07 214.69 183.89C214.297 183.71 213.983 183.453 213.75 183.12C213.523 182.78 213.41 182.383 213.41 181.93C213.41 181.51 213.513 181.147 213.72 180.84C213.927 180.527 214.213 180.293 214.58 180.14ZM217.14 178.73C217.14 178.403 217.04 178.15 216.84 177.97C216.647 177.79 216.38 177.7 216.04 177.7C215.707 177.7 215.44 177.79 215.24 177.97C215.047 178.15 214.95 178.407 214.95 178.74C214.95 179.04 215.05 179.28 215.25 179.46C215.457 179.64 215.72 179.73 216.04 179.73C216.36 179.73 216.623 179.64 216.83 179.46C217.037 179.273 217.14 179.03 217.14 178.73ZM216.04 180.75C215.66 180.75 215.35 180.847 215.11 181.04C214.877 181.233 214.76 181.51 214.76 181.87C214.76 182.203 214.873 182.477 215.1 182.69C215.333 182.897 215.647 183 216.04 183C216.433 183 216.743 182.893 216.97 182.68C217.197 182.467 217.31 182.197 217.31 181.87C217.31 181.517 217.193 181.243 216.96 181.05C216.727 180.85 216.42 180.75 216.04 180.75Z" fill="#A7A7A7"/>
<path d="M94.97 182.42C95.61 181.887 96.12 181.443 96.5 181.09C96.88 180.73 97.1967 180.357 97.45 179.97C97.7033 179.583 97.83 179.203 97.83 178.83C97.83 178.49 97.75 178.223 97.59 178.03C97.43 177.837 97.1833 177.74 96.85 177.74C96.5167 177.74 96.26 177.853 96.08 178.08C95.9 178.3 95.8067 178.603 95.8 178.99H94.44C94.4667 178.19 94.7033 177.583 95.15 177.17C95.6033 176.757 96.1767 176.55 96.87 176.55C97.63 176.55 98.2133 176.753 98.62 177.16C99.0267 177.56 99.23 178.09 99.23 178.75C99.23 179.27 99.09 179.767 98.81 180.24C98.53 180.713 98.21 181.127 97.85 181.48C97.49 181.827 97.02 182.247 96.44 182.74H99.39V183.9H94.45V182.86L94.97 182.42ZM100.272 180.26C100.272 179.107 100.479 178.203 100.892 177.55C101.312 176.897 102.006 176.57 102.972 176.57C103.939 176.57 104.629 176.897 105.042 177.55C105.462 178.203 105.672 179.107 105.672 180.26C105.672 181.42 105.462 182.33 105.042 182.99C104.629 183.65 103.939 183.98 102.972 183.98C102.006 183.98 101.312 183.65 100.892 182.99C100.479 182.33 100.272 181.42 100.272 180.26ZM104.292 180.26C104.292 179.767 104.259 179.353 104.192 179.02C104.132 178.68 104.006 178.403 103.812 178.19C103.626 177.977 103.346 177.87 102.972 177.87C102.599 177.87 102.316 177.977 102.122 178.19C101.936 178.403 101.809 178.68 101.742 179.02C101.682 179.353 101.652 179.767 101.652 180.26C101.652 180.767 101.682 181.193 101.742 181.54C101.802 181.88 101.929 182.157 102.122 182.37C102.316 182.577 102.599 182.68 102.972 182.68C103.346 182.68 103.629 182.577 103.822 182.37C104.016 182.157 104.142 181.88 104.202 181.54C104.262 181.193 104.292 180.767 104.292 180.26ZM106.567 178V176.71H108.977V184H107.537V178H106.567ZM114.14 178.53C114.073 178.25 113.957 178.04 113.79 177.9C113.63 177.76 113.397 177.69 113.09 177.69C112.63 177.69 112.29 177.877 112.07 178.25C111.857 178.617 111.747 179.217 111.74 180.05C111.9 179.783 112.133 179.577 112.44 179.43C112.747 179.277 113.08 179.2 113.44 179.2C113.873 179.2 114.257 179.293 114.59 179.48C114.923 179.667 115.183 179.94 115.37 180.3C115.557 180.653 115.65 181.08 115.65 181.58C115.65 182.053 115.553 182.477 115.36 182.85C115.173 183.217 114.897 183.503 114.53 183.71C114.163 183.917 113.727 184.02 113.22 184.02C112.527 184.02 111.98 183.867 111.58 183.56C111.187 183.253 110.91 182.827 110.75 182.28C110.597 181.727 110.52 181.047 110.52 180.24C110.52 179.02 110.73 178.1 111.15 177.48C111.57 176.853 112.233 176.54 113.14 176.54C113.84 176.54 114.383 176.73 114.77 177.11C115.157 177.49 115.38 177.963 115.44 178.53H114.14ZM113.12 180.35C112.767 180.35 112.47 180.453 112.23 180.66C111.99 180.867 111.87 181.167 111.87 181.56C111.87 181.953 111.98 182.263 112.2 182.49C112.427 182.717 112.743 182.83 113.15 182.83C113.51 182.83 113.793 182.72 114 182.5C114.213 182.28 114.32 181.983 114.32 181.61C114.32 181.223 114.217 180.917 114.01 180.69C113.81 180.463 113.513 180.35 113.12 180.35Z" fill="#A7A7A7"/>
<path d="M1.53 167.26C1.53 166.107 1.73667 165.203 2.15 164.55C2.57 163.897 3.26333 163.57 4.23 163.57C5.19667 163.57 5.88667 163.897 6.3 164.55C6.72 165.203 6.93 166.107 6.93 167.26C6.93 168.42 6.72 169.33 6.3 169.99C5.88667 170.65 5.19667 170.98 4.23 170.98C3.26333 170.98 2.57 170.65 2.15 169.99C1.73667 169.33 1.53 168.42 1.53 167.26ZM5.55 167.26C5.55 166.767 5.51667 166.353 5.45 166.02C5.39 165.68 5.26333 165.403 5.07 165.19C4.88333 164.977 4.60333 164.87 4.23 164.87C3.85667 164.87 3.57333 164.977 3.38 165.19C3.19333 165.403 3.06667 165.68 3 166.02C2.94 166.353 2.91 166.767 2.91 167.26C2.91 167.767 2.94 168.193 3 168.54C3.06 168.88 3.18667 169.157 3.38 169.37C3.57333 169.577 3.85667 169.68 4.23 169.68C4.60333 169.68 4.88667 169.577 5.08 169.37C5.27333 169.157 5.4 168.88 5.46 168.54C5.52 168.193 5.55 167.767 5.55 167.26ZM13.8177 171L11.9377 168.64V171H10.5377V163.6H11.9377V167.81L13.7977 165.46H15.6177L13.1777 168.24L15.6377 171H13.8177Z" fill="#A7A7A7"/>
<path d="M5.43 148.92H2.19V150.63C2.33 150.457 2.53 150.317 2.79 150.21C3.05 150.097 3.32667 150.04 3.62 150.04C4.15333 150.04 4.59 150.157 4.93 150.39C5.27 150.623 5.51667 150.923 5.67 151.29C5.82333 151.65 5.9 152.037 5.9 152.45C5.9 153.217 5.68 153.833 5.24 154.3C4.80667 154.767 4.18667 155 3.38 155C2.62 155 2.01333 154.81 1.56 154.43C1.10667 154.05 0.85 153.553 0.79 152.94H2.15C2.21 153.207 2.34333 153.42 2.55 153.58C2.76333 153.74 3.03333 153.82 3.36 153.82C3.75333 153.82 4.05 153.697 4.25 153.45C4.45 153.203 4.55 152.877 4.55 152.47C4.55 152.057 4.44667 151.743 4.24 151.53C4.04 151.31 3.74333 151.2 3.35 151.2C3.07 151.2 2.83667 151.27 2.65 151.41C2.46333 151.55 2.33 151.737 2.25 151.97H0.91V147.69H5.43V148.92ZM6.96555 151.26C6.96555 150.107 7.17221 149.203 7.58555 148.55C8.00555 147.897 8.69888 147.57 9.66555 147.57C10.6322 147.57 11.3222 147.897 11.7355 148.55C12.1555 149.203 12.3655 150.107 12.3655 151.26C12.3655 152.42 12.1555 153.33 11.7355 153.99C11.3222 154.65 10.6322 154.98 9.66555 154.98C8.69888 154.98 8.00555 154.65 7.58555 153.99C7.17221 153.33 6.96555 152.42 6.96555 151.26ZM10.9855 151.26C10.9855 150.767 10.9522 150.353 10.8855 150.02C10.8255 149.68 10.6989 149.403 10.5055 149.19C10.3189 148.977 10.0389 148.87 9.66555 148.87C9.29221 148.87 9.00888 148.977 8.81555 149.19C8.62888 149.403 8.50221 149.68 8.43555 150.02C8.37555 150.353 8.34555 150.767 8.34555 151.26C8.34555 151.767 8.37555 152.193 8.43555 152.54C8.49555 152.88 8.62221 153.157 8.81555 153.37C9.00888 153.577 9.29221 153.68 9.66555 153.68C10.0389 153.68 10.3222 153.577 10.5155 153.37C10.7089 153.157 10.8355 152.88 10.8955 152.54C10.9555 152.193 10.9855 151.767 10.9855 151.26ZM13.4304 151.26C13.4304 150.107 13.6371 149.203 14.0504 148.55C14.4704 147.897 15.1637 147.57 16.1304 147.57C17.0971 147.57 17.7871 147.897 18.2004 148.55C18.6204 149.203 18.8304 150.107 18.8304 151.26C18.8304 152.42 18.6204 153.33 18.2004 153.99C17.7871 154.65 17.0971 154.98 16.1304 154.98C15.1637 154.98 14.4704 154.65 14.0504 153.99C13.6371 153.33 13.4304 152.42 13.4304 151.26ZM17.4504 151.26C17.4504 150.767 17.4171 150.353 17.3504 150.02C17.2904 149.68 17.1637 149.403 16.9704 149.19C16.7837 148.977 16.5037 148.87 16.1304 148.87C15.7571 148.87 15.4737 148.977 15.2804 149.19C15.0937 149.403 14.9671 149.68 14.9004 150.02C14.8404 150.353 14.8104 150.767 14.8104 151.26C14.8104 151.767 14.8404 152.193 14.9004 152.54C14.9604 152.88 15.0871 153.157 15.2804 153.37C15.4737 153.577 15.7571 153.68 16.1304 153.68C16.5037 153.68 16.7871 153.577 16.9804 153.37C17.1737 153.157 17.3004 152.88 17.3604 152.54C17.4204 152.193 17.4504 151.767 17.4504 151.26ZM23.3352 155L21.4552 152.64V155H20.0552V147.6H21.4552V151.81L23.3152 149.46H25.1352L22.6952 152.24L25.1552 155H23.3352Z" fill="#A7A7A7"/>
<path d="M0.36 134V132.71H2.77V140H1.33V134H0.36ZM11.923 133.02V140H10.523V135.46L8.65305 140H7.59305L5.71305 135.46V140H4.31305V133.02H5.90305L8.12305 138.21L10.343 133.02H11.923Z" fill="#A7A7A7"/>
<path d="M0.36 117V115.71H2.77V123H1.33V117H0.36ZM4.93305 123.07C4.67971 123.07 4.46971 122.993 4.30305 122.84C4.14305 122.68 4.06305 122.483 4.06305 122.25C4.06305 122.017 4.14305 121.823 4.30305 121.67C4.46971 121.51 4.67971 121.43 4.93305 121.43C5.17971 121.43 5.38305 121.51 5.54305 121.67C5.70305 121.823 5.78305 122.017 5.78305 122.25C5.78305 122.483 5.70305 122.68 5.54305 122.84C5.38305 122.993 5.17971 123.07 4.93305 123.07ZM11.6507 116.92H8.4107V118.63C8.5507 118.457 8.7507 118.317 9.0107 118.21C9.2707 118.097 9.54737 118.04 9.8407 118.04C10.374 118.04 10.8107 118.157 11.1507 118.39C11.4907 118.623 11.7374 118.923 11.8907 119.29C12.044 119.65 12.1207 120.037 12.1207 120.45C12.1207 121.217 11.9007 121.833 11.4607 122.3C11.0274 122.767 10.4074 123 9.6007 123C8.8407 123 8.23404 122.81 7.7807 122.43C7.32737 122.05 7.0707 121.553 7.0107 120.94H8.3707C8.4307 121.207 8.56404 121.42 8.7707 121.58C8.98404 121.74 9.25404 121.82 9.5807 121.82C9.97404 121.82 10.2707 121.697 10.4707 121.45C10.6707 121.203 10.7707 120.877 10.7707 120.47C10.7707 120.057 10.6674 119.743 10.4607 119.53C10.2607 119.31 9.96404 119.2 9.5707 119.2C9.2907 119.2 9.05737 119.27 8.8707 119.41C8.68404 119.55 8.5507 119.737 8.4707 119.97H7.1307V115.69H11.6507V116.92ZM20.9563 116.02V123H19.5563V118.46L17.6863 123H16.6263L14.7463 118.46V123H13.3463V116.02H14.9363L17.1563 121.21L19.3763 116.02H20.9563Z" fill="#A7A7A7"/>
<path d="M0.97 107.42C1.61 106.887 2.12 106.443 2.5 106.09C2.88 105.73 3.19667 105.357 3.45 104.97C3.70333 104.583 3.83 104.203 3.83 103.83C3.83 103.49 3.75 103.223 3.59 103.03C3.43 102.837 3.18333 102.74 2.85 102.74C2.51667 102.74 2.26 102.853 2.08 103.08C1.9 103.3 1.80667 103.603 1.8 103.99H0.44C0.466667 103.19 0.703333 102.583 1.15 102.17C1.60333 101.757 2.17667 101.55 2.87 101.55C3.63 101.55 4.21333 101.753 4.62 102.16C5.02667 102.56 5.23 103.09 5.23 103.75C5.23 104.27 5.09 104.767 4.81 105.24C4.53 105.713 4.21 106.127 3.85 106.48C3.49 106.827 3.02 107.247 2.44 107.74H5.39V108.9H0.45V107.86L0.97 107.42ZM14.0422 102.02V109H12.6422V104.46L10.7722 109H9.71219L7.83219 104.46V109H6.43219V102.02H8.02219L10.2422 107.21L12.4622 102.02H14.0422Z" fill="#A7A7A7"/>
<path d="M0.97 92.42C1.61 91.8867 2.12 91.4433 2.5 91.09C2.88 90.73 3.19667 90.3567 3.45 89.97C3.70333 89.5833 3.83 89.2033 3.83 88.83C3.83 88.49 3.75 88.2233 3.59 88.03C3.43 87.8367 3.18333 87.74 2.85 87.74C2.51667 87.74 2.26 87.8533 2.08 88.08C1.9 88.3 1.80667 88.6033 1.8 88.99H0.44C0.466667 88.19 0.703333 87.5833 1.15 87.17C1.60333 86.7567 2.17667 86.55 2.87 86.55C3.63 86.55 4.21333 86.7533 4.62 87.16C5.02667 87.56 5.23 88.09 5.23 88.75C5.23 89.27 5.09 89.7667 4.81 90.24C4.53 90.7133 4.21 91.1267 3.85 91.48C3.49 91.8267 3.02 92.2467 2.44 92.74H5.39V93.9H0.45V92.86L0.97 92.42ZM7.05219 94.07C6.79885 94.07 6.58885 93.9933 6.42219 93.84C6.26219 93.68 6.18219 93.4833 6.18219 93.25C6.18219 93.0167 6.26219 92.8233 6.42219 92.67C6.58885 92.51 6.79885 92.43 7.05219 92.43C7.29885 92.43 7.50219 92.51 7.66219 92.67C7.82219 92.8233 7.90219 93.0167 7.90219 93.25C7.90219 93.4833 7.82219 93.68 7.66219 93.84C7.50219 93.9933 7.29885 94.07 7.05219 94.07ZM13.7698 87.92H10.5298V89.63C10.6698 89.4567 10.8698 89.3167 11.1298 89.21C11.3898 89.0967 11.6665 89.04 11.9598 89.04C12.4932 89.04 12.9298 89.1567 13.2698 89.39C13.6098 89.6233 13.8565 89.9233 14.0098 90.29C14.1632 90.65 14.2398 91.0367 14.2398 91.45C14.2398 92.2167 14.0198 92.8333 13.5798 93.3C13.1465 93.7667 12.5265 94 11.7198 94C10.9598 94 10.3532 93.81 9.89984 93.43C9.44651 93.05 9.18984 92.5533 9.12984 91.94H10.4898C10.5498 92.2067 10.6832 92.42 10.8898 92.58C11.1032 92.74 11.3732 92.82 11.6998 92.82C12.0932 92.82 12.3898 92.6967 12.5898 92.45C12.7898 92.2033 12.8898 91.8767 12.8898 91.47C12.8898 91.0567 12.7865 90.7433 12.5798 90.53C12.3798 90.31 12.0832 90.2 11.6898 90.2C11.4098 90.2 11.1765 90.27 10.9898 90.41C10.8032 90.55 10.6698 90.7367 10.5898 90.97H9.24984V86.69H13.7698V87.92ZM23.0754 87.02V94H21.6754V89.46L19.8054 94H18.7454L16.8654 89.46V94H15.4654V87.02H17.0554L19.2754 92.21L21.4954 87.02H23.0754Z" fill="#A7A7A7"/>
<path d="M0.55 72.63C0.583333 71.9633 0.816667 71.45 1.25 71.09C1.69 70.7233 2.26667 70.54 2.98 70.54C3.46667 70.54 3.88333 70.6267 4.23 70.8C4.57667 70.9667 4.83667 71.1967 5.01 71.49C5.19 71.7767 5.28 72.1033 5.28 72.47C5.28 72.89 5.17 73.2467 4.95 73.54C4.73667 73.8267 4.48 74.02 4.18 74.12V74.16C4.56667 74.28 4.86667 74.4933 5.08 74.8C5.3 75.1067 5.41 75.5 5.41 75.98C5.41 76.38 5.31667 76.7367 5.13 77.05C4.95 77.3633 4.68 77.61 4.32 77.79C3.96667 77.9633 3.54 78.05 3.04 78.05C2.28667 78.05 1.67333 77.86 1.2 77.48C0.726667 77.1 0.476667 76.54 0.45 75.8H1.81C1.82333 76.1267 1.93333 76.39 2.14 76.59C2.35333 76.7833 2.64333 76.88 3.01 76.88C3.35 76.88 3.61 76.7867 3.79 76.6C3.97667 76.4067 4.07 76.16 4.07 75.86C4.07 75.46 3.94333 75.1733 3.69 75C3.43667 74.8267 3.04333 74.74 2.51 74.74H2.22V73.59H2.51C3.45667 73.59 3.93 73.2733 3.93 72.64C3.93 72.3533 3.84333 72.13 3.67 71.97C3.50333 71.81 3.26 71.73 2.94 71.73C2.62667 71.73 2.38333 71.8167 2.21 71.99C2.04333 72.1567 1.94667 72.37 1.92 72.63H0.55ZM14.2863 71.02V78H12.8863V73.46L11.0163 78H9.95633L8.07633 73.46V78H6.67633V71.02H8.26633L10.4863 76.21L12.7063 71.02H14.2863Z" fill="#A7A7A7"/>
<path d="M1.55 57.63C1.58333 56.9633 1.81667 56.45 2.25 56.09C2.69 55.7233 3.26667 55.54 3.98 55.54C4.46667 55.54 4.88333 55.6267 5.23 55.8C5.57667 55.9667 5.83667 56.1967 6.01 56.49C6.19 56.7767 6.28 57.1033 6.28 57.47C6.28 57.89 6.17 58.2467 5.95 58.54C5.73667 58.8267 5.48 59.02 5.18 59.12V59.16C5.56667 59.28 5.86667 59.4933 6.08 59.8C6.3 60.1067 6.41 60.5 6.41 60.98C6.41 61.38 6.31667 61.7367 6.13 62.05C5.95 62.3633 5.68 62.61 5.32 62.79C4.96667 62.9633 4.54 63.05 4.04 63.05C3.28667 63.05 2.67333 62.86 2.2 62.48C1.72667 62.1 1.47667 61.54 1.45 60.8H2.81C2.82333 61.1267 2.93333 61.39 3.14 61.59C3.35333 61.7833 3.64333 61.88 4.01 61.88C4.35 61.88 4.61 61.7867 4.79 61.6C4.97667 61.4067 5.07 61.16 5.07 60.86C5.07 60.46 4.94333 60.1733 4.69 60C4.43667 59.8267 4.04333 59.74 3.51 59.74H3.22V58.59H3.51C4.45667 58.59 4.93 58.2733 4.93 57.64C4.93 57.3533 4.84333 57.13 4.67 56.97C4.50333 56.81 4.26 56.73 3.94 56.73C3.62667 56.73 3.38333 56.8167 3.21 56.99C3.04333 57.1567 2.94667 57.37 2.92 57.63H1.55ZM8.29633 63.07C8.04299 63.07 7.83299 62.9933 7.66633 62.84C7.50633 62.68 7.42633 62.4833 7.42633 62.25C7.42633 62.0167 7.50633 61.8233 7.66633 61.67C7.83299 61.51 8.04299 61.43 8.29633 61.43C8.54299 61.43 8.74633 61.51 8.90633 61.67C9.06633 61.8233 9.14633 62.0167 9.14633 62.25C9.14633 62.4833 9.06633 62.68 8.90633 62.84C8.74633 62.9933 8.54299 63.07 8.29633 63.07ZM15.014 56.92H11.774V58.63C11.914 58.4567 12.114 58.3167 12.374 58.21C12.634 58.0967 12.9107 58.04 13.204 58.04C13.7373 58.04 14.174 58.1567 14.514 58.39C14.854 58.6233 15.1007 58.9233 15.254 59.29C15.4073 59.65 15.484 60.0367 15.484 60.45C15.484 61.2167 15.264 61.8333 14.824 62.3C14.3907 62.7667 13.7707 63 12.964 63C12.204 63 11.5973 62.81 11.144 62.43C10.6907 62.05 10.434 61.5533 10.374 60.94H11.734C11.794 61.2067 11.9273 61.42 12.134 61.58C12.3473 61.74 12.6173 61.82 12.944 61.82C13.3373 61.82 13.634 61.6967 13.834 61.45C14.034 61.2033 14.134 60.8767 14.134 60.47C14.134 60.0567 14.0307 59.7433 13.824 59.53C13.624 59.31 13.3273 59.2 12.934 59.2C12.654 59.2 12.4207 59.27 12.234 59.41C12.0473 59.55 11.914 59.7367 11.834 59.97H10.494V55.69H15.014V56.92ZM24.3195 56.02V63H22.9195V58.46L21.0495 63H19.9895L18.1095 58.46V63H16.7095V56.02H18.2995L20.5195 61.21L22.7395 56.02H24.3195Z" fill="#A7A7A7"/>
<path d="M0.47 45.58V44.48L3.74 39.8H5.37V44.36H6.25V45.58H5.37V47H3.97V45.58H0.47ZM4.06 41.3L2.01 44.36H4.06V41.3ZM14.9113 40.02V47H13.5113V42.46L11.6413 47H10.5813L8.70133 42.46V47H7.30133V40.02H8.89133L11.1113 45.21L13.3313 40.02H14.9113Z" fill="#A7A7A7"/>
<path d="M57 135.5L78.5 139.5L100 143.5L149.5 104.5L203.5 95.5L254 113L307 127.5L358.5 80.5" stroke="#FF0000"/>
</svg>
