<svg width="377" height="201" viewBox="0 0 377 201" fill="none" xmlns="http://www.w3.org/2000/svg">
<line x1="32" y1="179.5" x2="377" y2="179.5" stroke="#CECECE"/>
<line x1="32" y1="179.5" x2="377" y2="179.5" stroke="#CECECE"/>
<line x1="32" y1="161.5" x2="377" y2="161.5" stroke="#CECECE"/>
<line x1="32" y1="161.5" x2="377" y2="161.5" stroke="#CECECE"/>
<line x1="32" y1="143.5" x2="377" y2="143.5" stroke="#CECECE"/>
<line x1="32" y1="143.5" x2="377" y2="143.5" stroke="#CECECE"/>
<line x1="32" y1="125.5" x2="377" y2="125.5" stroke="#CECECE"/>
<line x1="32" y1="125.5" x2="377" y2="125.5" stroke="#CECECE"/>
<line x1="32" y1="109.5" x2="377" y2="109.5" stroke="#CECECE"/>
<line x1="32" y1="109.5" x2="377" y2="109.5" stroke="#CECECE"/>
<line x1="32" y1="91.5" x2="377" y2="91.5" stroke="#CECECE"/>
<line x1="32" y1="91.5" x2="377" y2="91.5" stroke="#CECECE"/>
<line x1="32" y1="73.5" x2="377" y2="73.5" stroke="#CECECE"/>
<line x1="32" y1="73.5" x2="377" y2="73.5" stroke="#CECECE"/>
<line x1="32" y1="57.5" x2="377" y2="57.5" stroke="#CECECE"/>
<line x1="32" y1="57.5" x2="377" y2="57.5" stroke="#CECECE"/>
<line x1="32" y1="39.5" x2="377" y2="39.5" stroke="#CECECE"/>
<line x1="32" y1="39.5" x2="377" y2="39.5" stroke="#CECECE"/>
<path d="M42.76 191.02V195.92C42.76 196.6 42.5633 197.13 42.17 197.51C41.7767 197.883 41.25 198.07 40.59 198.07C39.9233 198.07 39.3833 197.877 38.97 197.49C38.5633 197.103 38.36 196.563 38.36 195.87H39.76C39.7667 196.17 39.8367 196.403 39.97 196.57C40.11 196.737 40.31 196.82 40.57 196.82C40.8233 196.82 41.0167 196.74 41.15 196.58C41.2833 196.42 41.35 196.2 41.35 195.92V191.02H42.76ZM44.0331 195.21C44.0331 194.65 44.1431 194.153 44.3631 193.72C44.5898 193.287 44.8931 192.953 45.2731 192.72C45.6598 192.487 46.0898 192.37 46.5631 192.37C46.9765 192.37 47.3365 192.453 47.6431 192.62C47.9565 192.787 48.2065 192.997 48.3931 193.25V192.46H49.8031V198H48.3931V197.19C48.2131 197.45 47.9631 197.667 47.6431 197.84C47.3298 198.007 46.9665 198.09 46.5531 198.09C46.0865 198.09 45.6598 197.97 45.2731 197.73C44.8931 197.49 44.5898 197.153 44.3631 196.72C44.1431 196.28 44.0331 195.777 44.0331 195.21ZM48.3931 195.23C48.3931 194.89 48.3265 194.6 48.1931 194.36C48.0598 194.113 47.8798 193.927 47.6531 193.8C47.4265 193.667 47.1831 193.6 46.9231 193.6C46.6631 193.6 46.4231 193.663 46.2031 193.79C45.9831 193.917 45.8031 194.103 45.6631 194.35C45.5298 194.59 45.4631 194.877 45.4631 195.21C45.4631 195.543 45.5298 195.837 45.6631 196.09C45.8031 196.337 45.9831 196.527 46.2031 196.66C46.4298 196.793 46.6698 196.86 46.9231 196.86C47.1831 196.86 47.4265 196.797 47.6531 196.67C47.8798 196.537 48.0598 196.35 48.1931 196.11C48.3265 195.863 48.3931 195.57 48.3931 195.23ZM54.2405 192.38C54.9005 192.38 55.4338 192.59 55.8405 193.01C56.2471 193.423 56.4505 194.003 56.4505 194.75V198H55.0505V194.94C55.0505 194.5 54.9405 194.163 54.7205 193.93C54.5005 193.69 54.2005 193.57 53.8205 193.57C53.4338 193.57 53.1271 193.69 52.9005 193.93C52.6805 194.163 52.5705 194.5 52.5705 194.94V198H51.1705V192.46H52.5705V193.15C52.7571 192.91 52.9938 192.723 53.2805 192.59C53.5738 192.45 53.8938 192.38 54.2405 192.38ZM58.4018 198.07C58.1485 198.07 57.9385 197.993 57.7718 197.84C57.6118 197.68 57.5318 197.483 57.5318 197.25C57.5318 197.017 57.6118 196.823 57.7718 196.67C57.9385 196.51 58.1485 196.43 58.4018 196.43C58.6485 196.43 58.8518 196.51 59.0118 196.67C59.1718 196.823 59.2518 197.017 59.2518 197.25C59.2518 197.483 59.1718 197.68 59.0118 197.84C58.8518 197.993 58.6485 198.07 58.4018 198.07Z" fill="#A7A7A7"/>
<path d="M106.3 191.02V198H104.9V193.46L103.03 198H101.97L100.09 193.46V198H98.69V191.02H100.28L102.5 196.21L104.72 191.02H106.3ZM107.324 195.21C107.324 194.65 107.434 194.153 107.654 193.72C107.881 193.287 108.184 192.953 108.564 192.72C108.951 192.487 109.381 192.37 109.854 192.37C110.267 192.37 110.627 192.453 110.934 192.62C111.247 192.787 111.497 192.997 111.684 193.25V192.46H113.094V198H111.684V197.19C111.504 197.45 111.254 197.667 110.934 197.84C110.621 198.007 110.257 198.09 109.844 198.09C109.377 198.09 108.951 197.97 108.564 197.73C108.184 197.49 107.881 197.153 107.654 196.72C107.434 196.28 107.324 195.777 107.324 195.21ZM111.684 195.23C111.684 194.89 111.617 194.6 111.484 194.36C111.351 194.113 111.171 193.927 110.944 193.8C110.717 193.667 110.474 193.6 110.214 193.6C109.954 193.6 109.714 193.663 109.494 193.79C109.274 193.917 109.094 194.103 108.954 194.35C108.821 194.59 108.754 194.877 108.754 195.21C108.754 195.543 108.821 195.837 108.954 196.09C109.094 196.337 109.274 196.527 109.494 196.66C109.721 196.793 109.961 196.86 110.214 196.86C110.474 196.86 110.717 196.797 110.944 196.67C111.171 196.537 111.351 196.35 111.484 196.11C111.617 195.863 111.684 195.57 111.684 195.23ZM115.861 193.32C116.041 193.027 116.275 192.797 116.561 192.63C116.855 192.463 117.188 192.38 117.561 192.38V193.85H117.191C116.751 193.85 116.418 193.953 116.191 194.16C115.971 194.367 115.861 194.727 115.861 195.24V198H114.461V192.46H115.861V193.32ZM119.124 198.07C118.871 198.07 118.661 197.993 118.494 197.84C118.334 197.68 118.254 197.483 118.254 197.25C118.254 197.017 118.334 196.823 118.494 196.67C118.661 196.51 118.871 196.43 119.124 196.43C119.371 196.43 119.574 196.51 119.734 196.67C119.894 196.823 119.974 197.017 119.974 197.25C119.974 197.483 119.894 197.68 119.734 197.84C119.574 197.993 119.371 198.07 119.124 198.07Z" fill="#A7A7A7"/>
<path d="M358.13 191.02C358.863 191.02 359.507 191.163 360.06 191.45C360.62 191.737 361.05 192.147 361.35 192.68C361.657 193.207 361.81 193.82 361.81 194.52C361.81 195.22 361.657 195.833 361.35 196.36C361.05 196.88 360.62 197.283 360.06 197.57C359.507 197.857 358.863 198 358.13 198H355.69V191.02H358.13ZM358.08 196.81C358.813 196.81 359.38 196.61 359.78 196.21C360.18 195.81 360.38 195.247 360.38 194.52C360.38 193.793 360.18 193.227 359.78 192.82C359.38 192.407 358.813 192.2 358.08 192.2H357.09V196.81H358.08ZM368.008 195.11C368.008 195.31 367.995 195.49 367.968 195.65H363.918C363.951 196.05 364.091 196.363 364.338 196.59C364.585 196.817 364.888 196.93 365.248 196.93C365.768 196.93 366.138 196.707 366.358 196.26H367.868C367.708 196.793 367.401 197.233 366.948 197.58C366.495 197.92 365.938 198.09 365.278 198.09C364.745 198.09 364.265 197.973 363.838 197.74C363.418 197.5 363.088 197.163 362.848 196.73C362.615 196.297 362.498 195.797 362.498 195.23C362.498 194.657 362.615 194.153 362.848 193.72C363.081 193.287 363.408 192.953 363.828 192.72C364.248 192.487 364.731 192.37 365.278 192.37C365.805 192.37 366.275 192.483 366.688 192.71C367.108 192.937 367.431 193.26 367.658 193.68C367.891 194.093 368.008 194.57 368.008 195.11ZM366.558 194.71C366.551 194.35 366.421 194.063 366.168 193.85C365.915 193.63 365.605 193.52 365.238 193.52C364.891 193.52 364.598 193.627 364.358 193.84C364.125 194.047 363.981 194.337 363.928 194.71H366.558ZM368.67 195.23C368.67 194.657 368.787 194.157 369.02 193.73C369.253 193.297 369.577 192.963 369.99 192.73C370.403 192.49 370.877 192.37 371.41 192.37C372.097 192.37 372.663 192.543 373.11 192.89C373.563 193.23 373.867 193.71 374.02 194.33H372.51C372.43 194.09 372.293 193.903 372.1 193.77C371.913 193.63 371.68 193.56 371.4 193.56C371 193.56 370.683 193.707 370.45 194C370.217 194.287 370.1 194.697 370.1 195.23C370.1 195.757 370.217 196.167 370.45 196.46C370.683 196.747 371 196.89 371.4 196.89C371.967 196.89 372.337 196.637 372.51 196.13H374.02C373.867 196.73 373.563 197.207 373.11 197.56C372.657 197.913 372.09 198.09 371.41 198.09C370.877 198.09 370.403 197.973 369.99 197.74C369.577 197.5 369.253 197.167 369.02 196.74C368.787 196.307 368.67 195.803 368.67 195.23ZM375.665 198.07C375.412 198.07 375.202 197.993 375.035 197.84C374.875 197.68 374.795 197.483 374.795 197.25C374.795 197.017 374.875 196.823 375.035 196.67C375.202 196.51 375.412 196.43 375.665 196.43C375.912 196.43 376.115 196.51 376.275 196.67C376.435 196.823 376.515 197.017 376.515 197.25C376.515 197.483 376.435 197.68 376.275 197.84C376.115 197.993 375.912 198.07 375.665 198.07Z" fill="#A7A7A7"/>
<path d="M330.66 198H329.26L326.09 193.21V198H324.69V191.01H326.09L329.26 195.81V191.01H330.66V198ZM334.504 198.09C333.97 198.09 333.49 197.973 333.064 197.74C332.637 197.5 332.3 197.163 332.054 196.73C331.814 196.297 331.694 195.797 331.694 195.23C331.694 194.663 331.817 194.163 332.064 193.73C332.317 193.297 332.66 192.963 333.094 192.73C333.527 192.49 334.01 192.37 334.544 192.37C335.077 192.37 335.56 192.49 335.994 192.73C336.427 192.963 336.767 193.297 337.014 193.73C337.267 194.163 337.394 194.663 337.394 195.23C337.394 195.797 337.264 196.297 337.004 196.73C336.75 197.163 336.404 197.5 335.964 197.74C335.53 197.973 335.044 198.09 334.504 198.09ZM334.504 196.87C334.757 196.87 334.994 196.81 335.214 196.69C335.44 196.563 335.62 196.377 335.754 196.13C335.887 195.883 335.954 195.583 335.954 195.23C335.954 194.703 335.814 194.3 335.534 194.02C335.26 193.733 334.924 193.59 334.524 193.59C334.124 193.59 333.787 193.733 333.514 194.02C333.247 194.3 333.114 194.703 333.114 195.23C333.114 195.757 333.244 196.163 333.504 196.45C333.77 196.73 334.104 196.87 334.504 196.87ZM340.73 196.71L342.13 192.46H343.62L341.57 198H339.87L337.83 192.46H339.33L340.73 196.71ZM345.027 198.07C344.773 198.07 344.563 197.993 344.397 197.84C344.237 197.68 344.157 197.483 344.157 197.25C344.157 197.017 344.237 196.823 344.397 196.67C344.563 196.51 344.773 196.43 345.027 196.43C345.273 196.43 345.477 196.51 345.637 196.67C345.797 196.823 345.877 197.017 345.877 197.25C345.877 197.483 345.797 197.68 345.637 197.84C345.477 197.993 345.273 198.07 345.027 198.07Z" fill="#A7A7A7"/>
<path d="M302.93 198.07C302.277 198.07 301.677 197.917 301.13 197.61C300.583 197.303 300.15 196.88 299.83 196.34C299.51 195.793 299.35 195.177 299.35 194.49C299.35 193.81 299.51 193.2 299.83 192.66C300.15 192.113 300.583 191.687 301.13 191.38C301.677 191.073 302.277 190.92 302.93 190.92C303.59 190.92 304.19 191.073 304.73 191.38C305.277 191.687 305.707 192.113 306.02 192.66C306.34 193.2 306.5 193.81 306.5 194.49C306.5 195.177 306.34 195.793 306.02 196.34C305.707 196.88 305.277 197.303 304.73 197.61C304.183 197.917 303.583 198.07 302.93 198.07ZM302.93 196.82C303.35 196.82 303.72 196.727 304.04 196.54C304.36 196.347 304.61 196.073 304.79 195.72C304.97 195.367 305.06 194.957 305.06 194.49C305.06 194.023 304.97 193.617 304.79 193.27C304.61 192.917 304.36 192.647 304.04 192.46C303.72 192.273 303.35 192.18 302.93 192.18C302.51 192.18 302.137 192.273 301.81 192.46C301.49 192.647 301.24 192.917 301.06 193.27C300.88 193.617 300.79 194.023 300.79 194.49C300.79 194.957 300.88 195.367 301.06 195.72C301.24 196.073 301.49 196.347 301.81 196.54C302.137 196.727 302.51 196.82 302.93 196.82ZM307.182 195.23C307.182 194.657 307.298 194.157 307.532 193.73C307.765 193.297 308.088 192.963 308.502 192.73C308.915 192.49 309.388 192.37 309.922 192.37C310.608 192.37 311.175 192.543 311.622 192.89C312.075 193.23 312.378 193.71 312.532 194.33H311.022C310.942 194.09 310.805 193.903 310.612 193.77C310.425 193.63 310.192 193.56 309.912 193.56C309.512 193.56 309.195 193.707 308.962 194C308.728 194.287 308.612 194.697 308.612 195.23C308.612 195.757 308.728 196.167 308.962 196.46C309.195 196.747 309.512 196.89 309.912 196.89C310.478 196.89 310.848 196.637 311.022 196.13H312.532C312.378 196.73 312.075 197.207 311.622 197.56C311.168 197.913 310.602 198.09 309.922 198.09C309.388 198.09 308.915 197.973 308.502 197.74C308.088 197.5 307.765 197.167 307.532 196.74C307.298 196.307 307.182 195.803 307.182 195.23ZM315.187 193.61V196.29C315.187 196.477 315.231 196.613 315.317 196.7C315.411 196.78 315.564 196.82 315.777 196.82H316.427V198H315.547C314.367 198 313.777 197.427 313.777 196.28V193.61H313.117V192.46H313.777V191.09H315.187V192.46H316.427V193.61H315.187ZM318.054 198.07C317.801 198.07 317.591 197.993 317.424 197.84C317.264 197.68 317.184 197.483 317.184 197.25C317.184 197.017 317.264 196.823 317.424 196.67C317.591 196.51 317.801 196.43 318.054 196.43C318.301 196.43 318.504 196.51 318.664 196.67C318.824 196.823 318.904 197.017 318.904 197.25C318.904 197.483 318.824 197.68 318.664 197.84C318.504 197.993 318.301 198.07 318.054 198.07Z" fill="#A7A7A7"/>
<path d="M272.1 198.07C271.613 198.07 271.173 197.987 270.78 197.82C270.393 197.653 270.087 197.413 269.86 197.1C269.633 196.787 269.517 196.417 269.51 195.99H271.01C271.03 196.277 271.13 196.503 271.31 196.67C271.497 196.837 271.75 196.92 272.07 196.92C272.397 196.92 272.653 196.843 272.84 196.69C273.027 196.53 273.12 196.323 273.12 196.07C273.12 195.863 273.057 195.693 272.93 195.56C272.803 195.427 272.643 195.323 272.45 195.25C272.263 195.17 272.003 195.083 271.67 194.99C271.217 194.857 270.847 194.727 270.56 194.6C270.28 194.467 270.037 194.27 269.83 194.01C269.63 193.743 269.53 193.39 269.53 192.95C269.53 192.537 269.633 192.177 269.84 191.87C270.047 191.563 270.337 191.33 270.71 191.17C271.083 191.003 271.51 190.92 271.99 190.92C272.71 190.92 273.293 191.097 273.74 191.45C274.193 191.797 274.443 192.283 274.49 192.91H272.95C272.937 192.67 272.833 192.473 272.64 192.32C272.453 192.16 272.203 192.08 271.89 192.08C271.617 192.08 271.397 192.15 271.23 192.29C271.07 192.43 270.99 192.633 270.99 192.9C270.99 193.087 271.05 193.243 271.17 193.37C271.297 193.49 271.45 193.59 271.63 193.67C271.817 193.743 272.077 193.83 272.41 193.93C272.863 194.063 273.233 194.197 273.52 194.33C273.807 194.463 274.053 194.663 274.26 194.93C274.467 195.197 274.57 195.547 274.57 195.98C274.57 196.353 274.473 196.7 274.28 197.02C274.087 197.34 273.803 197.597 273.43 197.79C273.057 197.977 272.613 198.07 272.1 198.07ZM280.934 195.11C280.934 195.31 280.92 195.49 280.894 195.65H276.844C276.877 196.05 277.017 196.363 277.264 196.59C277.51 196.817 277.814 196.93 278.174 196.93C278.694 196.93 279.064 196.707 279.284 196.26H280.794C280.634 196.793 280.327 197.233 279.874 197.58C279.42 197.92 278.864 198.09 278.204 198.09C277.67 198.09 277.19 197.973 276.764 197.74C276.344 197.5 276.014 197.163 275.774 196.73C275.54 196.297 275.424 195.797 275.424 195.23C275.424 194.657 275.54 194.153 275.774 193.72C276.007 193.287 276.334 192.953 276.754 192.72C277.174 192.487 277.657 192.37 278.204 192.37C278.73 192.37 279.2 192.483 279.614 192.71C280.034 192.937 280.357 193.26 280.584 193.68C280.817 194.093 280.934 194.57 280.934 195.11ZM279.484 194.71C279.477 194.35 279.347 194.063 279.094 193.85C278.84 193.63 278.53 193.52 278.164 193.52C277.817 193.52 277.524 193.627 277.284 193.84C277.05 194.047 276.907 194.337 276.854 194.71H279.484ZM283.356 193.26C283.536 193.007 283.782 192.797 284.096 192.63C284.416 192.457 284.779 192.37 285.186 192.37C285.659 192.37 286.086 192.487 286.466 192.72C286.852 192.953 287.156 193.287 287.376 193.72C287.602 194.147 287.716 194.643 287.716 195.21C287.716 195.777 287.602 196.28 287.376 196.72C287.156 197.153 286.852 197.49 286.466 197.73C286.086 197.97 285.659 198.09 285.186 198.09C284.779 198.09 284.419 198.007 284.106 197.84C283.799 197.673 283.549 197.463 283.356 197.21V200.64H281.956V192.46H283.356V193.26ZM286.286 195.21C286.286 194.877 286.216 194.59 286.076 194.35C285.942 194.103 285.762 193.917 285.536 193.79C285.316 193.663 285.076 193.6 284.816 193.6C284.562 193.6 284.322 193.667 284.096 193.8C283.876 193.927 283.696 194.113 283.556 194.36C283.422 194.607 283.356 194.897 283.356 195.23C283.356 195.563 283.422 195.853 283.556 196.1C283.696 196.347 283.876 196.537 284.096 196.67C284.322 196.797 284.562 196.86 284.816 196.86C285.076 196.86 285.316 196.793 285.536 196.66C285.762 196.527 285.942 196.337 286.076 196.09C286.216 195.843 286.286 195.55 286.286 195.21ZM289.353 198.07C289.1 198.07 288.89 197.993 288.723 197.84C288.563 197.68 288.483 197.483 288.483 197.25C288.483 197.017 288.563 196.823 288.723 196.67C288.89 196.51 289.1 196.43 289.353 196.43C289.6 196.43 289.803 196.51 289.963 196.67C290.123 196.823 290.203 197.017 290.203 197.25C290.203 197.483 290.123 197.68 289.963 197.84C289.803 197.993 289.6 198.07 289.353 198.07Z" fill="#A7A7A7"/>
<path d="M242.97 196.67H240.19L239.73 198H238.26L240.77 191.01H242.4L244.91 198H243.43L242.97 196.67ZM242.59 195.55L241.58 192.63L240.57 195.55H242.59ZM251.078 192.46V198H249.668V197.3C249.488 197.54 249.252 197.73 248.958 197.87C248.672 198.003 248.358 198.07 248.018 198.07C247.585 198.07 247.202 197.98 246.868 197.8C246.535 197.613 246.272 197.343 246.078 196.99C245.892 196.63 245.798 196.203 245.798 195.71V192.46H247.198V195.51C247.198 195.95 247.308 196.29 247.528 196.53C247.748 196.763 248.048 196.88 248.428 196.88C248.815 196.88 249.118 196.763 249.338 196.53C249.558 196.29 249.668 195.95 249.668 195.51V192.46H251.078ZM254.63 192.37C255.043 192.37 255.406 192.453 255.72 192.62C256.033 192.78 256.28 192.99 256.46 193.25V192.46H257.87V198.04C257.87 198.553 257.766 199.01 257.56 199.41C257.353 199.817 257.043 200.137 256.63 200.37C256.216 200.61 255.716 200.73 255.13 200.73C254.343 200.73 253.696 200.547 253.19 200.18C252.69 199.813 252.406 199.313 252.34 198.68H253.73C253.803 198.933 253.96 199.133 254.2 199.28C254.446 199.433 254.743 199.51 255.09 199.51C255.496 199.51 255.826 199.387 256.08 199.14C256.333 198.9 256.46 198.533 256.46 198.04V197.18C256.28 197.44 256.03 197.657 255.71 197.83C255.396 198.003 255.036 198.09 254.63 198.09C254.163 198.09 253.736 197.97 253.35 197.73C252.963 197.49 252.656 197.153 252.43 196.72C252.21 196.28 252.1 195.777 252.1 195.21C252.1 194.65 252.21 194.153 252.43 193.72C252.656 193.287 252.96 192.953 253.34 192.72C253.726 192.487 254.156 192.37 254.63 192.37ZM256.46 195.23C256.46 194.89 256.393 194.6 256.26 194.36C256.126 194.113 255.946 193.927 255.72 193.8C255.493 193.667 255.25 193.6 254.99 193.6C254.73 193.6 254.49 193.663 254.27 193.79C254.05 193.917 253.87 194.103 253.73 194.35C253.596 194.59 253.53 194.877 253.53 195.21C253.53 195.543 253.596 195.837 253.73 196.09C253.87 196.337 254.05 196.527 254.27 196.66C254.496 196.793 254.736 196.86 254.99 196.86C255.25 196.86 255.493 196.797 255.72 196.67C255.946 196.537 256.126 196.35 256.26 196.11C256.393 195.863 256.46 195.57 256.46 195.23ZM259.857 198.07C259.604 198.07 259.394 197.993 259.227 197.84C259.067 197.68 258.987 197.483 258.987 197.25C258.987 197.017 259.067 196.823 259.227 196.67C259.394 196.51 259.604 196.43 259.857 196.43C260.104 196.43 260.307 196.51 260.467 196.67C260.627 196.823 260.707 197.017 260.707 197.25C260.707 197.483 260.627 197.68 260.467 197.84C260.307 197.993 260.104 198.07 259.857 198.07Z" fill="#A7A7A7"/>
<path d="M215.76 191.02V195.92C215.76 196.6 215.563 197.13 215.17 197.51C214.777 197.883 214.25 198.07 213.59 198.07C212.923 198.07 212.383 197.877 211.97 197.49C211.563 197.103 211.36 196.563 211.36 195.87H212.76C212.767 196.17 212.837 196.403 212.97 196.57C213.11 196.737 213.31 196.82 213.57 196.82C213.823 196.82 214.017 196.74 214.15 196.58C214.283 196.42 214.35 196.2 214.35 195.92V191.02H215.76ZM222.623 192.46V198H221.213V197.3C221.033 197.54 220.796 197.73 220.503 197.87C220.216 198.003 219.903 198.07 219.563 198.07C219.13 198.07 218.746 197.98 218.413 197.8C218.08 197.613 217.816 197.343 217.623 196.99C217.436 196.63 217.343 196.203 217.343 195.71V192.46H218.743V195.51C218.743 195.95 218.853 196.29 219.073 196.53C219.293 196.763 219.593 196.88 219.973 196.88C220.36 196.88 220.663 196.763 220.883 196.53C221.103 196.29 221.213 195.95 221.213 195.51V192.46H222.623ZM225.404 190.6V198H224.004V190.6H225.404ZM227.408 198.07C227.154 198.07 226.944 197.993 226.778 197.84C226.618 197.68 226.538 197.483 226.538 197.25C226.538 197.017 226.618 196.823 226.778 196.67C226.944 196.51 227.154 196.43 227.408 196.43C227.654 196.43 227.858 196.51 228.018 196.67C228.178 196.823 228.258 197.017 228.258 197.25C228.258 197.483 228.178 197.68 228.018 197.84C227.858 197.993 227.654 198.07 227.408 198.07Z" fill="#A7A7A7"/>
<path d="M189.76 191.02V195.92C189.76 196.6 189.563 197.13 189.17 197.51C188.777 197.883 188.25 198.07 187.59 198.07C186.923 198.07 186.383 197.877 185.97 197.49C185.563 197.103 185.36 196.563 185.36 195.87H186.76C186.767 196.17 186.837 196.403 186.97 196.57C187.11 196.737 187.31 196.82 187.57 196.82C187.823 196.82 188.017 196.74 188.15 196.58C188.283 196.42 188.35 196.2 188.35 195.92V191.02H189.76ZM196.623 192.46V198H195.213V197.3C195.033 197.54 194.796 197.73 194.503 197.87C194.216 198.003 193.903 198.07 193.563 198.07C193.13 198.07 192.746 197.98 192.413 197.8C192.08 197.613 191.816 197.343 191.623 196.99C191.436 196.63 191.343 196.203 191.343 195.71V192.46H192.743V195.51C192.743 195.95 192.853 196.29 193.073 196.53C193.293 196.763 193.593 196.88 193.973 196.88C194.36 196.88 194.663 196.763 194.883 196.53C195.103 196.29 195.213 195.95 195.213 195.51V192.46H196.623ZM201.074 192.38C201.734 192.38 202.268 192.59 202.674 193.01C203.081 193.423 203.284 194.003 203.284 194.75V198H201.884V194.94C201.884 194.5 201.774 194.163 201.554 193.93C201.334 193.69 201.034 193.57 200.654 193.57C200.268 193.57 199.961 193.69 199.734 193.93C199.514 194.163 199.404 194.5 199.404 194.94V198H198.004V192.46H199.404V193.15C199.591 192.91 199.828 192.723 200.114 192.59C200.408 192.45 200.728 192.38 201.074 192.38ZM205.236 198.07C204.982 198.07 204.772 197.993 204.606 197.84C204.446 197.68 204.366 197.483 204.366 197.25C204.366 197.017 204.446 196.823 204.606 196.67C204.772 196.51 204.982 196.43 205.236 196.43C205.482 196.43 205.686 196.51 205.846 196.67C206.006 196.823 206.086 197.017 206.086 197.25C206.086 197.483 206.006 197.68 205.846 197.84C205.686 197.993 205.482 198.07 205.236 198.07Z" fill="#A7A7A7"/>
<path d="M160.3 191.02V198H158.9V193.46L157.03 198H155.97L154.09 193.46V198H152.69V191.02H154.28L156.5 196.21L158.72 191.02H160.3ZM161.324 195.21C161.324 194.65 161.434 194.153 161.654 193.72C161.881 193.287 162.184 192.953 162.564 192.72C162.951 192.487 163.381 192.37 163.854 192.37C164.267 192.37 164.627 192.453 164.934 192.62C165.247 192.787 165.497 192.997 165.684 193.25V192.46H167.094V198H165.684V197.19C165.504 197.45 165.254 197.667 164.934 197.84C164.621 198.007 164.257 198.09 163.844 198.09C163.377 198.09 162.951 197.97 162.564 197.73C162.184 197.49 161.881 197.153 161.654 196.72C161.434 196.28 161.324 195.777 161.324 195.21ZM165.684 195.23C165.684 194.89 165.617 194.6 165.484 194.36C165.351 194.113 165.171 193.927 164.944 193.8C164.717 193.667 164.474 193.6 164.214 193.6C163.954 193.6 163.714 193.663 163.494 193.79C163.274 193.917 163.094 194.103 162.954 194.35C162.821 194.59 162.754 194.877 162.754 195.21C162.754 195.543 162.821 195.837 162.954 196.09C163.094 196.337 163.274 196.527 163.494 196.66C163.721 196.793 163.961 196.86 164.214 196.86C164.474 196.86 164.717 196.797 164.944 196.67C165.171 196.537 165.351 196.35 165.484 196.11C165.617 195.863 165.684 195.57 165.684 195.23ZM173.761 192.46L170.331 200.62H168.841L170.041 197.86L167.821 192.46H169.391L170.821 196.33L172.271 192.46H173.761Z" fill="#A7A7A7"/>
<path d="M129.97 196.67H127.19L126.73 198H125.26L127.77 191.01H129.4L131.91 198H130.43L129.97 196.67ZM129.59 195.55L128.58 192.63L127.57 195.55H129.59ZM134.248 193.26C134.428 193.007 134.675 192.797 134.988 192.63C135.308 192.457 135.672 192.37 136.078 192.37C136.552 192.37 136.978 192.487 137.358 192.72C137.745 192.953 138.048 193.287 138.268 193.72C138.495 194.147 138.608 194.643 138.608 195.21C138.608 195.777 138.495 196.28 138.268 196.72C138.048 197.153 137.745 197.49 137.358 197.73C136.978 197.97 136.552 198.09 136.078 198.09C135.672 198.09 135.312 198.007 134.998 197.84C134.692 197.673 134.442 197.463 134.248 197.21V200.64H132.848V192.46H134.248V193.26ZM137.178 195.21C137.178 194.877 137.108 194.59 136.968 194.35C136.835 194.103 136.655 193.917 136.428 193.79C136.208 193.663 135.968 193.6 135.708 193.6C135.455 193.6 135.215 193.667 134.988 193.8C134.768 193.927 134.588 194.113 134.448 194.36C134.315 194.607 134.248 194.897 134.248 195.23C134.248 195.563 134.315 195.853 134.448 196.1C134.588 196.347 134.768 196.537 134.988 196.67C135.215 196.797 135.455 196.86 135.708 196.86C135.968 196.86 136.208 196.793 136.428 196.66C136.655 196.527 136.835 196.337 136.968 196.09C137.108 195.843 137.178 195.55 137.178 195.21ZM141.026 193.32C141.206 193.027 141.439 192.797 141.726 192.63C142.019 192.463 142.352 192.38 142.726 192.38V193.85H142.356C141.916 193.85 141.582 193.953 141.356 194.16C141.136 194.367 141.026 194.727 141.026 195.24V198H139.626V192.46H141.026V193.32ZM144.289 198.07C144.035 198.07 143.825 197.993 143.659 197.84C143.499 197.68 143.419 197.483 143.419 197.25C143.419 197.017 143.499 196.823 143.659 196.67C143.825 196.51 144.035 196.43 144.289 196.43C144.535 196.43 144.739 196.51 144.899 196.67C145.059 196.823 145.139 197.017 145.139 197.25C145.139 197.483 145.059 197.68 144.899 197.84C144.739 197.993 144.535 198.07 144.289 198.07Z" fill="#A7A7A7"/>
<path d="M73 191.02V192.15H70.09V193.94H72.32V195.05H70.09V198H68.69V191.02H73ZM79.1427 195.11C79.1427 195.31 79.1294 195.49 79.1027 195.65H75.0527C75.0861 196.05 75.2261 196.363 75.4727 196.59C75.7194 196.817 76.0227 196.93 76.3827 196.93C76.9027 196.93 77.2727 196.707 77.4927 196.26H79.0027C78.8427 196.793 78.5361 197.233 78.0827 197.58C77.6294 197.92 77.0727 198.09 76.4127 198.09C75.8794 198.09 75.3994 197.973 74.9727 197.74C74.5527 197.5 74.2227 197.163 73.9827 196.73C73.7494 196.297 73.6327 195.797 73.6327 195.23C73.6327 194.657 73.7494 194.153 73.9827 193.72C74.2161 193.287 74.5427 192.953 74.9627 192.72C75.3827 192.487 75.8661 192.37 76.4127 192.37C76.9394 192.37 77.4094 192.483 77.8227 192.71C78.2427 192.937 78.5661 193.26 78.7927 193.68C79.0261 194.093 79.1427 194.57 79.1427 195.11ZM77.6927 194.71C77.6861 194.35 77.5561 194.063 77.3027 193.85C77.0494 193.63 76.7394 193.52 76.3727 193.52C76.0261 193.52 75.7327 193.627 75.4927 193.84C75.2594 194.047 75.1161 194.337 75.0627 194.71H77.6927ZM81.5646 193.27C81.7446 193.003 81.9913 192.787 82.3046 192.62C82.6246 192.453 82.9879 192.37 83.3946 192.37C83.8679 192.37 84.2946 192.487 84.6746 192.72C85.0613 192.953 85.3646 193.287 85.5846 193.72C85.8113 194.147 85.9246 194.643 85.9246 195.21C85.9246 195.777 85.8113 196.28 85.5846 196.72C85.3646 197.153 85.0613 197.49 84.6746 197.73C84.2946 197.97 83.8679 198.09 83.3946 198.09C82.9813 198.09 82.6179 198.01 82.3046 197.85C81.9979 197.683 81.7513 197.47 81.5646 197.21V198H80.1646V190.6H81.5646V193.27ZM84.4946 195.21C84.4946 194.877 84.4246 194.59 84.2846 194.35C84.1513 194.103 83.9713 193.917 83.7446 193.79C83.5246 193.663 83.2846 193.6 83.0246 193.6C82.7713 193.6 82.5313 193.667 82.3046 193.8C82.0846 193.927 81.9046 194.113 81.7646 194.36C81.6313 194.607 81.5646 194.897 81.5646 195.23C81.5646 195.563 81.6313 195.853 81.7646 196.1C81.9046 196.347 82.0846 196.537 82.3046 196.67C82.5313 196.797 82.7713 196.86 83.0246 196.86C83.2846 196.86 83.5246 196.793 83.7446 196.66C83.9713 196.527 84.1513 196.337 84.2846 196.09C84.4246 195.843 84.4946 195.55 84.4946 195.21Z" fill="#A7A7A7"/>
<path d="M75 113C75 110.791 76.7909 109 79 109V109C81.2091 109 83 110.791 83 113V180H75V113Z" fill="#FFA1A1"/>
<path d="M75 113C75 110.791 76.7909 109 79 109V109C81.2091 109 83 110.791 83 113V180H75V113Z" fill="#FFA1A1"/>
<path d="M75 113C75 110.791 76.7909 109 79 109V109C81.2091 109 83 110.791 83 113V180H75V113Z" fill="#FFA1A1"/>
<path d="M75 113C75 110.791 76.7909 109 79 109V109C81.2091 109 83 110.791 83 113V180H75V113Z" fill="#FFBF90"/>
<path d="M44 96C44 93.7909 45.7909 92 48 92V92C50.2091 92 52 93.7909 52 96V180H44V96Z" fill="#FFA1A1"/>
<path d="M44 96C44 93.7909 45.7909 92 48 92V92C50.2091 92 52 93.7909 52 96V180H44V96Z" fill="#FFA1A1"/>
<path d="M44 96C44 93.7909 45.7909 92 48 92V92C50.2091 92 52 93.7909 52 96V180H44V96Z" fill="#FFA1A1"/>
<path d="M44 96C44 93.7909 45.7909 92 48 92V92C50.2091 92 52 93.7909 52 96V180H44V96Z" fill="#FFBF90"/>
<path d="M132 113C132 110.791 133.791 109 136 109V109C138.209 109 140 110.791 140 113V180H132V113Z" fill="#FFA1A1"/>
<path d="M132 113C132 110.791 133.791 109 136 109V109C138.209 109 140 110.791 140 113V180H132V113Z" fill="#FFA1A1"/>
<path d="M132 113C132 110.791 133.791 109 136 109V109C138.209 109 140 110.791 140 113V180H132V113Z" fill="#FFA1A1"/>
<path d="M132 113C132 110.791 133.791 109 136 109V109C138.209 109 140 110.791 140 113V180H132V113Z" fill="#FFBF90"/>
<path d="M106 100C106 97.7909 107.791 96 110 96V96C112.209 96 114 97.7909 114 100V180H106V100Z" fill="#FFA1A1"/>
<path d="M106 100C106 97.7909 107.791 96 110 96V96C112.209 96 114 97.7909 114 100V180H106V100Z" fill="#FFA1A1"/>
<path d="M106 100C106 97.7909 107.791 96 110 96V96C112.209 96 114 97.7909 114 100V180H106V100Z" fill="#FFA1A1"/>
<path d="M106 100C106 97.7909 107.791 96 110 96V96C112.209 96 114 97.7909 114 100V180H106V100Z" fill="#FFBF90"/>
<path d="M158 100C158 97.7909 159.791 96 162 96V96C164.209 96 166 97.7909 166 100V180H158V100Z" fill="#FFA1A1"/>
<path d="M158 100C158 97.7909 159.791 96 162 96V96C164.209 96 166 97.7909 166 100V180H158V100Z" fill="#FFA1A1"/>
<path d="M158 100C158 97.7909 159.791 96 162 96V96C164.209 96 166 97.7909 166 100V180H158V100Z" fill="#FFA1A1"/>
<path d="M158 100C158 97.7909 159.791 96 162 96V96C164.209 96 166 97.7909 166 100V180H158V100Z" fill="#FFBF90"/>
<path d="M191 78C191 75.7909 192.791 74 195 74V74C197.209 74 199 75.7909 199 78V180H191V78Z" fill="#FFA1A1"/>
<path d="M191 78C191 75.7909 192.791 74 195 74V74C197.209 74 199 75.7909 199 78V180H191V78Z" fill="#FFA1A1"/>
<path d="M191 78C191 75.7909 192.791 74 195 74V74C197.209 74 199 75.7909 199 78V180H191V78Z" fill="#FFA1A1"/>
<path d="M191 78C191 75.7909 192.791 74 195 74V74C197.209 74 199 75.7909 199 78V180H191V78Z" fill="#FFBF90"/>
<path d="M216 151C216 148.791 217.791 147 220 147V147C222.209 147 224 148.791 224 151V180H216V151Z" fill="#FFA1A1"/>
<path d="M216 151C216 148.791 217.791 147 220 147V147C222.209 147 224 148.791 224 151V180H216V151Z" fill="#FFA1A1"/>
<path d="M216 151C216 148.791 217.791 147 220 147V147C222.209 147 224 148.791 224 151V180H216V151Z" fill="#FFA1A1"/>
<path d="M216 151C216 148.791 217.791 147 220 147V147C222.209 147 224 148.791 224 151V180H216V151Z" fill="#FFBF90"/>
<path d="M244 117C244 114.791 245.791 113 248 113V113C250.209 113 252 114.791 252 117V180H244V117Z" fill="#FFA1A1"/>
<path d="M244 117C244 114.791 245.791 113 248 113V113C250.209 113 252 114.791 252 117V180H244V117Z" fill="#FFA1A1"/>
<path d="M244 117C244 114.791 245.791 113 248 113V113C250.209 113 252 114.791 252 117V180H244V117Z" fill="#FFA1A1"/>
<path d="M244 117C244 114.791 245.791 113 248 113V113C250.209 113 252 114.791 252 117V180H244V117Z" fill="#FFBF90"/>
<path d="M303 137C303 134.791 304.791 133 307 133V133C309.209 133 311 134.791 311 137V180H303V137Z" fill="#FFA1A1"/>
<path d="M303 137C303 134.791 304.791 133 307 133V133C309.209 133 311 134.791 311 137V180H303V137Z" fill="#FFA1A1"/>
<path d="M303 137C303 134.791 304.791 133 307 133V133C309.209 133 311 134.791 311 137V180H303V137Z" fill="#FFA1A1"/>
<path d="M303 137C303 134.791 304.791 133 307 133V133C309.209 133 311 134.791 311 137V180H303V137Z" fill="#FFBF90"/>
<path d="M359 51C359 48.7909 360.791 47 363 47V47C365.209 47 367 48.7909 367 51V180H359V51Z" fill="#FFA1A1"/>
<path d="M359 51C359 48.7909 360.791 47 363 47V47C365.209 47 367 48.7909 367 51V180H359V51Z" fill="#FFA1A1"/>
<path d="M359 51C359 48.7909 360.791 47 363 47V47C365.209 47 367 48.7909 367 51V180H359V51Z" fill="#FFA1A1"/>
<path d="M359 51C359 48.7909 360.791 47 363 47V47C365.209 47 367 48.7909 367 51V180H359V51Z" fill="#FFBF90"/>
<path d="M328 122C328 119.791 329.791 118 332 118V118C334.209 118 336 119.791 336 122V180H328V122Z" fill="#FFA1A1"/>
<path d="M328 122C328 119.791 329.791 118 332 118V118C334.209 118 336 119.791 336 122V180H328V122Z" fill="#FFA1A1"/>
<path d="M328 122C328 119.791 329.791 118 332 118V118C334.209 118 336 119.791 336 122V180H328V122Z" fill="#FFA1A1"/>
<path d="M328 122C328 119.791 329.791 118 332 118V118C334.209 118 336 119.791 336 122V180H328V122Z" fill="#FFBF90"/>
<path d="M275 62C275 59.7909 276.791 58 279 58V58C281.209 58 283 59.7909 283 62V180H275V62Z" fill="#FFA1A1"/>
<path d="M275 62C275 59.7909 276.791 58 279 58V58C281.209 58 283 59.7909 283 62V180H275V62Z" fill="#FFA1A1"/>
<path d="M275 62C275 59.7909 276.791 58 279 58V58C281.209 58 283 59.7909 283 62V180H275V62Z" fill="#FFA1A1"/>
<path d="M275 62C275 59.7909 276.791 58 279 58V58C281.209 58 283 59.7909 283 62V180H275V62Z" fill="#FFBF90"/>
<path d="M139.003 1.624V2.98H136.771V10H135.091V2.98H132.859V1.624H139.003ZM143.18 10.108C142.54 10.108 141.964 9.968 141.452 9.688C140.94 9.4 140.536 8.996 140.24 8.476C139.952 7.956 139.808 7.356 139.808 6.676C139.808 5.996 139.956 5.396 140.252 4.876C140.556 4.356 140.968 3.956 141.488 3.676C142.008 3.388 142.588 3.244 143.228 3.244C143.868 3.244 144.448 3.388 144.968 3.676C145.488 3.956 145.896 4.356 146.192 4.876C146.496 5.396 146.648 5.996 146.648 6.676C146.648 7.356 146.492 7.956 146.18 8.476C145.876 8.996 145.46 9.4 144.932 9.688C144.412 9.968 143.828 10.108 143.18 10.108ZM143.18 8.644C143.484 8.644 143.768 8.572 144.032 8.428C144.304 8.276 144.52 8.052 144.68 7.756C144.84 7.46 144.92 7.1 144.92 6.676C144.92 6.044 144.752 5.56 144.416 5.224C144.088 4.88 143.684 4.708 143.204 4.708C142.724 4.708 142.32 4.88 141.992 5.224C141.672 5.56 141.512 6.044 141.512 6.676C141.512 7.308 141.668 7.796 141.98 8.14C142.3 8.476 142.7 8.644 143.18 8.644ZM149.837 4.732V7.948C149.837 8.172 149.889 8.336 149.993 8.44C150.105 8.536 150.289 8.584 150.545 8.584H151.325V10H150.269C148.853 10 148.145 9.312 148.145 7.936V4.732H147.353V3.352H148.145V1.708H149.837V3.352H151.325V4.732H149.837ZM152.101 6.652C152.101 5.98 152.233 5.384 152.497 4.864C152.769 4.344 153.133 3.944 153.589 3.664C154.053 3.384 154.569 3.244 155.137 3.244C155.633 3.244 156.065 3.344 156.433 3.544C156.809 3.744 157.109 3.996 157.333 4.3V3.352H159.025V10H157.333V9.028C157.117 9.34 156.817 9.6 156.433 9.808C156.057 10.008 155.621 10.108 155.125 10.108C154.565 10.108 154.053 9.964 153.589 9.676C153.133 9.388 152.769 8.984 152.497 8.464C152.233 7.936 152.101 7.332 152.101 6.652ZM157.333 6.676C157.333 6.268 157.253 5.92 157.093 5.632C156.933 5.336 156.717 5.112 156.445 4.96C156.173 4.8 155.881 4.72 155.569 4.72C155.257 4.72 154.969 4.796 154.705 4.948C154.441 5.1 154.225 5.324 154.057 5.62C153.897 5.908 153.817 6.252 153.817 6.652C153.817 7.052 153.897 7.404 154.057 7.708C154.225 8.004 154.441 8.232 154.705 8.392C154.977 8.552 155.265 8.632 155.569 8.632C155.881 8.632 156.173 8.556 156.445 8.404C156.717 8.244 156.933 8.02 157.093 7.732C157.253 7.436 157.333 7.084 157.333 6.676ZM162.346 1.12V10H160.666V1.12H162.346ZM169.757 10.084C169.173 10.084 168.645 9.984 168.173 9.784C167.709 9.584 167.341 9.296 167.069 8.92C166.797 8.544 166.657 8.1 166.649 7.588H168.449C168.473 7.932 168.593 8.204 168.809 8.404C169.033 8.604 169.337 8.704 169.721 8.704C170.113 8.704 170.421 8.612 170.645 8.428C170.869 8.236 170.981 7.988 170.981 7.684C170.981 7.436 170.905 7.232 170.753 7.072C170.601 6.912 170.409 6.788 170.177 6.7C169.953 6.604 169.641 6.5 169.241 6.388C168.697 6.228 168.253 6.072 167.909 5.92C167.573 5.76 167.281 5.524 167.033 5.212C166.793 4.892 166.673 4.468 166.673 3.94C166.673 3.444 166.797 3.012 167.045 2.644C167.293 2.276 167.641 1.996 168.089 1.804C168.537 1.604 169.049 1.504 169.625 1.504C170.489 1.504 171.189 1.716 171.725 2.14C172.269 2.556 172.569 3.14 172.625 3.892H170.777C170.761 3.604 170.637 3.368 170.405 3.184C170.181 2.992 169.881 2.896 169.505 2.896C169.177 2.896 168.913 2.98 168.713 3.148C168.521 3.316 168.425 3.56 168.425 3.88C168.425 4.104 168.497 4.292 168.641 4.444C168.793 4.588 168.977 4.708 169.193 4.804C169.417 4.892 169.729 4.996 170.129 5.116C170.673 5.276 171.117 5.436 171.461 5.596C171.805 5.756 172.101 5.996 172.349 6.316C172.597 6.636 172.721 7.056 172.721 7.576C172.721 8.024 172.605 8.44 172.373 8.824C172.141 9.208 171.801 9.516 171.353 9.748C170.905 9.972 170.373 10.084 169.757 10.084ZM173.746 6.652C173.746 5.98 173.878 5.384 174.142 4.864C174.414 4.344 174.778 3.944 175.234 3.664C175.698 3.384 176.214 3.244 176.782 3.244C177.278 3.244 177.71 3.344 178.078 3.544C178.454 3.744 178.754 3.996 178.978 4.3V3.352H180.67V10H178.978V9.028C178.762 9.34 178.462 9.6 178.078 9.808C177.702 10.008 177.266 10.108 176.77 10.108C176.21 10.108 175.698 9.964 175.234 9.676C174.778 9.388 174.414 8.984 174.142 8.464C173.878 7.936 173.746 7.332 173.746 6.652ZM178.978 6.676C178.978 6.268 178.898 5.92 178.738 5.632C178.578 5.336 178.362 5.112 178.09 4.96C177.818 4.8 177.526 4.72 177.214 4.72C176.902 4.72 176.614 4.796 176.35 4.948C176.086 5.1 175.87 5.324 175.702 5.62C175.542 5.908 175.462 6.252 175.462 6.652C175.462 7.052 175.542 7.404 175.702 7.708C175.87 8.004 176.086 8.232 176.35 8.392C176.622 8.552 176.91 8.632 177.214 8.632C177.526 8.632 177.818 8.556 178.09 8.404C178.362 8.244 178.578 8.02 178.738 7.732C178.898 7.436 178.978 7.084 178.978 6.676ZM183.99 1.12V10H182.31V1.12H183.99ZM191.83 6.532C191.83 6.772 191.814 6.988 191.782 7.18H186.922C186.962 7.66 187.13 8.036 187.426 8.308C187.722 8.58 188.086 8.716 188.518 8.716C189.142 8.716 189.586 8.448 189.85 7.912H191.662C191.47 8.552 191.102 9.08 190.558 9.496C190.014 9.904 189.346 10.108 188.554 10.108C187.914 10.108 187.338 9.968 186.826 9.688C186.322 9.4 185.926 8.996 185.638 8.476C185.358 7.956 185.218 7.356 185.218 6.676C185.218 5.988 185.358 5.384 185.638 4.864C185.918 4.344 186.31 3.944 186.814 3.664C187.318 3.384 187.898 3.244 188.554 3.244C189.186 3.244 189.75 3.38 190.246 3.652C190.75 3.924 191.138 4.312 191.41 4.816C191.69 5.312 191.83 5.884 191.83 6.532ZM190.09 6.052C190.082 5.62 189.926 5.276 189.622 5.02C189.318 4.756 188.946 4.624 188.506 4.624C188.09 4.624 187.738 4.752 187.45 5.008C187.17 5.256 186.998 5.604 186.934 6.052H190.09ZM195.601 10.108C195.057 10.108 194.569 10.012 194.137 9.82C193.705 9.62 193.361 9.352 193.105 9.016C192.857 8.68 192.721 8.308 192.697 7.9H194.389C194.421 8.156 194.545 8.368 194.761 8.536C194.985 8.704 195.261 8.788 195.589 8.788C195.909 8.788 196.157 8.724 196.333 8.596C196.517 8.468 196.609 8.304 196.609 8.104C196.609 7.888 196.497 7.728 196.273 7.624C196.057 7.512 195.709 7.392 195.229 7.264C194.733 7.144 194.325 7.02 194.005 6.892C193.693 6.764 193.421 6.568 193.189 6.304C192.965 6.04 192.853 5.684 192.853 5.236C192.853 4.868 192.957 4.532 193.165 4.228C193.381 3.924 193.685 3.684 194.077 3.508C194.477 3.332 194.945 3.244 195.481 3.244C196.273 3.244 196.905 3.444 197.377 3.844C197.849 4.236 198.109 4.768 198.157 5.44H196.549C196.525 5.176 196.413 4.968 196.213 4.816C196.021 4.656 195.761 4.576 195.433 4.576C195.129 4.576 194.893 4.632 194.725 4.744C194.565 4.856 194.485 5.012 194.485 5.212C194.485 5.436 194.597 5.608 194.821 5.728C195.045 5.84 195.393 5.956 195.865 6.076C196.345 6.196 196.741 6.32 197.053 6.448C197.365 6.576 197.633 6.776 197.857 7.048C198.089 7.312 198.209 7.664 198.217 8.104C198.217 8.488 198.109 8.832 197.893 9.136C197.685 9.44 197.381 9.68 196.981 9.856C196.589 10.024 196.129 10.108 195.601 10.108ZM203.307 2.56C203.011 2.56 202.763 2.468 202.563 2.284C202.371 2.092 202.275 1.856 202.275 1.576C202.275 1.296 202.371 1.064 202.563 0.879999C202.763 0.687999 203.011 0.592 203.307 0.592C203.603 0.592 203.847 0.687999 204.039 0.879999C204.239 1.064 204.339 1.296 204.339 1.576C204.339 1.856 204.239 2.092 204.039 2.284C203.847 2.468 203.603 2.56 203.307 2.56ZM204.135 3.352V10H202.455V3.352H204.135ZM209.479 3.256C210.271 3.256 210.911 3.508 211.399 4.012C211.887 4.508 212.131 5.204 212.131 6.1V10H210.451V6.328C210.451 5.8 210.319 5.396 210.055 5.116C209.791 4.828 209.431 4.684 208.975 4.684C208.511 4.684 208.143 4.828 207.871 5.116C207.607 5.396 207.475 5.8 207.475 6.328V10H205.795V3.352H207.475V4.18C207.699 3.892 207.983 3.668 208.327 3.508C208.679 3.34 209.063 3.256 209.479 3.256ZM223.248 1.624L220.416 7.084V10H218.736V7.084L215.892 1.624H217.788L219.588 5.452L221.376 1.624H223.248ZM230.397 6.532C230.397 6.772 230.381 6.988 230.349 7.18H225.489C225.529 7.66 225.697 8.036 225.993 8.308C226.289 8.58 226.653 8.716 227.085 8.716C227.709 8.716 228.153 8.448 228.417 7.912H230.229C230.037 8.552 229.669 9.08 229.125 9.496C228.581 9.904 227.913 10.108 227.121 10.108C226.481 10.108 225.905 9.968 225.393 9.688C224.889 9.4 224.493 8.996 224.205 8.476C223.925 7.956 223.785 7.356 223.785 6.676C223.785 5.988 223.925 5.384 224.205 4.864C224.485 4.344 224.877 3.944 225.381 3.664C225.885 3.384 226.465 3.244 227.121 3.244C227.753 3.244 228.317 3.38 228.813 3.652C229.317 3.924 229.705 4.312 229.977 4.816C230.257 5.312 230.397 5.884 230.397 6.532ZM228.657 6.052C228.649 5.62 228.493 5.276 228.189 5.02C227.885 4.756 227.513 4.624 227.073 4.624C226.657 4.624 226.305 4.752 226.017 5.008C225.737 5.256 225.565 5.604 225.501 6.052H228.657ZM231.191 6.652C231.191 5.98 231.323 5.384 231.587 4.864C231.859 4.344 232.223 3.944 232.679 3.664C233.143 3.384 233.659 3.244 234.227 3.244C234.723 3.244 235.155 3.344 235.523 3.544C235.899 3.744 236.199 3.996 236.423 4.3V3.352H238.115V10H236.423V9.028C236.207 9.34 235.907 9.6 235.523 9.808C235.147 10.008 234.711 10.108 234.215 10.108C233.655 10.108 233.143 9.964 232.679 9.676C232.223 9.388 231.859 8.984 231.587 8.464C231.323 7.936 231.191 7.332 231.191 6.652ZM236.423 6.676C236.423 6.268 236.343 5.92 236.183 5.632C236.023 5.336 235.807 5.112 235.535 4.96C235.263 4.8 234.971 4.72 234.659 4.72C234.347 4.72 234.059 4.796 233.795 4.948C233.531 5.1 233.315 5.324 233.147 5.62C232.987 5.908 232.907 6.252 232.907 6.652C232.907 7.052 232.987 7.404 233.147 7.708C233.315 8.004 233.531 8.232 233.795 8.392C234.067 8.552 234.355 8.632 234.659 8.632C234.971 8.632 235.263 8.556 235.535 8.404C235.807 8.244 236.023 8.02 236.183 7.732C236.343 7.436 236.423 7.084 236.423 6.676ZM241.436 4.384C241.652 4.032 241.932 3.756 242.276 3.556C242.628 3.356 243.028 3.256 243.476 3.256V5.02H243.032C242.504 5.02 242.104 5.144 241.832 5.392C241.568 5.64 241.436 6.072 241.436 6.688V10H239.756V3.352H241.436V4.384ZM247.803 8.104C248.571 7.464 249.183 6.932 249.639 6.508C250.095 6.076 250.475 5.628 250.779 5.164C251.083 4.7 251.235 4.244 251.235 3.796C251.235 3.388 251.139 3.068 250.947 2.836C250.755 2.604 250.459 2.488 250.059 2.488C249.659 2.488 249.351 2.624 249.135 2.896C248.919 3.16 248.807 3.524 248.799 3.988H247.167C247.199 3.028 247.483 2.3 248.019 1.804C248.563 1.308 249.251 1.06 250.083 1.06C250.995 1.06 251.695 1.304 252.183 1.792C252.671 2.272 252.915 2.908 252.915 3.7C252.915 4.324 252.747 4.92 252.411 5.488C252.075 6.056 251.691 6.552 251.259 6.976C250.827 7.392 250.263 7.896 249.567 8.488H253.107V9.88H247.179V8.632L247.803 8.104ZM254.165 5.512C254.165 4.128 254.413 3.044 254.909 2.26C255.413 1.476 256.245 1.084 257.405 1.084C258.565 1.084 259.393 1.476 259.889 2.26C260.393 3.044 260.645 4.128 260.645 5.512C260.645 6.904 260.393 7.996 259.889 8.788C259.393 9.58 258.565 9.976 257.405 9.976C256.245 9.976 255.413 9.58 254.909 8.788C254.413 7.996 254.165 6.904 254.165 5.512ZM258.989 5.512C258.989 4.92 258.949 4.424 258.869 4.024C258.797 3.616 258.645 3.284 258.413 3.028C258.189 2.772 257.853 2.644 257.405 2.644C256.957 2.644 256.617 2.772 256.385 3.028C256.161 3.284 256.009 3.616 255.929 4.024C255.857 4.424 255.821 4.92 255.821 5.512C255.821 6.12 255.857 6.632 255.929 7.048C256.001 7.456 256.153 7.788 256.385 8.044C256.617 8.292 256.957 8.416 257.405 8.416C257.853 8.416 258.193 8.292 258.425 8.044C258.657 7.788 258.809 7.456 258.881 7.048C258.953 6.632 258.989 6.12 258.989 5.512ZM262.451 8.104C263.219 7.464 263.831 6.932 264.287 6.508C264.743 6.076 265.123 5.628 265.427 5.164C265.731 4.7 265.883 4.244 265.883 3.796C265.883 3.388 265.787 3.068 265.595 2.836C265.403 2.604 265.107 2.488 264.707 2.488C264.307 2.488 263.999 2.624 263.783 2.896C263.567 3.16 263.455 3.524 263.447 3.988H261.815C261.847 3.028 262.131 2.3 262.667 1.804C263.211 1.308 263.899 1.06 264.731 1.06C265.643 1.06 266.343 1.304 266.831 1.792C267.319 2.272 267.563 2.908 267.563 3.7C267.563 4.324 267.395 4.92 267.059 5.488C266.723 6.056 266.339 6.552 265.907 6.976C265.475 7.392 264.911 7.896 264.215 8.488H267.755V9.88H261.827V8.632L262.451 8.104ZM268.61 2.8V1.252H271.502V10H269.774V2.8H268.61Z" fill="black"/>
<path d="M1.53 178.26C1.53 177.107 1.73667 176.203 2.15 175.55C2.57 174.897 3.26333 174.57 4.23 174.57C5.19667 174.57 5.88667 174.897 6.3 175.55C6.72 176.203 6.93 177.107 6.93 178.26C6.93 179.42 6.72 180.33 6.3 180.99C5.88667 181.65 5.19667 181.98 4.23 181.98C3.26333 181.98 2.57 181.65 2.15 180.99C1.73667 180.33 1.53 179.42 1.53 178.26ZM5.55 178.26C5.55 177.767 5.51667 177.353 5.45 177.02C5.39 176.68 5.26333 176.403 5.07 176.19C4.88333 175.977 4.60333 175.87 4.23 175.87C3.85667 175.87 3.57333 175.977 3.38 176.19C3.19333 176.403 3.06667 176.68 3 177.02C2.94 177.353 2.91 177.767 2.91 178.26C2.91 178.767 2.94 179.193 3 179.54C3.06 179.88 3.18667 180.157 3.38 180.37C3.57333 180.577 3.85667 180.68 4.23 180.68C4.60333 180.68 4.88667 180.577 5.08 180.37C5.27333 180.157 5.4 179.88 5.46 179.54C5.52 179.193 5.55 178.767 5.55 178.26ZM13.8177 182L11.9377 179.64V182H10.5377V174.6H11.9377V178.81L13.7977 176.46H15.6177L13.1777 179.24L15.6377 182H13.8177Z" fill="#A7A7A7"/>
<path d="M0.36 158V156.71H2.77V164H1.33V158H0.36ZM4.15305 160.26C4.15305 159.107 4.35971 158.203 4.77305 157.55C5.19305 156.897 5.88638 156.57 6.85305 156.57C7.81971 156.57 8.50971 156.897 8.92305 157.55C9.34305 158.203 9.55305 159.107 9.55305 160.26C9.55305 161.42 9.34305 162.33 8.92305 162.99C8.50971 163.65 7.81971 163.98 6.85305 163.98C5.88638 163.98 5.19305 163.65 4.77305 162.99C4.35971 162.33 4.15305 161.42 4.15305 160.26ZM8.17305 160.26C8.17305 159.767 8.13971 159.353 8.07305 159.02C8.01305 158.68 7.88638 158.403 7.69305 158.19C7.50638 157.977 7.22638 157.87 6.85305 157.87C6.47971 157.87 6.19638 157.977 6.00305 158.19C5.81638 158.403 5.68971 158.68 5.62305 159.02C5.56305 159.353 5.53305 159.767 5.53305 160.26C5.53305 160.767 5.56305 161.193 5.62305 161.54C5.68305 161.88 5.80971 162.157 6.00305 162.37C6.19638 162.577 6.47971 162.68 6.85305 162.68C7.22638 162.68 7.50971 162.577 7.70305 162.37C7.89638 162.157 8.02305 161.88 8.08305 161.54C8.14305 161.193 8.17305 160.767 8.17305 160.26ZM10.6179 160.26C10.6179 159.107 10.8246 158.203 11.2379 157.55C11.6579 156.897 12.3512 156.57 13.3179 156.57C14.2846 156.57 14.9746 156.897 15.3879 157.55C15.8079 158.203 16.0179 159.107 16.0179 160.26C16.0179 161.42 15.8079 162.33 15.3879 162.99C14.9746 163.65 14.2846 163.98 13.3179 163.98C12.3512 163.98 11.6579 163.65 11.2379 162.99C10.8246 162.33 10.6179 161.42 10.6179 160.26ZM14.6379 160.26C14.6379 159.767 14.6046 159.353 14.5379 159.02C14.4779 158.68 14.3512 158.403 14.1579 158.19C13.9712 157.977 13.6912 157.87 13.3179 157.87C12.9446 157.87 12.6612 157.977 12.4679 158.19C12.2812 158.403 12.1546 158.68 12.0879 159.02C12.0279 159.353 11.9979 159.767 11.9979 160.26C11.9979 160.767 12.0279 161.193 12.0879 161.54C12.1479 161.88 12.2746 162.157 12.4679 162.37C12.6612 162.577 12.9446 162.68 13.3179 162.68C13.6912 162.68 13.9746 162.577 14.1679 162.37C14.3612 162.157 14.4879 161.88 14.5479 161.54C14.6079 161.193 14.6379 160.767 14.6379 160.26ZM20.5227 164L18.6427 161.64V164H17.2427V156.6H18.6427V160.81L20.5027 158.46H22.3227L19.8827 161.24L22.3427 164H20.5227Z" fill="#A7A7A7"/>
<path d="M0.97 146.42C1.61 145.887 2.12 145.443 2.5 145.09C2.88 144.73 3.19667 144.357 3.45 143.97C3.70333 143.583 3.83 143.203 3.83 142.83C3.83 142.49 3.75 142.223 3.59 142.03C3.43 141.837 3.18333 141.74 2.85 141.74C2.51667 141.74 2.26 141.853 2.08 142.08C1.9 142.3 1.80667 142.603 1.8 142.99H0.44C0.466667 142.19 0.703333 141.583 1.15 141.17C1.60333 140.757 2.17667 140.55 2.87 140.55C3.63 140.55 4.21333 140.753 4.62 141.16C5.02667 141.56 5.23 142.09 5.23 142.75C5.23 143.27 5.09 143.767 4.81 144.24C4.53 144.713 4.21 145.127 3.85 145.48C3.49 145.827 3.02 146.247 2.44 146.74H5.39V147.9H0.45V146.86L0.97 146.42ZM6.27219 144.26C6.27219 143.107 6.47885 142.203 6.89219 141.55C7.31219 140.897 8.00552 140.57 8.97219 140.57C9.93885 140.57 10.6289 140.897 11.0422 141.55C11.4622 142.203 11.6722 143.107 11.6722 144.26C11.6722 145.42 11.4622 146.33 11.0422 146.99C10.6289 147.65 9.93885 147.98 8.97219 147.98C8.00552 147.98 7.31219 147.65 6.89219 146.99C6.47885 146.33 6.27219 145.42 6.27219 144.26ZM10.2922 144.26C10.2922 143.767 10.2589 143.353 10.1922 143.02C10.1322 142.68 10.0055 142.403 9.81219 142.19C9.62552 141.977 9.34552 141.87 8.97219 141.87C8.59885 141.87 8.31552 141.977 8.12219 142.19C7.93552 142.403 7.80885 142.68 7.74219 143.02C7.68219 143.353 7.65219 143.767 7.65219 144.26C7.65219 144.767 7.68219 145.193 7.74219 145.54C7.80219 145.88 7.92885 146.157 8.12219 146.37C8.31552 146.577 8.59885 146.68 8.97219 146.68C9.34552 146.68 9.62885 146.577 9.82219 146.37C10.0155 146.157 10.1422 145.88 10.2022 145.54C10.2622 145.193 10.2922 144.767 10.2922 144.26ZM12.737 144.26C12.737 143.107 12.9437 142.203 13.357 141.55C13.777 140.897 14.4704 140.57 15.437 140.57C16.4037 140.57 17.0937 140.897 17.507 141.55C17.927 142.203 18.137 143.107 18.137 144.26C18.137 145.42 17.927 146.33 17.507 146.99C17.0937 147.65 16.4037 147.98 15.437 147.98C14.4704 147.98 13.777 147.65 13.357 146.99C12.9437 146.33 12.737 145.42 12.737 144.26ZM16.757 144.26C16.757 143.767 16.7237 143.353 16.657 143.02C16.597 142.68 16.4704 142.403 16.277 142.19C16.0904 141.977 15.8104 141.87 15.437 141.87C15.0637 141.87 14.7804 141.977 14.587 142.19C14.4004 142.403 14.2737 142.68 14.207 143.02C14.147 143.353 14.117 143.767 14.117 144.26C14.117 144.767 14.147 145.193 14.207 145.54C14.267 145.88 14.3937 146.157 14.587 146.37C14.7804 146.577 15.0637 146.68 15.437 146.68C15.8104 146.68 16.0937 146.577 16.287 146.37C16.4804 146.157 16.607 145.88 16.667 145.54C16.727 145.193 16.757 144.767 16.757 144.26ZM22.6419 148L20.7619 145.64V148H19.3619V140.6H20.7619V144.81L22.6219 142.46H24.4419L22.0019 145.24L24.4619 148H22.6419Z" fill="#A7A7A7"/>
<path d="M0.55 122.63C0.583333 121.963 0.816667 121.45 1.25 121.09C1.69 120.723 2.26667 120.54 2.98 120.54C3.46667 120.54 3.88333 120.627 4.23 120.8C4.57667 120.967 4.83667 121.197 5.01 121.49C5.19 121.777 5.28 122.103 5.28 122.47C5.28 122.89 5.17 123.247 4.95 123.54C4.73667 123.827 4.48 124.02 4.18 124.12V124.16C4.56667 124.28 4.86667 124.493 5.08 124.8C5.3 125.107 5.41 125.5 5.41 125.98C5.41 126.38 5.31667 126.737 5.13 127.05C4.95 127.363 4.68 127.61 4.32 127.79C3.96667 127.963 3.54 128.05 3.04 128.05C2.28667 128.05 1.67333 127.86 1.2 127.48C0.726667 127.1 0.476667 126.54 0.45 125.8H1.81C1.82333 126.127 1.93333 126.39 2.14 126.59C2.35333 126.783 2.64333 126.88 3.01 126.88C3.35 126.88 3.61 126.787 3.79 126.6C3.97667 126.407 4.07 126.16 4.07 125.86C4.07 125.46 3.94333 125.173 3.69 125C3.43667 124.827 3.04333 124.74 2.51 124.74H2.22V123.59H2.51C3.45667 123.59 3.93 123.273 3.93 122.64C3.93 122.353 3.84333 122.13 3.67 121.97C3.50333 121.81 3.26 121.73 2.94 121.73C2.62667 121.73 2.38333 121.817 2.21 121.99C2.04333 122.157 1.94667 122.37 1.92 122.63H0.55ZM6.51633 124.26C6.51633 123.107 6.72299 122.203 7.13633 121.55C7.55633 120.897 8.24966 120.57 9.21633 120.57C10.183 120.57 10.873 120.897 11.2863 121.55C11.7063 122.203 11.9163 123.107 11.9163 124.26C11.9163 125.42 11.7063 126.33 11.2863 126.99C10.873 127.65 10.183 127.98 9.21633 127.98C8.24966 127.98 7.55633 127.65 7.13633 126.99C6.72299 126.33 6.51633 125.42 6.51633 124.26ZM10.5363 124.26C10.5363 123.767 10.503 123.353 10.4363 123.02C10.3763 122.68 10.2497 122.403 10.0563 122.19C9.86966 121.977 9.58966 121.87 9.21633 121.87C8.84299 121.87 8.55966 121.977 8.36633 122.19C8.17966 122.403 8.05299 122.68 7.98633 123.02C7.92633 123.353 7.89633 123.767 7.89633 124.26C7.89633 124.767 7.92633 125.193 7.98633 125.54C8.04633 125.88 8.17299 126.157 8.36633 126.37C8.55966 126.577 8.84299 126.68 9.21633 126.68C9.58966 126.68 9.87299 126.577 10.0663 126.37C10.2597 126.157 10.3863 125.88 10.4463 125.54C10.5063 125.193 10.5363 124.767 10.5363 124.26ZM12.9812 124.26C12.9812 123.107 13.1878 122.203 13.6012 121.55C14.0212 120.897 14.7145 120.57 15.6812 120.57C16.6478 120.57 17.3378 120.897 17.7512 121.55C18.1712 122.203 18.3812 123.107 18.3812 124.26C18.3812 125.42 18.1712 126.33 17.7512 126.99C17.3378 127.65 16.6478 127.98 15.6812 127.98C14.7145 127.98 14.0212 127.65 13.6012 126.99C13.1878 126.33 12.9812 125.42 12.9812 124.26ZM17.0012 124.26C17.0012 123.767 16.9678 123.353 16.9012 123.02C16.8412 122.68 16.7145 122.403 16.5212 122.19C16.3345 121.977 16.0545 121.87 15.6812 121.87C15.3078 121.87 15.0245 121.977 14.8312 122.19C14.6445 122.403 14.5178 122.68 14.4512 123.02C14.3912 123.353 14.3612 123.767 14.3612 124.26C14.3612 124.767 14.3912 125.193 14.4512 125.54C14.5112 125.88 14.6378 126.157 14.8312 126.37C15.0245 126.577 15.3078 126.68 15.6812 126.68C16.0545 126.68 16.3378 126.577 16.5312 126.37C16.7245 126.157 16.8512 125.88 16.9112 125.54C16.9712 125.193 17.0012 124.767 17.0012 124.26ZM22.886 128L21.006 125.64V128H19.606V120.6H21.006V124.81L22.866 122.46H24.686L22.246 125.24L24.706 128H22.886Z" fill="#A7A7A7"/>
<path d="M0.47 110.58V109.48L3.74 104.8H5.37V109.36H6.25V110.58H5.37V112H3.97V110.58H0.47ZM4.06 106.3L2.01 109.36H4.06V106.3ZM7.14133 108.26C7.14133 107.107 7.34799 106.203 7.76133 105.55C8.18133 104.897 8.87466 104.57 9.84133 104.57C10.808 104.57 11.498 104.897 11.9113 105.55C12.3313 106.203 12.5413 107.107 12.5413 108.26C12.5413 109.42 12.3313 110.33 11.9113 110.99C11.498 111.65 10.808 111.98 9.84133 111.98C8.87466 111.98 8.18133 111.65 7.76133 110.99C7.34799 110.33 7.14133 109.42 7.14133 108.26ZM11.1613 108.26C11.1613 107.767 11.128 107.353 11.0613 107.02C11.0013 106.68 10.8747 106.403 10.6813 106.19C10.4947 105.977 10.2147 105.87 9.84133 105.87C9.46799 105.87 9.18466 105.977 8.99133 106.19C8.80466 106.403 8.67799 106.68 8.61133 107.02C8.55133 107.353 8.52133 107.767 8.52133 108.26C8.52133 108.767 8.55133 109.193 8.61133 109.54C8.67133 109.88 8.79799 110.157 8.99133 110.37C9.18466 110.577 9.46799 110.68 9.84133 110.68C10.2147 110.68 10.498 110.577 10.6913 110.37C10.8847 110.157 11.0113 109.88 11.0713 109.54C11.1313 109.193 11.1613 108.767 11.1613 108.26ZM13.6062 108.26C13.6062 107.107 13.8128 106.203 14.2262 105.55C14.6462 104.897 15.3395 104.57 16.3062 104.57C17.2728 104.57 17.9628 104.897 18.3762 105.55C18.7962 106.203 19.0062 107.107 19.0062 108.26C19.0062 109.42 18.7962 110.33 18.3762 110.99C17.9628 111.65 17.2728 111.98 16.3062 111.98C15.3395 111.98 14.6462 111.65 14.2262 110.99C13.8128 110.33 13.6062 109.42 13.6062 108.26ZM17.6262 108.26C17.6262 107.767 17.5928 107.353 17.5262 107.02C17.4662 106.68 17.3395 106.403 17.1462 106.19C16.9595 105.977 16.6795 105.87 16.3062 105.87C15.9328 105.87 15.6495 105.977 15.4562 106.19C15.2695 106.403 15.1428 106.68 15.0762 107.02C15.0162 107.353 14.9862 107.767 14.9862 108.26C14.9862 108.767 15.0162 109.193 15.0762 109.54C15.1362 109.88 15.2628 110.157 15.4562 110.37C15.6495 110.577 15.9328 110.68 16.3062 110.68C16.6795 110.68 16.9628 110.577 17.1562 110.37C17.3495 110.157 17.4762 109.88 17.5362 109.54C17.5962 109.193 17.6262 108.767 17.6262 108.26ZM23.511 112L21.631 109.64V112H20.231V104.6H21.631V108.81L23.491 106.46H25.311L22.871 109.24L25.331 112H23.511Z" fill="#A7A7A7"/>
<path d="M5.43 88.92H2.19V90.63C2.33 90.4567 2.53 90.3167 2.79 90.21C3.05 90.0967 3.32667 90.04 3.62 90.04C4.15333 90.04 4.59 90.1567 4.93 90.39C5.27 90.6233 5.51667 90.9233 5.67 91.29C5.82333 91.65 5.9 92.0367 5.9 92.45C5.9 93.2167 5.68 93.8333 5.24 94.3C4.80667 94.7667 4.18667 95 3.38 95C2.62 95 2.01333 94.81 1.56 94.43C1.10667 94.05 0.85 93.5533 0.79 92.94H2.15C2.21 93.2067 2.34333 93.42 2.55 93.58C2.76333 93.74 3.03333 93.82 3.36 93.82C3.75333 93.82 4.05 93.6967 4.25 93.45C4.45 93.2033 4.55 92.8767 4.55 92.47C4.55 92.0567 4.44667 91.7433 4.24 91.53C4.04 91.31 3.74333 91.2 3.35 91.2C3.07 91.2 2.83667 91.27 2.65 91.41C2.46333 91.55 2.33 91.7367 2.25 91.97H0.91V87.69H5.43V88.92ZM6.96555 91.26C6.96555 90.1067 7.17221 89.2033 7.58555 88.55C8.00555 87.8967 8.69888 87.57 9.66555 87.57C10.6322 87.57 11.3222 87.8967 11.7355 88.55C12.1555 89.2033 12.3655 90.1067 12.3655 91.26C12.3655 92.42 12.1555 93.33 11.7355 93.99C11.3222 94.65 10.6322 94.98 9.66555 94.98C8.69888 94.98 8.00555 94.65 7.58555 93.99C7.17221 93.33 6.96555 92.42 6.96555 91.26ZM10.9855 91.26C10.9855 90.7667 10.9522 90.3533 10.8855 90.02C10.8255 89.68 10.6989 89.4033 10.5055 89.19C10.3189 88.9767 10.0389 88.87 9.66555 88.87C9.29221 88.87 9.00888 88.9767 8.81555 89.19C8.62888 89.4033 8.50221 89.68 8.43555 90.02C8.37555 90.3533 8.34555 90.7667 8.34555 91.26C8.34555 91.7667 8.37555 92.1933 8.43555 92.54C8.49555 92.88 8.62221 93.1567 8.81555 93.37C9.00888 93.5767 9.29221 93.68 9.66555 93.68C10.0389 93.68 10.3222 93.5767 10.5155 93.37C10.7089 93.1567 10.8355 92.88 10.8955 92.54C10.9555 92.1933 10.9855 91.7667 10.9855 91.26ZM13.4304 91.26C13.4304 90.1067 13.6371 89.2033 14.0504 88.55C14.4704 87.8967 15.1637 87.57 16.1304 87.57C17.0971 87.57 17.7871 87.8967 18.2004 88.55C18.6204 89.2033 18.8304 90.1067 18.8304 91.26C18.8304 92.42 18.6204 93.33 18.2004 93.99C17.7871 94.65 17.0971 94.98 16.1304 94.98C15.1637 94.98 14.4704 94.65 14.0504 93.99C13.6371 93.33 13.4304 92.42 13.4304 91.26ZM17.4504 91.26C17.4504 90.7667 17.4171 90.3533 17.3504 90.02C17.2904 89.68 17.1637 89.4033 16.9704 89.19C16.7837 88.9767 16.5037 88.87 16.1304 88.87C15.7571 88.87 15.4737 88.9767 15.2804 89.19C15.0937 89.4033 14.9671 89.68 14.9004 90.02C14.8404 90.3533 14.8104 90.7667 14.8104 91.26C14.8104 91.7667 14.8404 92.1933 14.9004 92.54C14.9604 92.88 15.0871 93.1567 15.2804 93.37C15.4737 93.5767 15.7571 93.68 16.1304 93.68C16.5037 93.68 16.7871 93.5767 16.9804 93.37C17.1737 93.1567 17.3004 92.88 17.3604 92.54C17.4204 92.1933 17.4504 91.7667 17.4504 91.26ZM23.3352 95L21.4552 92.64V95H20.0552V87.6H21.4552V91.81L23.3152 89.46H25.1352L22.6952 92.24L25.1552 95H23.3352Z" fill="#A7A7A7"/>
<path d="M4.31 71.53C4.24333 71.25 4.12667 71.04 3.96 70.9C3.8 70.76 3.56667 70.69 3.26 70.69C2.8 70.69 2.46 70.8767 2.24 71.25C2.02667 71.6167 1.91667 72.2167 1.91 73.05C2.07 72.7833 2.30333 72.5767 2.61 72.43C2.91667 72.2767 3.25 72.2 3.61 72.2C4.04333 72.2 4.42667 72.2933 4.76 72.48C5.09333 72.6667 5.35333 72.94 5.54 73.3C5.72667 73.6533 5.82 74.08 5.82 74.58C5.82 75.0533 5.72333 75.4767 5.53 75.85C5.34333 76.2167 5.06667 76.5033 4.7 76.71C4.33333 76.9167 3.89667 77.02 3.39 77.02C2.69667 77.02 2.15 76.8667 1.75 76.56C1.35667 76.2533 1.08 75.8267 0.92 75.28C0.766667 74.7267 0.69 74.0467 0.69 73.24C0.69 72.02 0.9 71.1 1.32 70.48C1.74 69.8533 2.40333 69.54 3.31 69.54C4.01 69.54 4.55333 69.73 4.94 70.11C5.32667 70.49 5.55 70.9633 5.61 71.53H4.31ZM3.29 73.35C2.93667 73.35 2.64 73.4533 2.4 73.66C2.16 73.8667 2.04 74.1667 2.04 74.56C2.04 74.9533 2.15 75.2633 2.37 75.49C2.59667 75.7167 2.91333 75.83 3.32 75.83C3.68 75.83 3.96333 75.72 4.17 75.5C4.38333 75.28 4.49 74.9833 4.49 74.61C4.49 74.2233 4.38667 73.9167 4.18 73.69C3.98 73.4633 3.68333 73.35 3.29 73.35ZM6.92648 73.26C6.92648 72.1067 7.13315 71.2033 7.54648 70.55C7.96648 69.8967 8.65982 69.57 9.62648 69.57C10.5932 69.57 11.2832 69.8967 11.6965 70.55C12.1165 71.2033 12.3265 72.1067 12.3265 73.26C12.3265 74.42 12.1165 75.33 11.6965 75.99C11.2832 76.65 10.5932 76.98 9.62648 76.98C8.65982 76.98 7.96648 76.65 7.54648 75.99C7.13315 75.33 6.92648 74.42 6.92648 73.26ZM10.9465 73.26C10.9465 72.7667 10.9132 72.3533 10.8465 72.02C10.7865 71.68 10.6598 71.4033 10.4665 71.19C10.2798 70.9767 9.99982 70.87 9.62648 70.87C9.25315 70.87 8.96982 70.9767 8.77648 71.19C8.58982 71.4033 8.46315 71.68 8.39648 72.02C8.33648 72.3533 8.30648 72.7667 8.30648 73.26C8.30648 73.7667 8.33648 74.1933 8.39648 74.54C8.45648 74.88 8.58315 75.1567 8.77648 75.37C8.96982 75.5767 9.25315 75.68 9.62648 75.68C9.99982 75.68 10.2832 75.5767 10.4765 75.37C10.6698 75.1567 10.7965 74.88 10.8565 74.54C10.9165 74.1933 10.9465 73.7667 10.9465 73.26ZM13.3913 73.26C13.3913 72.1067 13.598 71.2033 14.0113 70.55C14.4313 69.8967 15.1247 69.57 16.0913 69.57C17.058 69.57 17.748 69.8967 18.1613 70.55C18.5813 71.2033 18.7913 72.1067 18.7913 73.26C18.7913 74.42 18.5813 75.33 18.1613 75.99C17.748 76.65 17.058 76.98 16.0913 76.98C15.1247 76.98 14.4313 76.65 14.0113 75.99C13.598 75.33 13.3913 74.42 13.3913 73.26ZM17.4113 73.26C17.4113 72.7667 17.378 72.3533 17.3113 72.02C17.2513 71.68 17.1247 71.4033 16.9313 71.19C16.7447 70.9767 16.4647 70.87 16.0913 70.87C15.718 70.87 15.4347 70.9767 15.2413 71.19C15.0547 71.4033 14.928 71.68 14.8613 72.02C14.8013 72.3533 14.7713 72.7667 14.7713 73.26C14.7713 73.7667 14.8013 74.1933 14.8613 74.54C14.9213 74.88 15.048 75.1567 15.2413 75.37C15.4347 75.5767 15.718 75.68 16.0913 75.68C16.4647 75.68 16.748 75.5767 16.9413 75.37C17.1347 75.1567 17.2613 74.88 17.3213 74.54C17.3813 74.1933 17.4113 73.7667 17.4113 73.26ZM23.2962 77L21.4162 74.64V77H20.0162V69.6H21.4162V73.81L23.2762 71.46H25.0962L22.6562 74.24L25.1162 77H23.2962Z" fill="#A7A7A7"/>
<path d="M6.17 54.77L3.51 61H2.09L4.77 54.93H1.35V53.73H6.17V54.77ZM7.00852 57.26C7.00852 56.1067 7.21518 55.2033 7.62852 54.55C8.04852 53.8967 8.74185 53.57 9.70852 53.57C10.6752 53.57 11.3652 53.8967 11.7785 54.55C12.1985 55.2033 12.4085 56.1067 12.4085 57.26C12.4085 58.42 12.1985 59.33 11.7785 59.99C11.3652 60.65 10.6752 60.98 9.70852 60.98C8.74185 60.98 8.04852 60.65 7.62852 59.99C7.21518 59.33 7.00852 58.42 7.00852 57.26ZM11.0285 57.26C11.0285 56.7667 10.9952 56.3533 10.9285 56.02C10.8685 55.68 10.7418 55.4033 10.5485 55.19C10.3618 54.9767 10.0818 54.87 9.70852 54.87C9.33518 54.87 9.05185 54.9767 8.85852 55.19C8.67185 55.4033 8.54518 55.68 8.47852 56.02C8.41852 56.3533 8.38852 56.7667 8.38852 57.26C8.38852 57.7667 8.41852 58.1933 8.47852 58.54C8.53852 58.88 8.66518 59.1567 8.85852 59.37C9.05185 59.5767 9.33518 59.68 9.70852 59.68C10.0818 59.68 10.3652 59.5767 10.5585 59.37C10.7518 59.1567 10.8785 58.88 10.9385 58.54C10.9985 58.1933 11.0285 57.7667 11.0285 57.26ZM13.4734 57.26C13.4734 56.1067 13.68 55.2033 14.0934 54.55C14.5134 53.8967 15.2067 53.57 16.1734 53.57C17.14 53.57 17.83 53.8967 18.2434 54.55C18.6634 55.2033 18.8734 56.1067 18.8734 57.26C18.8734 58.42 18.6634 59.33 18.2434 59.99C17.83 60.65 17.14 60.98 16.1734 60.98C15.2067 60.98 14.5134 60.65 14.0934 59.99C13.68 59.33 13.4734 58.42 13.4734 57.26ZM17.4934 57.26C17.4934 56.7667 17.46 56.3533 17.3934 56.02C17.3334 55.68 17.2067 55.4033 17.0134 55.19C16.8267 54.9767 16.5467 54.87 16.1734 54.87C15.8 54.87 15.5167 54.9767 15.3234 55.19C15.1367 55.4033 15.01 55.68 14.9434 56.02C14.8834 56.3533 14.8534 56.7667 14.8534 57.26C14.8534 57.7667 14.8834 58.1933 14.9434 58.54C15.0034 58.88 15.13 59.1567 15.3234 59.37C15.5167 59.5767 15.8 59.68 16.1734 59.68C16.5467 59.68 16.83 59.5767 17.0234 59.37C17.2167 59.1567 17.3434 58.88 17.4034 58.54C17.4634 58.1933 17.4934 57.7667 17.4934 57.26ZM23.3782 61L21.4982 58.64V61H20.0982V53.6H21.4982V57.81L23.3582 55.46H25.1782L22.7382 58.24L25.1982 61H23.3782Z" fill="#A7A7A7"/>
<path d="M1.75 38.14C1.08333 37.7933 0.75 37.2567 0.75 36.53C0.75 36.17 0.84 35.8433 1.02 35.55C1.20667 35.25 1.48333 35.0133 1.85 34.84C2.22333 34.66 2.67667 34.57 3.21 34.57C3.74333 34.57 4.19333 34.66 4.56 34.84C4.93333 35.0133 5.21 35.25 5.39 35.55C5.57667 35.8433 5.67 36.17 5.67 36.53C5.67 36.8967 5.58 37.22 5.4 37.5C5.22 37.7733 4.98 37.9867 4.68 38.14C5.04667 38.3 5.33333 38.5333 5.54 38.84C5.74667 39.1467 5.85 39.51 5.85 39.93C5.85 40.3833 5.73333 40.78 5.5 41.12C5.27333 41.4533 4.96 41.71 4.56 41.89C4.16 42.07 3.71 42.16 3.21 42.16C2.71 42.16 2.26 42.07 1.86 41.89C1.46667 41.71 1.15333 41.4533 0.92 41.12C0.693333 40.78 0.58 40.3833 0.58 39.93C0.58 39.51 0.683333 39.1467 0.89 38.84C1.09667 38.5267 1.38333 38.2933 1.75 38.14ZM4.31 36.73C4.31 36.4033 4.21 36.15 4.01 35.97C3.81667 35.79 3.55 35.7 3.21 35.7C2.87667 35.7 2.61 35.79 2.41 35.97C2.21667 36.15 2.12 36.4067 2.12 36.74C2.12 37.04 2.22 37.28 2.42 37.46C2.62667 37.64 2.89 37.73 3.21 37.73C3.53 37.73 3.79333 37.64 4 37.46C4.20667 37.2733 4.31 37.03 4.31 36.73ZM3.21 38.75C2.83 38.75 2.52 38.8467 2.28 39.04C2.04667 39.2333 1.93 39.51 1.93 39.87C1.93 40.2033 2.04333 40.4767 2.27 40.69C2.50333 40.8967 2.81667 41 3.21 41C3.60333 41 3.91333 40.8933 4.14 40.68C4.36667 40.4667 4.48 40.1967 4.48 39.87C4.48 39.5167 4.36333 39.2433 4.13 39.05C3.89667 38.85 3.59 38.75 3.21 38.75ZM6.95578 38.26C6.95578 37.1067 7.16245 36.2033 7.57578 35.55C7.99578 34.8967 8.68911 34.57 9.65578 34.57C10.6224 34.57 11.3124 34.8967 11.7258 35.55C12.1458 36.2033 12.3558 37.1067 12.3558 38.26C12.3558 39.42 12.1458 40.33 11.7258 40.99C11.3124 41.65 10.6224 41.98 9.65578 41.98C8.68911 41.98 7.99578 41.65 7.57578 40.99C7.16245 40.33 6.95578 39.42 6.95578 38.26ZM10.9758 38.26C10.9758 37.7667 10.9424 37.3533 10.8758 37.02C10.8158 36.68 10.6891 36.4033 10.4958 36.19C10.3091 35.9767 10.0291 35.87 9.65578 35.87C9.28245 35.87 8.99911 35.9767 8.80578 36.19C8.61911 36.4033 8.49245 36.68 8.42578 37.02C8.36578 37.3533 8.33578 37.7667 8.33578 38.26C8.33578 38.7667 8.36578 39.1933 8.42578 39.54C8.48578 39.88 8.61245 40.1567 8.80578 40.37C8.99911 40.5767 9.28245 40.68 9.65578 40.68C10.0291 40.68 10.3124 40.5767 10.5058 40.37C10.6991 40.1567 10.8258 39.88 10.8858 39.54C10.9458 39.1933 10.9758 38.7667 10.9758 38.26ZM13.4206 38.26C13.4206 37.1067 13.6273 36.2033 14.0406 35.55C14.4606 34.8967 15.154 34.57 16.1206 34.57C17.0873 34.57 17.7773 34.8967 18.1906 35.55C18.6106 36.2033 18.8206 37.1067 18.8206 38.26C18.8206 39.42 18.6106 40.33 18.1906 40.99C17.7773 41.65 17.0873 41.98 16.1206 41.98C15.154 41.98 14.4606 41.65 14.0406 40.99C13.6273 40.33 13.4206 39.42 13.4206 38.26ZM17.4406 38.26C17.4406 37.7667 17.4073 37.3533 17.3406 37.02C17.2806 36.68 17.154 36.4033 16.9606 36.19C16.774 35.9767 16.494 35.87 16.1206 35.87C15.7473 35.87 15.464 35.9767 15.2706 36.19C15.084 36.4033 14.9573 36.68 14.8906 37.02C14.8306 37.3533 14.8006 37.7667 14.8006 38.26C14.8006 38.7667 14.8306 39.1933 14.8906 39.54C14.9506 39.88 15.0773 40.1567 15.2706 40.37C15.464 40.5767 15.7473 40.68 16.1206 40.68C16.494 40.68 16.7773 40.5767 16.9706 40.37C17.164 40.1567 17.2906 39.88 17.3506 39.54C17.4106 39.1933 17.4406 38.7667 17.4406 38.26ZM23.3255 42L21.4455 39.64V42H20.0455V34.6H21.4455V38.81L23.3055 36.46H25.1255L22.6855 39.24L25.1455 42H23.3255Z" fill="#A7A7A7"/>
</svg>
