<svg width="375" height="204" viewBox="0 0 375 204" fill="none" xmlns="http://www.w3.org/2000/svg">
<path d="M85.42 5.8C85.42 4.976 85.604 4.24 85.972 3.592C86.348 2.936 86.856 2.428 87.496 2.068C88.144 1.7 88.868 1.516 89.668 1.516C90.604 1.516 91.424 1.756 92.128 2.236C92.832 2.716 93.324 3.38 93.604 4.228H91.672C91.48 3.828 91.208 3.528 90.856 3.328C90.512 3.128 90.112 3.028 89.656 3.028C89.168 3.028 88.732 3.144 88.348 3.376C87.972 3.6 87.676 3.92 87.46 4.336C87.252 4.752 87.148 5.24 87.148 5.8C87.148 6.352 87.252 6.84 87.46 7.264C87.676 7.68 87.972 8.004 88.348 8.236C88.732 8.46 89.168 8.572 89.656 8.572C90.112 8.572 90.512 8.472 90.856 8.272C91.208 8.064 91.48 7.76 91.672 7.36H93.604C93.324 8.216 92.832 8.884 92.128 9.364C91.432 9.836 90.612 10.072 89.668 10.072C88.868 10.072 88.144 9.892 87.496 9.532C86.856 9.164 86.348 8.656 85.972 8.008C85.604 7.36 85.42 6.624 85.42 5.8ZM101.315 3.352V10H99.6229V9.16C99.4069 9.448 99.1229 9.676 98.7709 9.844C98.4269 10.004 98.0509 10.084 97.6429 10.084C97.1229 10.084 96.6629 9.976 96.2629 9.76C95.8629 9.536 95.5469 9.212 95.3149 8.788C95.0909 8.356 94.9789 7.844 94.9789 7.252V3.352H96.6589V7.012C96.6589 7.54 96.7909 7.948 97.0549 8.236C97.3189 8.516 97.6789 8.656 98.1349 8.656C98.5989 8.656 98.9629 8.516 99.2269 8.236C99.4909 7.948 99.6229 7.54 99.6229 7.012V3.352H101.315ZM105.517 10.108C104.973 10.108 104.485 10.012 104.053 9.82C103.621 9.62 103.277 9.352 103.021 9.016C102.773 8.68 102.637 8.308 102.613 7.9H104.305C104.337 8.156 104.461 8.368 104.677 8.536C104.901 8.704 105.177 8.788 105.505 8.788C105.825 8.788 106.073 8.724 106.249 8.596C106.433 8.468 106.525 8.304 106.525 8.104C106.525 7.888 106.413 7.728 106.189 7.624C105.973 7.512 105.625 7.392 105.145 7.264C104.649 7.144 104.241 7.02 103.921 6.892C103.609 6.764 103.337 6.568 103.105 6.304C102.881 6.04 102.769 5.684 102.769 5.236C102.769 4.868 102.873 4.532 103.081 4.228C103.297 3.924 103.601 3.684 103.993 3.508C104.393 3.332 104.861 3.244 105.397 3.244C106.189 3.244 106.821 3.444 107.293 3.844C107.765 4.236 108.025 4.768 108.073 5.44H106.465C106.441 5.176 106.329 4.968 106.129 4.816C105.937 4.656 105.677 4.576 105.349 4.576C105.045 4.576 104.809 4.632 104.641 4.744C104.481 4.856 104.401 5.012 104.401 5.212C104.401 5.436 104.513 5.608 104.737 5.728C104.961 5.84 105.309 5.956 105.781 6.076C106.261 6.196 106.657 6.32 106.969 6.448C107.281 6.576 107.549 6.776 107.773 7.048C108.005 7.312 108.125 7.664 108.133 8.104C108.133 8.488 108.025 8.832 107.809 9.136C107.601 9.44 107.297 9.68 106.897 9.856C106.505 10.024 106.045 10.108 105.517 10.108ZM111.468 4.732V7.948C111.468 8.172 111.52 8.336 111.624 8.44C111.736 8.536 111.92 8.584 112.176 8.584H112.956V10H111.9C110.484 10 109.776 9.312 109.776 7.936V4.732H108.984V3.352H109.776V1.708H111.468V3.352H112.956V4.732H111.468ZM117.116 10.108C116.476 10.108 115.9 9.968 115.388 9.688C114.876 9.4 114.472 8.996 114.176 8.476C113.888 7.956 113.744 7.356 113.744 6.676C113.744 5.996 113.892 5.396 114.188 4.876C114.492 4.356 114.904 3.956 115.424 3.676C115.944 3.388 116.524 3.244 117.164 3.244C117.804 3.244 118.384 3.388 118.904 3.676C119.424 3.956 119.832 4.356 120.128 4.876C120.432 5.396 120.584 5.996 120.584 6.676C120.584 7.356 120.428 7.956 120.116 8.476C119.812 8.996 119.396 9.4 118.868 9.688C118.348 9.968 117.764 10.108 117.116 10.108ZM117.116 8.644C117.42 8.644 117.704 8.572 117.968 8.428C118.24 8.276 118.456 8.052 118.616 7.756C118.776 7.46 118.856 7.1 118.856 6.676C118.856 6.044 118.688 5.56 118.352 5.224C118.024 4.88 117.62 4.708 117.14 4.708C116.66 4.708 116.256 4.88 115.928 5.224C115.608 5.56 115.448 6.044 115.448 6.676C115.448 7.308 115.604 7.796 115.916 8.14C116.236 8.476 116.636 8.644 117.116 8.644ZM130.072 3.256C130.888 3.256 131.544 3.508 132.04 4.012C132.544 4.508 132.796 5.204 132.796 6.1V10H131.116V6.328C131.116 5.808 130.984 5.412 130.72 5.14C130.456 4.86 130.096 4.72 129.64 4.72C129.184 4.72 128.82 4.86 128.548 5.14C128.284 5.412 128.152 5.808 128.152 6.328V10H126.472V6.328C126.472 5.808 126.34 5.412 126.076 5.14C125.812 4.86 125.452 4.72 124.996 4.72C124.532 4.72 124.164 4.86 123.892 5.14C123.628 5.412 123.496 5.808 123.496 6.328V10H121.816V3.352H123.496V4.156C123.712 3.876 123.988 3.656 124.324 3.496C124.668 3.336 125.044 3.256 125.452 3.256C125.972 3.256 126.436 3.368 126.844 3.592C127.252 3.808 127.568 4.12 127.792 4.528C128.008 4.144 128.32 3.836 128.728 3.604C129.144 3.372 129.592 3.256 130.072 3.256ZM140.571 6.532C140.571 6.772 140.555 6.988 140.523 7.18H135.663C135.703 7.66 135.871 8.036 136.167 8.308C136.463 8.58 136.827 8.716 137.259 8.716C137.883 8.716 138.327 8.448 138.591 7.912H140.403C140.211 8.552 139.843 9.08 139.299 9.496C138.755 9.904 138.087 10.108 137.295 10.108C136.655 10.108 136.079 9.968 135.567 9.688C135.063 9.4 134.667 8.996 134.379 8.476C134.099 7.956 133.958 7.356 133.958 6.676C133.958 5.988 134.099 5.384 134.379 4.864C134.659 4.344 135.051 3.944 135.555 3.664C136.059 3.384 136.639 3.244 137.295 3.244C137.927 3.244 138.491 3.38 138.987 3.652C139.491 3.924 139.879 4.312 140.151 4.816C140.431 5.312 140.571 5.884 140.571 6.532ZM138.831 6.052C138.823 5.62 138.667 5.276 138.363 5.02C138.059 4.756 137.687 4.624 137.247 4.624C136.831 4.624 136.479 4.752 136.191 5.008C135.911 5.256 135.739 5.604 135.675 6.052H138.831ZM143.477 4.384C143.693 4.032 143.973 3.756 144.317 3.556C144.669 3.356 145.069 3.256 145.517 3.256V5.02H145.073C144.545 5.02 144.145 5.144 143.873 5.392C143.609 5.64 143.477 6.072 143.477 6.688V10H141.797V3.352H143.477V4.384ZM153.828 10L151.98 6.736H151.188V10H149.508V1.624H152.652C153.3 1.624 153.852 1.74 154.308 1.972C154.764 2.196 155.104 2.504 155.328 2.896C155.56 3.28 155.676 3.712 155.676 4.192C155.676 4.744 155.516 5.244 155.196 5.692C154.876 6.132 154.4 6.436 153.768 6.604L155.772 10H153.828ZM151.188 5.476H152.592C153.048 5.476 153.388 5.368 153.612 5.152C153.836 4.928 153.948 4.62 153.948 4.228C153.948 3.844 153.836 3.548 153.612 3.34C153.388 3.124 153.048 3.016 152.592 3.016H151.188V5.476ZM163.375 6.532C163.375 6.772 163.359 6.988 163.327 7.18H158.467C158.507 7.66 158.675 8.036 158.971 8.308C159.267 8.58 159.631 8.716 160.063 8.716C160.687 8.716 161.131 8.448 161.395 7.912H163.207C163.015 8.552 162.647 9.08 162.103 9.496C161.559 9.904 160.891 10.108 160.099 10.108C159.459 10.108 158.883 9.968 158.371 9.688C157.867 9.4 157.471 8.996 157.183 8.476C156.903 7.956 156.763 7.356 156.763 6.676C156.763 5.988 156.903 5.384 157.183 4.864C157.463 4.344 157.855 3.944 158.359 3.664C158.863 3.384 159.443 3.244 160.099 3.244C160.731 3.244 161.295 3.38 161.791 3.652C162.295 3.924 162.683 4.312 162.955 4.816C163.235 5.312 163.375 5.884 163.375 6.532ZM161.635 6.052C161.627 5.62 161.471 5.276 161.167 5.02C160.863 4.756 160.491 4.624 160.051 4.624C159.635 4.624 159.283 4.752 158.995 5.008C158.715 5.256 158.543 5.604 158.479 6.052H161.635ZM167.145 10.108C166.601 10.108 166.113 10.012 165.681 9.82C165.249 9.62 164.905 9.352 164.649 9.016C164.401 8.68 164.265 8.308 164.241 7.9H165.933C165.965 8.156 166.089 8.368 166.305 8.536C166.529 8.704 166.805 8.788 167.133 8.788C167.453 8.788 167.701 8.724 167.877 8.596C168.061 8.468 168.153 8.304 168.153 8.104C168.153 7.888 168.041 7.728 167.817 7.624C167.601 7.512 167.253 7.392 166.773 7.264C166.277 7.144 165.869 7.02 165.549 6.892C165.237 6.764 164.965 6.568 164.733 6.304C164.509 6.04 164.397 5.684 164.397 5.236C164.397 4.868 164.501 4.532 164.709 4.228C164.925 3.924 165.229 3.684 165.621 3.508C166.021 3.332 166.489 3.244 167.025 3.244C167.817 3.244 168.449 3.444 168.921 3.844C169.393 4.236 169.653 4.768 169.701 5.44H168.093C168.069 5.176 167.957 4.968 167.757 4.816C167.565 4.656 167.305 4.576 166.977 4.576C166.673 4.576 166.437 4.632 166.269 4.744C166.109 4.856 166.029 5.012 166.029 5.212C166.029 5.436 166.141 5.608 166.365 5.728C166.589 5.84 166.937 5.956 167.409 6.076C167.889 6.196 168.285 6.32 168.597 6.448C168.909 6.576 169.177 6.776 169.401 7.048C169.633 7.312 169.753 7.664 169.761 8.104C169.761 8.488 169.653 8.832 169.437 9.136C169.229 9.44 168.925 9.68 168.525 9.856C168.133 10.024 167.673 10.108 167.145 10.108ZM177.321 6.532C177.321 6.772 177.305 6.988 177.273 7.18H172.413C172.453 7.66 172.621 8.036 172.917 8.308C173.213 8.58 173.577 8.716 174.009 8.716C174.633 8.716 175.077 8.448 175.341 7.912H177.153C176.961 8.552 176.593 9.08 176.049 9.496C175.505 9.904 174.837 10.108 174.045 10.108C173.405 10.108 172.829 9.968 172.317 9.688C171.813 9.4 171.417 8.996 171.129 8.476C170.849 7.956 170.708 7.356 170.708 6.676C170.708 5.988 170.849 5.384 171.129 4.864C171.409 4.344 171.801 3.944 172.305 3.664C172.809 3.384 173.389 3.244 174.045 3.244C174.677 3.244 175.241 3.38 175.737 3.652C176.241 3.924 176.629 4.312 176.901 4.816C177.181 5.312 177.321 5.884 177.321 6.532ZM175.581 6.052C175.573 5.62 175.417 5.276 175.113 5.02C174.809 4.756 174.437 4.624 173.997 4.624C173.581 4.624 173.229 4.752 172.941 5.008C172.661 5.256 172.489 5.604 172.425 6.052H175.581ZM180.227 4.384C180.443 4.032 180.723 3.756 181.067 3.556C181.419 3.356 181.819 3.256 182.267 3.256V5.02H181.823C181.295 5.02 180.895 5.144 180.623 5.392C180.359 5.64 180.227 6.072 180.227 6.688V10H178.547V3.352H180.227V4.384ZM186.17 8.452L187.85 3.352H189.638L187.178 10H185.138L182.69 3.352H184.49L186.17 8.452ZM190.15 6.652C190.15 5.98 190.282 5.384 190.546 4.864C190.818 4.344 191.182 3.944 191.638 3.664C192.102 3.384 192.618 3.244 193.186 3.244C193.682 3.244 194.114 3.344 194.482 3.544C194.858 3.744 195.158 3.996 195.382 4.3V3.352H197.074V10H195.382V9.028C195.166 9.34 194.866 9.6 194.482 9.808C194.106 10.008 193.67 10.108 193.174 10.108C192.614 10.108 192.102 9.964 191.638 9.676C191.182 9.388 190.818 8.984 190.546 8.464C190.282 7.936 190.15 7.332 190.15 6.652ZM195.382 6.676C195.382 6.268 195.302 5.92 195.142 5.632C194.982 5.336 194.766 5.112 194.494 4.96C194.222 4.8 193.93 4.72 193.618 4.72C193.306 4.72 193.018 4.796 192.754 4.948C192.49 5.1 192.274 5.324 192.106 5.62C191.946 5.908 191.866 6.252 191.866 6.652C191.866 7.052 191.946 7.404 192.106 7.708C192.274 8.004 192.49 8.232 192.754 8.392C193.026 8.552 193.314 8.632 193.618 8.632C193.93 8.632 194.222 8.556 194.494 8.404C194.766 8.244 194.982 8.02 195.142 7.732C195.302 7.436 195.382 7.084 195.382 6.676ZM200.671 4.732V7.948C200.671 8.172 200.723 8.336 200.827 8.44C200.939 8.536 201.123 8.584 201.379 8.584H202.159V10H201.103C199.687 10 198.979 9.312 198.979 7.936V4.732H198.187V3.352H198.979V1.708H200.671V3.352H202.159V4.732H200.671ZM204.219 2.56C203.923 2.56 203.675 2.468 203.475 2.284C203.283 2.092 203.187 1.856 203.187 1.576C203.187 1.296 203.283 1.064 203.475 0.879999C203.675 0.687999 203.923 0.592 204.219 0.592C204.515 0.592 204.759 0.687999 204.951 0.879999C205.151 1.064 205.251 1.296 205.251 1.576C205.251 1.856 205.151 2.092 204.951 2.284C204.759 2.468 204.515 2.56 204.219 2.56ZM205.047 3.352V10H203.367V3.352H205.047ZM209.659 10.108C209.019 10.108 208.443 9.968 207.931 9.688C207.419 9.4 207.015 8.996 206.719 8.476C206.431 7.956 206.287 7.356 206.287 6.676C206.287 5.996 206.435 5.396 206.731 4.876C207.035 4.356 207.447 3.956 207.967 3.676C208.487 3.388 209.067 3.244 209.707 3.244C210.347 3.244 210.927 3.388 211.447 3.676C211.967 3.956 212.375 4.356 212.671 4.876C212.975 5.396 213.127 5.996 213.127 6.676C213.127 7.356 212.971 7.956 212.659 8.476C212.355 8.996 211.939 9.4 211.411 9.688C210.891 9.968 210.307 10.108 209.659 10.108ZM209.659 8.644C209.963 8.644 210.247 8.572 210.511 8.428C210.783 8.276 210.999 8.052 211.159 7.756C211.319 7.46 211.399 7.1 211.399 6.676C211.399 6.044 211.231 5.56 210.895 5.224C210.567 4.88 210.163 4.708 209.683 4.708C209.203 4.708 208.799 4.88 208.471 5.224C208.151 5.56 207.991 6.044 207.991 6.676C207.991 7.308 208.147 7.796 208.459 8.14C208.779 8.476 209.179 8.644 209.659 8.644ZM218.043 3.256C218.835 3.256 219.475 3.508 219.963 4.012C220.451 4.508 220.695 5.204 220.695 6.1V10H219.015V6.328C219.015 5.8 218.883 5.396 218.619 5.116C218.355 4.828 217.995 4.684 217.539 4.684C217.075 4.684 216.707 4.828 216.435 5.116C216.171 5.396 216.039 5.8 216.039 6.328V10H214.359V3.352H216.039V4.18C216.263 3.892 216.547 3.668 216.891 3.508C217.243 3.34 217.627 3.256 218.043 3.256ZM228.104 10.108C227.464 10.108 226.888 9.968 226.376 9.688C225.864 9.4 225.46 8.996 225.164 8.476C224.876 7.956 224.732 7.356 224.732 6.676C224.732 5.996 224.88 5.396 225.176 4.876C225.48 4.356 225.892 3.956 226.412 3.676C226.932 3.388 227.512 3.244 228.152 3.244C228.792 3.244 229.372 3.388 229.892 3.676C230.412 3.956 230.82 4.356 231.116 4.876C231.42 5.396 231.572 5.996 231.572 6.676C231.572 7.356 231.416 7.956 231.104 8.476C230.8 8.996 230.384 9.4 229.856 9.688C229.336 9.968 228.752 10.108 228.104 10.108ZM228.104 8.644C228.408 8.644 228.692 8.572 228.956 8.428C229.228 8.276 229.444 8.052 229.604 7.756C229.764 7.46 229.844 7.1 229.844 6.676C229.844 6.044 229.676 5.56 229.34 5.224C229.012 4.88 228.608 4.708 228.128 4.708C227.648 4.708 227.244 4.88 226.916 5.224C226.596 5.56 226.436 6.044 226.436 6.676C226.436 7.308 226.592 7.796 226.904 8.14C227.224 8.476 227.624 8.644 228.104 8.644ZM236.489 3.256C237.281 3.256 237.921 3.508 238.409 4.012C238.897 4.508 239.141 5.204 239.141 6.1V10H237.461V6.328C237.461 5.8 237.329 5.396 237.065 5.116C236.801 4.828 236.441 4.684 235.985 4.684C235.521 4.684 235.153 4.828 234.881 5.116C234.617 5.396 234.485 5.8 234.485 6.328V10H232.805V3.352H234.485V4.18C234.709 3.892 234.993 3.668 235.337 3.508C235.689 3.34 236.073 3.256 236.489 3.256ZM250.258 1.624L247.426 7.084V10H245.746V7.084L242.902 1.624H244.798L246.598 5.452L248.386 1.624H250.258ZM257.406 6.532C257.406 6.772 257.39 6.988 257.358 7.18H252.498C252.538 7.66 252.706 8.036 253.002 8.308C253.298 8.58 253.662 8.716 254.094 8.716C254.718 8.716 255.162 8.448 255.426 7.912H257.238C257.046 8.552 256.678 9.08 256.134 9.496C255.59 9.904 254.922 10.108 254.13 10.108C253.49 10.108 252.914 9.968 252.402 9.688C251.898 9.4 251.502 8.996 251.214 8.476C250.934 7.956 250.794 7.356 250.794 6.676C250.794 5.988 250.934 5.384 251.214 4.864C251.494 4.344 251.886 3.944 252.39 3.664C252.894 3.384 253.474 3.244 254.13 3.244C254.762 3.244 255.326 3.38 255.822 3.652C256.326 3.924 256.714 4.312 256.986 4.816C257.266 5.312 257.406 5.884 257.406 6.532ZM255.666 6.052C255.658 5.62 255.502 5.276 255.198 5.02C254.894 4.756 254.522 4.624 254.082 4.624C253.666 4.624 253.314 4.752 253.026 5.008C252.746 5.256 252.574 5.604 252.51 6.052H255.666ZM258.201 6.652C258.201 5.98 258.333 5.384 258.597 4.864C258.869 4.344 259.233 3.944 259.689 3.664C260.153 3.384 260.669 3.244 261.237 3.244C261.733 3.244 262.165 3.344 262.533 3.544C262.909 3.744 263.209 3.996 263.433 4.3V3.352H265.125V10H263.433V9.028C263.217 9.34 262.917 9.6 262.533 9.808C262.157 10.008 261.721 10.108 261.225 10.108C260.665 10.108 260.153 9.964 259.689 9.676C259.233 9.388 258.869 8.984 258.597 8.464C258.333 7.936 258.201 7.332 258.201 6.652ZM263.433 6.676C263.433 6.268 263.353 5.92 263.193 5.632C263.033 5.336 262.817 5.112 262.545 4.96C262.273 4.8 261.981 4.72 261.669 4.72C261.357 4.72 261.069 4.796 260.805 4.948C260.541 5.1 260.325 5.324 260.157 5.62C259.997 5.908 259.917 6.252 259.917 6.652C259.917 7.052 259.997 7.404 260.157 7.708C260.325 8.004 260.541 8.232 260.805 8.392C261.077 8.552 261.365 8.632 261.669 8.632C261.981 8.632 262.273 8.556 262.545 8.404C262.817 8.244 263.033 8.02 263.193 7.732C263.353 7.436 263.433 7.084 263.433 6.676ZM268.446 4.384C268.662 4.032 268.942 3.756 269.286 3.556C269.638 3.356 270.038 3.256 270.486 3.256V5.02H270.042C269.514 5.02 269.114 5.144 268.842 5.392C268.578 5.64 268.446 6.072 268.446 6.688V10H266.766V3.352H268.446V4.384ZM274.812 8.104C275.58 7.464 276.192 6.932 276.648 6.508C277.104 6.076 277.484 5.628 277.788 5.164C278.092 4.7 278.244 4.244 278.244 3.796C278.244 3.388 278.148 3.068 277.956 2.836C277.764 2.604 277.468 2.488 277.068 2.488C276.668 2.488 276.36 2.624 276.144 2.896C275.928 3.16 275.816 3.524 275.808 3.988H274.176C274.208 3.028 274.492 2.3 275.028 1.804C275.572 1.308 276.26 1.06 277.092 1.06C278.004 1.06 278.704 1.304 279.192 1.792C279.68 2.272 279.924 2.908 279.924 3.7C279.924 4.324 279.756 4.92 279.42 5.488C279.084 6.056 278.7 6.552 278.268 6.976C277.836 7.392 277.272 7.896 276.576 8.488H280.116V9.88H274.188V8.632L274.812 8.104ZM281.175 5.512C281.175 4.128 281.423 3.044 281.919 2.26C282.423 1.476 283.255 1.084 284.415 1.084C285.575 1.084 286.403 1.476 286.899 2.26C287.403 3.044 287.655 4.128 287.655 5.512C287.655 6.904 287.403 7.996 286.899 8.788C286.403 9.58 285.575 9.976 284.415 9.976C283.255 9.976 282.423 9.58 281.919 8.788C281.423 7.996 281.175 6.904 281.175 5.512ZM285.999 5.512C285.999 4.92 285.959 4.424 285.879 4.024C285.807 3.616 285.655 3.284 285.423 3.028C285.199 2.772 284.863 2.644 284.415 2.644C283.967 2.644 283.627 2.772 283.395 3.028C283.171 3.284 283.019 3.616 282.939 4.024C282.867 4.424 282.831 4.92 282.831 5.512C282.831 6.12 282.867 6.632 282.939 7.048C283.011 7.456 283.163 7.788 283.395 8.044C283.627 8.292 283.967 8.416 284.415 8.416C284.863 8.416 285.203 8.292 285.435 8.044C285.667 7.788 285.819 7.456 285.891 7.048C285.963 6.632 285.999 6.12 285.999 5.512ZM289.461 8.104C290.229 7.464 290.841 6.932 291.297 6.508C291.753 6.076 292.133 5.628 292.437 5.164C292.741 4.7 292.893 4.244 292.893 3.796C292.893 3.388 292.797 3.068 292.605 2.836C292.413 2.604 292.117 2.488 291.717 2.488C291.317 2.488 291.009 2.624 290.793 2.896C290.577 3.16 290.465 3.524 290.457 3.988H288.825C288.857 3.028 289.141 2.3 289.677 1.804C290.221 1.308 290.909 1.06 291.741 1.06C292.653 1.06 293.353 1.304 293.841 1.792C294.329 2.272 294.573 2.908 294.573 3.7C294.573 4.324 294.405 4.92 294.069 5.488C293.733 6.056 293.349 6.552 292.917 6.976C292.485 7.392 291.921 7.896 291.225 8.488H294.765V9.88H288.837V8.632L289.461 8.104ZM295.62 2.8V1.252H298.512V10H296.784V2.8H295.62Z" fill="black"/>
<line x1="30" y1="182.5" x2="375" y2="182.5" stroke="#CECECE"/>
<line x1="30" y1="182.5" x2="375" y2="182.5" stroke="#CECECE"/>
<line x1="30" y1="164.5" x2="375" y2="164.5" stroke="#CECECE"/>
<line x1="30" y1="164.5" x2="375" y2="164.5" stroke="#CECECE"/>
<line x1="30" y1="146.5" x2="375" y2="146.5" stroke="#CECECE"/>
<line x1="30" y1="146.5" x2="375" y2="146.5" stroke="#CECECE"/>
<line x1="30" y1="128.5" x2="375" y2="128.5" stroke="#CECECE"/>
<line x1="30" y1="128.5" x2="375" y2="128.5" stroke="#CECECE"/>
<line x1="30" y1="112.5" x2="375" y2="112.5" stroke="#CECECE"/>
<line x1="30" y1="112.5" x2="375" y2="112.5" stroke="#CECECE"/>
<line x1="30" y1="94.5" x2="375" y2="94.5" stroke="#CECECE"/>
<line x1="30" y1="94.5" x2="375" y2="94.5" stroke="#CECECE"/>
<line x1="30" y1="76.5" x2="375" y2="76.5" stroke="#CECECE"/>
<line x1="30" y1="76.5" x2="375" y2="76.5" stroke="#CECECE"/>
<line x1="30" y1="60.5" x2="375" y2="60.5" stroke="#CECECE"/>
<line x1="30" y1="60.5" x2="375" y2="60.5" stroke="#CECECE"/>
<line x1="30" y1="42.5" x2="375" y2="42.5" stroke="#CECECE"/>
<line x1="30" y1="42.5" x2="375" y2="42.5" stroke="#CECECE"/>
<path d="M40.76 194.02V198.92C40.76 199.6 40.5633 200.13 40.17 200.51C39.7767 200.883 39.25 201.07 38.59 201.07C37.9233 201.07 37.3833 200.877 36.97 200.49C36.5633 200.103 36.36 199.563 36.36 198.87H37.76C37.7667 199.17 37.8367 199.403 37.97 199.57C38.11 199.737 38.31 199.82 38.57 199.82C38.8233 199.82 39.0167 199.74 39.15 199.58C39.2833 199.42 39.35 199.2 39.35 198.92V194.02H40.76ZM42.0331 198.21C42.0331 197.65 42.1431 197.153 42.3631 196.72C42.5898 196.287 42.8931 195.953 43.2731 195.72C43.6598 195.487 44.0898 195.37 44.5631 195.37C44.9765 195.37 45.3365 195.453 45.6431 195.62C45.9565 195.787 46.2065 195.997 46.3931 196.25V195.46H47.8031V201H46.3931V200.19C46.2131 200.45 45.9631 200.667 45.6431 200.84C45.3298 201.007 44.9665 201.09 44.5531 201.09C44.0865 201.09 43.6598 200.97 43.2731 200.73C42.8931 200.49 42.5898 200.153 42.3631 199.72C42.1431 199.28 42.0331 198.777 42.0331 198.21ZM46.3931 198.23C46.3931 197.89 46.3265 197.6 46.1931 197.36C46.0598 197.113 45.8798 196.927 45.6531 196.8C45.4265 196.667 45.1831 196.6 44.9231 196.6C44.6631 196.6 44.4231 196.663 44.2031 196.79C43.9831 196.917 43.8031 197.103 43.6631 197.35C43.5298 197.59 43.4631 197.877 43.4631 198.21C43.4631 198.543 43.5298 198.837 43.6631 199.09C43.8031 199.337 43.9831 199.527 44.2031 199.66C44.4298 199.793 44.6698 199.86 44.9231 199.86C45.1831 199.86 45.4265 199.797 45.6531 199.67C45.8798 199.537 46.0598 199.35 46.1931 199.11C46.3265 198.863 46.3931 198.57 46.3931 198.23ZM52.2405 195.38C52.9005 195.38 53.4338 195.59 53.8405 196.01C54.2471 196.423 54.4505 197.003 54.4505 197.75V201H53.0505V197.94C53.0505 197.5 52.9405 197.163 52.7205 196.93C52.5005 196.69 52.2005 196.57 51.8205 196.57C51.4338 196.57 51.1271 196.69 50.9005 196.93C50.6805 197.163 50.5705 197.5 50.5705 197.94V201H49.1705V195.46H50.5705V196.15C50.7571 195.91 50.9938 195.723 51.2805 195.59C51.5738 195.45 51.8938 195.38 52.2405 195.38ZM56.4018 201.07C56.1485 201.07 55.9385 200.993 55.7718 200.84C55.6118 200.68 55.5318 200.483 55.5318 200.25C55.5318 200.017 55.6118 199.823 55.7718 199.67C55.9385 199.51 56.1485 199.43 56.4018 199.43C56.6485 199.43 56.8518 199.51 57.0118 199.67C57.1718 199.823 57.2518 200.017 57.2518 200.25C57.2518 200.483 57.1718 200.68 57.0118 200.84C56.8518 200.993 56.6485 201.07 56.4018 201.07Z" fill="#A7A7A7"/>
<path d="M0.53 200.26C0.53 199.107 0.736667 198.203 1.15 197.55C1.57 196.897 2.26333 196.57 3.23 196.57C4.19667 196.57 4.88667 196.897 5.3 197.55C5.72 198.203 5.93 199.107 5.93 200.26C5.93 201.42 5.72 202.33 5.3 202.99C4.88667 203.65 4.19667 203.98 3.23 203.98C2.26333 203.98 1.57 203.65 1.15 202.99C0.736667 202.33 0.53 201.42 0.53 200.26ZM4.55 200.26C4.55 199.767 4.51667 199.353 4.45 199.02C4.39 198.68 4.26333 198.403 4.07 198.19C3.88333 197.977 3.60333 197.87 3.23 197.87C2.85667 197.87 2.57333 197.977 2.38 198.19C2.19333 198.403 2.06667 198.68 2 199.02C1.94 199.353 1.91 199.767 1.91 200.26C1.91 200.767 1.94 201.193 2 201.54C2.06 201.88 2.18667 202.157 2.38 202.37C2.57333 202.577 2.85667 202.68 3.23 202.68C3.60333 202.68 3.88667 202.577 4.08 202.37C4.27333 202.157 4.4 201.88 4.46 201.54C4.52 201.193 4.55 200.767 4.55 200.26Z" fill="#A7A7A7"/>
<path d="M0.97 184.42C1.61 183.887 2.12 183.443 2.5 183.09C2.88 182.73 3.19667 182.357 3.45 181.97C3.70333 181.583 3.83 181.203 3.83 180.83C3.83 180.49 3.75 180.223 3.59 180.03C3.43 179.837 3.18333 179.74 2.85 179.74C2.51667 179.74 2.26 179.853 2.08 180.08C1.9 180.3 1.80667 180.603 1.8 180.99H0.44C0.466667 180.19 0.703333 179.583 1.15 179.17C1.60333 178.757 2.17667 178.55 2.87 178.55C3.63 178.55 4.21333 178.753 4.62 179.16C5.02667 179.56 5.23 180.09 5.23 180.75C5.23 181.27 5.09 181.767 4.81 182.24C4.53 182.713 4.21 183.127 3.85 183.48C3.49 183.827 3.02 184.247 2.44 184.74H5.39V185.9H0.45V184.86L0.97 184.42ZM6.27219 182.26C6.27219 181.107 6.47885 180.203 6.89219 179.55C7.31219 178.897 8.00552 178.57 8.97219 178.57C9.93885 178.57 10.6289 178.897 11.0422 179.55C11.4622 180.203 11.6722 181.107 11.6722 182.26C11.6722 183.42 11.4622 184.33 11.0422 184.99C10.6289 185.65 9.93885 185.98 8.97219 185.98C8.00552 185.98 7.31219 185.65 6.89219 184.99C6.47885 184.33 6.27219 183.42 6.27219 182.26ZM10.2922 182.26C10.2922 181.767 10.2589 181.353 10.1922 181.02C10.1322 180.68 10.0055 180.403 9.81219 180.19C9.62552 179.977 9.34552 179.87 8.97219 179.87C8.59885 179.87 8.31552 179.977 8.12219 180.19C7.93552 180.403 7.80885 180.68 7.74219 181.02C7.68219 181.353 7.65219 181.767 7.65219 182.26C7.65219 182.767 7.68219 183.193 7.74219 183.54C7.80219 183.88 7.92885 184.157 8.12219 184.37C8.31552 184.577 8.59885 184.68 8.97219 184.68C9.34552 184.68 9.62885 184.577 9.82219 184.37C10.0155 184.157 10.1422 183.88 10.2022 183.54C10.2622 183.193 10.2922 182.767 10.2922 182.26Z" fill="#A7A7A7"/>
<path d="M0.47 168.58V167.48L3.74 162.8H5.37V167.36H6.25V168.58H5.37V170H3.97V168.58H0.47ZM4.06 164.3L2.01 167.36H4.06V164.3ZM7.14133 166.26C7.14133 165.107 7.34799 164.203 7.76133 163.55C8.18133 162.897 8.87466 162.57 9.84133 162.57C10.808 162.57 11.498 162.897 11.9113 163.55C12.3313 164.203 12.5413 165.107 12.5413 166.26C12.5413 167.42 12.3313 168.33 11.9113 168.99C11.498 169.65 10.808 169.98 9.84133 169.98C8.87466 169.98 8.18133 169.65 7.76133 168.99C7.34799 168.33 7.14133 167.42 7.14133 166.26ZM11.1613 166.26C11.1613 165.767 11.128 165.353 11.0613 165.02C11.0013 164.68 10.8747 164.403 10.6813 164.19C10.4947 163.977 10.2147 163.87 9.84133 163.87C9.46799 163.87 9.18466 163.977 8.99133 164.19C8.80466 164.403 8.67799 164.68 8.61133 165.02C8.55133 165.353 8.52133 165.767 8.52133 166.26C8.52133 166.767 8.55133 167.193 8.61133 167.54C8.67133 167.88 8.79799 168.157 8.99133 168.37C9.18466 168.577 9.46799 168.68 9.84133 168.68C10.2147 168.68 10.498 168.577 10.6913 168.37C10.8847 168.157 11.0113 167.88 11.0713 167.54C11.1313 167.193 11.1613 166.767 11.1613 166.26Z" fill="#A7A7A7"/>
<path d="M4.31 144.53C4.24333 144.25 4.12667 144.04 3.96 143.9C3.8 143.76 3.56667 143.69 3.26 143.69C2.8 143.69 2.46 143.877 2.24 144.25C2.02667 144.617 1.91667 145.217 1.91 146.05C2.07 145.783 2.30333 145.577 2.61 145.43C2.91667 145.277 3.25 145.2 3.61 145.2C4.04333 145.2 4.42667 145.293 4.76 145.48C5.09333 145.667 5.35333 145.94 5.54 146.3C5.72667 146.653 5.82 147.08 5.82 147.58C5.82 148.053 5.72333 148.477 5.53 148.85C5.34333 149.217 5.06667 149.503 4.7 149.71C4.33333 149.917 3.89667 150.02 3.39 150.02C2.69667 150.02 2.15 149.867 1.75 149.56C1.35667 149.253 1.08 148.827 0.92 148.28C0.766667 147.727 0.69 147.047 0.69 146.24C0.69 145.02 0.9 144.1 1.32 143.48C1.74 142.853 2.40333 142.54 3.31 142.54C4.01 142.54 4.55333 142.73 4.94 143.11C5.32667 143.49 5.55 143.963 5.61 144.53H4.31ZM3.29 146.35C2.93667 146.35 2.64 146.453 2.4 146.66C2.16 146.867 2.04 147.167 2.04 147.56C2.04 147.953 2.15 148.263 2.37 148.49C2.59667 148.717 2.91333 148.83 3.32 148.83C3.68 148.83 3.96333 148.72 4.17 148.5C4.38333 148.28 4.49 147.983 4.49 147.61C4.49 147.223 4.38667 146.917 4.18 146.69C3.98 146.463 3.68333 146.35 3.29 146.35ZM6.92648 146.26C6.92648 145.107 7.13315 144.203 7.54648 143.55C7.96648 142.897 8.65982 142.57 9.62648 142.57C10.5932 142.57 11.2832 142.897 11.6965 143.55C12.1165 144.203 12.3265 145.107 12.3265 146.26C12.3265 147.42 12.1165 148.33 11.6965 148.99C11.2832 149.65 10.5932 149.98 9.62648 149.98C8.65982 149.98 7.96648 149.65 7.54648 148.99C7.13315 148.33 6.92648 147.42 6.92648 146.26ZM10.9465 146.26C10.9465 145.767 10.9132 145.353 10.8465 145.02C10.7865 144.68 10.6598 144.403 10.4665 144.19C10.2798 143.977 9.99982 143.87 9.62648 143.87C9.25315 143.87 8.96982 143.977 8.77648 144.19C8.58982 144.403 8.46315 144.68 8.39648 145.02C8.33648 145.353 8.30648 145.767 8.30648 146.26C8.30648 146.767 8.33648 147.193 8.39648 147.54C8.45648 147.88 8.58315 148.157 8.77648 148.37C8.96982 148.577 9.25315 148.68 9.62648 148.68C9.99982 148.68 10.2832 148.577 10.4765 148.37C10.6698 148.157 10.7965 147.88 10.8565 147.54C10.9165 147.193 10.9465 146.767 10.9465 146.26Z" fill="#A7A7A7"/>
<path d="M1.75 130.14C1.08333 129.793 0.75 129.257 0.75 128.53C0.75 128.17 0.84 127.843 1.02 127.55C1.20667 127.25 1.48333 127.013 1.85 126.84C2.22333 126.66 2.67667 126.57 3.21 126.57C3.74333 126.57 4.19333 126.66 4.56 126.84C4.93333 127.013 5.21 127.25 5.39 127.55C5.57667 127.843 5.67 128.17 5.67 128.53C5.67 128.897 5.58 129.22 5.4 129.5C5.22 129.773 4.98 129.987 4.68 130.14C5.04667 130.3 5.33333 130.533 5.54 130.84C5.74667 131.147 5.85 131.51 5.85 131.93C5.85 132.383 5.73333 132.78 5.5 133.12C5.27333 133.453 4.96 133.71 4.56 133.89C4.16 134.07 3.71 134.16 3.21 134.16C2.71 134.16 2.26 134.07 1.86 133.89C1.46667 133.71 1.15333 133.453 0.92 133.12C0.693333 132.78 0.58 132.383 0.58 131.93C0.58 131.51 0.683333 131.147 0.89 130.84C1.09667 130.527 1.38333 130.293 1.75 130.14ZM4.31 128.73C4.31 128.403 4.21 128.15 4.01 127.97C3.81667 127.79 3.55 127.7 3.21 127.7C2.87667 127.7 2.61 127.79 2.41 127.97C2.21667 128.15 2.12 128.407 2.12 128.74C2.12 129.04 2.22 129.28 2.42 129.46C2.62667 129.64 2.89 129.73 3.21 129.73C3.53 129.73 3.79333 129.64 4 129.46C4.20667 129.273 4.31 129.03 4.31 128.73ZM3.21 130.75C2.83 130.75 2.52 130.847 2.28 131.04C2.04667 131.233 1.93 131.51 1.93 131.87C1.93 132.203 2.04333 132.477 2.27 132.69C2.50333 132.897 2.81667 133 3.21 133C3.60333 133 3.91333 132.893 4.14 132.68C4.36667 132.467 4.48 132.197 4.48 131.87C4.48 131.517 4.36333 131.243 4.13 131.05C3.89667 130.85 3.59 130.75 3.21 130.75ZM6.95578 130.26C6.95578 129.107 7.16245 128.203 7.57578 127.55C7.99578 126.897 8.68911 126.57 9.65578 126.57C10.6224 126.57 11.3124 126.897 11.7258 127.55C12.1458 128.203 12.3558 129.107 12.3558 130.26C12.3558 131.42 12.1458 132.33 11.7258 132.99C11.3124 133.65 10.6224 133.98 9.65578 133.98C8.68911 133.98 7.99578 133.65 7.57578 132.99C7.16245 132.33 6.95578 131.42 6.95578 130.26ZM10.9758 130.26C10.9758 129.767 10.9424 129.353 10.8758 129.02C10.8158 128.68 10.6891 128.403 10.4958 128.19C10.3091 127.977 10.0291 127.87 9.65578 127.87C9.28245 127.87 8.99911 127.977 8.80578 128.19C8.61911 128.403 8.49245 128.68 8.42578 129.02C8.36578 129.353 8.33578 129.767 8.33578 130.26C8.33578 130.767 8.36578 131.193 8.42578 131.54C8.48578 131.88 8.61245 132.157 8.80578 132.37C8.99911 132.577 9.28245 132.68 9.65578 132.68C10.0291 132.68 10.3124 132.577 10.5058 132.37C10.6991 132.157 10.8258 131.88 10.8858 131.54C10.9458 131.193 10.9758 130.767 10.9758 130.26Z" fill="#A7A7A7"/>
<path d="M0.36 111V109.71H2.77V117H1.33V111H0.36ZM4.15305 113.26C4.15305 112.107 4.35971 111.203 4.77305 110.55C5.19305 109.897 5.88638 109.57 6.85305 109.57C7.81971 109.57 8.50971 109.897 8.92305 110.55C9.34305 111.203 9.55305 112.107 9.55305 113.26C9.55305 114.42 9.34305 115.33 8.92305 115.99C8.50971 116.65 7.81971 116.98 6.85305 116.98C5.88638 116.98 5.19305 116.65 4.77305 115.99C4.35971 115.33 4.15305 114.42 4.15305 113.26ZM8.17305 113.26C8.17305 112.767 8.13971 112.353 8.07305 112.02C8.01305 111.68 7.88638 111.403 7.69305 111.19C7.50638 110.977 7.22638 110.87 6.85305 110.87C6.47971 110.87 6.19638 110.977 6.00305 111.19C5.81638 111.403 5.68971 111.68 5.62305 112.02C5.56305 112.353 5.53305 112.767 5.53305 113.26C5.53305 113.767 5.56305 114.193 5.62305 114.54C5.68305 114.88 5.80971 115.157 6.00305 115.37C6.19638 115.577 6.47971 115.68 6.85305 115.68C7.22638 115.68 7.50971 115.577 7.70305 115.37C7.89638 115.157 8.02305 114.88 8.08305 114.54C8.14305 114.193 8.17305 113.767 8.17305 113.26ZM10.6179 113.26C10.6179 112.107 10.8246 111.203 11.2379 110.55C11.6579 109.897 12.3512 109.57 13.3179 109.57C14.2846 109.57 14.9746 109.897 15.3879 110.55C15.8079 111.203 16.0179 112.107 16.0179 113.26C16.0179 114.42 15.8079 115.33 15.3879 115.99C14.9746 116.65 14.2846 116.98 13.3179 116.98C12.3512 116.98 11.6579 116.65 11.2379 115.99C10.8246 115.33 10.6179 114.42 10.6179 113.26ZM14.6379 113.26C14.6379 112.767 14.6046 112.353 14.5379 112.02C14.4779 111.68 14.3512 111.403 14.1579 111.19C13.9712 110.977 13.6912 110.87 13.3179 110.87C12.9446 110.87 12.6612 110.977 12.4679 111.19C12.2812 111.403 12.1546 111.68 12.0879 112.02C12.0279 112.353 11.9979 112.767 11.9979 113.26C11.9979 113.767 12.0279 114.193 12.0879 114.54C12.1479 114.88 12.2746 115.157 12.4679 115.37C12.6612 115.577 12.9446 115.68 13.3179 115.68C13.6912 115.68 13.9746 115.577 14.1679 115.37C14.3612 115.157 14.4879 114.88 14.5479 114.54C14.6079 114.193 14.6379 113.767 14.6379 113.26Z" fill="#A7A7A7"/>
<path d="M0.36 93V91.71H2.77V99H1.33V93H0.36ZM4.59305 97.42C5.23305 96.8867 5.74305 96.4433 6.12305 96.09C6.50305 95.73 6.81971 95.3567 7.07305 94.97C7.32638 94.5833 7.45305 94.2033 7.45305 93.83C7.45305 93.49 7.37305 93.2233 7.21305 93.03C7.05305 92.8367 6.80638 92.74 6.47305 92.74C6.13971 92.74 5.88305 92.8533 5.70305 93.08C5.52305 93.3 5.42971 93.6033 5.42305 93.99H4.06305C4.08971 93.19 4.32638 92.5833 4.77305 92.17C5.22638 91.7567 5.79971 91.55 6.49305 91.55C7.25305 91.55 7.83638 91.7533 8.24305 92.16C8.64971 92.56 8.85305 93.09 8.85305 93.75C8.85305 94.27 8.71305 94.7667 8.43305 95.24C8.15305 95.7133 7.83305 96.1267 7.47305 96.48C7.11305 96.8267 6.64305 97.2467 6.06305 97.74H9.01305V98.9H4.07305V97.86L4.59305 97.42ZM9.89523 95.26C9.89523 94.1067 10.1019 93.2033 10.5152 92.55C10.9352 91.8967 11.6286 91.57 12.5952 91.57C13.5619 91.57 14.2519 91.8967 14.6652 92.55C15.0852 93.2033 15.2952 94.1067 15.2952 95.26C15.2952 96.42 15.0852 97.33 14.6652 97.99C14.2519 98.65 13.5619 98.98 12.5952 98.98C11.6286 98.98 10.9352 98.65 10.5152 97.99C10.1019 97.33 9.89523 96.42 9.89523 95.26ZM13.9152 95.26C13.9152 94.7667 13.8819 94.3533 13.8152 94.02C13.7552 93.68 13.6286 93.4033 13.4352 93.19C13.2486 92.9767 12.9686 92.87 12.5952 92.87C12.2219 92.87 11.9386 92.9767 11.7452 93.19C11.5586 93.4033 11.4319 93.68 11.3652 94.02C11.3052 94.3533 11.2752 94.7667 11.2752 95.26C11.2752 95.7667 11.3052 96.1933 11.3652 96.54C11.4252 96.88 11.5519 97.1567 11.7452 97.37C11.9386 97.5767 12.2219 97.68 12.5952 97.68C12.9686 97.68 13.2519 97.5767 13.4452 97.37C13.6386 97.1567 13.7652 96.88 13.8252 96.54C13.8852 96.1933 13.9152 95.7667 13.9152 95.26Z" fill="#A7A7A7"/>
<path d="M0.36 77V75.71H2.77V83H1.33V77H0.36ZM4.09305 81.58V80.48L7.36305 75.8H8.99305V80.36H9.87305V81.58H8.99305V83H7.59305V81.58H4.09305ZM7.68305 77.3L5.63305 80.36H7.68305V77.3ZM10.7644 79.26C10.7644 78.1067 10.971 77.2033 11.3844 76.55C11.8044 75.8967 12.4977 75.57 13.4644 75.57C14.431 75.57 15.121 75.8967 15.5344 76.55C15.9544 77.2033 16.1644 78.1067 16.1644 79.26C16.1644 80.42 15.9544 81.33 15.5344 81.99C15.121 82.65 14.431 82.98 13.4644 82.98C12.4977 82.98 11.8044 82.65 11.3844 81.99C10.971 81.33 10.7644 80.42 10.7644 79.26ZM14.7844 79.26C14.7844 78.7667 14.751 78.3533 14.6844 78.02C14.6244 77.68 14.4977 77.4033 14.3044 77.19C14.1177 76.9767 13.8377 76.87 13.4644 76.87C13.091 76.87 12.8077 76.9767 12.6144 77.19C12.4277 77.4033 12.301 77.68 12.2344 78.02C12.1744 78.3533 12.1444 78.7667 12.1444 79.26C12.1444 79.7667 12.1744 80.1933 12.2344 80.54C12.2944 80.88 12.421 81.1567 12.6144 81.37C12.8077 81.5767 13.091 81.68 13.4644 81.68C13.8377 81.68 14.121 81.5767 14.3144 81.37C14.5077 81.1567 14.6344 80.88 14.6944 80.54C14.7544 80.1933 14.7844 79.7667 14.7844 79.26Z" fill="#A7A7A7"/>
<path d="M0.36 58V56.71H2.77V64H1.33V58H0.36ZM7.93305 58.53C7.86638 58.25 7.74971 58.04 7.58305 57.9C7.42305 57.76 7.18971 57.69 6.88305 57.69C6.42305 57.69 6.08305 57.8767 5.86305 58.25C5.64971 58.6167 5.53971 59.2167 5.53305 60.05C5.69305 59.7833 5.92638 59.5767 6.23305 59.43C6.53971 59.2767 6.87305 59.2 7.23305 59.2C7.66638 59.2 8.04971 59.2933 8.38305 59.48C8.71638 59.6667 8.97638 59.94 9.16305 60.3C9.34971 60.6533 9.44305 61.08 9.44305 61.58C9.44305 62.0533 9.34638 62.4767 9.15305 62.85C8.96638 63.2167 8.68971 63.5033 8.32305 63.71C7.95638 63.9167 7.51971 64.02 7.01305 64.02C6.31971 64.02 5.77305 63.8667 5.37305 63.56C4.97971 63.2533 4.70305 62.8267 4.54305 62.28C4.38971 61.7267 4.31305 61.0467 4.31305 60.24C4.31305 59.02 4.52305 58.1 4.94305 57.48C5.36305 56.8533 6.02638 56.54 6.93305 56.54C7.63305 56.54 8.17638 56.73 8.56305 57.11C8.94971 57.49 9.17305 57.9633 9.23305 58.53H7.93305ZM6.91305 60.35C6.55971 60.35 6.26305 60.4533 6.02305 60.66C5.78305 60.8667 5.66305 61.1667 5.66305 61.56C5.66305 61.9533 5.77305 62.2633 5.99305 62.49C6.21971 62.7167 6.53638 62.83 6.94305 62.83C7.30305 62.83 7.58638 62.72 7.79305 62.5C8.00638 62.28 8.11305 61.9833 8.11305 61.61C8.11305 61.2233 8.00971 60.9167 7.80305 60.69C7.60305 60.4633 7.30638 60.35 6.91305 60.35ZM10.5495 60.26C10.5495 59.1067 10.7562 58.2033 11.1695 57.55C11.5895 56.8967 12.2829 56.57 13.2495 56.57C14.2162 56.57 14.9062 56.8967 15.3195 57.55C15.7395 58.2033 15.9495 59.1067 15.9495 60.26C15.9495 61.42 15.7395 62.33 15.3195 62.99C14.9062 63.65 14.2162 63.98 13.2495 63.98C12.2829 63.98 11.5895 63.65 11.1695 62.99C10.7562 62.33 10.5495 61.42 10.5495 60.26ZM14.5695 60.26C14.5695 59.7667 14.5362 59.3533 14.4695 59.02C14.4095 58.68 14.2829 58.4033 14.0895 58.19C13.9029 57.9767 13.6229 57.87 13.2495 57.87C12.8762 57.87 12.5929 57.9767 12.3995 58.19C12.2129 58.4033 12.0862 58.68 12.0195 59.02C11.9595 59.3533 11.9295 59.7667 11.9295 60.26C11.9295 60.7667 11.9595 61.1933 12.0195 61.54C12.0795 61.88 12.2062 62.1567 12.3995 62.37C12.5929 62.5767 12.8762 62.68 13.2495 62.68C13.6229 62.68 13.9062 62.5767 14.0995 62.37C14.2929 62.1567 14.4195 61.88 14.4795 61.54C14.5395 61.1933 14.5695 60.7667 14.5695 60.26Z" fill="#A7A7A7"/>
<path d="M104.3 194.02V201H102.9V196.46L101.03 201H99.97L98.09 196.46V201H96.69V194.02H98.28L100.5 199.21L102.72 194.02H104.3ZM105.324 198.21C105.324 197.65 105.434 197.153 105.654 196.72C105.881 196.287 106.184 195.953 106.564 195.72C106.951 195.487 107.381 195.37 107.854 195.37C108.267 195.37 108.627 195.453 108.934 195.62C109.247 195.787 109.497 195.997 109.684 196.25V195.46H111.094V201H109.684V200.19C109.504 200.45 109.254 200.667 108.934 200.84C108.621 201.007 108.257 201.09 107.844 201.09C107.377 201.09 106.951 200.97 106.564 200.73C106.184 200.49 105.881 200.153 105.654 199.72C105.434 199.28 105.324 198.777 105.324 198.21ZM109.684 198.23C109.684 197.89 109.617 197.6 109.484 197.36C109.351 197.113 109.171 196.927 108.944 196.8C108.717 196.667 108.474 196.6 108.214 196.6C107.954 196.6 107.714 196.663 107.494 196.79C107.274 196.917 107.094 197.103 106.954 197.35C106.821 197.59 106.754 197.877 106.754 198.21C106.754 198.543 106.821 198.837 106.954 199.09C107.094 199.337 107.274 199.527 107.494 199.66C107.721 199.793 107.961 199.86 108.214 199.86C108.474 199.86 108.717 199.797 108.944 199.67C109.171 199.537 109.351 199.35 109.484 199.11C109.617 198.863 109.684 198.57 109.684 198.23ZM113.861 196.32C114.041 196.027 114.275 195.797 114.561 195.63C114.855 195.463 115.188 195.38 115.561 195.38V196.85H115.191C114.751 196.85 114.418 196.953 114.191 197.16C113.971 197.367 113.861 197.727 113.861 198.24V201H112.461V195.46H113.861V196.32ZM117.124 201.07C116.871 201.07 116.661 200.993 116.494 200.84C116.334 200.68 116.254 200.483 116.254 200.25C116.254 200.017 116.334 199.823 116.494 199.67C116.661 199.51 116.871 199.43 117.124 199.43C117.371 199.43 117.574 199.51 117.734 199.67C117.894 199.823 117.974 200.017 117.974 200.25C117.974 200.483 117.894 200.68 117.734 200.84C117.574 200.993 117.371 201.07 117.124 201.07Z" fill="#A7A7A7"/>
<path d="M356.13 194.02C356.863 194.02 357.507 194.163 358.06 194.45C358.62 194.737 359.05 195.147 359.35 195.68C359.657 196.207 359.81 196.82 359.81 197.52C359.81 198.22 359.657 198.833 359.35 199.36C359.05 199.88 358.62 200.283 358.06 200.57C357.507 200.857 356.863 201 356.13 201H353.69V194.02H356.13ZM356.08 199.81C356.813 199.81 357.38 199.61 357.78 199.21C358.18 198.81 358.38 198.247 358.38 197.52C358.38 196.793 358.18 196.227 357.78 195.82C357.38 195.407 356.813 195.2 356.08 195.2H355.09V199.81H356.08ZM366.008 198.11C366.008 198.31 365.995 198.49 365.968 198.65H361.918C361.951 199.05 362.091 199.363 362.338 199.59C362.585 199.817 362.888 199.93 363.248 199.93C363.768 199.93 364.138 199.707 364.358 199.26H365.868C365.708 199.793 365.401 200.233 364.948 200.58C364.495 200.92 363.938 201.09 363.278 201.09C362.745 201.09 362.265 200.973 361.838 200.74C361.418 200.5 361.088 200.163 360.848 199.73C360.615 199.297 360.498 198.797 360.498 198.23C360.498 197.657 360.615 197.153 360.848 196.72C361.081 196.287 361.408 195.953 361.828 195.72C362.248 195.487 362.731 195.37 363.278 195.37C363.805 195.37 364.275 195.483 364.688 195.71C365.108 195.937 365.431 196.26 365.658 196.68C365.891 197.093 366.008 197.57 366.008 198.11ZM364.558 197.71C364.551 197.35 364.421 197.063 364.168 196.85C363.915 196.63 363.605 196.52 363.238 196.52C362.891 196.52 362.598 196.627 362.358 196.84C362.125 197.047 361.981 197.337 361.928 197.71H364.558ZM366.67 198.23C366.67 197.657 366.787 197.157 367.02 196.73C367.253 196.297 367.577 195.963 367.99 195.73C368.403 195.49 368.877 195.37 369.41 195.37C370.097 195.37 370.663 195.543 371.11 195.89C371.563 196.23 371.867 196.71 372.02 197.33H370.51C370.43 197.09 370.293 196.903 370.1 196.77C369.913 196.63 369.68 196.56 369.4 196.56C369 196.56 368.683 196.707 368.45 197C368.217 197.287 368.1 197.697 368.1 198.23C368.1 198.757 368.217 199.167 368.45 199.46C368.683 199.747 369 199.89 369.4 199.89C369.967 199.89 370.337 199.637 370.51 199.13H372.02C371.867 199.73 371.563 200.207 371.11 200.56C370.657 200.913 370.09 201.09 369.41 201.09C368.877 201.09 368.403 200.973 367.99 200.74C367.577 200.5 367.253 200.167 367.02 199.74C366.787 199.307 366.67 198.803 366.67 198.23ZM373.665 201.07C373.412 201.07 373.202 200.993 373.035 200.84C372.875 200.68 372.795 200.483 372.795 200.25C372.795 200.017 372.875 199.823 373.035 199.67C373.202 199.51 373.412 199.43 373.665 199.43C373.912 199.43 374.115 199.51 374.275 199.67C374.435 199.823 374.515 200.017 374.515 200.25C374.515 200.483 374.435 200.68 374.275 200.84C374.115 200.993 373.912 201.07 373.665 201.07Z" fill="#A7A7A7"/>
<path d="M328.66 201H327.26L324.09 196.21V201H322.69V194.01H324.09L327.26 198.81V194.01H328.66V201ZM332.504 201.09C331.97 201.09 331.49 200.973 331.064 200.74C330.637 200.5 330.3 200.163 330.054 199.73C329.814 199.297 329.694 198.797 329.694 198.23C329.694 197.663 329.817 197.163 330.064 196.73C330.317 196.297 330.66 195.963 331.094 195.73C331.527 195.49 332.01 195.37 332.544 195.37C333.077 195.37 333.56 195.49 333.994 195.73C334.427 195.963 334.767 196.297 335.014 196.73C335.267 197.163 335.394 197.663 335.394 198.23C335.394 198.797 335.264 199.297 335.004 199.73C334.75 200.163 334.404 200.5 333.964 200.74C333.53 200.973 333.044 201.09 332.504 201.09ZM332.504 199.87C332.757 199.87 332.994 199.81 333.214 199.69C333.44 199.563 333.62 199.377 333.754 199.13C333.887 198.883 333.954 198.583 333.954 198.23C333.954 197.703 333.814 197.3 333.534 197.02C333.26 196.733 332.924 196.59 332.524 196.59C332.124 196.59 331.787 196.733 331.514 197.02C331.247 197.3 331.114 197.703 331.114 198.23C331.114 198.757 331.244 199.163 331.504 199.45C331.77 199.73 332.104 199.87 332.504 199.87ZM338.73 199.71L340.13 195.46H341.62L339.57 201H337.87L335.83 195.46H337.33L338.73 199.71ZM343.027 201.07C342.773 201.07 342.563 200.993 342.397 200.84C342.237 200.68 342.157 200.483 342.157 200.25C342.157 200.017 342.237 199.823 342.397 199.67C342.563 199.51 342.773 199.43 343.027 199.43C343.273 199.43 343.477 199.51 343.637 199.67C343.797 199.823 343.877 200.017 343.877 200.25C343.877 200.483 343.797 200.68 343.637 200.84C343.477 200.993 343.273 201.07 343.027 201.07Z" fill="#A7A7A7"/>
<path d="M300.93 201.07C300.277 201.07 299.677 200.917 299.13 200.61C298.583 200.303 298.15 199.88 297.83 199.34C297.51 198.793 297.35 198.177 297.35 197.49C297.35 196.81 297.51 196.2 297.83 195.66C298.15 195.113 298.583 194.687 299.13 194.38C299.677 194.073 300.277 193.92 300.93 193.92C301.59 193.92 302.19 194.073 302.73 194.38C303.277 194.687 303.707 195.113 304.02 195.66C304.34 196.2 304.5 196.81 304.5 197.49C304.5 198.177 304.34 198.793 304.02 199.34C303.707 199.88 303.277 200.303 302.73 200.61C302.183 200.917 301.583 201.07 300.93 201.07ZM300.93 199.82C301.35 199.82 301.72 199.727 302.04 199.54C302.36 199.347 302.61 199.073 302.79 198.72C302.97 198.367 303.06 197.957 303.06 197.49C303.06 197.023 302.97 196.617 302.79 196.27C302.61 195.917 302.36 195.647 302.04 195.46C301.72 195.273 301.35 195.18 300.93 195.18C300.51 195.18 300.137 195.273 299.81 195.46C299.49 195.647 299.24 195.917 299.06 196.27C298.88 196.617 298.79 197.023 298.79 197.49C298.79 197.957 298.88 198.367 299.06 198.72C299.24 199.073 299.49 199.347 299.81 199.54C300.137 199.727 300.51 199.82 300.93 199.82ZM305.182 198.23C305.182 197.657 305.298 197.157 305.532 196.73C305.765 196.297 306.088 195.963 306.502 195.73C306.915 195.49 307.388 195.37 307.922 195.37C308.608 195.37 309.175 195.543 309.622 195.89C310.075 196.23 310.378 196.71 310.532 197.33H309.022C308.942 197.09 308.805 196.903 308.612 196.77C308.425 196.63 308.192 196.56 307.912 196.56C307.512 196.56 307.195 196.707 306.962 197C306.728 197.287 306.612 197.697 306.612 198.23C306.612 198.757 306.728 199.167 306.962 199.46C307.195 199.747 307.512 199.89 307.912 199.89C308.478 199.89 308.848 199.637 309.022 199.13H310.532C310.378 199.73 310.075 200.207 309.622 200.56C309.168 200.913 308.602 201.09 307.922 201.09C307.388 201.09 306.915 200.973 306.502 200.74C306.088 200.5 305.765 200.167 305.532 199.74C305.298 199.307 305.182 198.803 305.182 198.23ZM313.187 196.61V199.29C313.187 199.477 313.231 199.613 313.317 199.7C313.411 199.78 313.564 199.82 313.777 199.82H314.427V201H313.547C312.367 201 311.777 200.427 311.777 199.28V196.61H311.117V195.46H311.777V194.09H313.187V195.46H314.427V196.61H313.187ZM316.054 201.07C315.801 201.07 315.591 200.993 315.424 200.84C315.264 200.68 315.184 200.483 315.184 200.25C315.184 200.017 315.264 199.823 315.424 199.67C315.591 199.51 315.801 199.43 316.054 199.43C316.301 199.43 316.504 199.51 316.664 199.67C316.824 199.823 316.904 200.017 316.904 200.25C316.904 200.483 316.824 200.68 316.664 200.84C316.504 200.993 316.301 201.07 316.054 201.07Z" fill="#A7A7A7"/>
<path d="M270.1 201.07C269.613 201.07 269.173 200.987 268.78 200.82C268.393 200.653 268.087 200.413 267.86 200.1C267.633 199.787 267.517 199.417 267.51 198.99H269.01C269.03 199.277 269.13 199.503 269.31 199.67C269.497 199.837 269.75 199.92 270.07 199.92C270.397 199.92 270.653 199.843 270.84 199.69C271.027 199.53 271.12 199.323 271.12 199.07C271.12 198.863 271.057 198.693 270.93 198.56C270.803 198.427 270.643 198.323 270.45 198.25C270.263 198.17 270.003 198.083 269.67 197.99C269.217 197.857 268.847 197.727 268.56 197.6C268.28 197.467 268.037 197.27 267.83 197.01C267.63 196.743 267.53 196.39 267.53 195.95C267.53 195.537 267.633 195.177 267.84 194.87C268.047 194.563 268.337 194.33 268.71 194.17C269.083 194.003 269.51 193.92 269.99 193.92C270.71 193.92 271.293 194.097 271.74 194.45C272.193 194.797 272.443 195.283 272.49 195.91H270.95C270.937 195.67 270.833 195.473 270.64 195.32C270.453 195.16 270.203 195.08 269.89 195.08C269.617 195.08 269.397 195.15 269.23 195.29C269.07 195.43 268.99 195.633 268.99 195.9C268.99 196.087 269.05 196.243 269.17 196.37C269.297 196.49 269.45 196.59 269.63 196.67C269.817 196.743 270.077 196.83 270.41 196.93C270.863 197.063 271.233 197.197 271.52 197.33C271.807 197.463 272.053 197.663 272.26 197.93C272.467 198.197 272.57 198.547 272.57 198.98C272.57 199.353 272.473 199.7 272.28 200.02C272.087 200.34 271.803 200.597 271.43 200.79C271.057 200.977 270.613 201.07 270.1 201.07ZM278.934 198.11C278.934 198.31 278.92 198.49 278.894 198.65H274.844C274.877 199.05 275.017 199.363 275.264 199.59C275.51 199.817 275.814 199.93 276.174 199.93C276.694 199.93 277.064 199.707 277.284 199.26H278.794C278.634 199.793 278.327 200.233 277.874 200.58C277.42 200.92 276.864 201.09 276.204 201.09C275.67 201.09 275.19 200.973 274.764 200.74C274.344 200.5 274.014 200.163 273.774 199.73C273.54 199.297 273.424 198.797 273.424 198.23C273.424 197.657 273.54 197.153 273.774 196.72C274.007 196.287 274.334 195.953 274.754 195.72C275.174 195.487 275.657 195.37 276.204 195.37C276.73 195.37 277.2 195.483 277.614 195.71C278.034 195.937 278.357 196.26 278.584 196.68C278.817 197.093 278.934 197.57 278.934 198.11ZM277.484 197.71C277.477 197.35 277.347 197.063 277.094 196.85C276.84 196.63 276.53 196.52 276.164 196.52C275.817 196.52 275.524 196.627 275.284 196.84C275.05 197.047 274.907 197.337 274.854 197.71H277.484ZM281.356 196.26C281.536 196.007 281.782 195.797 282.096 195.63C282.416 195.457 282.779 195.37 283.186 195.37C283.659 195.37 284.086 195.487 284.466 195.72C284.852 195.953 285.156 196.287 285.376 196.72C285.602 197.147 285.716 197.643 285.716 198.21C285.716 198.777 285.602 199.28 285.376 199.72C285.156 200.153 284.852 200.49 284.466 200.73C284.086 200.97 283.659 201.09 283.186 201.09C282.779 201.09 282.419 201.007 282.106 200.84C281.799 200.673 281.549 200.463 281.356 200.21V203.64H279.956V195.46H281.356V196.26ZM284.286 198.21C284.286 197.877 284.216 197.59 284.076 197.35C283.942 197.103 283.762 196.917 283.536 196.79C283.316 196.663 283.076 196.6 282.816 196.6C282.562 196.6 282.322 196.667 282.096 196.8C281.876 196.927 281.696 197.113 281.556 197.36C281.422 197.607 281.356 197.897 281.356 198.23C281.356 198.563 281.422 198.853 281.556 199.1C281.696 199.347 281.876 199.537 282.096 199.67C282.322 199.797 282.562 199.86 282.816 199.86C283.076 199.86 283.316 199.793 283.536 199.66C283.762 199.527 283.942 199.337 284.076 199.09C284.216 198.843 284.286 198.55 284.286 198.21ZM287.353 201.07C287.1 201.07 286.89 200.993 286.723 200.84C286.563 200.68 286.483 200.483 286.483 200.25C286.483 200.017 286.563 199.823 286.723 199.67C286.89 199.51 287.1 199.43 287.353 199.43C287.6 199.43 287.803 199.51 287.963 199.67C288.123 199.823 288.203 200.017 288.203 200.25C288.203 200.483 288.123 200.68 287.963 200.84C287.803 200.993 287.6 201.07 287.353 201.07Z" fill="#A7A7A7"/>
<path d="M240.97 199.67H238.19L237.73 201H236.26L238.77 194.01H240.4L242.91 201H241.43L240.97 199.67ZM240.59 198.55L239.58 195.63L238.57 198.55H240.59ZM249.078 195.46V201H247.668V200.3C247.488 200.54 247.252 200.73 246.958 200.87C246.672 201.003 246.358 201.07 246.018 201.07C245.585 201.07 245.202 200.98 244.868 200.8C244.535 200.613 244.272 200.343 244.078 199.99C243.892 199.63 243.798 199.203 243.798 198.71V195.46H245.198V198.51C245.198 198.95 245.308 199.29 245.528 199.53C245.748 199.763 246.048 199.88 246.428 199.88C246.815 199.88 247.118 199.763 247.338 199.53C247.558 199.29 247.668 198.95 247.668 198.51V195.46H249.078ZM252.63 195.37C253.043 195.37 253.406 195.453 253.72 195.62C254.033 195.78 254.28 195.99 254.46 196.25V195.46H255.87V201.04C255.87 201.553 255.766 202.01 255.56 202.41C255.353 202.817 255.043 203.137 254.63 203.37C254.216 203.61 253.716 203.73 253.13 203.73C252.343 203.73 251.696 203.547 251.19 203.18C250.69 202.813 250.406 202.313 250.34 201.68H251.73C251.803 201.933 251.96 202.133 252.2 202.28C252.446 202.433 252.743 202.51 253.09 202.51C253.496 202.51 253.826 202.387 254.08 202.14C254.333 201.9 254.46 201.533 254.46 201.04V200.18C254.28 200.44 254.03 200.657 253.71 200.83C253.396 201.003 253.036 201.09 252.63 201.09C252.163 201.09 251.736 200.97 251.35 200.73C250.963 200.49 250.656 200.153 250.43 199.72C250.21 199.28 250.1 198.777 250.1 198.21C250.1 197.65 250.21 197.153 250.43 196.72C250.656 196.287 250.96 195.953 251.34 195.72C251.726 195.487 252.156 195.37 252.63 195.37ZM254.46 198.23C254.46 197.89 254.393 197.6 254.26 197.36C254.126 197.113 253.946 196.927 253.72 196.8C253.493 196.667 253.25 196.6 252.99 196.6C252.73 196.6 252.49 196.663 252.27 196.79C252.05 196.917 251.87 197.103 251.73 197.35C251.596 197.59 251.53 197.877 251.53 198.21C251.53 198.543 251.596 198.837 251.73 199.09C251.87 199.337 252.05 199.527 252.27 199.66C252.496 199.793 252.736 199.86 252.99 199.86C253.25 199.86 253.493 199.797 253.72 199.67C253.946 199.537 254.126 199.35 254.26 199.11C254.393 198.863 254.46 198.57 254.46 198.23ZM257.857 201.07C257.604 201.07 257.394 200.993 257.227 200.84C257.067 200.68 256.987 200.483 256.987 200.25C256.987 200.017 257.067 199.823 257.227 199.67C257.394 199.51 257.604 199.43 257.857 199.43C258.104 199.43 258.307 199.51 258.467 199.67C258.627 199.823 258.707 200.017 258.707 200.25C258.707 200.483 258.627 200.68 258.467 200.84C258.307 200.993 258.104 201.07 257.857 201.07Z" fill="#A7A7A7"/>
<path d="M213.76 194.02V198.92C213.76 199.6 213.563 200.13 213.17 200.51C212.777 200.883 212.25 201.07 211.59 201.07C210.923 201.07 210.383 200.877 209.97 200.49C209.563 200.103 209.36 199.563 209.36 198.87H210.76C210.767 199.17 210.837 199.403 210.97 199.57C211.11 199.737 211.31 199.82 211.57 199.82C211.823 199.82 212.017 199.74 212.15 199.58C212.283 199.42 212.35 199.2 212.35 198.92V194.02H213.76ZM220.623 195.46V201H219.213V200.3C219.033 200.54 218.796 200.73 218.503 200.87C218.216 201.003 217.903 201.07 217.563 201.07C217.13 201.07 216.746 200.98 216.413 200.8C216.08 200.613 215.816 200.343 215.623 199.99C215.436 199.63 215.343 199.203 215.343 198.71V195.46H216.743V198.51C216.743 198.95 216.853 199.29 217.073 199.53C217.293 199.763 217.593 199.88 217.973 199.88C218.36 199.88 218.663 199.763 218.883 199.53C219.103 199.29 219.213 198.95 219.213 198.51V195.46H220.623ZM223.404 193.6V201H222.004V193.6H223.404ZM225.408 201.07C225.154 201.07 224.944 200.993 224.778 200.84C224.618 200.68 224.538 200.483 224.538 200.25C224.538 200.017 224.618 199.823 224.778 199.67C224.944 199.51 225.154 199.43 225.408 199.43C225.654 199.43 225.858 199.51 226.018 199.67C226.178 199.823 226.258 200.017 226.258 200.25C226.258 200.483 226.178 200.68 226.018 200.84C225.858 200.993 225.654 201.07 225.408 201.07Z" fill="#A7A7A7"/>
<path d="M187.76 194.02V198.92C187.76 199.6 187.563 200.13 187.17 200.51C186.777 200.883 186.25 201.07 185.59 201.07C184.923 201.07 184.383 200.877 183.97 200.49C183.563 200.103 183.36 199.563 183.36 198.87H184.76C184.767 199.17 184.837 199.403 184.97 199.57C185.11 199.737 185.31 199.82 185.57 199.82C185.823 199.82 186.017 199.74 186.15 199.58C186.283 199.42 186.35 199.2 186.35 198.92V194.02H187.76ZM194.623 195.46V201H193.213V200.3C193.033 200.54 192.796 200.73 192.503 200.87C192.216 201.003 191.903 201.07 191.563 201.07C191.13 201.07 190.746 200.98 190.413 200.8C190.08 200.613 189.816 200.343 189.623 199.99C189.436 199.63 189.343 199.203 189.343 198.71V195.46H190.743V198.51C190.743 198.95 190.853 199.29 191.073 199.53C191.293 199.763 191.593 199.88 191.973 199.88C192.36 199.88 192.663 199.763 192.883 199.53C193.103 199.29 193.213 198.95 193.213 198.51V195.46H194.623ZM199.074 195.38C199.734 195.38 200.268 195.59 200.674 196.01C201.081 196.423 201.284 197.003 201.284 197.75V201H199.884V197.94C199.884 197.5 199.774 197.163 199.554 196.93C199.334 196.69 199.034 196.57 198.654 196.57C198.268 196.57 197.961 196.69 197.734 196.93C197.514 197.163 197.404 197.5 197.404 197.94V201H196.004V195.46H197.404V196.15C197.591 195.91 197.828 195.723 198.114 195.59C198.408 195.45 198.728 195.38 199.074 195.38ZM203.236 201.07C202.982 201.07 202.772 200.993 202.606 200.84C202.446 200.68 202.366 200.483 202.366 200.25C202.366 200.017 202.446 199.823 202.606 199.67C202.772 199.51 202.982 199.43 203.236 199.43C203.482 199.43 203.686 199.51 203.846 199.67C204.006 199.823 204.086 200.017 204.086 200.25C204.086 200.483 204.006 200.68 203.846 200.84C203.686 200.993 203.482 201.07 203.236 201.07Z" fill="#A7A7A7"/>
<path d="M158.3 194.02V201H156.9V196.46L155.03 201H153.97L152.09 196.46V201H150.69V194.02H152.28L154.5 199.21L156.72 194.02H158.3ZM159.324 198.21C159.324 197.65 159.434 197.153 159.654 196.72C159.881 196.287 160.184 195.953 160.564 195.72C160.951 195.487 161.381 195.37 161.854 195.37C162.267 195.37 162.627 195.453 162.934 195.62C163.247 195.787 163.497 195.997 163.684 196.25V195.46H165.094V201H163.684V200.19C163.504 200.45 163.254 200.667 162.934 200.84C162.621 201.007 162.257 201.09 161.844 201.09C161.377 201.09 160.951 200.97 160.564 200.73C160.184 200.49 159.881 200.153 159.654 199.72C159.434 199.28 159.324 198.777 159.324 198.21ZM163.684 198.23C163.684 197.89 163.617 197.6 163.484 197.36C163.351 197.113 163.171 196.927 162.944 196.8C162.717 196.667 162.474 196.6 162.214 196.6C161.954 196.6 161.714 196.663 161.494 196.79C161.274 196.917 161.094 197.103 160.954 197.35C160.821 197.59 160.754 197.877 160.754 198.21C160.754 198.543 160.821 198.837 160.954 199.09C161.094 199.337 161.274 199.527 161.494 199.66C161.721 199.793 161.961 199.86 162.214 199.86C162.474 199.86 162.717 199.797 162.944 199.67C163.171 199.537 163.351 199.35 163.484 199.11C163.617 198.863 163.684 198.57 163.684 198.23ZM171.761 195.46L168.331 203.62H166.841L168.041 200.86L165.821 195.46H167.391L168.821 199.33L170.271 195.46H171.761Z" fill="#A7A7A7"/>
<path d="M127.97 199.67H125.19L124.73 201H123.26L125.77 194.01H127.4L129.91 201H128.43L127.97 199.67ZM127.59 198.55L126.58 195.63L125.57 198.55H127.59ZM132.248 196.26C132.428 196.007 132.675 195.797 132.988 195.63C133.308 195.457 133.672 195.37 134.078 195.37C134.552 195.37 134.978 195.487 135.358 195.72C135.745 195.953 136.048 196.287 136.268 196.72C136.495 197.147 136.608 197.643 136.608 198.21C136.608 198.777 136.495 199.28 136.268 199.72C136.048 200.153 135.745 200.49 135.358 200.73C134.978 200.97 134.552 201.09 134.078 201.09C133.672 201.09 133.312 201.007 132.998 200.84C132.692 200.673 132.442 200.463 132.248 200.21V203.64H130.848V195.46H132.248V196.26ZM135.178 198.21C135.178 197.877 135.108 197.59 134.968 197.35C134.835 197.103 134.655 196.917 134.428 196.79C134.208 196.663 133.968 196.6 133.708 196.6C133.455 196.6 133.215 196.667 132.988 196.8C132.768 196.927 132.588 197.113 132.448 197.36C132.315 197.607 132.248 197.897 132.248 198.23C132.248 198.563 132.315 198.853 132.448 199.1C132.588 199.347 132.768 199.537 132.988 199.67C133.215 199.797 133.455 199.86 133.708 199.86C133.968 199.86 134.208 199.793 134.428 199.66C134.655 199.527 134.835 199.337 134.968 199.09C135.108 198.843 135.178 198.55 135.178 198.21ZM139.026 196.32C139.206 196.027 139.439 195.797 139.726 195.63C140.019 195.463 140.352 195.38 140.726 195.38V196.85H140.356C139.916 196.85 139.582 196.953 139.356 197.16C139.136 197.367 139.026 197.727 139.026 198.24V201H137.626V195.46H139.026V196.32ZM142.289 201.07C142.035 201.07 141.825 200.993 141.659 200.84C141.499 200.68 141.419 200.483 141.419 200.25C141.419 200.017 141.499 199.823 141.659 199.67C141.825 199.51 142.035 199.43 142.289 199.43C142.535 199.43 142.739 199.51 142.899 199.67C143.059 199.823 143.139 200.017 143.139 200.25C143.139 200.483 143.059 200.68 142.899 200.84C142.739 200.993 142.535 201.07 142.289 201.07Z" fill="#A7A7A7"/>
<path d="M71 194.02V195.15H68.09V196.94H70.32V198.05H68.09V201H66.69V194.02H71ZM77.1427 198.11C77.1427 198.31 77.1294 198.49 77.1027 198.65H73.0527C73.0861 199.05 73.2261 199.363 73.4727 199.59C73.7194 199.817 74.0227 199.93 74.3827 199.93C74.9027 199.93 75.2727 199.707 75.4927 199.26H77.0027C76.8427 199.793 76.5361 200.233 76.0827 200.58C75.6294 200.92 75.0727 201.09 74.4127 201.09C73.8794 201.09 73.3994 200.973 72.9727 200.74C72.5527 200.5 72.2227 200.163 71.9827 199.73C71.7494 199.297 71.6327 198.797 71.6327 198.23C71.6327 197.657 71.7494 197.153 71.9827 196.72C72.2161 196.287 72.5427 195.953 72.9627 195.72C73.3827 195.487 73.8661 195.37 74.4127 195.37C74.9394 195.37 75.4094 195.483 75.8227 195.71C76.2427 195.937 76.5661 196.26 76.7927 196.68C77.0261 197.093 77.1427 197.57 77.1427 198.11ZM75.6927 197.71C75.6861 197.35 75.5561 197.063 75.3027 196.85C75.0494 196.63 74.7394 196.52 74.3727 196.52C74.0261 196.52 73.7327 196.627 73.4927 196.84C73.2594 197.047 73.1161 197.337 73.0627 197.71H75.6927ZM79.5646 196.27C79.7446 196.003 79.9913 195.787 80.3046 195.62C80.6246 195.453 80.9879 195.37 81.3946 195.37C81.8679 195.37 82.2946 195.487 82.6746 195.72C83.0613 195.953 83.3646 196.287 83.5846 196.72C83.8113 197.147 83.9246 197.643 83.9246 198.21C83.9246 198.777 83.8113 199.28 83.5846 199.72C83.3646 200.153 83.0613 200.49 82.6746 200.73C82.2946 200.97 81.8679 201.09 81.3946 201.09C80.9813 201.09 80.6179 201.01 80.3046 200.85C79.9979 200.683 79.7513 200.47 79.5646 200.21V201H78.1646V193.6H79.5646V196.27ZM82.4946 198.21C82.4946 197.877 82.4246 197.59 82.2846 197.35C82.1513 197.103 81.9713 196.917 81.7446 196.79C81.5246 196.663 81.2846 196.6 81.0246 196.6C80.7713 196.6 80.5313 196.667 80.3046 196.8C80.0846 196.927 79.9046 197.113 79.7646 197.36C79.6313 197.607 79.5646 197.897 79.5646 198.23C79.5646 198.563 79.6313 198.853 79.7646 199.1C79.9046 199.347 80.0846 199.537 80.3046 199.67C80.5313 199.797 80.7713 199.86 81.0246 199.86C81.2846 199.86 81.5246 199.793 81.7446 199.66C81.9713 199.527 82.1513 199.337 82.2846 199.09C82.4246 198.843 82.4946 198.55 82.4946 198.21Z" fill="#A7A7A7"/>
<path d="M73 116C73 113.791 74.7909 112 77 112V112C79.2091 112 81 113.791 81 116V183H73V116Z" fill="#FFA1A1"/>
<path d="M73 116C73 113.791 74.7909 112 77 112V112C79.2091 112 81 113.791 81 116V183H73V116Z" fill="#FFA1A1"/>
<path d="M73 116C73 113.791 74.7909 112 77 112V112C79.2091 112 81 113.791 81 116V183H73V116Z" fill="#FFA1A1"/>
<path d="M73 116C73 113.791 74.7909 112 77 112V112C79.2091 112 81 113.791 81 116V183H73V116Z" fill="#4886FF"/>
<path d="M40 99C40 96.7909 41.7909 95 44 95V95C46.2091 95 48 96.7909 48 99V184H40V99Z" fill="#FFA1A1"/>
<path d="M40 99C40 96.7909 41.7909 95 44 95V95C46.2091 95 48 96.7909 48 99V184H40V99Z" fill="#FFA1A1"/>
<path d="M40 99C40 96.7909 41.7909 95 44 95V95C46.2091 95 48 96.7909 48 99V184H40V99Z" fill="#FFA1A1"/>
<path d="M40 99C40 96.7909 41.7909 95 44 95V95C46.2091 95 48 96.7909 48 99V184H40V99Z" fill="#4886FF"/>
<path d="M130 116C130 113.791 131.791 112 134 112V112C136.209 112 138 113.791 138 116V183H130V116Z" fill="#FFA1A1"/>
<path d="M130 116C130 113.791 131.791 112 134 112V112C136.209 112 138 113.791 138 116V183H130V116Z" fill="#FFA1A1"/>
<path d="M130 116C130 113.791 131.791 112 134 112V112C136.209 112 138 113.791 138 116V183H130V116Z" fill="#FFA1A1"/>
<path d="M130 116C130 113.791 131.791 112 134 112V112C136.209 112 138 113.791 138 116V183H130V116Z" fill="#4886FF"/>
<path d="M104 103C104 100.791 105.791 99 108 99V99C110.209 99 112 100.791 112 103V183H104V103Z" fill="#FFA1A1"/>
<path d="M104 103C104 100.791 105.791 99 108 99V99C110.209 99 112 100.791 112 103V183H104V103Z" fill="#FFA1A1"/>
<path d="M104 103C104 100.791 105.791 99 108 99V99C110.209 99 112 100.791 112 103V183H104V103Z" fill="#FFA1A1"/>
<path d="M104 103C104 100.791 105.791 99 108 99V99C110.209 99 112 100.791 112 103V183H104V103Z" fill="#4886FF"/>
<path d="M156 103C156 100.791 157.791 99 160 99V99C162.209 99 164 100.791 164 103V183H156V103Z" fill="#FFA1A1"/>
<path d="M156 103C156 100.791 157.791 99 160 99V99C162.209 99 164 100.791 164 103V183H156V103Z" fill="#FFA1A1"/>
<path d="M156 103C156 100.791 157.791 99 160 99V99C162.209 99 164 100.791 164 103V183H156V103Z" fill="#FFA1A1"/>
<path d="M156 103C156 100.791 157.791 99 160 99V99C162.209 99 164 100.791 164 103V183H156V103Z" fill="#4886FF"/>
<path d="M189 81C189 78.7909 190.791 77 193 77V77C195.209 77 197 78.7909 197 81V183H189V81Z" fill="#FFA1A1"/>
<path d="M189 81C189 78.7909 190.791 77 193 77V77C195.209 77 197 78.7909 197 81V183H189V81Z" fill="#FFA1A1"/>
<path d="M189 81C189 78.7909 190.791 77 193 77V77C195.209 77 197 78.7909 197 81V183H189V81Z" fill="#FFA1A1"/>
<path d="M189 81C189 78.7909 190.791 77 193 77V77C195.209 77 197 78.7909 197 81V183H189V81Z" fill="#4886FF"/>
<path d="M214 154C214 151.791 215.791 150 218 150V150C220.209 150 222 151.791 222 154V183H214V154Z" fill="#FFA1A1"/>
<path d="M214 154C214 151.791 215.791 150 218 150V150C220.209 150 222 151.791 222 154V183H214V154Z" fill="#FFA1A1"/>
<path d="M214 154C214 151.791 215.791 150 218 150V150C220.209 150 222 151.791 222 154V183H214V154Z" fill="#FFA1A1"/>
<path d="M214 154C214 151.791 215.791 150 218 150V150C220.209 150 222 151.791 222 154V183H214V154Z" fill="#4886FF"/>
<path d="M242 120C242 117.791 243.791 116 246 116V116C248.209 116 250 117.791 250 120V183H242V120Z" fill="#FFA1A1"/>
<path d="M242 120C242 117.791 243.791 116 246 116V116C248.209 116 250 117.791 250 120V183H242V120Z" fill="#FFA1A1"/>
<path d="M242 120C242 117.791 243.791 116 246 116V116C248.209 116 250 117.791 250 120V183H242V120Z" fill="#FFA1A1"/>
<path d="M242 120C242 117.791 243.791 116 246 116V116C248.209 116 250 117.791 250 120V183H242V120Z" fill="#4886FF"/>
<path d="M301 140C301 137.791 302.791 136 305 136V136C307.209 136 309 137.791 309 140V183H301V140Z" fill="#FFA1A1"/>
<path d="M301 140C301 137.791 302.791 136 305 136V136C307.209 136 309 137.791 309 140V183H301V140Z" fill="#FFA1A1"/>
<path d="M301 140C301 137.791 302.791 136 305 136V136C307.209 136 309 137.791 309 140V183H301V140Z" fill="#FFA1A1"/>
<path d="M301 140C301 137.791 302.791 136 305 136V136C307.209 136 309 137.791 309 140V183H301V140Z" fill="#4886FF"/>
<path d="M357 54C357 51.7909 358.791 50 361 50V50C363.209 50 365 51.7909 365 54V183H357V54Z" fill="#FFA1A1"/>
<path d="M357 54C357 51.7909 358.791 50 361 50V50C363.209 50 365 51.7909 365 54V183H357V54Z" fill="#FFA1A1"/>
<path d="M357 54C357 51.7909 358.791 50 361 50V50C363.209 50 365 51.7909 365 54V183H357V54Z" fill="#FFA1A1"/>
<path d="M357 54C357 51.7909 358.791 50 361 50V50C363.209 50 365 51.7909 365 54V183H357V54Z" fill="#4886FF"/>
<path d="M326 125C326 122.791 327.791 121 330 121V121C332.209 121 334 122.791 334 125V183H326V125Z" fill="#FFA1A1"/>
<path d="M326 125C326 122.791 327.791 121 330 121V121C332.209 121 334 122.791 334 125V183H326V125Z" fill="#FFA1A1"/>
<path d="M326 125C326 122.791 327.791 121 330 121V121C332.209 121 334 122.791 334 125V183H326V125Z" fill="#FFA1A1"/>
<path d="M326 125C326 122.791 327.791 121 330 121V121C332.209 121 334 122.791 334 125V183H326V125Z" fill="#4886FF"/>
<path d="M273 65C273 62.7909 274.791 61 277 61V61C279.209 61 281 62.7909 281 65V183H273V65Z" fill="#FFA1A1"/>
<path d="M273 65C273 62.7909 274.791 61 277 61V61C279.209 61 281 62.7909 281 65V183H273V65Z" fill="#FFA1A1"/>
<path d="M273 65C273 62.7909 274.791 61 277 61V61C279.209 61 281 62.7909 281 65V183H273V65Z" fill="#FFA1A1"/>
<path d="M273 65C273 62.7909 274.791 61 277 61V61C279.209 61 281 62.7909 281 65V183H273V65Z" fill="#4886FF"/>
</svg>
