<svg width="943" height="505" viewBox="0 0 943 505" fill="none" xmlns="http://www.w3.org/2000/svg">
<path d="M59.7 9C59.7 7.62667 60.0067 6.4 60.62 5.32C61.2467 4.22667 62.0933 3.38 63.16 2.78C64.24 2.16667 65.4467 1.86 66.78 1.86C68.34 1.86 69.7067 2.26 70.88 3.06C72.0533 3.86 72.8733 4.96667 73.34 6.38H70.12C69.8 5.71333 69.3467 5.21333 68.76 4.88C68.1867 4.54667 67.52 4.38 66.76 4.38C65.9467 4.38 65.22 4.57333 64.58 4.96C63.9533 5.33333 63.46 5.86667 63.1 6.56C62.7533 7.25333 62.58 8.06667 62.58 9C62.58 9.92 62.7533 10.7333 63.1 11.44C63.46 12.1333 63.9533 12.6733 64.58 13.06C65.22 13.4333 65.9467 13.62 66.76 13.62C67.52 13.62 68.1867 13.4533 68.76 13.12C69.3467 12.7733 69.8 12.2667 70.12 11.6H73.34C72.8733 13.0267 72.0533 14.14 70.88 14.94C69.72 15.7267 68.3533 16.12 66.78 16.12C65.4467 16.12 64.24 15.82 63.16 15.22C62.0933 14.6067 61.2467 13.76 60.62 12.68C60.0067 11.6 59.7 10.3733 59.7 9ZM86.1916 4.92V16H83.3716V14.6C83.0116 15.08 82.5382 15.46 81.9516 15.74C81.3782 16.0067 80.7516 16.14 80.0716 16.14C79.2049 16.14 78.4382 15.96 77.7716 15.6C77.1049 15.2267 76.5782 14.6867 76.1916 13.98C75.8182 13.26 75.6316 12.4067 75.6316 11.42V4.92H78.4316V11.02C78.4316 11.9 78.6516 12.58 79.0916 13.06C79.5316 13.5267 80.1316 13.76 80.8916 13.76C81.6649 13.76 82.2716 13.5267 82.7116 13.06C83.1516 12.58 83.3716 11.9 83.3716 11.02V4.92H86.1916ZM93.1942 16.18C92.2876 16.18 91.4742 16.02 90.7542 15.7C90.0342 15.3667 89.4609 14.92 89.0342 14.36C88.6209 13.8 88.3942 13.18 88.3542 12.5H91.1742C91.2276 12.9267 91.4342 13.28 91.7942 13.56C92.1676 13.84 92.6276 13.98 93.1742 13.98C93.7076 13.98 94.1209 13.8733 94.4142 13.66C94.7209 13.4467 94.8742 13.1733 94.8742 12.84C94.8742 12.48 94.6876 12.2133 94.3142 12.04C93.9542 11.8533 93.3742 11.6533 92.5742 11.44C91.7476 11.24 91.0676 11.0333 90.5342 10.82C90.0142 10.6067 89.5609 10.28 89.1742 9.84C88.8009 9.4 88.6142 8.80667 88.6142 8.06C88.6142 7.44667 88.7876 6.88667 89.1342 6.38C89.4942 5.87333 90.0009 5.47333 90.6542 5.18C91.3209 4.88667 92.1009 4.74 92.9942 4.74C94.3142 4.74 95.3676 5.07333 96.1542 5.74C96.9409 6.39333 97.3742 7.28 97.4542 8.4H94.7742C94.7342 7.96 94.5476 7.61333 94.2142 7.36C93.8942 7.09333 93.4609 6.96 92.9142 6.96C92.4076 6.96 92.0142 7.05333 91.7342 7.24C91.4676 7.42667 91.3342 7.68667 91.3342 8.02C91.3342 8.39333 91.5209 8.68 91.8942 8.88C92.2676 9.06667 92.8476 9.26 93.6342 9.46C94.4342 9.66 95.0942 9.86667 95.6142 10.08C96.1342 10.2933 96.5809 10.6267 96.9542 11.08C97.3409 11.52 97.5409 12.1067 97.5542 12.84C97.5542 13.48 97.3742 14.0533 97.0142 14.56C96.6676 15.0667 96.1609 15.4667 95.4942 15.76C94.8409 16.04 94.0742 16.18 93.1942 16.18ZM103.113 7.22V12.58C103.113 12.9533 103.199 13.2267 103.373 13.4C103.559 13.56 103.866 13.64 104.293 13.64H105.593V16H103.833C101.473 16 100.293 14.8533 100.293 12.56V7.22H98.9727V4.92H100.293V2.18H103.113V4.92H105.593V7.22H103.113ZM112.527 16.18C111.46 16.18 110.5 15.9467 109.647 15.48C108.793 15 108.12 14.3267 107.627 13.46C107.147 12.5933 106.907 11.5933 106.907 10.46C106.907 9.32667 107.153 8.32667 107.647 7.46C108.153 6.59333 108.84 5.92667 109.707 5.46C110.573 4.98 111.54 4.74 112.607 4.74C113.673 4.74 114.64 4.98 115.507 5.46C116.373 5.92667 117.053 6.59333 117.547 7.46C118.053 8.32667 118.307 9.32667 118.307 10.46C118.307 11.5933 118.047 12.5933 117.527 13.46C117.02 14.3267 116.327 15 115.447 15.48C114.58 15.9467 113.607 16.18 112.527 16.18ZM112.527 13.74C113.033 13.74 113.507 13.62 113.947 13.38C114.4 13.1267 114.76 12.7533 115.027 12.26C115.293 11.7667 115.427 11.1667 115.427 10.46C115.427 9.40667 115.147 8.6 114.587 8.04C114.04 7.46667 113.367 7.18 112.567 7.18C111.767 7.18 111.093 7.46667 110.547 8.04C110.013 8.6 109.747 9.40667 109.747 10.46C109.747 11.5133 110.007 12.3267 110.527 12.9C111.06 13.46 111.727 13.74 112.527 13.74ZM134.12 4.76C135.48 4.76 136.574 5.18 137.4 6.02C138.24 6.84667 138.66 8.00667 138.66 9.5V16H135.86V9.88C135.86 9.01333 135.64 8.35333 135.2 7.9C134.76 7.43333 134.16 7.2 133.4 7.2C132.64 7.2 132.034 7.43333 131.58 7.9C131.14 8.35333 130.92 9.01333 130.92 9.88V16H128.12V9.88C128.12 9.01333 127.9 8.35333 127.46 7.9C127.02 7.43333 126.42 7.2 125.66 7.2C124.887 7.2 124.274 7.43333 123.82 7.9C123.38 8.35333 123.16 9.01333 123.16 9.88V16H120.36V4.92H123.16V6.26C123.52 5.79333 123.98 5.42667 124.54 5.16C125.114 4.89333 125.74 4.76 126.42 4.76C127.287 4.76 128.06 4.94667 128.74 5.32C129.42 5.68 129.947 6.2 130.32 6.88C130.68 6.24 131.2 5.72667 131.88 5.34C132.574 4.95333 133.32 4.76 134.12 4.76ZM151.618 10.22C151.618 10.62 151.591 10.98 151.538 11.3H143.438C143.504 12.1 143.784 12.7267 144.278 13.18C144.771 13.6333 145.378 13.86 146.098 13.86C147.138 13.86 147.878 13.4133 148.318 12.52H151.338C151.018 13.5867 150.404 14.4667 149.498 15.16C148.591 15.84 147.478 16.18 146.158 16.18C145.091 16.18 144.131 15.9467 143.278 15.48C142.438 15 141.778 14.3267 141.298 13.46C140.831 12.5933 140.597 11.5933 140.597 10.46C140.597 9.31333 140.831 8.30667 141.298 7.44C141.764 6.57333 142.418 5.90667 143.258 5.44C144.098 4.97333 145.064 4.74 146.158 4.74C147.211 4.74 148.151 4.96667 148.978 5.42C149.818 5.87333 150.464 6.52 150.918 7.36C151.384 8.18667 151.618 9.14 151.618 10.22ZM148.718 9.42C148.704 8.7 148.444 8.12667 147.938 7.7C147.431 7.26 146.811 7.04 146.078 7.04C145.384 7.04 144.798 7.25333 144.318 7.68C143.851 8.09333 143.564 8.67333 143.458 9.42H148.718ZM156.461 6.64C156.821 6.05333 157.288 5.59333 157.861 5.26C158.448 4.92667 159.115 4.76 159.861 4.76V7.7H159.121C158.241 7.7 157.575 7.90667 157.121 8.32C156.681 8.73333 156.461 9.45333 156.461 10.48V16H153.661V4.92H156.461V6.64ZM169.313 2.04V16H166.513V2.04H169.313ZM178.219 4.76C179.539 4.76 180.606 5.18 181.419 6.02C182.233 6.84667 182.639 8.00667 182.639 9.5V16H179.839V9.88C179.839 9 179.619 8.32667 179.179 7.86C178.739 7.38 178.139 7.14 177.379 7.14C176.606 7.14 175.993 7.38 175.539 7.86C175.099 8.32667 174.879 9 174.879 9.88V16H172.079V4.92H174.879V6.3C175.253 5.82 175.726 5.44667 176.299 5.18C176.886 4.9 177.526 4.76 178.219 4.76ZM190.382 7.22H188.442V16H185.602V7.22H184.342V4.92H185.602V4.36C185.602 3 185.989 2 186.762 1.36C187.535 0.719999 188.702 0.42 190.262 0.46V2.82C189.582 2.80667 189.109 2.92 188.842 3.16C188.575 3.4 188.442 3.83333 188.442 4.46V4.92H190.382V7.22ZM197.116 16.18C196.05 16.18 195.09 15.9467 194.236 15.48C193.383 15 192.71 14.3267 192.216 13.46C191.736 12.5933 191.496 11.5933 191.496 10.46C191.496 9.32667 191.743 8.32667 192.236 7.46C192.743 6.59333 193.43 5.92667 194.296 5.46C195.163 4.98 196.13 4.74 197.196 4.74C198.263 4.74 199.23 4.98 200.096 5.46C200.963 5.92667 201.643 6.59333 202.136 7.46C202.643 8.32667 202.896 9.32667 202.896 10.46C202.896 11.5933 202.636 12.5933 202.116 13.46C201.61 14.3267 200.916 15 200.036 15.48C199.17 15.9467 198.196 16.18 197.116 16.18ZM197.116 13.74C197.623 13.74 198.096 13.62 198.536 13.38C198.99 13.1267 199.35 12.7533 199.616 12.26C199.883 11.7667 200.016 11.1667 200.016 10.46C200.016 9.40667 199.736 8.6 199.176 8.04C198.63 7.46667 197.956 7.18 197.156 7.18C196.356 7.18 195.683 7.46667 195.136 8.04C194.603 8.6 194.336 9.40667 194.336 10.46C194.336 11.5133 194.596 12.3267 195.116 12.9C195.65 13.46 196.316 13.74 197.116 13.74ZM207.75 6.64C208.11 6.05333 208.577 5.59333 209.15 5.26C209.737 4.92667 210.404 4.76 211.15 4.76V7.7H210.41C209.53 7.7 208.864 7.90667 208.41 8.32C207.97 8.73333 207.75 9.45333 207.75 10.48V16H204.95V4.92H207.75V6.64ZM226.796 4.76C228.156 4.76 229.25 5.18 230.076 6.02C230.916 6.84667 231.336 8.00667 231.336 9.5V16H228.536V9.88C228.536 9.01333 228.316 8.35333 227.876 7.9C227.436 7.43333 226.836 7.2 226.076 7.2C225.316 7.2 224.71 7.43333 224.256 7.9C223.816 8.35333 223.596 9.01333 223.596 9.88V16H220.796V9.88C220.796 9.01333 220.576 8.35333 220.136 7.9C219.696 7.43333 219.096 7.2 218.336 7.2C217.563 7.2 216.95 7.43333 216.496 7.9C216.056 8.35333 215.836 9.01333 215.836 9.88V16H213.036V4.92H215.836V6.26C216.196 5.79333 216.656 5.42667 217.216 5.16C217.79 4.89333 218.416 4.76 219.096 4.76C219.963 4.76 220.736 4.94667 221.416 5.32C222.096 5.68 222.623 6.2 222.996 6.88C223.356 6.24 223.876 5.72667 224.556 5.34C225.25 4.95333 225.996 4.76 226.796 4.76ZM233.273 10.42C233.273 9.3 233.493 8.30667 233.933 7.44C234.387 6.57333 234.993 5.90667 235.753 5.44C236.527 4.97333 237.387 4.74 238.333 4.74C239.16 4.74 239.88 4.90667 240.493 5.24C241.12 5.57333 241.62 5.99333 241.993 6.5V4.92H244.813V16H241.993V14.38C241.633 14.9 241.133 15.3333 240.493 15.68C239.867 16.0133 239.14 16.18 238.313 16.18C237.38 16.18 236.527 15.94 235.753 15.46C234.993 14.98 234.387 14.3067 233.933 13.44C233.493 12.56 233.273 11.5533 233.273 10.42ZM241.993 10.46C241.993 9.78 241.86 9.2 241.593 8.72C241.327 8.22667 240.967 7.85333 240.513 7.6C240.06 7.33333 239.573 7.2 239.053 7.2C238.533 7.2 238.053 7.32667 237.613 7.58C237.173 7.83333 236.813 8.20667 236.533 8.7C236.267 9.18 236.133 9.75333 236.133 10.42C236.133 11.0867 236.267 11.6733 236.533 12.18C236.813 12.6733 237.173 13.0533 237.613 13.32C238.067 13.5867 238.547 13.72 239.053 13.72C239.573 13.72 240.06 13.5933 240.513 13.34C240.967 13.0733 241.327 12.7 241.593 12.22C241.86 11.7267 241.993 11.14 241.993 10.46ZM250.808 7.22V12.58C250.808 12.9533 250.895 13.2267 251.068 13.4C251.255 13.56 251.561 13.64 251.988 13.64H253.288V16H251.528C249.168 16 247.988 14.8533 247.988 12.56V7.22H246.668V4.92H247.988V2.18H250.808V4.92H253.288V7.22H250.808ZM256.722 3.6C256.229 3.6 255.815 3.44667 255.482 3.14C255.162 2.82 255.002 2.42667 255.002 1.96C255.002 1.49333 255.162 1.10667 255.482 0.799999C255.815 0.479999 256.229 0.319999 256.722 0.319999C257.215 0.319999 257.622 0.479999 257.942 0.799999C258.275 1.10667 258.442 1.49333 258.442 1.96C258.442 2.42667 258.275 2.82 257.942 3.14C257.622 3.44667 257.215 3.6 256.722 3.6ZM258.102 4.92V16H255.302V4.92H258.102ZM265.788 16.18C264.722 16.18 263.762 15.9467 262.908 15.48C262.055 15 261.382 14.3267 260.888 13.46C260.408 12.5933 260.168 11.5933 260.168 10.46C260.168 9.32667 260.415 8.32667 260.908 7.46C261.415 6.59333 262.102 5.92667 262.968 5.46C263.835 4.98 264.802 4.74 265.868 4.74C266.935 4.74 267.902 4.98 268.768 5.46C269.635 5.92667 270.315 6.59333 270.808 7.46C271.315 8.32667 271.568 9.32667 271.568 10.46C271.568 11.5933 271.308 12.5933 270.788 13.46C270.282 14.3267 269.588 15 268.708 15.48C267.842 15.9467 266.868 16.18 265.788 16.18ZM265.788 13.74C266.295 13.74 266.768 13.62 267.208 13.38C267.662 13.1267 268.022 12.7533 268.288 12.26C268.555 11.7667 268.688 11.1667 268.688 10.46C268.688 9.40667 268.408 8.6 267.848 8.04C267.302 7.46667 266.628 7.18 265.828 7.18C265.028 7.18 264.355 7.46667 263.808 8.04C263.275 8.6 263.008 9.40667 263.008 10.46C263.008 11.5133 263.268 12.3267 263.788 12.9C264.322 13.46 264.988 13.74 265.788 13.74ZM279.762 4.76C281.082 4.76 282.149 5.18 282.962 6.02C283.776 6.84667 284.182 8.00667 284.182 9.5V16H281.382V9.88C281.382 9 281.162 8.32667 280.722 7.86C280.282 7.38 279.682 7.14 278.922 7.14C278.149 7.14 277.536 7.38 277.082 7.86C276.642 8.32667 276.422 9 276.422 9.88V16H273.622V4.92H276.422V6.3C276.796 5.82 277.269 5.44667 277.842 5.18C278.429 4.9 279.069 4.76 279.762 4.76Z" fill="#263056"/>
<path d="M33.5258 9H16C7.71573 9 1 15.7157 1 24V489C1 497.284 7.71573 504 16 504H927C935.284 504 942 497.284 942 489V24C942 15.7157 935.284 9 927 9H302.703" stroke="#263056" stroke-width="2"/>
</svg>
