<svg width="943" height="505" viewBox="0 0 943 505" fill="none" xmlns="http://www.w3.org/2000/svg">
<path d="M70.56 6.36C70.56 7.10667 70.38 7.80667 70.02 8.46C69.6733 9.11333 69.12 9.64 68.36 10.04C67.6133 10.44 66.6667 10.64 65.52 10.64H63.18V16H60.38V2.04H65.52C66.6 2.04 67.52 2.22667 68.28 2.6C69.04 2.97333 69.6067 3.48667 69.98 4.14C70.3667 4.79333 70.56 5.53333 70.56 6.36ZM65.4 8.38C66.1733 8.38 66.7467 8.20667 67.12 7.86C67.4933 7.5 67.68 7 67.68 6.36C67.68 5 66.92 4.32 65.4 4.32H63.18V8.38H65.4ZM71.828 10.42C71.828 9.3 72.048 8.30667 72.488 7.44C72.9413 6.57333 73.548 5.90667 74.308 5.44C75.0813 4.97333 75.9413 4.74 76.888 4.74C77.7146 4.74 78.4346 4.90667 79.048 5.24C79.6746 5.57333 80.1746 5.99333 80.548 6.5V4.92H83.368V16H80.548V14.38C80.188 14.9 79.688 15.3333 79.048 15.68C78.4213 16.0133 77.6946 16.18 76.868 16.18C75.9346 16.18 75.0813 15.94 74.308 15.46C73.548 14.98 72.9413 14.3067 72.488 13.44C72.048 12.56 71.828 11.5533 71.828 10.42ZM80.548 10.46C80.548 9.78 80.4146 9.2 80.148 8.72C79.8813 8.22667 79.5213 7.85333 79.068 7.6C78.6146 7.33333 78.128 7.2 77.608 7.2C77.088 7.2 76.608 7.32667 76.168 7.58C75.728 7.83333 75.368 8.20667 75.088 8.7C74.8213 9.18 74.688 9.75333 74.688 10.42C74.688 11.0867 74.8213 11.6733 75.088 12.18C75.368 12.6733 75.728 13.0533 76.168 13.32C76.6213 13.5867 77.1013 13.72 77.608 13.72C78.128 13.72 78.6146 13.5933 79.068 13.34C79.5213 13.0733 79.8813 12.7 80.148 12.22C80.4146 11.7267 80.548 11.14 80.548 10.46ZM96.7027 4.92L89.8427 21.24H86.8627L89.2627 15.72L84.8227 4.92H87.9627L90.8227 12.66L93.7227 4.92H96.7027ZM111.972 4.76C113.332 4.76 114.425 5.18 115.252 6.02C116.092 6.84667 116.512 8.00667 116.512 9.5V16H113.712V9.88C113.712 9.01333 113.492 8.35333 113.052 7.9C112.612 7.43333 112.012 7.2 111.252 7.2C110.492 7.2 109.885 7.43333 109.432 7.9C108.992 8.35333 108.772 9.01333 108.772 9.88V16H105.972V9.88C105.972 9.01333 105.752 8.35333 105.312 7.9C104.872 7.43333 104.272 7.2 103.512 7.2C102.739 7.2 102.125 7.43333 101.672 7.9C101.232 8.35333 101.012 9.01333 101.012 9.88V16H98.212V4.92H101.012V6.26C101.372 5.79333 101.832 5.42667 102.392 5.16C102.965 4.89333 103.592 4.76 104.272 4.76C105.139 4.76 105.912 4.94667 106.592 5.32C107.272 5.68 107.799 6.2 108.172 6.88C108.532 6.24 109.052 5.72667 109.732 5.34C110.425 4.95333 111.172 4.76 111.972 4.76ZM129.469 10.22C129.469 10.62 129.442 10.98 129.389 11.3H121.289C121.356 12.1 121.636 12.7267 122.129 13.18C122.622 13.6333 123.229 13.86 123.949 13.86C124.989 13.86 125.729 13.4133 126.169 12.52H129.189C128.869 13.5867 128.256 14.4667 127.349 15.16C126.442 15.84 125.329 16.18 124.009 16.18C122.942 16.18 121.982 15.9467 121.129 15.48C120.289 15 119.629 14.3267 119.149 13.46C118.682 12.5933 118.449 11.5933 118.449 10.46C118.449 9.31333 118.682 8.30667 119.149 7.44C119.616 6.57333 120.269 5.90667 121.109 5.44C121.949 4.97333 122.916 4.74 124.009 4.74C125.062 4.74 126.002 4.96667 126.829 5.42C127.669 5.87333 128.316 6.52 128.769 7.36C129.236 8.18667 129.469 9.14 129.469 10.22ZM126.569 9.42C126.556 8.7 126.296 8.12667 125.789 7.7C125.282 7.26 124.662 7.04 123.929 7.04C123.236 7.04 122.649 7.25333 122.169 7.68C121.702 8.09333 121.416 8.67333 121.309 9.42H126.569ZM137.653 4.76C138.973 4.76 140.039 5.18 140.853 6.02C141.666 6.84667 142.073 8.00667 142.073 9.5V16H139.273V9.88C139.273 9 139.053 8.32667 138.613 7.86C138.173 7.38 137.573 7.14 136.813 7.14C136.039 7.14 135.426 7.38 134.973 7.86C134.533 8.32667 134.313 9 134.313 9.88V16H131.513V4.92H134.313V6.3C134.686 5.82 135.159 5.44667 135.733 5.18C136.319 4.9 136.959 4.76 137.653 4.76ZM147.995 7.22V12.58C147.995 12.9533 148.082 13.2267 148.255 13.4C148.442 13.56 148.749 13.64 149.175 13.64H150.475V16H148.715C146.355 16 145.175 14.8533 145.175 12.56V7.22H143.855V4.92H145.175V2.18H147.995V4.92H150.475V7.22H147.995ZM160.055 2.04V16H157.255V2.04H160.055ZM168.961 4.76C170.281 4.76 171.348 5.18 172.161 6.02C172.975 6.84667 173.381 8.00667 173.381 9.5V16H170.581V9.88C170.581 9 170.361 8.32667 169.921 7.86C169.481 7.38 168.881 7.14 168.121 7.14C167.348 7.14 166.735 7.38 166.281 7.86C165.841 8.32667 165.621 9 165.621 9.88V16H162.821V4.92H165.621V6.3C165.995 5.82 166.468 5.44667 167.041 5.18C167.628 4.9 168.268 4.76 168.961 4.76ZM181.124 7.22H179.184V16H176.344V7.22H175.084V4.92H176.344V4.36C176.344 3 176.731 2 177.504 1.36C178.277 0.719999 179.444 0.42 181.004 0.46V2.82C180.324 2.80667 179.851 2.92 179.584 3.16C179.317 3.4 179.184 3.83333 179.184 4.46V4.92H181.124V7.22ZM187.859 16.18C186.792 16.18 185.832 15.9467 184.979 15.48C184.125 15 183.452 14.3267 182.959 13.46C182.479 12.5933 182.239 11.5933 182.239 10.46C182.239 9.32667 182.485 8.32667 182.979 7.46C183.485 6.59333 184.172 5.92667 185.039 5.46C185.905 4.98 186.872 4.74 187.939 4.74C189.005 4.74 189.972 4.98 190.839 5.46C191.705 5.92667 192.385 6.59333 192.879 7.46C193.385 8.32667 193.639 9.32667 193.639 10.46C193.639 11.5933 193.379 12.5933 192.859 13.46C192.352 14.3267 191.659 15 190.779 15.48C189.912 15.9467 188.939 16.18 187.859 16.18ZM187.859 13.74C188.365 13.74 188.839 13.62 189.279 13.38C189.732 13.1267 190.092 12.7533 190.359 12.26C190.625 11.7667 190.759 11.1667 190.759 10.46C190.759 9.40667 190.479 8.6 189.919 8.04C189.372 7.46667 188.699 7.18 187.899 7.18C187.099 7.18 186.425 7.46667 185.879 8.04C185.345 8.6 185.079 9.40667 185.079 10.46C185.079 11.5133 185.339 12.3267 185.859 12.9C186.392 13.46 187.059 13.74 187.859 13.74ZM198.493 6.64C198.853 6.05333 199.319 5.59333 199.893 5.26C200.479 4.92667 201.146 4.76 201.893 4.76V7.7H201.153C200.273 7.7 199.606 7.90667 199.153 8.32C198.713 8.73333 198.493 9.45333 198.493 10.48V16H195.693V4.92H198.493V6.64ZM217.538 4.76C218.898 4.76 219.992 5.18 220.818 6.02C221.658 6.84667 222.078 8.00667 222.078 9.5V16H219.278V9.88C219.278 9.01333 219.058 8.35333 218.618 7.9C218.178 7.43333 217.578 7.2 216.818 7.2C216.058 7.2 215.452 7.43333 214.998 7.9C214.558 8.35333 214.338 9.01333 214.338 9.88V16H211.538V9.88C211.538 9.01333 211.318 8.35333 210.878 7.9C210.438 7.43333 209.838 7.2 209.078 7.2C208.305 7.2 207.692 7.43333 207.238 7.9C206.798 8.35333 206.578 9.01333 206.578 9.88V16H203.778V4.92H206.578V6.26C206.938 5.79333 207.398 5.42667 207.958 5.16C208.532 4.89333 209.158 4.76 209.838 4.76C210.705 4.76 211.478 4.94667 212.158 5.32C212.838 5.68 213.365 6.2 213.738 6.88C214.098 6.24 214.618 5.72667 215.298 5.34C215.992 4.95333 216.738 4.76 217.538 4.76ZM224.015 10.42C224.015 9.3 224.235 8.30667 224.675 7.44C225.129 6.57333 225.735 5.90667 226.495 5.44C227.269 4.97333 228.129 4.74 229.075 4.74C229.902 4.74 230.622 4.90667 231.235 5.24C231.862 5.57333 232.362 5.99333 232.735 6.5V4.92H235.555V16H232.735V14.38C232.375 14.9 231.875 15.3333 231.235 15.68C230.609 16.0133 229.882 16.18 229.055 16.18C228.122 16.18 227.269 15.94 226.495 15.46C225.735 14.98 225.129 14.3067 224.675 13.44C224.235 12.56 224.015 11.5533 224.015 10.42ZM232.735 10.46C232.735 9.78 232.602 9.2 232.335 8.72C232.069 8.22667 231.709 7.85333 231.255 7.6C230.802 7.33333 230.315 7.2 229.795 7.2C229.275 7.2 228.795 7.32667 228.355 7.58C227.915 7.83333 227.555 8.20667 227.275 8.7C227.009 9.18 226.875 9.75333 226.875 10.42C226.875 11.0867 227.009 11.6733 227.275 12.18C227.555 12.6733 227.915 13.0533 228.355 13.32C228.809 13.5867 229.289 13.72 229.795 13.72C230.315 13.72 230.802 13.5933 231.255 13.34C231.709 13.0733 232.069 12.7 232.335 12.22C232.602 11.7267 232.735 11.14 232.735 10.46ZM241.55 7.22V12.58C241.55 12.9533 241.637 13.2267 241.81 13.4C241.997 13.56 242.303 13.64 242.73 13.64H244.03V16H242.27C239.91 16 238.73 14.8533 238.73 12.56V7.22H237.41V4.92H238.73V2.18H241.55V4.92H244.03V7.22H241.55ZM247.464 3.6C246.971 3.6 246.557 3.44667 246.224 3.14C245.904 2.82 245.744 2.42667 245.744 1.96C245.744 1.49333 245.904 1.10667 246.224 0.799999C246.557 0.479999 246.971 0.319999 247.464 0.319999C247.957 0.319999 248.364 0.479999 248.684 0.799999C249.017 1.10667 249.184 1.49333 249.184 1.96C249.184 2.42667 249.017 2.82 248.684 3.14C248.364 3.44667 247.957 3.6 247.464 3.6ZM248.844 4.92V16H246.044V4.92H248.844ZM256.53 16.18C255.464 16.18 254.504 15.9467 253.65 15.48C252.797 15 252.124 14.3267 251.63 13.46C251.15 12.5933 250.91 11.5933 250.91 10.46C250.91 9.32667 251.157 8.32667 251.65 7.46C252.157 6.59333 252.844 5.92667 253.71 5.46C254.577 4.98 255.544 4.74 256.61 4.74C257.677 4.74 258.644 4.98 259.51 5.46C260.377 5.92667 261.057 6.59333 261.55 7.46C262.057 8.32667 262.31 9.32667 262.31 10.46C262.31 11.5933 262.05 12.5933 261.53 13.46C261.024 14.3267 260.33 15 259.45 15.48C258.584 15.9467 257.61 16.18 256.53 16.18ZM256.53 13.74C257.037 13.74 257.51 13.62 257.95 13.38C258.404 13.1267 258.764 12.7533 259.03 12.26C259.297 11.7667 259.43 11.1667 259.43 10.46C259.43 9.40667 259.15 8.6 258.59 8.04C258.044 7.46667 257.37 7.18 256.57 7.18C255.77 7.18 255.097 7.46667 254.55 8.04C254.017 8.6 253.75 9.40667 253.75 10.46C253.75 11.5133 254.01 12.3267 254.53 12.9C255.064 13.46 255.73 13.74 256.53 13.74ZM270.504 4.76C271.824 4.76 272.891 5.18 273.704 6.02C274.518 6.84667 274.924 8.00667 274.924 9.5V16H272.124V9.88C272.124 9 271.904 8.32667 271.464 7.86C271.024 7.38 270.424 7.14 269.664 7.14C268.891 7.14 268.278 7.38 267.824 7.86C267.384 8.32667 267.164 9 267.164 9.88V16H264.364V4.92H267.164V6.3C267.538 5.82 268.011 5.44667 268.584 5.18C269.171 4.9 269.811 4.76 270.504 4.76Z" fill="#263056"/>
<path d="M33.5258 9H16C7.71573 9 1 15.7157 1 24V489C1 497.284 7.71573 504 16 504H927C935.284 504 942 497.284 942 489V24C942 15.7157 935.284 9 927 9H302.703" stroke="#263056" stroke-width="2"/>
</svg>
