<svg width="943" height="505" viewBox="0 0 943 505" fill="none" xmlns="http://www.w3.org/2000/svg">
<path d="M88.553 4.055V7.03H92.548V8.917H88.553V12.062H93.058V14H86.173V2.117H93.058V4.055H88.553ZM99.1479 11.807L101.528 4.582H104.061L100.576 14H97.6859L94.2179 4.582H96.7679L99.1479 11.807ZM114.153 9.087C114.153 9.427 114.13 9.733 114.085 10.005H107.2C107.256 10.685 107.494 11.2177 107.914 11.603C108.333 11.9883 108.849 12.181 109.461 12.181C110.345 12.181 110.974 11.8013 111.348 11.042H113.915C113.643 11.9487 113.121 12.6967 112.351 13.286C111.58 13.864 110.634 14.153 109.512 14.153C108.605 14.153 107.789 13.9547 107.064 13.558C106.35 13.15 105.789 12.5777 105.381 11.841C104.984 11.1043 104.786 10.2543 104.786 9.291C104.786 8.31633 104.984 7.46067 105.381 6.724C105.777 5.98733 106.333 5.42067 107.047 5.024C107.761 4.62733 108.582 4.429 109.512 4.429C110.407 4.429 111.206 4.62167 111.909 5.007C112.623 5.39233 113.172 5.942 113.558 6.656C113.954 7.35867 114.153 8.169 114.153 9.087ZM111.688 8.407C111.676 7.795 111.455 7.30767 111.025 6.945C110.594 6.571 110.067 6.384 109.444 6.384C108.854 6.384 108.356 6.56533 107.948 6.928C107.551 7.27933 107.307 7.77233 107.217 8.407H111.688ZM121.109 4.446C122.231 4.446 123.137 4.803 123.829 5.517C124.52 6.21967 124.866 7.20567 124.866 8.475V14H122.486V8.798C122.486 8.05 122.299 7.47767 121.925 7.081C121.551 6.673 121.041 6.469 120.395 6.469C119.737 6.469 119.216 6.673 118.831 7.081C118.457 7.47767 118.27 8.05 118.27 8.798V14H115.89V4.582H118.27V5.755C118.587 5.347 118.989 5.02967 119.477 4.803C119.975 4.565 120.519 4.446 121.109 4.446ZM129.9 6.537V11.093C129.9 11.4103 129.974 11.6427 130.121 11.79C130.28 11.926 130.54 11.994 130.903 11.994H132.008V14H130.512C128.506 14 127.503 13.0253 127.503 11.076V6.537H126.381V4.582H127.503V2.253H129.9V4.582H132.008V6.537H129.9ZM140.151 2.134V14H137.771V2.134H140.151ZM147.721 4.446C148.843 4.446 149.75 4.803 150.441 5.517C151.132 6.21967 151.478 7.20567 151.478 8.475V14H149.098V8.798C149.098 8.05 148.911 7.47767 148.537 7.081C148.163 6.673 147.653 6.469 147.007 6.469C146.35 6.469 145.828 6.673 145.443 7.081C145.069 7.47767 144.882 8.05 144.882 8.798V14H142.502V4.582H144.882V5.755C145.199 5.347 145.602 5.02967 146.089 4.803C146.588 4.565 147.132 4.446 147.721 4.446ZM158.059 6.537H156.41V14H153.996V6.537H152.925V4.582H153.996V4.106C153.996 2.95 154.325 2.1 154.982 1.556C155.64 1.012 156.631 0.757 157.957 0.791V2.797C157.379 2.78567 156.977 2.882 156.75 3.086C156.524 3.29 156.41 3.65833 156.41 4.191V4.582H158.059V6.537ZM163.784 14.153C162.877 14.153 162.061 13.9547 161.336 13.558C160.61 13.15 160.038 12.5777 159.619 11.841C159.211 11.1043 159.007 10.2543 159.007 9.291C159.007 8.32767 159.216 7.47767 159.636 6.741C160.066 6.00433 160.65 5.43767 161.387 5.041C162.123 4.633 162.945 4.429 163.852 4.429C164.758 4.429 165.58 4.633 166.317 5.041C167.053 5.43767 167.631 6.00433 168.051 6.741C168.481 7.47767 168.697 8.32767 168.697 9.291C168.697 10.2543 168.476 11.1043 168.034 11.841C167.603 12.5777 167.014 13.15 166.266 13.558C165.529 13.9547 164.702 14.153 163.784 14.153ZM163.784 12.079C164.214 12.079 164.617 11.977 164.991 11.773C165.376 11.5577 165.682 11.2403 165.909 10.821C166.135 10.4017 166.249 9.89167 166.249 9.291C166.249 8.39567 166.011 7.71 165.535 7.234C165.07 6.74667 164.498 6.503 163.818 6.503C163.138 6.503 162.565 6.74667 162.101 7.234C161.647 7.71 161.421 8.39567 161.421 9.291C161.421 10.1863 161.642 10.8777 162.084 11.365C162.537 11.841 163.104 12.079 163.784 12.079ZM172.823 6.044C173.129 5.54533 173.525 5.15433 174.013 4.871C174.511 4.58767 175.078 4.446 175.713 4.446V6.945H175.084C174.336 6.945 173.769 7.12067 173.384 7.472C173.01 7.82333 172.823 8.43533 172.823 9.308V14H170.443V4.582H172.823V6.044ZM189.012 4.446C190.168 4.446 191.097 4.803 191.8 5.517C192.514 6.21967 192.871 7.20567 192.871 8.475V14H190.491V8.798C190.491 8.06133 190.304 7.50033 189.93 7.115C189.556 6.71833 189.046 6.52 188.4 6.52C187.754 6.52 187.238 6.71833 186.853 7.115C186.479 7.50033 186.292 8.06133 186.292 8.798V14H183.912V8.798C183.912 8.06133 183.725 7.50033 183.351 7.115C182.977 6.71833 182.467 6.52 181.821 6.52C181.163 6.52 180.642 6.71833 180.257 7.115C179.883 7.50033 179.696 8.06133 179.696 8.798V14H177.316V4.582H179.696V5.721C180.002 5.32433 180.393 5.01267 180.869 4.786C181.356 4.55933 181.889 4.446 182.467 4.446C183.203 4.446 183.861 4.60467 184.439 4.922C185.017 5.228 185.464 5.67 185.782 6.248C186.088 5.704 186.53 5.26767 187.108 4.939C187.697 4.61033 188.332 4.446 189.012 4.446ZM194.517 9.257C194.517 8.305 194.704 7.46067 195.078 6.724C195.463 5.98733 195.979 5.42067 196.625 5.024C197.282 4.62733 198.013 4.429 198.818 4.429C199.521 4.429 200.133 4.57067 200.654 4.854C201.187 5.13733 201.612 5.49433 201.929 5.925V4.582H204.326V14H201.929V12.623C201.623 13.065 201.198 13.4333 200.654 13.728C200.121 14.0113 199.504 14.153 198.801 14.153C198.008 14.153 197.282 13.949 196.625 13.541C195.979 13.133 195.463 12.5607 195.078 11.824C194.704 11.076 194.517 10.2203 194.517 9.257ZM201.929 9.291C201.929 8.713 201.816 8.22 201.589 7.812C201.362 7.39267 201.056 7.07533 200.671 6.86C200.286 6.63333 199.872 6.52 199.43 6.52C198.988 6.52 198.58 6.62767 198.206 6.843C197.832 7.05833 197.526 7.37567 197.288 7.795C197.061 8.203 196.948 8.69033 196.948 9.257C196.948 9.82367 197.061 10.3223 197.288 10.753C197.526 11.1723 197.832 11.4953 198.206 11.722C198.591 11.9487 198.999 12.062 199.43 12.062C199.872 12.062 200.286 11.9543 200.671 11.739C201.056 11.5123 201.362 11.195 201.589 10.787C201.816 10.3677 201.929 9.869 201.929 9.291ZM209.422 6.537V11.093C209.422 11.4103 209.495 11.6427 209.643 11.79C209.801 11.926 210.062 11.994 210.425 11.994H211.53V14H210.034C208.028 14 207.025 13.0253 207.025 11.076V6.537H205.903V4.582H207.025V2.253H209.422V4.582H211.53V6.537H209.422ZM214.448 3.46C214.029 3.46 213.678 3.32967 213.394 3.069C213.122 2.797 212.986 2.46267 212.986 2.066C212.986 1.66933 213.122 1.34067 213.394 1.08C213.678 0.807999 214.029 0.671999 214.448 0.671999C214.868 0.671999 215.213 0.807999 215.485 1.08C215.769 1.34067 215.91 1.66933 215.91 2.066C215.91 2.46267 215.769 2.797 215.485 3.069C215.213 3.32967 214.868 3.46 214.448 3.46ZM215.621 4.582V14H213.241V4.582H215.621ZM222.155 14.153C221.248 14.153 220.432 13.9547 219.707 13.558C218.981 13.15 218.409 12.5777 217.99 11.841C217.582 11.1043 217.378 10.2543 217.378 9.291C217.378 8.32767 217.587 7.47767 218.007 6.741C218.437 6.00433 219.021 5.43767 219.758 5.041C220.494 4.633 221.316 4.429 222.223 4.429C223.129 4.429 223.951 4.633 224.688 5.041C225.424 5.43767 226.002 6.00433 226.422 6.741C226.852 7.47767 227.068 8.32767 227.068 9.291C227.068 10.2543 226.847 11.1043 226.405 11.841C225.974 12.5777 225.385 13.15 224.637 13.558C223.9 13.9547 223.073 14.153 222.155 14.153ZM222.155 12.079C222.585 12.079 222.988 11.977 223.362 11.773C223.747 11.5577 224.053 11.2403 224.28 10.821C224.506 10.4017 224.62 9.89167 224.62 9.291C224.62 8.39567 224.382 7.71 223.906 7.234C223.441 6.74667 222.869 6.503 222.189 6.503C221.509 6.503 220.936 6.74667 220.472 7.234C220.018 7.71 219.792 8.39567 219.792 9.291C219.792 10.1863 220.013 10.8777 220.455 11.365C220.908 11.841 221.475 12.079 222.155 12.079ZM234.033 4.446C235.155 4.446 236.061 4.803 236.753 5.517C237.444 6.21967 237.79 7.20567 237.79 8.475V14H235.41V8.798C235.41 8.05 235.223 7.47767 234.849 7.081C234.475 6.673 233.965 6.469 233.319 6.469C232.661 6.469 232.14 6.673 231.755 7.081C231.381 7.47767 231.194 8.05 231.194 8.798V14H228.814V4.582H231.194V5.755C231.511 5.347 231.913 5.02967 232.401 4.803C232.899 4.565 233.443 4.446 234.033 4.446Z" fill="#263056"/>
<path d="M58.9347 9H16C7.71573 9 1 15.7157 1 24V489C1 497.284 7.71573 504 16 504H927C935.284 504 942 497.284 942 489V24C942 15.7157 935.284 9 927 9H266.68" stroke="#263056" stroke-width="2"/>
</svg>
