<svg width="200" height="220" viewBox="0 0 200 220" fill="none" xmlns="http://www.w3.org/2000/svg">
<path d="M88.8401 35.2041C80.608 35.2105 72.4329 33.8382 64.6541 31.1442C54.2258 27.5386 45.6826 22.5653 39.2621 16.3625C27.117 4.62914 17.1598 2.86087 10.9467 3.44312C4.22112 4.0737 0.306289 7.5177 0.267551 7.55243L0 7.25416C0.0395199 7.21865 4.03506 3.69649 10.8833 3.04664C14.8993 2.66581 19.099 3.32935 23.3661 5.01947C28.6874 7.12709 34.1292 10.8465 39.5405 16.0743C45.9187 22.2363 54.4122 27.1792 64.785 30.7654C83.8272 37.349 105.288 35.7551 123.666 26.3921C129.751 23.2919 135.764 21.1757 141.54 20.1025C148.823 18.7488 155.731 19.063 162.071 21.0358C176.005 25.3706 185.522 25.1408 191.053 24.185C197.02 23.1536 199.727 21.0896 199.754 21.0688L200 21.3851C199.888 21.4722 197.186 23.5315 191.121 24.5798C185.547 25.5434 175.961 25.7768 161.952 21.4182C147.768 17.0058 133.402 21.8814 123.848 26.749C114.765 31.4014 104.846 34.1995 94.6704 34.9801C92.72 35.1294 90.7766 35.2041 88.8401 35.2041Z" fill="#3F3D56"/>
<path d="M88.0313 40.1761C90.2738 40.1761 92.0918 38.3581 92.0918 36.1156C92.0918 33.873 90.2738 32.0551 88.0313 32.0551C85.7887 32.0551 83.9708 33.873 83.9708 36.1156C83.9708 38.3581 85.7887 40.1761 88.0313 40.1761Z" fill="#6C63FF"/>
<path d="M150.939 23.9482C153.182 23.9482 155 22.1302 155 19.8877C155 17.6451 153.182 15.8271 150.939 15.8271C148.697 15.8271 146.879 17.6451 146.879 19.8877C146.879 22.1302 148.697 23.9482 150.939 23.9482Z" fill="#6C63FF"/>
<path d="M20.1146 8.12104C22.3572 8.12104 24.1751 6.30308 24.1751 4.06052C24.1751 1.81796 22.3572 0 20.1146 0C17.872 0 16.0541 1.81796 16.0541 4.06052C16.0541 6.30308 17.872 8.12104 20.1146 8.12104Z" fill="#6C63FF"/>
<path d="M117.15 97.0632V136.296H123.319V100.518H147.993V136.296H154.162V57.8304H147.993C145.949 57.8304 142.812 68.4765 142.812 79.1741C142.812 87.2374 143.753 94.1478 145.092 97.0632H117.15ZM147.993 97.0632H147.933C147.954 97.0194 147.973 96.9731 147.993 96.9274V97.0632Z" fill="#3F3D56"/>
<path d="M140.01 38.4116H140.01C134.946 38.4116 130.841 42.967 130.841 48.5864V55.7258H133.037L134.308 53.0806L133.99 55.7258H148.104L149.26 53.321L148.971 55.7258H150.56V50.1201C150.56 43.6537 145.836 38.4116 140.01 38.4116Z" fill="#2F2E41"/>
<path d="M129.504 85.057L123.875 87.4494L104.314 103.352C103.594 104.236 103.154 105.313 103.047 106.448C102.906 108.278 96.9956 117.847 99.1066 119.114C101.218 120.38 108.817 124.18 109.239 121.647C109.661 119.114 111.913 108.278 111.913 108.278L130.771 91.3899L129.504 85.057Z" fill="#2F2E41"/>
<path d="M107.41 119.536L105.017 126.572C105.017 126.572 107.55 129.246 106.284 131.498V139.238H104.314L103.751 135.157C103.751 135.157 101.507 139.187 100.373 139.238C97.997 139.346 93.2917 140.191 93.151 138.925C93.0103 137.658 96.7141 136.423 96.7141 136.423L100.655 125.587L102.343 118.973L107.41 119.536Z" fill="#2F2E41"/>
<path d="M144.14 83.2275C144.14 83.2275 145.407 95.6118 141.748 97.8634C138.089 100.115 121.905 107.292 121.905 107.292C121.905 107.292 128.801 113.766 127.393 115.314C125.986 116.862 119.653 121.084 118.809 120.24C117.964 119.395 108.536 109.263 109.661 106.026C110.787 102.789 126.408 92.2342 126.408 92.2342L128.238 85.6199L128.801 80.2721L134.711 76.4724L144.14 83.2275Z" fill="#2F2E41"/>
<path d="M137.693 54.3937C140.933 54.3937 143.56 51.767 143.56 48.5269C143.56 45.2867 140.933 42.66 137.693 42.66C134.453 42.66 131.826 45.2867 131.826 48.5269C131.826 51.767 134.453 54.3937 137.693 54.3937Z" fill="#FFB9B9"/>
<path d="M142.24 50.9298C142.24 50.9298 141.959 56.2776 146.322 57.9663C150.684 59.6551 135.485 70.6321 135.485 70.6321V58.3885C135.485 58.3885 137.456 56.2776 135.485 53.0408L142.24 50.9298Z" fill="#FFB9B9"/>
<path d="M151.599 76.0502L150.473 81.5387L147.096 100.397C147.096 100.397 149.91 108.418 146.111 108.277C142.311 108.137 144.14 99.5522 144.14 99.5522L146.111 83.9311V77.8797L151.599 76.0502Z" fill="#FFB9B9"/>
<path d="M127.393 73.3763L126.127 78.3019L120.357 92.2342C120.357 92.2342 116.416 98.8486 119.653 98.7078C122.89 98.5671 122.89 92.2342 122.89 92.2342L129.504 80.9758V74.6429L127.393 73.3763Z" fill="#FFB9B9"/>
<path d="M126.408 114.47L131.052 118.832C131.052 118.832 134.289 118.129 135.556 121.928C136.822 125.728 137.667 128.12 137.667 128.12L135.978 129.106L133.867 126.15C133.867 126.15 132.6 131.498 131.334 131.92C130.067 132.342 123.734 135.157 124.297 131.92L127.393 127.417C127.393 127.417 127.816 122.351 126.549 121.928C125.282 121.506 121.905 117.284 121.905 117.284L126.408 114.47Z" fill="#2F2E41"/>
<path d="M144.363 87.59C144.363 87.59 131.135 82.8052 130.29 83.2274C129.662 83.5051 128.992 83.6788 128.308 83.7419L128.32 81.8201C128.32 81.8201 132.683 80.2721 135.075 81.2572C137.468 82.2423 144.786 86.6049 144.786 86.6049L144.363 87.59Z" fill="#3F3D56"/>
<path d="M136.33 67.8174C136.33 67.8174 140.13 63.4548 141.255 60.7809C141.968 59.1599 143.275 57.8743 144.908 57.1893C144.908 57.1893 153.358 59.0921 153.217 62.4697C153.077 65.8472 147.87 71.0542 147.87 71.0542C147.87 71.0542 148.573 89.7714 144.774 89.4899C143.954 88.5118 143.376 87.3549 143.085 86.1124C142.663 84.1422 129.575 82.0312 129.575 82.0312C129.575 82.0312 128.449 84.0014 128.308 83.1571C128.167 82.3127 129.434 61.6253 129.434 61.6253L136.145 57.1893L136.33 67.8174Z" fill="#D0CDE1"/>
<path d="M152.133 61.1102L152.228 61.1631C152.528 61.3319 152.779 61.5777 152.953 61.8754C153.127 62.173 153.219 62.5117 153.219 62.8565L153.218 73.3006C153.219 73.5844 153.281 73.8647 153.402 74.1219C153.522 74.3791 153.697 74.607 153.914 74.7899C154.456 75.251 154.958 75.9155 153.921 76.2613C152.232 76.8242 145.618 79.6388 145.477 78.6537C145.337 77.6686 145.055 76.5428 145.477 76.5428C145.808 76.5428 147.777 66.4512 149.359 62.1365C149.456 61.8723 149.609 61.6323 149.808 61.4331C150.006 61.2338 150.246 61.0801 150.509 60.9825C150.773 60.8849 151.055 60.8457 151.335 60.8678C151.616 60.8899 151.888 60.9726 152.133 61.1102Z" fill="#D0CDE1"/>
<path d="M131.334 61.1327L129.364 61.6956L127.112 71.406C127.112 71.406 124.438 71.9689 125.282 72.9541C126.127 73.9392 129.645 76.4723 129.645 76.4723L131.334 61.1327Z" fill="#D0CDE1"/>
<path d="M142.616 41.2145C142.175 40.6221 141.603 40.1392 140.945 39.8035C140.287 39.4677 139.561 39.2881 138.822 39.2784H138.642C135.171 39.2784 132.358 42.4189 132.358 46.2928V46.2928H133.521L133.709 44.8633L133.984 46.2928H140.881L141.459 45.0834L141.314 46.2928H142.671C143.304 49.4371 142.395 52.5815 139.942 55.7258H142.253L143.409 53.3071L143.12 55.7258H147.526L148.393 50.1627C148.393 45.9965 145.972 42.4636 142.616 41.2145Z" fill="#2F2E41"/>
<path d="M24.7496 106.128C26.2301 102.904 27.2713 95.2638 27.2713 86.3485C27.2713 74.5205 23.8022 62.7495 21.5421 62.7495H14.7216V149.506H21.5421V109.947H48.8241V149.506H55.6446V106.128H24.7496ZM21.542 105.978C21.5641 106.028 21.5861 106.079 21.6084 106.128H21.542V105.978Z" fill="#3F3D56"/>
<path d="M53.178 90.3008C53.178 90.3008 61.3921 93.7066 58.7876 95.7101C56.1832 97.7135 50.7739 93.3059 50.9742 92.7049C51.1746 92.1039 50.1729 90.7015 50.1729 90.7015L53.178 90.3008Z" fill="#9F616A"/>
<path d="M45.9656 63.4547L48.5701 65.8588L49.1711 72.8709L51.1745 80.2836C51.1745 80.2836 54.5804 87.2957 53.9794 88.6981C53.3783 90.1005 54.5804 90.5012 54.5804 90.5012L49.9725 92.3043C49.9725 92.3043 44.9639 86.6946 44.9639 85.4926C44.9639 84.2905 45.9656 63.4547 45.9656 63.4547Z" fill="#575A88"/>
<path opacity="0.1" d="M45.9656 63.4547L48.5701 65.8588L49.1711 72.8709L51.1745 80.2836C51.1745 80.2836 54.5804 87.2957 53.9794 88.6981C53.3783 90.1005 54.5804 90.5012 54.5804 90.5012L49.9725 92.3043C49.9725 92.3043 44.9639 86.6946 44.9639 85.4926C44.9639 84.2905 45.9656 63.4547 45.9656 63.4547Z" fill="black"/>
<path d="M70.608 135.579C70.608 135.579 69.6062 140.187 69.4059 140.587C69.2055 140.988 73.2124 142.39 73.2124 142.39L78.0207 138.984C78.0207 138.984 76.0173 134.577 76.0173 133.776L70.608 135.579Z" fill="#575A88"/>
<path d="M44.3628 90.7014L45.7652 92.3042C45.7652 92.3042 74.8151 95.9104 75.4162 101.52C76.0172 107.13 80.2244 133.575 77.8203 134.376C75.4162 135.178 69.2055 138.183 69.2055 136.58C69.2055 134.977 65.1986 112.94 66 108.933C66 108.933 31.3405 104.525 30.5391 99.5166C29.7377 94.508 31.3405 92.3042 31.3405 92.3042L44.3628 90.7014Z" fill="#2F2E41"/>
<path opacity="0.1" d="M44.3628 90.7014L45.7652 92.3042C45.7652 92.3042 74.8151 95.9104 75.4162 101.52C76.0172 107.13 80.2244 133.575 77.8203 134.376C75.4162 135.178 69.2055 138.183 69.2055 136.58C69.2055 134.977 65.1986 112.94 66 108.933C66 108.933 31.3405 104.525 30.5391 99.5166C29.7377 94.508 31.3405 92.3042 31.3405 92.3042L44.3628 90.7014Z" fill="black"/>
<path d="M70.2073 140.187C70.2073 140.187 69.4059 138.383 69.0052 138.984C68.6045 139.586 67.2021 146.598 68.6045 146.598C70.0069 146.598 82.829 149.803 84.6321 149.402C86.4351 149.002 89.841 149.603 89.4403 147.599C89.0396 145.596 87.0362 145.395 87.0362 145.395C87.0362 145.395 79.6235 140.988 79.2228 138.784C78.8221 136.58 76.6183 137.782 76.6183 137.782V139.185C76.6183 139.185 72.4111 142.39 70.2073 140.187Z" fill="#2F2E41"/>
<path d="M32.1419 48.2285C32.1419 48.2285 33.5443 55.0402 30.5391 55.6413C27.534 56.2423 34.3457 60.2492 34.3457 60.2492L38.7532 62.6533L41.9588 59.4478C41.9588 59.4478 39.0538 53.5376 41.2576 49.1301C43.4613 44.7225 32.1419 48.2285 32.1419 48.2285Z" fill="#9F616A"/>
<path d="M41.9588 59.4478L38.7532 62.6533L34.3457 60.2492C34.3457 60.2492 27.534 56.2423 30.5391 55.6413C32.4725 55.2546 32.5806 52.2975 32.4144 50.238C32.3601 49.5637 32.2691 48.8929 32.1419 48.2285C32.1419 48.2285 43.4613 44.7225 41.2576 49.1301C40.9227 49.8107 40.6905 50.5371 40.5684 51.2858C39.8932 55.2466 41.9588 59.4478 41.9588 59.4478Z" fill="#9F616A"/>
<path d="M53.178 141.388V145.996H60.7911L61.3921 144.193L60.5907 139.385L53.178 141.388Z" fill="#575A88"/>
<path d="M21.724 94.7083C21.724 94.7083 21.724 106.529 26.5323 106.929C31.3405 107.33 48.5701 109.534 48.5701 109.534C48.5701 109.534 49.5718 129.167 51.3749 135.578C53.178 141.989 51.5753 142.39 53.178 142.791C54.7808 143.192 61.5925 141.789 61.3921 140.387C61.1918 138.984 60.3904 103.523 60.3904 103.523C60.3904 103.523 62.1935 95.9104 38.1522 92.3042L21.724 94.7083Z" fill="#2F2E41"/>
<path d="M53.779 144.594C53.779 144.594 52.577 141.99 52.3766 142.791C52.1763 143.592 49.7722 150.604 52.1763 151.205C54.5804 151.806 62.1935 155.012 67.2021 154.812C72.2107 154.611 72.8117 154.411 72.8117 154.411C72.8117 154.411 74.2141 152.407 72.411 151.205C70.6079 150.003 63.1952 142.991 62.7945 142.19C62.3938 141.389 59.3887 140.787 59.3887 142.19C59.3887 143.592 55.1814 146.397 53.779 144.594Z" fill="#2F2E41"/>
<path opacity="0.1" d="M41.2575 49.1301C40.9227 49.8107 40.6904 50.5371 40.5683 51.2858C39.5706 51.8888 38.9035 51.7345 37.6513 51.7345C35.7941 51.7345 35.0448 49.3605 33.8448 48.1284C33.7506 46.9844 32.1418 48.2285 32.1418 48.2285C32.1418 48.2285 43.4613 44.7225 41.2575 49.1301Z" fill="black"/>
<path d="M37.1505 51.6343C40.8018 51.6343 43.7618 48.6743 43.7618 45.023C43.7618 41.3716 40.8018 38.4116 37.1505 38.4116C33.4991 38.4116 30.5391 41.3716 30.5391 45.023C30.5391 48.6743 33.4991 51.6343 37.1505 51.6343Z" fill="#9F616A"/>
<path d="M48.5701 65.8588C48.5701 65.8588 47.5684 73.0712 46.9673 75.6757C46.3663 78.2802 45.5649 90.3008 45.1642 91.9036C44.7635 93.5063 42.3594 93.907 37.5512 93.306C37.2493 93.268 36.9457 93.2453 36.6416 93.2379C33.6805 93.1437 30.2927 94.2516 27.1573 95.1211C25.3542 95.622 23.6333 96.0427 22.1247 96.1108C19.8407 96.215 19.1716 93.6826 19.2497 90.9419C19.3238 88.3915 20.0471 85.6569 20.7222 84.6912C21.9384 82.9522 20.7423 67.3394 21.1911 62.1905V62.1885C21.2592 61.4032 21.3653 60.8623 21.5236 60.6499C22.7257 59.0471 30.5391 55.0403 31.4146 55.2025C32.2881 55.3648 39.7549 60.0489 39.7549 60.0489C41.558 60.0489 41.4999 58.0935 41.4999 58.0935C41.4999 58.0935 42.7601 60.4496 45.1642 61.0506C47.5684 61.6516 48.5701 65.8588 48.5701 65.8588Z" fill="#575A88"/>
<path d="M35.1777 91.8319C35.1777 91.8319 48.083 92.2428 45.8223 93.7761C43.5615 95.3094 33.5443 96.7118 33.344 94.7083C33.1436 92.7049 35.1777 91.8319 35.1777 91.8319Z" fill="#9F616A"/>
<path opacity="0.1" d="M36.6416 93.2378C36.6836 94.0072 34.6141 95.7401 33.9449 96.9121C33.5743 97.5613 30.7054 96.7058 27.1573 95.1211C24.4345 93.899 21.7932 92.503 19.2497 90.9419C19.3238 88.3915 20.0471 85.6568 20.7222 84.6911C21.9383 82.9522 20.7423 67.3393 21.191 62.1905V62.1885C21.298 62.1342 21.4093 62.0886 21.5236 62.0522H23.9277C32.1418 65.8588 22.7257 82.287 22.7257 82.287C22.7257 82.287 35.147 92.5046 36.3491 92.9053C36.4279 92.9202 36.4995 92.961 36.5525 93.0213C36.6055 93.0815 36.6368 93.1577 36.6416 93.2378Z" fill="black"/>
<path d="M23.9278 60.8502H21.5236C21.5236 60.8502 19.3199 61.4513 17.5168 65.4581C15.7137 69.465 9.1023 81.8864 14.9123 86.6946C20.7223 91.5029 33.1436 97.1125 33.945 95.7101C34.7464 94.3077 37.5512 92.1039 36.3491 91.7032C35.147 91.3025 22.7257 81.085 22.7257 81.085C22.7257 81.085 32.1419 64.6568 23.9278 60.8502Z" fill="#575A88"/>
<path d="M36.1334 41.9466C36.1334 41.9466 36.4235 37.9302 40.0028 39.5679C43.5821 41.2055 43.3485 36.6916 42.2669 35.8939C41.1853 35.0963 41.2195 34.8989 37.2635 35.4326C33.3075 35.9662 25.6272 36.8705 28.1106 44.8248C30.594 52.7791 32.8431 50.7328 32.8431 50.7328C32.8431 50.7328 30.8691 43.575 32.8693 44.9387L34.8694 46.3024L35.9248 46.0788L36.1334 41.9466Z" fill="#2F2E41"/>
<path d="M183.823 99.7806C183.823 96.1644 156.951 93.2329 123.802 93.2329C90.654 93.2329 63.782 96.1644 63.782 99.7806C63.782 101.182 67.8207 102.481 74.6948 103.546V148.343H77.9686V104.008C88.9784 105.427 105.424 106.328 123.802 106.328C142.333 106.328 158.899 105.412 169.909 103.972V148.343H173.183V103.503C179.89 102.446 183.823 101.163 183.823 99.7806Z" fill="#3F3D56"/>
<path d="M131.322 99.9173C138.071 99.9173 143.543 98.5718 143.543 96.9121C143.543 95.2524 138.071 93.907 131.322 93.907C124.572 93.907 119.101 95.2524 119.101 96.9121C119.101 98.5718 124.572 99.9173 131.322 99.9173Z" fill="#F2F2F2"/>
<path d="M131.322 99.3754C136.854 99.3754 141.339 98.2725 141.339 96.9121C141.339 95.5517 136.854 94.4489 131.322 94.4489C125.789 94.4489 121.305 95.5517 121.305 96.9121C121.305 98.2725 125.789 99.3754 131.322 99.3754Z" fill="#D0CDE1"/>
<path d="M85.8437 102.321C92.5931 102.321 98.0647 100.976 98.0647 99.3163C98.0647 97.6566 92.5931 96.3112 85.8437 96.3112C79.0942 96.3112 73.6227 97.6566 73.6227 99.3163C73.6227 100.976 79.0942 102.321 85.8437 102.321Z" fill="#F2F2F2"/>
<path d="M85.8437 101.78C91.376 101.78 95.8609 100.677 95.8609 99.3163C95.8609 97.9559 91.376 96.853 85.8437 96.853C80.3113 96.853 75.8265 97.9559 75.8265 99.3163C75.8265 100.677 80.3113 101.78 85.8437 101.78Z" fill="#D0CDE1"/>
<path d="M131.037 96.6999C134.255 96.6999 136.863 96.288 136.863 95.78C136.863 95.2719 134.255 94.8601 131.037 94.8601C127.82 94.8601 125.211 95.2719 125.211 95.78C125.211 96.288 127.82 96.6999 131.037 96.6999Z" fill="#9F616A"/>
<path d="M127.933 95.4351C128.949 95.4351 129.773 94.9889 129.773 94.4385C129.773 93.8881 128.949 93.4419 127.933 93.4419C126.917 93.4419 126.093 93.8881 126.093 94.4385C126.093 94.9889 126.917 95.4351 127.933 95.4351Z" fill="#6C63FF"/>
<path d="M127.243 95.4351C128.259 95.4351 129.083 94.9889 129.083 94.4385C129.083 93.8881 128.259 93.4419 127.243 93.4419C126.227 93.4419 125.403 93.8881 125.403 94.4385C125.403 94.9889 126.227 95.4351 127.243 95.4351Z" fill="#6C63FF"/>
<path d="M135.292 95.665C136.308 95.665 137.132 95.2188 137.132 94.6684C137.132 94.1181 136.308 93.6719 135.292 93.6719C134.276 93.6719 133.452 94.1181 133.452 94.6684C133.452 95.2188 134.276 95.665 135.292 95.665Z" fill="#6C63FF"/>
<path d="M131.076 95.4351C132.092 95.4351 132.916 94.9889 132.916 94.4385C132.916 93.8881 132.092 93.4419 131.076 93.4419C130.06 93.4419 129.236 93.8881 129.236 94.4385C129.236 94.9889 130.06 95.4351 131.076 95.4351Z" fill="#6C63FF"/>
<path d="M134.219 95.4351C135.235 95.4351 136.059 94.9889 136.059 94.4385C136.059 93.8881 135.235 93.4419 134.219 93.4419C133.203 93.4419 132.379 93.8881 132.379 94.4385C132.379 94.9889 133.203 95.4351 134.219 95.4351Z" fill="#6C63FF"/>
<path d="M136.595 93.8252C133.27 94.9536 129.539 94.9536 125.403 93.8252V93.6699C125.402 92.4969 125.853 91.3684 126.661 90.518C127.469 89.6676 128.573 89.1604 129.744 89.1012C130.73 89.0516 131.718 89.0529 132.704 89.105C133.758 89.1664 134.749 89.6291 135.472 90.398C136.196 91.1669 136.598 92.1836 136.595 93.2395V93.8252Z" fill="#3F3D56"/>
<path d="M134.963 98.0497C132.505 98.2979 130.029 98.2979 127.572 98.0497C126.989 97.9925 126.448 97.7207 126.055 97.2871C125.661 96.8535 125.442 96.2891 125.441 95.7034H137.093C137.093 96.2891 136.874 96.8535 136.48 97.2871C136.086 97.7207 135.546 97.9925 134.963 98.0497Z" fill="#3F3D56"/>
<path d="M129.466 90.5289C129.199 90.6402 128.912 90.6975 128.623 90.6975C128.333 90.6975 128.047 90.6402 127.779 90.5289C128.047 90.4175 128.333 90.3602 128.623 90.3602C128.912 90.3602 129.199 90.4175 129.466 90.5289Z" fill="#D0CDE1"/>
<path d="M131.152 91.2188C130.885 91.3301 130.599 91.3875 130.309 91.3875C130.02 91.3875 129.733 91.3301 129.466 91.2188C129.733 91.1075 130.02 91.0502 130.309 91.0502C130.599 91.0502 130.885 91.1075 131.152 91.2188Z" fill="#D0CDE1"/>
<path d="M131.306 89.9924C131.039 90.1037 130.752 90.161 130.462 90.161C130.173 90.161 129.886 90.1037 129.619 89.9924C129.886 89.881 130.173 89.8237 130.462 89.8237C130.752 89.8237 131.039 89.881 131.306 89.9924Z" fill="#D0CDE1"/>
<path d="M134.449 89.9924C134.182 90.1037 133.895 90.161 133.605 90.161C133.316 90.161 133.029 90.1037 132.762 89.9924C133.029 89.881 133.316 89.8237 133.605 89.8237C133.895 89.8237 134.182 89.881 134.449 89.9924Z" fill="#D0CDE1"/>
<path d="M133.605 90.6822C133.338 90.7935 133.052 90.8508 132.762 90.8508C132.473 90.8508 132.186 90.7935 131.919 90.6822C132.186 90.5709 132.473 90.5135 132.762 90.5135C133.052 90.5135 133.338 90.5709 133.605 90.6822Z" fill="#D0CDE1"/>
<path d="M85.7596 99.1041C88.9773 99.1041 91.5857 98.6923 91.5857 98.1842C91.5857 97.6761 88.9773 97.2643 85.7596 97.2643C82.542 97.2643 79.9335 97.6761 79.9335 98.1842C79.9335 98.6923 82.542 99.1041 85.7596 99.1041Z" fill="#9F616A"/>
<path d="M82.6549 97.8392C83.671 97.8392 84.4948 97.393 84.4948 96.8426C84.4948 96.2922 83.671 95.8461 82.6549 95.8461C81.6388 95.8461 80.8151 96.2922 80.8151 96.8426C80.8151 97.393 81.6388 97.8392 82.6549 97.8392Z" fill="#6C63FF"/>
<path d="M81.965 97.8392C82.9811 97.8392 83.8048 97.393 83.8048 96.8426C83.8048 96.2922 82.9811 95.8461 81.965 95.8461C80.9489 95.8461 80.1252 96.2922 80.1252 96.8426C80.1252 97.393 80.9489 97.8392 81.965 97.8392Z" fill="#6C63FF"/>
<path d="M90.0142 98.0692C91.0303 98.0692 91.854 97.623 91.854 97.0726C91.854 96.5222 91.0303 96.076 90.0142 96.076C88.9981 96.076 88.1744 96.5222 88.1744 97.0726C88.1744 97.623 88.9981 98.0692 90.0142 98.0692Z" fill="#6C63FF"/>
<path d="M85.7979 97.8392C86.814 97.8392 87.6378 97.393 87.6378 96.8426C87.6378 96.2922 86.814 95.8461 85.7979 95.8461C84.7818 95.8461 83.9581 96.2922 83.9581 96.8426C83.9581 97.393 84.7818 97.8392 85.7979 97.8392Z" fill="#6C63FF"/>
<path d="M88.9409 97.8392C89.9571 97.8392 90.7808 97.393 90.7808 96.8426C90.7808 96.2922 89.9571 95.8461 88.9409 95.8461C87.9248 95.8461 87.1011 96.2922 87.1011 96.8426C87.1011 97.393 87.9248 97.8392 88.9409 97.8392Z" fill="#6C63FF"/>
<path d="M91.3174 96.2294C87.9923 97.3578 84.2616 97.3578 80.1252 96.2294V96.0741C80.1245 94.9011 80.5748 93.7726 81.3828 92.9222C82.1909 92.0718 83.2949 91.5646 84.4665 91.5054C85.4526 91.4558 86.4406 91.4571 87.4265 91.5092C88.4805 91.5706 89.4711 92.0333 90.1947 92.8022C90.9183 93.5711 91.32 94.5878 91.3174 95.6437V96.2294Z" fill="#3F3D56"/>
<path d="M89.685 100.454C87.2276 100.702 84.7516 100.702 82.2942 100.454C81.7113 100.397 81.1705 100.125 80.7767 99.6913C80.383 99.2577 80.1644 98.6932 80.1635 98.1075H91.8157C91.8148 98.6932 91.5962 99.2577 91.2025 99.6913C90.8087 100.125 90.2679 100.397 89.685 100.454Z" fill="#3F3D56"/>
<path d="M84.1881 92.9331C83.9209 93.0444 83.6343 93.1017 83.3448 93.1017C83.0554 93.1017 82.7688 93.0444 82.5016 92.9331C82.7688 92.8217 83.0554 92.7644 83.3448 92.7644C83.6343 92.7644 83.9209 92.8217 84.1881 92.9331Z" fill="#D0CDE1"/>
<path d="M85.8746 93.623C85.6074 93.7343 85.3208 93.7917 85.0314 93.7917C84.7419 93.7917 84.4553 93.7343 84.1881 93.623C84.4553 93.5117 84.7419 93.4543 85.0314 93.4543C85.3208 93.4543 85.6074 93.5117 85.8746 93.623Z" fill="#D0CDE1"/>
<path d="M86.0279 92.3964C85.7607 92.5078 85.4741 92.5651 85.1847 92.5651C84.8952 92.5651 84.6086 92.5078 84.3414 92.3964C84.6086 92.2851 84.8952 92.2278 85.1847 92.2278C85.4741 92.2278 85.7607 92.2851 86.0279 92.3964Z" fill="#D0CDE1"/>
<path d="M89.1709 92.3964C88.9037 92.5078 88.6172 92.5651 88.3277 92.5651C88.0382 92.5651 87.7516 92.5078 87.4844 92.3964C87.7516 92.2851 88.0382 92.2278 88.3277 92.2278C88.6172 92.2278 88.9037 92.2851 89.1709 92.3964Z" fill="#D0CDE1"/>
<path d="M88.3277 93.0864C88.0605 93.1977 87.7739 93.2551 87.4844 93.2551C87.195 93.2551 86.9084 93.1977 86.6412 93.0864C86.9084 92.975 87.195 92.9177 87.4844 92.9177C87.7739 92.9177 88.0605 92.975 88.3277 93.0864Z" fill="#D0CDE1"/>
<path d="M141.835 96.0979L141.863 96.7185L141.899 97.5233C141.899 97.5233 138.203 97.7322 137.458 98.5191C137.441 98.5361 137.425 98.5543 137.41 98.5738L135.93 98.2496L135.926 97.5202C135.926 97.5202 135.946 97.5088 135.986 97.4874C135.995 97.4827 136.007 97.4767 136.018 97.4707C137.83 96.5834 139.818 96.1143 141.835 96.0979Z" fill="#6C63FF"/>
<path opacity="0.1" d="M141.835 96.0979L141.863 96.7185C140.224 96.7691 137.122 97.7463 137.122 97.7463L135.986 97.4874C137.806 96.5885 139.806 96.1135 141.835 96.0979Z" fill="black"/>
<path opacity="0.1" d="M136.018 97.4707L137.122 97.7463L137.458 98.5192C137.441 98.5361 137.425 98.5543 137.41 98.5738L135.93 98.2497L135.926 97.5202C135.926 97.5202 135.946 97.5089 135.986 97.4874C135.995 97.4828 136.007 97.4767 136.018 97.4707Z" fill="white"/>
<path d="M97.1585 98.7024L97.1866 99.323L97.2225 100.128C97.2225 100.128 93.5259 100.337 92.7812 101.124C92.7639 101.141 92.748 101.159 92.7337 101.178L91.2529 100.854L91.2493 100.125C91.2493 100.125 91.2697 100.113 91.3094 100.092C91.3185 100.087 91.3298 100.081 91.3412 100.075C93.1531 99.1879 95.1411 98.7188 97.1585 98.7024Z" fill="#6C63FF"/>
<path opacity="0.1" d="M97.1585 98.7024L97.1867 99.323C95.5474 99.3736 92.4451 100.351 92.4451 100.351L91.3094 100.092C93.1292 99.193 95.1289 98.718 97.1585 98.7024Z" fill="black"/>
<path opacity="0.1" d="M91.3412 100.075L92.4451 100.351L92.7812 101.124C92.7639 101.141 92.748 101.159 92.7337 101.178L91.2529 100.854L91.2493 100.125C91.2493 100.125 91.2697 100.113 91.3094 100.092C91.3185 100.087 91.3298 100.081 91.3412 100.075Z" fill="white"/>
<path d="M164.099 77.5099C163.784 77.1948 163.414 76.9393 163.008 76.7558V68.9712C163.008 68.88 162.972 68.7924 162.907 68.7279C162.842 68.6633 162.755 68.6271 162.664 68.6271H160.737C160.645 68.6271 160.558 68.6633 160.493 68.7279C160.429 68.7924 160.392 68.88 160.392 68.9712V76.6065C159.696 76.8376 159.09 77.2822 158.66 77.8772C158.23 78.4722 157.999 79.1875 157.999 79.9214V96.6205C157.999 96.8214 158.038 97.0204 158.115 97.2061C158.192 97.3918 158.305 97.5605 158.447 97.7026C158.589 97.8447 158.758 97.9574 158.943 98.0343C159.129 98.1112 159.328 98.1507 159.529 98.1507H163.657C164.061 98.1507 164.448 97.9903 164.734 97.7046C165.02 97.419 165.18 97.0315 165.18 96.6276V80.1183C165.181 79.6337 165.085 79.1538 164.9 78.7062C164.714 78.2586 164.442 77.852 164.099 77.5099Z" fill="#3F3D56"/>
<path d="M165.18 82.3694H157.999V91.8559H165.18V82.3694Z" fill="#6C63FF"/>
<path d="M163.163 69.159H163.008V68.9712C163.008 68.88 162.972 68.7924 162.907 68.7279C162.842 68.6633 162.755 68.6271 162.664 68.6271H160.737C160.645 68.6271 160.558 68.6633 160.493 68.7279C160.429 68.7924 160.392 68.88 160.392 68.9712V69.159H160.237V69.957H160.392V74.0353H163.008V69.957H163.163V69.159Z" fill="#6C63FF"/>
<path d="M106.598 84.2667C106.408 83.8611 106.258 83.5742 106.206 83.4755C102.982 84.271 100.831 83.5987 100.492 83.4798C100.326 83.7931 99.2907 85.7952 98.8722 87.7148C98.4942 89.4462 98.7136 90.607 99.5245 91.1648L99.5485 91.1819L99.5538 91.1854C100.449 91.7752 101.303 92.2975 102.091 92.7378C102.198 92.7969 102.298 92.8519 102.392 92.9026L102.402 92.9081L102.409 92.9171C102.517 93.0535 102.618 93.1957 102.711 93.343C102.885 93.5867 102.991 93.8727 103.017 94.1711V102.771L102.963 102.772C100.907 102.814 99.6339 103.162 99.6339 103.461C99.6339 103.789 101.16 104.154 103.35 104.154C105.54 104.154 107.066 103.789 107.066 103.461C107.066 103.167 105.815 102.82 103.794 102.773L103.739 102.772L103.79 94.8174C103.791 94.2788 103.916 93.7478 104.156 93.2654C104.197 93.1843 104.24 93.1054 104.286 93.0311C104.323 92.9713 104.362 92.913 104.402 92.8579L104.409 92.8478L104.42 92.8418C104.521 92.7865 104.629 92.7266 104.742 92.662L104.756 92.6547C105.502 92.2332 106.306 91.7389 107.146 91.1852C107.896 90.6908 108.157 89.6916 107.922 88.2153C107.699 86.8077 107.079 85.2911 106.598 84.2667Z" fill="#D0CDE1"/>
<path d="M106.791 91.0051C105.91 91.5855 105.183 92.0209 104.627 92.3345H104.627C103.815 92.2792 103.001 92.302 102.194 92.4029C101.624 92.0847 100.855 91.6284 99.9092 91.0051C99.9002 90.9991 99.8912 90.9931 99.8822 90.9866V90.9861C99.0145 90.3892 98.9931 89.1251 99.2753 87.8325C99.9934 87.7527 101.138 87.7876 102.677 88.3372C104.498 88.9879 106.405 88.6199 107.51 88.2853C107.692 89.4258 107.581 90.484 106.791 91.0051Z" fill="#6C63FF"/>
<path d="M101.555 87.3646C101.692 87.3646 101.804 87.253 101.804 87.1153C101.804 86.9776 101.692 86.866 101.555 86.866C101.417 86.866 101.305 86.9776 101.305 87.1153C101.305 87.253 101.417 87.3646 101.555 87.3646Z" fill="#6C63FF"/>
<path d="M100.857 89.6586C100.994 89.6586 101.106 89.547 101.106 89.4092C101.106 89.2715 100.994 89.1599 100.857 89.1599C100.719 89.1599 100.607 89.2715 100.607 89.4092C100.607 89.547 100.719 89.6586 100.857 89.6586Z" fill="white"/>
<path d="M102.153 87.8634C102.236 87.8634 102.303 87.7965 102.303 87.7138C102.303 87.6312 102.236 87.5642 102.153 87.5642C102.071 87.5642 102.004 87.6312 102.004 87.7138C102.004 87.7965 102.071 87.8634 102.153 87.8634Z" fill="#6C63FF"/>
<path d="M102.752 90.7058C102.834 90.7058 102.901 90.6389 102.901 90.5562C102.901 90.4736 102.834 90.4066 102.752 90.4066C102.669 90.4066 102.602 90.4736 102.602 90.5562C102.602 90.6389 102.669 90.7058 102.752 90.7058Z" fill="white"/>
<path d="M101.704 90.8553C101.787 90.8553 101.854 90.7883 101.854 90.7057C101.854 90.6231 101.787 90.5562 101.704 90.5562C101.622 90.5562 101.555 90.6231 101.555 90.7057C101.555 90.7883 101.622 90.8553 101.704 90.8553Z" fill="white"/>
<path d="M104.746 85.8687C104.829 85.8687 104.896 85.8017 104.896 85.7191C104.896 85.6364 104.829 85.5695 104.746 85.5695C104.664 85.5695 104.597 85.6364 104.597 85.7191C104.597 85.8017 104.664 85.8687 104.746 85.8687Z" fill="#6C63FF"/>
<path d="M118.294 76.1597C118.104 75.7541 117.954 75.4671 117.901 75.3684C114.678 76.1639 112.527 75.4917 112.188 75.3728C112.022 75.686 110.987 77.6882 110.568 79.6077C110.19 81.3392 110.409 82.4999 111.22 83.0577L111.244 83.0748L111.25 83.0783C112.145 83.6681 112.998 84.1905 113.787 84.6307C113.893 84.6899 113.994 84.7448 114.088 84.7956L114.098 84.8011L114.105 84.81C114.213 84.9464 114.314 85.0886 114.407 85.236C114.581 85.4797 114.687 85.7656 114.713 86.064V94.6636L114.659 94.6648C112.602 94.7067 111.33 95.0553 111.33 95.3541C111.33 95.682 112.856 96.0474 115.046 96.0474C117.236 96.0474 118.762 95.682 118.762 95.3541C118.762 95.0597 117.511 94.7131 115.489 94.6664L115.435 94.6651L115.486 86.7104C115.487 86.1718 115.612 85.6407 115.851 85.1583C115.892 85.0772 115.936 84.9984 115.982 84.9241C116.019 84.8643 116.057 84.8059 116.097 84.7508L116.105 84.7407L116.116 84.7347C116.217 84.6794 116.324 84.6195 116.438 84.5549L116.452 84.5477C117.198 84.1261 118.002 83.6318 118.842 83.0782C119.592 82.5838 119.853 81.5845 119.618 80.1082C119.394 78.7006 118.775 77.1841 118.294 76.1597Z" fill="#D0CDE1"/>
<path d="M118.487 82.898C117.606 83.4784 116.879 83.9138 116.323 84.2274H116.322C115.511 84.1721 114.697 84.1949 113.89 84.2957C113.32 83.9776 112.551 83.5213 111.605 82.898C111.596 82.892 111.587 82.886 111.578 82.8795V82.879C110.71 82.2821 110.689 81.018 110.971 79.7255C111.689 79.6457 112.834 79.6806 114.373 80.2301C116.194 80.8809 118.101 80.5129 119.206 80.1783C119.388 81.3187 119.277 82.3769 118.487 82.898Z" fill="#6C63FF"/>
<path d="M113.251 79.2576C113.388 79.2576 113.5 79.146 113.5 79.0083C113.5 78.8706 113.388 78.7589 113.251 78.7589C113.113 78.7589 113.001 78.8706 113.001 79.0083C113.001 79.146 113.113 79.2576 113.251 79.2576Z" fill="#6C63FF"/>
<path d="M112.552 81.5515C112.69 81.5515 112.802 81.4399 112.802 81.3022C112.802 81.1645 112.69 81.0529 112.552 81.0529C112.415 81.0529 112.303 81.1645 112.303 81.3022C112.303 81.4399 112.415 81.5515 112.552 81.5515Z" fill="white"/>
<path d="M113.849 79.7562C113.932 79.7562 113.999 79.6893 113.999 79.6066C113.999 79.524 113.932 79.457 113.849 79.457C113.766 79.457 113.699 79.524 113.699 79.6066C113.699 79.6893 113.766 79.7562 113.849 79.7562Z" fill="#6C63FF"/>
<path d="M114.447 82.5988C114.53 82.5988 114.597 82.5318 114.597 82.4492C114.597 82.3665 114.53 82.2996 114.447 82.2996C114.365 82.2996 114.298 82.3665 114.298 82.4492C114.298 82.5318 114.365 82.5988 114.447 82.5988Z" fill="white"/>
<path d="M113.4 82.7483C113.483 82.7483 113.55 82.6813 113.55 82.5987C113.55 82.5161 113.483 82.4491 113.4 82.4491C113.318 82.4491 113.251 82.5161 113.251 82.5987C113.251 82.6813 113.318 82.7483 113.4 82.7483Z" fill="white"/>
<path d="M116.442 77.7616C116.525 77.7616 116.592 77.6947 116.592 77.612C116.592 77.5294 116.525 77.4624 116.442 77.4624C116.359 77.4624 116.292 77.5294 116.292 77.612C116.292 77.6947 116.359 77.7616 116.442 77.7616Z" fill="#6C63FF"/>
<path d="M28.1363 195.02V196.15H26.2763V202H24.8763V196.15H23.0163V195.02H28.1363ZM32.2778 196.38C32.6978 196.38 33.0711 196.473 33.3978 196.66C33.7244 196.84 33.9778 197.11 34.1578 197.47C34.3444 197.823 34.4378 198.25 34.4378 198.75V202H33.0378V198.94C33.0378 198.5 32.9278 198.163 32.7078 197.93C32.4878 197.69 32.1878 197.57 31.8078 197.57C31.4211 197.57 31.1144 197.69 30.8878 197.93C30.6678 198.163 30.5578 198.5 30.5578 198.94V202H29.1578V194.6H30.5578V197.15C30.7378 196.91 30.9778 196.723 31.2778 196.59C31.5778 196.45 31.9111 196.38 32.2778 196.38ZM40.9191 199.11C40.9191 199.31 40.9058 199.49 40.8791 199.65H36.8291C36.8624 200.05 37.0024 200.363 37.2491 200.59C37.4958 200.817 37.7991 200.93 38.1591 200.93C38.6791 200.93 39.0491 200.707 39.2691 200.26H40.7791C40.6191 200.793 40.3124 201.233 39.8591 201.58C39.4058 201.92 38.8491 202.09 38.1891 202.09C37.6558 202.09 37.1758 201.973 36.7491 201.74C36.3291 201.5 35.9991 201.163 35.7591 200.73C35.5258 200.297 35.4091 199.797 35.4091 199.23C35.4091 198.657 35.5258 198.153 35.7591 197.72C35.9924 197.287 36.3191 196.953 36.7391 196.72C37.1591 196.487 37.6424 196.37 38.1891 196.37C38.7158 196.37 39.1858 196.483 39.5991 196.71C40.0191 196.937 40.3424 197.26 40.5691 197.68C40.8024 198.093 40.9191 198.57 40.9191 199.11ZM39.4691 198.71C39.4624 198.35 39.3324 198.063 39.0791 197.85C38.8258 197.63 38.5158 197.52 38.1491 197.52C37.8024 197.52 37.5091 197.627 37.2691 197.84C37.0358 198.047 36.8924 198.337 36.8391 198.71H39.4691ZM45.7238 197.26C45.9038 197.007 46.1505 196.797 46.4638 196.63C46.7838 196.457 47.1471 196.37 47.5538 196.37C48.0271 196.37 48.4538 196.487 48.8338 196.72C49.2205 196.953 49.5238 197.287 49.7438 197.72C49.9705 198.147 50.0838 198.643 50.0838 199.21C50.0838 199.777 49.9705 200.28 49.7438 200.72C49.5238 201.153 49.2205 201.49 48.8338 201.73C48.4538 201.97 48.0271 202.09 47.5538 202.09C47.1471 202.09 46.7871 202.007 46.4738 201.84C46.1671 201.673 45.9171 201.463 45.7238 201.21V204.64H44.3238V196.46H45.7238V197.26ZM48.6538 199.21C48.6538 198.877 48.5838 198.59 48.4438 198.35C48.3105 198.103 48.1305 197.917 47.9038 197.79C47.6838 197.663 47.4438 197.6 47.1838 197.6C46.9305 197.6 46.6905 197.667 46.4638 197.8C46.2438 197.927 46.0638 198.113 45.9238 198.36C45.7905 198.607 45.7238 198.897 45.7238 199.23C45.7238 199.563 45.7905 199.853 45.9238 200.1C46.0638 200.347 46.2438 200.537 46.4638 200.67C46.6905 200.797 46.9305 200.86 47.1838 200.86C47.4438 200.86 47.6838 200.793 47.9038 200.66C48.1305 200.527 48.3105 200.337 48.4438 200.09C48.5838 199.843 48.6538 199.55 48.6538 199.21ZM50.7411 199.21C50.7411 198.65 50.8511 198.153 51.0711 197.72C51.2978 197.287 51.6011 196.953 51.9811 196.72C52.3678 196.487 52.7978 196.37 53.2711 196.37C53.6845 196.37 54.0445 196.453 54.3511 196.62C54.6645 196.787 54.9145 196.997 55.1011 197.25V196.46H56.5111V202H55.1011V201.19C54.9211 201.45 54.6711 201.667 54.3511 201.84C54.0378 202.007 53.6745 202.09 53.2611 202.09C52.7945 202.09 52.3678 201.97 51.9811 201.73C51.6011 201.49 51.2978 201.153 51.0711 200.72C50.8511 200.28 50.7411 199.777 50.7411 199.21ZM55.1011 199.23C55.1011 198.89 55.0345 198.6 54.9011 198.36C54.7678 198.113 54.5878 197.927 54.3611 197.8C54.1345 197.667 53.8911 197.6 53.6311 197.6C53.3711 197.6 53.1311 197.663 52.9111 197.79C52.6911 197.917 52.5111 198.103 52.3711 198.35C52.2378 198.59 52.1711 198.877 52.1711 199.21C52.1711 199.543 52.2378 199.837 52.3711 200.09C52.5111 200.337 52.6911 200.527 52.9111 200.66C53.1378 200.793 53.3778 200.86 53.6311 200.86C53.8911 200.86 54.1345 200.797 54.3611 200.67C54.5878 200.537 54.7678 200.35 54.9011 200.11C55.0345 199.863 55.1011 199.57 55.1011 199.23ZM59.2785 197.32C59.4585 197.027 59.6918 196.797 59.9785 196.63C60.2718 196.463 60.6051 196.38 60.9785 196.38V197.85H60.6085C60.1685 197.85 59.8351 197.953 59.6085 198.16C59.3885 198.367 59.2785 198.727 59.2785 199.24V202H57.8785V196.46H59.2785V197.32ZM63.5514 197.61V200.29C63.5514 200.477 63.5948 200.613 63.6814 200.7C63.7748 200.78 63.9281 200.82 64.1414 200.82H64.7914V202H63.9114C62.7314 202 62.1414 201.427 62.1414 200.28V197.61H61.4814V196.46H62.1414V195.09H63.5514V196.46H64.7914V197.61H63.5514ZM71.0984 196.46L67.6684 204.62H66.1784L67.3784 201.86L65.1584 196.46H66.7284L68.1584 200.33L69.6084 196.46H71.0984ZM81.9159 196.46L80.2959 202H78.7859L77.7759 198.13L76.7659 202H75.2459L73.6159 196.46H75.0359L76.0159 200.68L77.0759 196.46H78.5559L79.5959 200.67L80.5759 196.46H81.9159ZM83.3834 195.8C83.1367 195.8 82.9301 195.723 82.7634 195.57C82.6034 195.41 82.5234 195.213 82.5234 194.98C82.5234 194.747 82.6034 194.553 82.7634 194.4C82.9301 194.24 83.1367 194.16 83.3834 194.16C83.6301 194.16 83.8334 194.24 83.9934 194.4C84.1601 194.553 84.2434 194.747 84.2434 194.98C84.2434 195.213 84.1601 195.41 83.9934 195.57C83.8334 195.723 83.6301 195.8 83.3834 195.8ZM84.0734 196.46V202H82.6734V196.46H84.0734ZM87.0866 197.61V200.29C87.0866 200.477 87.1299 200.613 87.2166 200.7C87.3099 200.78 87.4633 200.82 87.6766 200.82H88.3266V202H87.4466C86.2666 202 85.6766 201.427 85.6766 200.28V197.61H85.0166V196.46H85.6766V195.09H87.0866V196.46H88.3266V197.61H87.0866ZM92.4536 196.38C92.8736 196.38 93.2469 196.473 93.5736 196.66C93.9002 196.84 94.1536 197.11 94.3336 197.47C94.5202 197.823 94.6136 198.25 94.6136 198.75V202H93.2136V198.94C93.2136 198.5 93.1036 198.163 92.8836 197.93C92.6636 197.69 92.3636 197.57 91.9836 197.57C91.5969 197.57 91.2902 197.69 91.0636 197.93C90.8436 198.163 90.7336 198.5 90.7336 198.94V202H89.3336V194.6H90.7336V197.15C90.9136 196.91 91.1536 196.723 91.4536 196.59C91.7536 196.45 92.0869 196.38 92.4536 196.38ZM154.428 195.8C154.182 195.8 153.975 195.723 153.808 195.57C153.648 195.41 153.568 195.213 153.568 194.98C153.568 194.747 153.648 194.553 153.808 194.4C153.975 194.24 154.182 194.16 154.428 194.16C154.675 194.16 154.878 194.24 155.038 194.4C155.205 194.553 155.288 194.747 155.288 194.98C155.288 195.213 155.205 195.41 155.038 195.57C154.878 195.723 154.675 195.8 154.428 195.8ZM155.118 196.46V202H153.718V196.46H155.118ZM158.622 202.09C158.168 202.09 157.762 202.01 157.402 201.85C157.042 201.683 156.755 201.46 156.542 201.18C156.335 200.9 156.222 200.59 156.202 200.25H157.612C157.638 200.463 157.742 200.64 157.922 200.78C158.108 200.92 158.338 200.99 158.612 200.99C158.878 200.99 159.085 200.937 159.232 200.83C159.385 200.723 159.462 200.587 159.462 200.42C159.462 200.24 159.368 200.107 159.182 200.02C159.002 199.927 158.712 199.827 158.312 199.72C157.898 199.62 157.558 199.517 157.292 199.41C157.032 199.303 156.805 199.14 156.612 198.92C156.425 198.7 156.332 198.403 156.332 198.03C156.332 197.723 156.418 197.443 156.592 197.19C156.772 196.937 157.025 196.737 157.352 196.59C157.685 196.443 158.075 196.37 158.522 196.37C159.182 196.37 159.708 196.537 160.102 196.87C160.495 197.197 160.712 197.64 160.752 198.2H159.412C159.392 197.98 159.298 197.807 159.132 197.68C158.972 197.547 158.755 197.48 158.482 197.48C158.228 197.48 158.032 197.527 157.892 197.62C157.758 197.713 157.692 197.843 157.692 198.01C157.692 198.197 157.785 198.34 157.972 198.44C158.158 198.533 158.448 198.63 158.842 198.73C159.242 198.83 159.572 198.933 159.832 199.04C160.092 199.147 160.315 199.313 160.502 199.54C160.695 199.76 160.795 200.053 160.802 200.42C160.802 200.74 160.712 201.027 160.532 201.28C160.358 201.533 160.105 201.733 159.772 201.88C159.445 202.02 159.062 202.09 158.622 202.09ZM165.964 197.61V200.29C165.964 200.477 166.007 200.613 166.094 200.7C166.187 200.78 166.34 200.82 166.554 200.82H167.204V202H166.324C165.144 202 164.554 201.427 164.554 200.28V197.61H163.894V196.46H164.554V195.09H165.964V196.46H167.204V197.61H165.964ZM171.331 196.38C171.751 196.38 172.124 196.473 172.451 196.66C172.777 196.84 173.031 197.11 173.211 197.47C173.397 197.823 173.491 198.25 173.491 198.75V202H172.091V198.94C172.091 198.5 171.981 198.163 171.761 197.93C171.541 197.69 171.241 197.57 170.861 197.57C170.474 197.57 170.167 197.69 169.941 197.93C169.721 198.163 169.611 198.5 169.611 198.94V202H168.211V194.6H169.611V197.15C169.791 196.91 170.031 196.723 170.331 196.59C170.631 196.45 170.964 196.38 171.331 196.38ZM179.972 199.11C179.972 199.31 179.959 199.49 179.932 199.65H175.882C175.915 200.05 176.055 200.363 176.302 200.59C176.549 200.817 176.852 200.93 177.212 200.93C177.732 200.93 178.102 200.707 178.322 200.26H179.832C179.672 200.793 179.365 201.233 178.912 201.58C178.459 201.92 177.902 202.09 177.242 202.09C176.709 202.09 176.229 201.973 175.802 201.74C175.382 201.5 175.052 201.163 174.812 200.73C174.579 200.297 174.462 199.797 174.462 199.23C174.462 198.657 174.579 198.153 174.812 197.72C175.045 197.287 175.372 196.953 175.792 196.72C176.212 196.487 176.695 196.37 177.242 196.37C177.769 196.37 178.239 196.483 178.652 196.71C179.072 196.937 179.395 197.26 179.622 197.68C179.855 198.093 179.972 198.57 179.972 199.11ZM178.522 198.71C178.515 198.35 178.385 198.063 178.132 197.85C177.879 197.63 177.569 197.52 177.202 197.52C176.855 197.52 176.562 197.627 176.322 197.84C176.089 198.047 175.945 198.337 175.892 198.71H178.522ZM38.6388 212.26C38.8188 212.007 39.0655 211.797 39.3788 211.63C39.6988 211.457 40.0622 211.37 40.4688 211.37C40.9422 211.37 41.3688 211.487 41.7488 211.72C42.1355 211.953 42.4388 212.287 42.6588 212.72C42.8855 213.147 42.9988 213.643 42.9988 214.21C42.9988 214.777 42.8855 215.28 42.6588 215.72C42.4388 216.153 42.1355 216.49 41.7488 216.73C41.3688 216.97 40.9422 217.09 40.4688 217.09C40.0622 217.09 39.7022 217.007 39.3888 216.84C39.0822 216.673 38.8322 216.463 38.6388 216.21V219.64H37.2388V211.46H38.6388V212.26ZM41.5688 214.21C41.5688 213.877 41.4988 213.59 41.3588 213.35C41.2255 213.103 41.0455 212.917 40.8188 212.79C40.5988 212.663 40.3588 212.6 40.0988 212.6C39.8455 212.6 39.6055 212.667 39.3788 212.8C39.1588 212.927 38.9788 213.113 38.8388 213.36C38.7055 213.607 38.6388 213.897 38.6388 214.23C38.6388 214.563 38.7055 214.853 38.8388 215.1C38.9788 215.347 39.1588 215.537 39.3788 215.67C39.6055 215.797 39.8455 215.86 40.0988 215.86C40.3588 215.86 40.5988 215.793 40.8188 215.66C41.0455 215.527 41.2255 215.337 41.3588 215.09C41.4988 214.843 41.5688 214.55 41.5688 214.21ZM43.6562 214.21C43.6562 213.65 43.7662 213.153 43.9862 212.72C44.2128 212.287 44.5162 211.953 44.8962 211.72C45.2828 211.487 45.7128 211.37 46.1862 211.37C46.5995 211.37 46.9595 211.453 47.2662 211.62C47.5795 211.787 47.8295 211.997 48.0162 212.25V211.46H49.4262V217H48.0162V216.19C47.8362 216.45 47.5862 216.667 47.2662 216.84C46.9528 217.007 46.5895 217.09 46.1762 217.09C45.7095 217.09 45.2828 216.97 44.8962 216.73C44.5162 216.49 44.2128 216.153 43.9862 215.72C43.7662 215.28 43.6562 214.777 43.6562 214.21ZM48.0162 214.23C48.0162 213.89 47.9495 213.6 47.8162 213.36C47.6828 213.113 47.5028 212.927 47.2762 212.8C47.0495 212.667 46.8062 212.6 46.5462 212.6C46.2862 212.6 46.0462 212.663 45.8262 212.79C45.6062 212.917 45.4262 213.103 45.2862 213.35C45.1528 213.59 45.0862 213.877 45.0862 214.21C45.0862 214.543 45.1528 214.837 45.2862 215.09C45.4262 215.337 45.6062 215.527 45.8262 215.66C46.0528 215.793 46.2928 215.86 46.5462 215.86C46.8062 215.86 47.0495 215.797 47.2762 215.67C47.5028 215.537 47.6828 215.35 47.8162 215.11C47.9495 214.863 48.0162 214.57 48.0162 214.23ZM52.1935 212.32C52.3735 212.027 52.6068 211.797 52.8935 211.63C53.1868 211.463 53.5202 211.38 53.8935 211.38V212.85H53.5235C53.0835 212.85 52.7502 212.953 52.5235 213.16C52.3035 213.367 52.1935 213.727 52.1935 214.24V217H50.7935V211.46H52.1935V212.32ZM56.4665 212.61V215.29C56.4665 215.477 56.5098 215.613 56.5965 215.7C56.6898 215.78 56.8432 215.82 57.0565 215.82H57.7065V217H56.8265C55.6465 217 55.0565 216.427 55.0565 215.28V212.61H54.3965V211.46H55.0565V210.09H56.4665V211.46H57.7065V212.61H56.4665ZM64.0134 211.46L60.5834 219.62H59.0934L60.2934 216.86L58.0734 211.46H59.6434L61.0734 215.33L62.5234 211.46H64.0134Z" fill="#263056"/>
<path d="M100.498 196.37C100.911 196.37 101.274 196.453 101.588 196.62C101.901 196.78 102.148 196.99 102.328 197.25V196.46H103.738V202.04C103.738 202.553 103.634 203.01 103.428 203.41C103.221 203.817 102.911 204.137 102.498 204.37C102.084 204.61 101.584 204.73 100.998 204.73C100.211 204.73 99.5644 204.547 99.0577 204.18C98.5577 203.813 98.2744 203.313 98.2077 202.68H99.5977C99.671 202.933 99.8277 203.133 100.068 203.28C100.314 203.433 100.611 203.51 100.958 203.51C101.364 203.51 101.694 203.387 101.948 203.14C102.201 202.9 102.328 202.533 102.328 202.04V201.18C102.148 201.44 101.898 201.657 101.578 201.83C101.264 202.003 100.904 202.09 100.498 202.09C100.031 202.09 99.6044 201.97 99.2177 201.73C98.831 201.49 98.5244 201.153 98.2977 200.72C98.0777 200.28 97.9677 199.777 97.9677 199.21C97.9677 198.65 98.0777 198.153 98.2977 197.72C98.5244 197.287 98.8277 196.953 99.2077 196.72C99.5944 196.487 100.024 196.37 100.498 196.37ZM102.328 199.23C102.328 198.89 102.261 198.6 102.128 198.36C101.994 198.113 101.814 197.927 101.588 197.8C101.361 197.667 101.118 197.6 100.858 197.6C100.598 197.6 100.358 197.663 100.138 197.79C99.9177 197.917 99.7377 198.103 99.5977 198.35C99.4644 198.59 99.3977 198.877 99.3977 199.21C99.3977 199.543 99.4644 199.837 99.5977 200.09C99.7377 200.337 99.9177 200.527 100.138 200.66C100.364 200.793 100.604 200.86 100.858 200.86C101.118 200.86 101.361 200.797 101.588 200.67C101.814 200.537 101.994 200.35 102.128 200.11C102.261 199.863 102.328 199.57 102.328 199.23ZM106.505 197.32C106.685 197.027 106.918 196.797 107.205 196.63C107.498 196.463 107.832 196.38 108.205 196.38V197.85H107.835C107.395 197.85 107.062 197.953 106.835 198.16C106.615 198.367 106.505 198.727 106.505 199.24V202H105.105V196.46H106.505V197.32ZM114.298 199.11C114.298 199.31 114.285 199.49 114.258 199.65H110.208C110.241 200.05 110.381 200.363 110.628 200.59C110.875 200.817 111.178 200.93 111.538 200.93C112.058 200.93 112.428 200.707 112.648 200.26H114.158C113.998 200.793 113.691 201.233 113.238 201.58C112.785 201.92 112.228 202.09 111.568 202.09C111.035 202.09 110.555 201.973 110.128 201.74C109.708 201.5 109.378 201.163 109.138 200.73C108.905 200.297 108.788 199.797 108.788 199.23C108.788 198.657 108.905 198.153 109.138 197.72C109.371 197.287 109.698 196.953 110.118 196.72C110.538 196.487 111.021 196.37 111.568 196.37C112.095 196.37 112.565 196.483 112.978 196.71C113.398 196.937 113.721 197.26 113.948 197.68C114.181 198.093 114.298 198.57 114.298 199.11ZM112.848 198.71C112.841 198.35 112.711 198.063 112.458 197.85C112.205 197.63 111.895 197.52 111.528 197.52C111.181 197.52 110.888 197.627 110.648 197.84C110.415 198.047 110.271 198.337 110.218 198.71H112.848ZM114.96 199.21C114.96 198.65 115.07 198.153 115.29 197.72C115.517 197.287 115.82 196.953 116.2 196.72C116.587 196.487 117.017 196.37 117.49 196.37C117.903 196.37 118.263 196.453 118.57 196.62C118.883 196.787 119.133 196.997 119.32 197.25V196.46H120.73V202H119.32V201.19C119.14 201.45 118.89 201.667 118.57 201.84C118.257 202.007 117.893 202.09 117.48 202.09C117.013 202.09 116.587 201.97 116.2 201.73C115.82 201.49 115.517 201.153 115.29 200.72C115.07 200.28 114.96 199.777 114.96 199.21ZM119.32 199.23C119.32 198.89 119.253 198.6 119.12 198.36C118.987 198.113 118.807 197.927 118.58 197.8C118.353 197.667 118.11 197.6 117.85 197.6C117.59 197.6 117.35 197.663 117.13 197.79C116.91 197.917 116.73 198.103 116.59 198.35C116.457 198.59 116.39 198.877 116.39 199.21C116.39 199.543 116.457 199.837 116.59 200.09C116.73 200.337 116.91 200.527 117.13 200.66C117.357 200.793 117.597 200.86 117.85 200.86C118.11 200.86 118.353 200.797 118.58 200.67C118.807 200.537 118.987 200.35 119.12 200.11C119.253 199.863 119.32 199.57 119.32 199.23ZM123.727 197.61V200.29C123.727 200.477 123.771 200.613 123.857 200.7C123.951 200.78 124.104 200.82 124.317 200.82H124.967V202H124.087C122.907 202 122.317 201.427 122.317 200.28V197.61H121.657V196.46H122.317V195.09H123.727V196.46H124.967V197.61H123.727ZM130.897 197.61H129.927V202H128.507V197.61H127.877V196.46H128.507V196.18C128.507 195.5 128.7 195 129.087 194.68C129.474 194.36 130.057 194.21 130.837 194.23V195.41C130.497 195.403 130.26 195.46 130.127 195.58C129.994 195.7 129.927 195.917 129.927 196.23V196.46H130.897V197.61ZM134.264 202.09C133.731 202.09 133.251 201.973 132.824 201.74C132.398 201.5 132.061 201.163 131.814 200.73C131.574 200.297 131.454 199.797 131.454 199.23C131.454 198.663 131.578 198.163 131.824 197.73C132.078 197.297 132.421 196.963 132.854 196.73C133.288 196.49 133.771 196.37 134.304 196.37C134.838 196.37 135.321 196.49 135.754 196.73C136.188 196.963 136.528 197.297 136.774 197.73C137.028 198.163 137.154 198.663 137.154 199.23C137.154 199.797 137.024 200.297 136.764 200.73C136.511 201.163 136.164 201.5 135.724 201.74C135.291 201.973 134.804 202.09 134.264 202.09ZM134.264 200.87C134.518 200.87 134.754 200.81 134.974 200.69C135.201 200.563 135.381 200.377 135.514 200.13C135.648 199.883 135.714 199.583 135.714 199.23C135.714 198.703 135.574 198.3 135.294 198.02C135.021 197.733 134.684 197.59 134.284 197.59C133.884 197.59 133.548 197.733 133.274 198.02C133.008 198.3 132.874 198.703 132.874 199.23C132.874 199.757 133.004 200.163 133.264 200.45C133.531 200.73 133.864 200.87 134.264 200.87ZM140.641 202.09C140.108 202.09 139.628 201.973 139.201 201.74C138.775 201.5 138.438 201.163 138.191 200.73C137.951 200.297 137.831 199.797 137.831 199.23C137.831 198.663 137.955 198.163 138.201 197.73C138.455 197.297 138.798 196.963 139.231 196.73C139.665 196.49 140.148 196.37 140.681 196.37C141.215 196.37 141.698 196.49 142.131 196.73C142.565 196.963 142.905 197.297 143.151 197.73C143.405 198.163 143.531 198.663 143.531 199.23C143.531 199.797 143.401 200.297 143.141 200.73C142.888 201.163 142.541 201.5 142.101 201.74C141.668 201.973 141.181 202.09 140.641 202.09ZM140.641 200.87C140.895 200.87 141.131 200.81 141.351 200.69C141.578 200.563 141.758 200.377 141.891 200.13C142.025 199.883 142.091 199.583 142.091 199.23C142.091 198.703 141.951 198.3 141.671 198.02C141.398 197.733 141.061 197.59 140.661 197.59C140.261 197.59 139.925 197.733 139.651 198.02C139.385 198.3 139.251 198.703 139.251 199.23C139.251 199.757 139.381 200.163 139.641 200.45C139.908 200.73 140.241 200.87 140.641 200.87ZM144.198 199.21C144.198 198.65 144.308 198.153 144.528 197.72C144.755 197.287 145.061 196.953 145.448 196.72C145.835 196.487 146.265 196.37 146.738 196.37C147.098 196.37 147.441 196.45 147.768 196.61C148.095 196.763 148.355 196.97 148.548 197.23V194.6H149.968V202H148.548V201.18C148.375 201.453 148.131 201.673 147.818 201.84C147.505 202.007 147.141 202.09 146.728 202.09C146.261 202.09 145.835 201.97 145.448 201.73C145.061 201.49 144.755 201.153 144.528 200.72C144.308 200.28 144.198 199.777 144.198 199.21ZM148.558 199.23C148.558 198.89 148.491 198.6 148.358 198.36C148.225 198.113 148.045 197.927 147.818 197.8C147.591 197.667 147.348 197.6 147.088 197.6C146.828 197.6 146.588 197.663 146.368 197.79C146.148 197.917 145.968 198.103 145.828 198.35C145.695 198.59 145.628 198.877 145.628 199.21C145.628 199.543 145.695 199.837 145.828 200.09C145.968 200.337 146.148 200.527 146.368 200.66C146.595 200.793 146.835 200.86 147.088 200.86C147.348 200.86 147.591 200.797 147.818 200.67C148.045 200.537 148.225 200.35 148.358 200.11C148.491 199.863 148.558 199.57 148.558 199.23ZM66.7909 214.23C66.7909 213.657 66.9076 213.157 67.1409 212.73C67.3743 212.297 67.6976 211.963 68.1109 211.73C68.5243 211.49 68.9976 211.37 69.5309 211.37C70.2176 211.37 70.7843 211.543 71.2309 211.89C71.6843 212.23 71.9876 212.71 72.1409 213.33H70.6309C70.5509 213.09 70.4143 212.903 70.2209 212.77C70.0343 212.63 69.8009 212.56 69.5209 212.56C69.1209 212.56 68.8043 212.707 68.5709 213C68.3376 213.287 68.2209 213.697 68.2209 214.23C68.2209 214.757 68.3376 215.167 68.5709 215.46C68.8043 215.747 69.1209 215.89 69.5209 215.89C70.0876 215.89 70.4576 215.637 70.6309 215.13H72.1409C71.9876 215.73 71.6843 216.207 71.2309 216.56C70.7776 216.913 70.2109 217.09 69.5309 217.09C68.9976 217.09 68.5243 216.973 68.1109 216.74C67.6976 216.5 67.3743 216.167 67.1409 215.74C66.9076 215.307 66.7909 214.803 66.7909 214.23ZM74.5666 212.32C74.7466 212.027 74.9799 211.797 75.2666 211.63C75.5599 211.463 75.8932 211.38 76.2666 211.38V212.85H75.8966C75.4566 212.85 75.1232 212.953 74.8966 213.16C74.6766 213.367 74.5666 213.727 74.5666 214.24V217H73.1666V211.46H74.5666V212.32ZM82.3595 214.11C82.3595 214.31 82.3462 214.49 82.3195 214.65H78.2695C78.3029 215.05 78.4429 215.363 78.6895 215.59C78.9362 215.817 79.2395 215.93 79.5995 215.93C80.1195 215.93 80.4895 215.707 80.7095 215.26H82.2195C82.0595 215.793 81.7529 216.233 81.2995 216.58C80.8462 216.92 80.2895 217.09 79.6295 217.09C79.0962 217.09 78.6162 216.973 78.1895 216.74C77.7695 216.5 77.4395 216.163 77.1995 215.73C76.9662 215.297 76.8495 214.797 76.8495 214.23C76.8495 213.657 76.9662 213.153 77.1995 212.72C77.4329 212.287 77.7595 211.953 78.1795 211.72C78.5995 211.487 79.0829 211.37 79.6295 211.37C80.1562 211.37 80.6262 211.483 81.0395 211.71C81.4595 211.937 81.7829 212.26 82.0095 212.68C82.2429 213.093 82.3595 213.57 82.3595 214.11ZM80.9095 213.71C80.9029 213.35 80.7729 213.063 80.5195 212.85C80.2662 212.63 79.9562 212.52 79.5895 212.52C79.2429 212.52 78.9495 212.627 78.7095 212.84C78.4762 213.047 78.3329 213.337 78.2795 213.71H80.9095ZM83.0214 214.21C83.0214 213.65 83.1314 213.153 83.3514 212.72C83.5781 212.287 83.8814 211.953 84.2614 211.72C84.6481 211.487 85.0781 211.37 85.5514 211.37C85.9647 211.37 86.3247 211.453 86.6314 211.62C86.9447 211.787 87.1947 211.997 87.3814 212.25V211.46H88.7914V217H87.3814V216.19C87.2014 216.45 86.9514 216.667 86.6314 216.84C86.3181 217.007 85.9547 217.09 85.5414 217.09C85.0747 217.09 84.6481 216.97 84.2614 216.73C83.8814 216.49 83.5781 216.153 83.3514 215.72C83.1314 215.28 83.0214 214.777 83.0214 214.21ZM87.3814 214.23C87.3814 213.89 87.3147 213.6 87.1814 213.36C87.0481 213.113 86.8681 212.927 86.6414 212.8C86.4147 212.667 86.1714 212.6 85.9114 212.6C85.6514 212.6 85.4114 212.663 85.1914 212.79C84.9714 212.917 84.7914 213.103 84.6514 213.35C84.5181 213.59 84.4514 213.877 84.4514 214.21C84.4514 214.543 84.5181 214.837 84.6514 215.09C84.7914 215.337 84.9714 215.527 85.1914 215.66C85.4181 215.793 85.6581 215.86 85.9114 215.86C86.1714 215.86 86.4147 215.797 86.6414 215.67C86.8681 215.537 87.0481 215.35 87.1814 215.11C87.3147 214.863 87.3814 214.57 87.3814 214.23ZM91.7888 212.61V215.29C91.7888 215.477 91.8321 215.613 91.9188 215.7C92.0121 215.78 92.1654 215.82 92.3788 215.82H93.0288V217H92.1488C90.9688 217 90.3788 216.427 90.3788 215.28V212.61H89.7188V211.46H90.3788V210.09H91.7888V211.46H93.0288V212.61H91.7888ZM94.7457 210.8C94.499 210.8 94.2924 210.723 94.1257 210.57C93.9657 210.41 93.8857 210.213 93.8857 209.98C93.8857 209.747 93.9657 209.553 94.1257 209.4C94.2924 209.24 94.499 209.16 94.7457 209.16C94.9924 209.16 95.1957 209.24 95.3557 209.4C95.5224 209.553 95.6057 209.747 95.6057 209.98C95.6057 210.213 95.5224 210.41 95.3557 210.57C95.1957 210.723 94.9924 210.8 94.7457 210.8ZM95.4357 211.46V217H94.0357V211.46H95.4357ZM99.8889 211.38C100.549 211.38 101.082 211.59 101.489 212.01C101.896 212.423 102.099 213.003 102.099 213.75V217H100.699V213.94C100.699 213.5 100.589 213.163 100.369 212.93C100.149 212.69 99.8489 212.57 99.4689 212.57C99.0822 212.57 98.7756 212.69 98.5489 212.93C98.3289 213.163 98.2189 213.5 98.2189 213.94V217H96.8189V211.46H98.2189V212.15C98.4056 211.91 98.6422 211.723 98.9289 211.59C99.2222 211.45 99.5422 211.38 99.8889 211.38ZM105.6 211.37C106.014 211.37 106.377 211.453 106.69 211.62C107.004 211.78 107.25 211.99 107.43 212.25V211.46H108.84V217.04C108.84 217.553 108.737 218.01 108.53 218.41C108.324 218.817 108.014 219.137 107.6 219.37C107.187 219.61 106.687 219.73 106.1 219.73C105.314 219.73 104.667 219.547 104.16 219.18C103.66 218.813 103.377 218.313 103.31 217.68H104.7C104.774 217.933 104.93 218.133 105.17 218.28C105.417 218.433 105.714 218.51 106.06 218.51C106.467 218.51 106.797 218.387 107.05 218.14C107.304 217.9 107.43 217.533 107.43 217.04V216.18C107.25 216.44 107 216.657 106.68 216.83C106.367 217.003 106.007 217.09 105.6 217.09C105.134 217.09 104.707 216.97 104.32 216.73C103.934 216.49 103.627 216.153 103.4 215.72C103.18 215.28 103.07 214.777 103.07 214.21C103.07 213.65 103.18 213.153 103.4 212.72C103.627 212.287 103.93 211.953 104.31 211.72C104.697 211.487 105.127 211.37 105.6 211.37ZM107.43 214.23C107.43 213.89 107.364 213.6 107.23 213.36C107.097 213.113 106.917 212.927 106.69 212.8C106.464 212.667 106.22 212.6 105.96 212.6C105.7 212.6 105.46 212.663 105.24 212.79C105.02 212.917 104.84 213.103 104.7 213.35C104.567 213.59 104.5 213.877 104.5 214.21C104.5 214.543 104.567 214.837 104.7 215.09C104.84 215.337 105.02 215.527 105.24 215.66C105.467 215.793 105.707 215.86 105.96 215.86C106.22 215.86 106.464 215.797 106.69 215.67C106.917 215.537 107.097 215.35 107.23 215.11C107.364 214.863 107.43 214.57 107.43 214.23ZM119.47 211.38C120.15 211.38 120.697 211.59 121.11 212.01C121.53 212.423 121.74 213.003 121.74 213.75V217H120.34V213.94C120.34 213.507 120.23 213.177 120.01 212.95C119.79 212.717 119.49 212.6 119.11 212.6C118.73 212.6 118.427 212.717 118.2 212.95C117.98 213.177 117.87 213.507 117.87 213.94V217H116.47V213.94C116.47 213.507 116.36 213.177 116.14 212.95C115.92 212.717 115.62 212.6 115.24 212.6C114.854 212.6 114.547 212.717 114.32 212.95C114.1 213.177 113.99 213.507 113.99 213.94V217H112.59V211.46H113.99V212.13C114.17 211.897 114.4 211.713 114.68 211.58C114.967 211.447 115.28 211.38 115.62 211.38C116.054 211.38 116.44 211.473 116.78 211.66C117.12 211.84 117.384 212.1 117.57 212.44C117.75 212.12 118.01 211.863 118.35 211.67C118.697 211.477 119.07 211.38 119.47 211.38ZM128.219 214.11C128.219 214.31 128.206 214.49 128.179 214.65H124.129C124.162 215.05 124.302 215.363 124.549 215.59C124.796 215.817 125.099 215.93 125.459 215.93C125.979 215.93 126.349 215.707 126.569 215.26H128.079C127.919 215.793 127.612 216.233 127.159 216.58C126.706 216.92 126.149 217.09 125.489 217.09C124.956 217.09 124.476 216.973 124.049 216.74C123.629 216.5 123.299 216.163 123.059 215.73C122.826 215.297 122.709 214.797 122.709 214.23C122.709 213.657 122.826 213.153 123.059 212.72C123.292 212.287 123.619 211.953 124.039 211.72C124.459 211.487 124.942 211.37 125.489 211.37C126.016 211.37 126.486 211.483 126.899 211.71C127.319 211.937 127.642 212.26 127.869 212.68C128.102 213.093 128.219 213.57 128.219 214.11ZM126.769 213.71C126.762 213.35 126.632 213.063 126.379 212.85C126.126 212.63 125.816 212.52 125.449 212.52C125.102 212.52 124.809 212.627 124.569 212.84C124.336 213.047 124.192 213.337 124.139 213.71H126.769ZM136.121 211.38C136.801 211.38 137.347 211.59 137.761 212.01C138.181 212.423 138.391 213.003 138.391 213.75V217H136.991V213.94C136.991 213.507 136.881 213.177 136.661 212.95C136.441 212.717 136.141 212.6 135.761 212.6C135.381 212.6 135.077 212.717 134.851 212.95C134.631 213.177 134.521 213.507 134.521 213.94V217H133.121V213.94C133.121 213.507 133.011 213.177 132.791 212.95C132.571 212.717 132.271 212.6 131.891 212.6C131.504 212.6 131.197 212.717 130.971 212.95C130.751 213.177 130.641 213.507 130.641 213.94V217H129.241V211.46H130.641V212.13C130.821 211.897 131.051 211.713 131.331 211.58C131.617 211.447 131.931 211.38 132.271 211.38C132.704 211.38 133.091 211.473 133.431 211.66C133.771 211.84 134.034 212.1 134.221 212.44C134.401 212.12 134.661 211.863 135.001 211.67C135.347 211.477 135.721 211.38 136.121 211.38ZM142.179 217.09C141.646 217.09 141.166 216.973 140.739 216.74C140.313 216.5 139.976 216.163 139.729 215.73C139.489 215.297 139.369 214.797 139.369 214.23C139.369 213.663 139.493 213.163 139.739 212.73C139.993 212.297 140.336 211.963 140.769 211.73C141.203 211.49 141.686 211.37 142.219 211.37C142.753 211.37 143.236 211.49 143.669 211.73C144.103 211.963 144.443 212.297 144.689 212.73C144.943 213.163 145.069 213.663 145.069 214.23C145.069 214.797 144.939 215.297 144.679 215.73C144.426 216.163 144.079 216.5 143.639 216.74C143.206 216.973 142.719 217.09 142.179 217.09ZM142.179 215.87C142.433 215.87 142.669 215.81 142.889 215.69C143.116 215.563 143.296 215.377 143.429 215.13C143.563 214.883 143.629 214.583 143.629 214.23C143.629 213.703 143.489 213.3 143.209 213.02C142.936 212.733 142.599 212.59 142.199 212.59C141.799 212.59 141.463 212.733 141.189 213.02C140.923 213.3 140.789 213.703 140.789 214.23C140.789 214.757 140.919 215.163 141.179 215.45C141.446 215.73 141.779 215.87 142.179 215.87ZM147.496 212.32C147.676 212.027 147.91 211.797 148.196 211.63C148.49 211.463 148.823 211.38 149.196 211.38V212.85H148.826C148.386 212.85 148.053 212.953 147.826 213.16C147.606 213.367 147.496 213.727 147.496 214.24V217H146.096V211.46H147.496V212.32ZM150.849 210.8C150.603 210.8 150.396 210.723 150.229 210.57C150.069 210.41 149.989 210.213 149.989 209.98C149.989 209.747 150.069 209.553 150.229 209.4C150.396 209.24 150.603 209.16 150.849 209.16C151.096 209.16 151.299 209.24 151.459 209.4C151.626 209.553 151.709 209.747 151.709 209.98C151.709 210.213 151.626 210.41 151.459 210.57C151.299 210.723 151.096 210.8 150.849 210.8ZM151.539 211.46V217H150.139V211.46H151.539ZM158.072 214.11C158.072 214.31 158.059 214.49 158.032 214.65H153.982C154.016 215.05 154.156 215.363 154.402 215.59C154.649 215.817 154.952 215.93 155.312 215.93C155.832 215.93 156.202 215.707 156.422 215.26H157.932C157.772 215.793 157.466 216.233 157.012 216.58C156.559 216.92 156.002 217.09 155.342 217.09C154.809 217.09 154.329 216.973 153.902 216.74C153.482 216.5 153.152 216.163 152.912 215.73C152.679 215.297 152.562 214.797 152.562 214.23C152.562 213.657 152.679 213.153 152.912 212.72C153.146 212.287 153.472 211.953 153.892 211.72C154.312 211.487 154.796 211.37 155.342 211.37C155.869 211.37 156.339 211.483 156.752 211.71C157.172 211.937 157.496 212.26 157.722 212.68C157.956 213.093 158.072 213.57 158.072 214.11ZM156.622 213.71C156.616 213.35 156.486 213.063 156.232 212.85C155.979 212.63 155.669 212.52 155.302 212.52C154.956 212.52 154.662 212.627 154.422 212.84C154.189 213.047 154.046 213.337 153.992 213.71H156.622ZM161.214 217.09C160.761 217.09 160.354 217.01 159.994 216.85C159.634 216.683 159.348 216.46 159.134 216.18C158.928 215.9 158.814 215.59 158.794 215.25H160.204C160.231 215.463 160.334 215.64 160.514 215.78C160.701 215.92 160.931 215.99 161.204 215.99C161.471 215.99 161.678 215.937 161.824 215.83C161.978 215.723 162.054 215.587 162.054 215.42C162.054 215.24 161.961 215.107 161.774 215.02C161.594 214.927 161.304 214.827 160.904 214.72C160.491 214.62 160.151 214.517 159.884 214.41C159.624 214.303 159.398 214.14 159.204 213.92C159.018 213.7 158.924 213.403 158.924 213.03C158.924 212.723 159.011 212.443 159.184 212.19C159.364 211.937 159.618 211.737 159.944 211.59C160.278 211.443 160.668 211.37 161.114 211.37C161.774 211.37 162.301 211.537 162.694 211.87C163.088 212.197 163.304 212.64 163.344 213.2H162.004C161.984 212.98 161.891 212.807 161.724 212.68C161.564 212.547 161.348 212.48 161.074 212.48C160.821 212.48 160.624 212.527 160.484 212.62C160.351 212.713 160.284 212.843 160.284 213.01C160.284 213.197 160.378 213.34 160.564 213.44C160.751 213.533 161.041 213.63 161.434 213.73C161.834 213.83 162.164 213.933 162.424 214.04C162.684 214.147 162.908 214.313 163.094 214.54C163.288 214.76 163.388 215.053 163.394 215.42C163.394 215.74 163.304 216.027 163.124 216.28C162.951 216.533 162.698 216.733 162.364 216.88C162.038 217.02 161.654 217.09 161.214 217.09ZM165.164 217.07C164.91 217.07 164.7 216.993 164.534 216.84C164.374 216.68 164.294 216.483 164.294 216.25C164.294 216.017 164.374 215.823 164.534 215.67C164.7 215.51 164.91 215.43 165.164 215.43C165.41 215.43 165.614 215.51 165.774 215.67C165.934 215.823 166.014 216.017 166.014 216.25C166.014 216.483 165.934 216.68 165.774 216.84C165.614 216.993 165.41 217.07 165.164 217.07Z" fill="#3E479B"/>
<path d="M88.8401 35.2041C80.608 35.2105 72.4329 33.8382 64.6541 31.1442C54.2258 27.5386 45.6826 22.5653 39.2621 16.3625C27.117 4.62914 17.1598 2.86087 10.9467 3.44312C4.22112 4.0737 0.306289 7.5177 0.267551 7.55243L0 7.25416C0.0395199 7.21865 4.03506 3.69649 10.8833 3.04664C14.8993 2.66581 19.099 3.32935 23.3661 5.01947C28.6874 7.12709 34.1292 10.8465 39.5405 16.0743C45.9187 22.2363 54.4122 27.1792 64.785 30.7654C83.8272 37.349 105.288 35.7551 123.666 26.3921C129.751 23.2919 135.764 21.1757 141.54 20.1025C148.823 18.7488 155.731 19.063 162.071 21.0358C176.005 25.3706 185.522 25.1408 191.053 24.185C197.02 23.1536 199.727 21.0896 199.754 21.0688L200 21.3851C199.888 21.4722 197.186 23.5315 191.121 24.5798C185.547 25.5434 175.961 25.7768 161.952 21.4182C147.768 17.0058 133.402 21.8814 123.848 26.749C114.765 31.4014 104.846 34.1995 94.6704 34.9801C92.72 35.1294 90.7766 35.2041 88.8401 35.2041Z" fill="#3F3D56"/>
<path d="M88.0313 40.1761C90.2738 40.1761 92.0918 38.3581 92.0918 36.1156C92.0918 33.873 90.2738 32.0551 88.0313 32.0551C85.7887 32.0551 83.9708 33.873 83.9708 36.1156C83.9708 38.3581 85.7887 40.1761 88.0313 40.1761Z" fill="#6C63FF"/>
<path d="M150.939 23.9482C153.182 23.9482 155 22.1302 155 19.8877C155 17.6451 153.182 15.8271 150.939 15.8271C148.697 15.8271 146.879 17.6451 146.879 19.8877C146.879 22.1302 148.697 23.9482 150.939 23.9482Z" fill="#6C63FF"/>
<path d="M20.1146 8.12104C22.3572 8.12104 24.1751 6.30308 24.1751 4.06052C24.1751 1.81796 22.3572 0 20.1146 0C17.872 0 16.0541 1.81796 16.0541 4.06052C16.0541 6.30308 17.872 8.12104 20.1146 8.12104Z" fill="#6C63FF"/>
<path d="M117.15 97.0632V136.296H123.319V100.518H147.993V136.296H154.162V57.8304H147.993C145.949 57.8304 142.812 68.4765 142.812 79.1741C142.812 87.2374 143.753 94.1478 145.092 97.0632H117.15ZM147.993 97.0632H147.933C147.954 97.0194 147.973 96.9731 147.993 96.9274V97.0632Z" fill="#3F3D56"/>
<path d="M140.01 38.4116H140.01C134.946 38.4116 130.841 42.967 130.841 48.5864V55.7258H133.037L134.308 53.0806L133.99 55.7258H148.104L149.26 53.321L148.971 55.7258H150.56V50.1201C150.56 43.6537 145.836 38.4116 140.01 38.4116Z" fill="#2F2E41"/>
<path d="M129.504 85.057L123.875 87.4494L104.314 103.352C103.594 104.236 103.154 105.313 103.047 106.448C102.906 108.278 96.9956 117.847 99.1066 119.114C101.218 120.38 108.817 124.18 109.239 121.647C109.661 119.114 111.913 108.278 111.913 108.278L130.771 91.3899L129.504 85.057Z" fill="#2F2E41"/>
<path d="M107.41 119.536L105.017 126.572C105.017 126.572 107.55 129.246 106.284 131.498V139.238H104.314L103.751 135.157C103.751 135.157 101.507 139.187 100.373 139.238C97.997 139.346 93.2917 140.191 93.151 138.925C93.0103 137.658 96.7141 136.423 96.7141 136.423L100.655 125.587L102.343 118.973L107.41 119.536Z" fill="#2F2E41"/>
<path d="M144.14 83.2275C144.14 83.2275 145.407 95.6118 141.748 97.8634C138.089 100.115 121.905 107.292 121.905 107.292C121.905 107.292 128.801 113.766 127.393 115.314C125.986 116.862 119.653 121.084 118.809 120.24C117.964 119.395 108.536 109.263 109.661 106.026C110.787 102.789 126.408 92.2342 126.408 92.2342L128.238 85.6199L128.801 80.2721L134.711 76.4724L144.14 83.2275Z" fill="#2F2E41"/>
<path d="M137.693 54.3937C140.933 54.3937 143.56 51.767 143.56 48.5269C143.56 45.2867 140.933 42.66 137.693 42.66C134.453 42.66 131.826 45.2867 131.826 48.5269C131.826 51.767 134.453 54.3937 137.693 54.3937Z" fill="#FFB9B9"/>
<path d="M142.24 50.9298C142.24 50.9298 141.959 56.2776 146.322 57.9663C150.684 59.6551 135.485 70.6321 135.485 70.6321V58.3885C135.485 58.3885 137.456 56.2776 135.485 53.0408L142.24 50.9298Z" fill="#FFB9B9"/>
<path d="M151.599 76.0502L150.473 81.5387L147.096 100.397C147.096 100.397 149.91 108.418 146.111 108.277C142.311 108.137 144.14 99.5522 144.14 99.5522L146.111 83.9311V77.8797L151.599 76.0502Z" fill="#FFB9B9"/>
<path d="M127.393 73.3763L126.127 78.3019L120.357 92.2342C120.357 92.2342 116.416 98.8486 119.653 98.7078C122.89 98.5671 122.89 92.2342 122.89 92.2342L129.504 80.9758V74.6429L127.393 73.3763Z" fill="#FFB9B9"/>
<path d="M126.408 114.47L131.052 118.832C131.052 118.832 134.289 118.129 135.556 121.928C136.822 125.728 137.667 128.12 137.667 128.12L135.978 129.106L133.867 126.15C133.867 126.15 132.6 131.498 131.334 131.92C130.067 132.342 123.734 135.157 124.297 131.92L127.393 127.417C127.393 127.417 127.816 122.351 126.549 121.928C125.282 121.506 121.905 117.284 121.905 117.284L126.408 114.47Z" fill="#2F2E41"/>
<path d="M144.363 87.59C144.363 87.59 131.135 82.8052 130.29 83.2274C129.662 83.5051 128.992 83.6788 128.308 83.7419L128.32 81.8201C128.32 81.8201 132.683 80.2721 135.075 81.2572C137.468 82.2423 144.786 86.6049 144.786 86.6049L144.363 87.59Z" fill="#3F3D56"/>
<path d="M136.33 67.8174C136.33 67.8174 140.13 63.4548 141.255 60.7809C141.968 59.1599 143.275 57.8743 144.908 57.1893C144.908 57.1893 153.358 59.0921 153.217 62.4697C153.077 65.8472 147.87 71.0542 147.87 71.0542C147.87 71.0542 148.573 89.7714 144.774 89.4899C143.954 88.5118 143.376 87.3549 143.085 86.1124C142.663 84.1422 129.575 82.0312 129.575 82.0312C129.575 82.0312 128.449 84.0014 128.308 83.1571C128.167 82.3127 129.434 61.6253 129.434 61.6253L136.145 57.1893L136.33 67.8174Z" fill="#D0CDE1"/>
<path d="M152.133 61.1102L152.228 61.1631C152.528 61.3319 152.779 61.5777 152.953 61.8754C153.127 62.173 153.219 62.5117 153.219 62.8565L153.218 73.3006C153.219 73.5844 153.281 73.8647 153.402 74.1219C153.522 74.3791 153.697 74.607 153.914 74.7899C154.456 75.251 154.958 75.9155 153.921 76.2613C152.232 76.8242 145.618 79.6388 145.477 78.6537C145.337 77.6686 145.055 76.5428 145.477 76.5428C145.808 76.5428 147.777 66.4512 149.359 62.1365C149.456 61.8723 149.609 61.6323 149.808 61.4331C150.006 61.2338 150.246 61.0801 150.509 60.9825C150.773 60.8849 151.055 60.8457 151.335 60.8678C151.616 60.8899 151.888 60.9726 152.133 61.1102Z" fill="#D0CDE1"/>
<path d="M131.334 61.1327L129.364 61.6956L127.112 71.406C127.112 71.406 124.438 71.9689 125.282 72.9541C126.127 73.9392 129.645 76.4723 129.645 76.4723L131.334 61.1327Z" fill="#D0CDE1"/>
<path d="M142.616 41.2145C142.175 40.6221 141.603 40.1392 140.945 39.8035C140.287 39.4677 139.561 39.2881 138.822 39.2784H138.642C135.171 39.2784 132.358 42.4189 132.358 46.2928V46.2928H133.521L133.709 44.8633L133.984 46.2928H140.881L141.459 45.0834L141.314 46.2928H142.671C143.304 49.4371 142.395 52.5815 139.942 55.7258H142.253L143.409 53.3071L143.12 55.7258H147.526L148.393 50.1627C148.393 45.9965 145.972 42.4636 142.616 41.2145Z" fill="#2F2E41"/>
<path d="M24.7496 106.128C26.2301 102.904 27.2713 95.2638 27.2713 86.3485C27.2713 74.5205 23.8022 62.7495 21.5421 62.7495H14.7216V149.506H21.5421V109.947H48.8241V149.506H55.6446V106.128H24.7496ZM21.542 105.978C21.5641 106.028 21.5861 106.079 21.6084 106.128H21.542V105.978Z" fill="#3F3D56"/>
<path d="M53.178 90.3008C53.178 90.3008 61.3921 93.7066 58.7876 95.7101C56.1832 97.7135 50.7739 93.3059 50.9742 92.7049C51.1746 92.1039 50.1729 90.7015 50.1729 90.7015L53.178 90.3008Z" fill="#9F616A"/>
<path d="M45.9656 63.4547L48.5701 65.8588L49.1711 72.8709L51.1745 80.2836C51.1745 80.2836 54.5804 87.2957 53.9794 88.6981C53.3783 90.1005 54.5804 90.5012 54.5804 90.5012L49.9725 92.3043C49.9725 92.3043 44.9639 86.6946 44.9639 85.4926C44.9639 84.2905 45.9656 63.4547 45.9656 63.4547Z" fill="#575A88"/>
<path opacity="0.1" d="M45.9656 63.4547L48.5701 65.8588L49.1711 72.8709L51.1745 80.2836C51.1745 80.2836 54.5804 87.2957 53.9794 88.6981C53.3783 90.1005 54.5804 90.5012 54.5804 90.5012L49.9725 92.3043C49.9725 92.3043 44.9639 86.6946 44.9639 85.4926C44.9639 84.2905 45.9656 63.4547 45.9656 63.4547Z" fill="black"/>
<path d="M70.608 135.579C70.608 135.579 69.6062 140.187 69.4059 140.587C69.2055 140.988 73.2124 142.39 73.2124 142.39L78.0207 138.984C78.0207 138.984 76.0173 134.577 76.0173 133.776L70.608 135.579Z" fill="#575A88"/>
<path d="M44.3628 90.7014L45.7652 92.3042C45.7652 92.3042 74.8151 95.9104 75.4162 101.52C76.0172 107.13 80.2244 133.575 77.8203 134.376C75.4162 135.178 69.2055 138.183 69.2055 136.58C69.2055 134.977 65.1986 112.94 66 108.933C66 108.933 31.3405 104.525 30.5391 99.5166C29.7377 94.508 31.3405 92.3042 31.3405 92.3042L44.3628 90.7014Z" fill="#2F2E41"/>
<path opacity="0.1" d="M44.3628 90.7014L45.7652 92.3042C45.7652 92.3042 74.8151 95.9104 75.4162 101.52C76.0172 107.13 80.2244 133.575 77.8203 134.376C75.4162 135.178 69.2055 138.183 69.2055 136.58C69.2055 134.977 65.1986 112.94 66 108.933C66 108.933 31.3405 104.525 30.5391 99.5166C29.7377 94.508 31.3405 92.3042 31.3405 92.3042L44.3628 90.7014Z" fill="black"/>
<path d="M70.2073 140.187C70.2073 140.187 69.4059 138.383 69.0052 138.984C68.6045 139.586 67.2021 146.598 68.6045 146.598C70.0069 146.598 82.829 149.803 84.6321 149.402C86.4351 149.002 89.841 149.603 89.4403 147.599C89.0396 145.596 87.0362 145.395 87.0362 145.395C87.0362 145.395 79.6235 140.988 79.2228 138.784C78.8221 136.58 76.6183 137.782 76.6183 137.782V139.185C76.6183 139.185 72.4111 142.39 70.2073 140.187Z" fill="#2F2E41"/>
<path d="M32.1419 48.2285C32.1419 48.2285 33.5443 55.0402 30.5391 55.6413C27.534 56.2423 34.3457 60.2492 34.3457 60.2492L38.7532 62.6533L41.9588 59.4478C41.9588 59.4478 39.0538 53.5376 41.2576 49.1301C43.4613 44.7225 32.1419 48.2285 32.1419 48.2285Z" fill="#9F616A"/>
<path d="M41.9588 59.4478L38.7532 62.6533L34.3457 60.2492C34.3457 60.2492 27.534 56.2423 30.5391 55.6413C32.4725 55.2546 32.5806 52.2975 32.4144 50.238C32.3601 49.5637 32.2691 48.8929 32.1419 48.2285C32.1419 48.2285 43.4613 44.7225 41.2576 49.1301C40.9227 49.8107 40.6905 50.5371 40.5684 51.2858C39.8932 55.2466 41.9588 59.4478 41.9588 59.4478Z" fill="#9F616A"/>
<path d="M53.178 141.388V145.996H60.7911L61.3921 144.193L60.5907 139.385L53.178 141.388Z" fill="#575A88"/>
<path d="M21.724 94.7083C21.724 94.7083 21.724 106.529 26.5323 106.929C31.3405 107.33 48.5701 109.534 48.5701 109.534C48.5701 109.534 49.5718 129.167 51.3749 135.578C53.178 141.989 51.5753 142.39 53.178 142.791C54.7808 143.192 61.5925 141.789 61.3921 140.387C61.1918 138.984 60.3904 103.523 60.3904 103.523C60.3904 103.523 62.1935 95.9104 38.1522 92.3042L21.724 94.7083Z" fill="#2F2E41"/>
<path d="M53.779 144.594C53.779 144.594 52.577 141.99 52.3766 142.791C52.1763 143.592 49.7722 150.604 52.1763 151.205C54.5804 151.806 62.1935 155.012 67.2021 154.812C72.2107 154.611 72.8117 154.411 72.8117 154.411C72.8117 154.411 74.2141 152.407 72.411 151.205C70.6079 150.003 63.1952 142.991 62.7945 142.19C62.3938 141.389 59.3887 140.787 59.3887 142.19C59.3887 143.592 55.1814 146.397 53.779 144.594Z" fill="#2F2E41"/>
<path opacity="0.1" d="M41.2575 49.1301C40.9227 49.8107 40.6904 50.5371 40.5683 51.2858C39.5706 51.8888 38.9035 51.7345 37.6513 51.7345C35.7941 51.7345 35.0448 49.3605 33.8448 48.1284C33.7506 46.9844 32.1418 48.2285 32.1418 48.2285C32.1418 48.2285 43.4613 44.7225 41.2575 49.1301Z" fill="black"/>
<path d="M37.1505 51.6343C40.8018 51.6343 43.7618 48.6743 43.7618 45.023C43.7618 41.3716 40.8018 38.4116 37.1505 38.4116C33.4991 38.4116 30.5391 41.3716 30.5391 45.023C30.5391 48.6743 33.4991 51.6343 37.1505 51.6343Z" fill="#9F616A"/>
<path d="M48.5701 65.8588C48.5701 65.8588 47.5684 73.0712 46.9673 75.6757C46.3663 78.2802 45.5649 90.3008 45.1642 91.9036C44.7635 93.5063 42.3594 93.907 37.5512 93.306C37.2493 93.268 36.9457 93.2453 36.6416 93.2379C33.6805 93.1437 30.2927 94.2516 27.1573 95.1211C25.3542 95.622 23.6333 96.0427 22.1247 96.1108C19.8407 96.215 19.1716 93.6826 19.2497 90.9419C19.3238 88.3915 20.0471 85.6569 20.7222 84.6912C21.9384 82.9522 20.7423 67.3394 21.1911 62.1905V62.1885C21.2592 61.4032 21.3653 60.8623 21.5236 60.6499C22.7257 59.0471 30.5391 55.0403 31.4146 55.2025C32.2881 55.3648 39.7549 60.0489 39.7549 60.0489C41.558 60.0489 41.4999 58.0935 41.4999 58.0935C41.4999 58.0935 42.7601 60.4496 45.1642 61.0506C47.5684 61.6516 48.5701 65.8588 48.5701 65.8588Z" fill="#575A88"/>
<path d="M35.1777 91.8319C35.1777 91.8319 48.083 92.2428 45.8223 93.7761C43.5615 95.3094 33.5443 96.7118 33.344 94.7083C33.1436 92.7049 35.1777 91.8319 35.1777 91.8319Z" fill="#9F616A"/>
<path opacity="0.1" d="M36.6416 93.2378C36.6836 94.0072 34.6141 95.7401 33.9449 96.9121C33.5743 97.5613 30.7054 96.7058 27.1573 95.1211C24.4345 93.899 21.7932 92.503 19.2497 90.9419C19.3238 88.3915 20.0471 85.6568 20.7222 84.6911C21.9383 82.9522 20.7423 67.3393 21.191 62.1905V62.1885C21.298 62.1342 21.4093 62.0886 21.5236 62.0522H23.9277C32.1418 65.8588 22.7257 82.287 22.7257 82.287C22.7257 82.287 35.147 92.5046 36.3491 92.9053C36.4279 92.9202 36.4995 92.961 36.5525 93.0213C36.6055 93.0815 36.6368 93.1577 36.6416 93.2378Z" fill="black"/>
<path d="M23.9278 60.8502H21.5236C21.5236 60.8502 19.3199 61.4513 17.5168 65.4581C15.7137 69.465 9.1023 81.8864 14.9123 86.6946C20.7223 91.5029 33.1436 97.1125 33.945 95.7101C34.7464 94.3077 37.5512 92.1039 36.3491 91.7032C35.147 91.3025 22.7257 81.085 22.7257 81.085C22.7257 81.085 32.1419 64.6568 23.9278 60.8502Z" fill="#575A88"/>
<path d="M36.1334 41.9466C36.1334 41.9466 36.4235 37.9302 40.0028 39.5679C43.5821 41.2055 43.3485 36.6916 42.2669 35.8939C41.1853 35.0963 41.2195 34.8989 37.2635 35.4326C33.3075 35.9662 25.6272 36.8705 28.1106 44.8248C30.594 52.7791 32.8431 50.7328 32.8431 50.7328C32.8431 50.7328 30.8691 43.575 32.8693 44.9387L34.8694 46.3024L35.9248 46.0788L36.1334 41.9466Z" fill="#2F2E41"/>
<path d="M183.823 99.7806C183.823 96.1644 156.951 93.2329 123.802 93.2329C90.654 93.2329 63.782 96.1644 63.782 99.7806C63.782 101.182 67.8207 102.481 74.6948 103.546V148.343H77.9686V104.008C88.9784 105.427 105.424 106.328 123.802 106.328C142.333 106.328 158.899 105.412 169.909 103.972V148.343H173.183V103.503C179.89 102.446 183.823 101.163 183.823 99.7806Z" fill="#3F3D56"/>
<path d="M131.322 99.9173C138.071 99.9173 143.543 98.5718 143.543 96.9121C143.543 95.2524 138.071 93.907 131.322 93.907C124.572 93.907 119.101 95.2524 119.101 96.9121C119.101 98.5718 124.572 99.9173 131.322 99.9173Z" fill="#F2F2F2"/>
<path d="M131.322 99.3754C136.854 99.3754 141.339 98.2725 141.339 96.9121C141.339 95.5517 136.854 94.4489 131.322 94.4489C125.789 94.4489 121.305 95.5517 121.305 96.9121C121.305 98.2725 125.789 99.3754 131.322 99.3754Z" fill="#D0CDE1"/>
<path d="M85.8437 102.321C92.5931 102.321 98.0647 100.976 98.0647 99.3163C98.0647 97.6566 92.5931 96.3112 85.8437 96.3112C79.0942 96.3112 73.6227 97.6566 73.6227 99.3163C73.6227 100.976 79.0942 102.321 85.8437 102.321Z" fill="#F2F2F2"/>
<path d="M85.8437 101.78C91.376 101.78 95.8609 100.677 95.8609 99.3163C95.8609 97.9559 91.376 96.853 85.8437 96.853C80.3113 96.853 75.8265 97.9559 75.8265 99.3163C75.8265 100.677 80.3113 101.78 85.8437 101.78Z" fill="#D0CDE1"/>
<path d="M131.037 96.6999C134.255 96.6999 136.863 96.288 136.863 95.78C136.863 95.2719 134.255 94.8601 131.037 94.8601C127.82 94.8601 125.211 95.2719 125.211 95.78C125.211 96.288 127.82 96.6999 131.037 96.6999Z" fill="#9F616A"/>
<path d="M127.933 95.4351C128.949 95.4351 129.773 94.9889 129.773 94.4385C129.773 93.8881 128.949 93.4419 127.933 93.4419C126.917 93.4419 126.093 93.8881 126.093 94.4385C126.093 94.9889 126.917 95.4351 127.933 95.4351Z" fill="#6C63FF"/>
<path d="M127.243 95.4351C128.259 95.4351 129.083 94.9889 129.083 94.4385C129.083 93.8881 128.259 93.4419 127.243 93.4419C126.227 93.4419 125.403 93.8881 125.403 94.4385C125.403 94.9889 126.227 95.4351 127.243 95.4351Z" fill="#6C63FF"/>
<path d="M135.292 95.665C136.308 95.665 137.132 95.2188 137.132 94.6684C137.132 94.1181 136.308 93.6719 135.292 93.6719C134.276 93.6719 133.452 94.1181 133.452 94.6684C133.452 95.2188 134.276 95.665 135.292 95.665Z" fill="#6C63FF"/>
<path d="M131.076 95.4351C132.092 95.4351 132.916 94.9889 132.916 94.4385C132.916 93.8881 132.092 93.4419 131.076 93.4419C130.06 93.4419 129.236 93.8881 129.236 94.4385C129.236 94.9889 130.06 95.4351 131.076 95.4351Z" fill="#6C63FF"/>
<path d="M134.219 95.4351C135.235 95.4351 136.059 94.9889 136.059 94.4385C136.059 93.8881 135.235 93.4419 134.219 93.4419C133.203 93.4419 132.379 93.8881 132.379 94.4385C132.379 94.9889 133.203 95.4351 134.219 95.4351Z" fill="#6C63FF"/>
<path d="M136.595 93.8252C133.27 94.9536 129.539 94.9536 125.403 93.8252V93.6699C125.402 92.4969 125.853 91.3684 126.661 90.518C127.469 89.6676 128.573 89.1604 129.744 89.1012C130.73 89.0516 131.718 89.0529 132.704 89.105C133.758 89.1664 134.749 89.6291 135.472 90.398C136.196 91.1669 136.598 92.1836 136.595 93.2395V93.8252Z" fill="#3F3D56"/>
<path d="M134.963 98.0497C132.505 98.2979 130.029 98.2979 127.572 98.0497C126.989 97.9925 126.448 97.7207 126.055 97.2871C125.661 96.8535 125.442 96.2891 125.441 95.7034H137.093C137.093 96.2891 136.874 96.8535 136.48 97.2871C136.086 97.7207 135.546 97.9925 134.963 98.0497Z" fill="#3F3D56"/>
<path d="M129.466 90.5289C129.199 90.6402 128.912 90.6975 128.623 90.6975C128.333 90.6975 128.047 90.6402 127.779 90.5289C128.047 90.4175 128.333 90.3602 128.623 90.3602C128.912 90.3602 129.199 90.4175 129.466 90.5289Z" fill="#D0CDE1"/>
<path d="M131.152 91.2188C130.885 91.3301 130.599 91.3875 130.309 91.3875C130.02 91.3875 129.733 91.3301 129.466 91.2188C129.733 91.1075 130.02 91.0502 130.309 91.0502C130.599 91.0502 130.885 91.1075 131.152 91.2188Z" fill="#D0CDE1"/>
<path d="M131.306 89.9924C131.039 90.1037 130.752 90.161 130.462 90.161C130.173 90.161 129.886 90.1037 129.619 89.9924C129.886 89.881 130.173 89.8237 130.462 89.8237C130.752 89.8237 131.039 89.881 131.306 89.9924Z" fill="#D0CDE1"/>
<path d="M134.449 89.9924C134.182 90.1037 133.895 90.161 133.605 90.161C133.316 90.161 133.029 90.1037 132.762 89.9924C133.029 89.881 133.316 89.8237 133.605 89.8237C133.895 89.8237 134.182 89.881 134.449 89.9924Z" fill="#D0CDE1"/>
<path d="M133.605 90.6822C133.338 90.7935 133.052 90.8508 132.762 90.8508C132.473 90.8508 132.186 90.7935 131.919 90.6822C132.186 90.5709 132.473 90.5135 132.762 90.5135C133.052 90.5135 133.338 90.5709 133.605 90.6822Z" fill="#D0CDE1"/>
<path d="M85.7596 99.1041C88.9773 99.1041 91.5857 98.6923 91.5857 98.1842C91.5857 97.6761 88.9773 97.2643 85.7596 97.2643C82.542 97.2643 79.9335 97.6761 79.9335 98.1842C79.9335 98.6923 82.542 99.1041 85.7596 99.1041Z" fill="#9F616A"/>
<path d="M82.6549 97.8392C83.671 97.8392 84.4948 97.393 84.4948 96.8426C84.4948 96.2922 83.671 95.8461 82.6549 95.8461C81.6388 95.8461 80.8151 96.2922 80.8151 96.8426C80.8151 97.393 81.6388 97.8392 82.6549 97.8392Z" fill="#6C63FF"/>
<path d="M81.965 97.8392C82.9811 97.8392 83.8048 97.393 83.8048 96.8426C83.8048 96.2922 82.9811 95.8461 81.965 95.8461C80.9489 95.8461 80.1252 96.2922 80.1252 96.8426C80.1252 97.393 80.9489 97.8392 81.965 97.8392Z" fill="#6C63FF"/>
<path d="M90.0142 98.0692C91.0303 98.0692 91.854 97.623 91.854 97.0726C91.854 96.5222 91.0303 96.076 90.0142 96.076C88.9981 96.076 88.1744 96.5222 88.1744 97.0726C88.1744 97.623 88.9981 98.0692 90.0142 98.0692Z" fill="#6C63FF"/>
<path d="M85.7979 97.8392C86.814 97.8392 87.6378 97.393 87.6378 96.8426C87.6378 96.2922 86.814 95.8461 85.7979 95.8461C84.7818 95.8461 83.9581 96.2922 83.9581 96.8426C83.9581 97.393 84.7818 97.8392 85.7979 97.8392Z" fill="#6C63FF"/>
<path d="M88.9409 97.8392C89.9571 97.8392 90.7808 97.393 90.7808 96.8426C90.7808 96.2922 89.9571 95.8461 88.9409 95.8461C87.9248 95.8461 87.1011 96.2922 87.1011 96.8426C87.1011 97.393 87.9248 97.8392 88.9409 97.8392Z" fill="#6C63FF"/>
<path d="M91.3174 96.2294C87.9923 97.3578 84.2616 97.3578 80.1252 96.2294V96.0741C80.1245 94.9011 80.5748 93.7726 81.3828 92.9222C82.1909 92.0718 83.2949 91.5646 84.4665 91.5054C85.4526 91.4558 86.4406 91.4571 87.4265 91.5092C88.4805 91.5706 89.4711 92.0333 90.1947 92.8022C90.9183 93.5711 91.32 94.5878 91.3174 95.6437V96.2294Z" fill="#3F3D56"/>
<path d="M89.685 100.454C87.2276 100.702 84.7516 100.702 82.2942 100.454C81.7113 100.397 81.1705 100.125 80.7767 99.6913C80.383 99.2577 80.1644 98.6932 80.1635 98.1075H91.8157C91.8148 98.6932 91.5962 99.2577 91.2025 99.6913C90.8087 100.125 90.2679 100.397 89.685 100.454Z" fill="#3F3D56"/>
<path d="M84.1881 92.9331C83.9209 93.0444 83.6343 93.1017 83.3448 93.1017C83.0554 93.1017 82.7688 93.0444 82.5016 92.9331C82.7688 92.8217 83.0554 92.7644 83.3448 92.7644C83.6343 92.7644 83.9209 92.8217 84.1881 92.9331Z" fill="#D0CDE1"/>
<path d="M85.8746 93.623C85.6074 93.7343 85.3208 93.7917 85.0314 93.7917C84.7419 93.7917 84.4553 93.7343 84.1881 93.623C84.4553 93.5117 84.7419 93.4543 85.0314 93.4543C85.3208 93.4543 85.6074 93.5117 85.8746 93.623Z" fill="#D0CDE1"/>
<path d="M86.0279 92.3964C85.7607 92.5078 85.4741 92.5651 85.1847 92.5651C84.8952 92.5651 84.6086 92.5078 84.3414 92.3964C84.6086 92.2851 84.8952 92.2278 85.1847 92.2278C85.4741 92.2278 85.7607 92.2851 86.0279 92.3964Z" fill="#D0CDE1"/>
<path d="M89.1709 92.3964C88.9037 92.5078 88.6172 92.5651 88.3277 92.5651C88.0382 92.5651 87.7516 92.5078 87.4844 92.3964C87.7516 92.2851 88.0382 92.2278 88.3277 92.2278C88.6172 92.2278 88.9037 92.2851 89.1709 92.3964Z" fill="#D0CDE1"/>
<path d="M88.3277 93.0864C88.0605 93.1977 87.7739 93.2551 87.4844 93.2551C87.195 93.2551 86.9084 93.1977 86.6412 93.0864C86.9084 92.975 87.195 92.9177 87.4844 92.9177C87.7739 92.9177 88.0605 92.975 88.3277 93.0864Z" fill="#D0CDE1"/>
<path d="M141.835 96.0979L141.863 96.7185L141.899 97.5233C141.899 97.5233 138.203 97.7322 137.458 98.5191C137.441 98.5361 137.425 98.5543 137.41 98.5738L135.93 98.2496L135.926 97.5202C135.926 97.5202 135.946 97.5088 135.986 97.4874C135.995 97.4827 136.007 97.4767 136.018 97.4707C137.83 96.5834 139.818 96.1143 141.835 96.0979Z" fill="#6C63FF"/>
<path opacity="0.1" d="M141.835 96.0979L141.863 96.7185C140.224 96.7691 137.122 97.7463 137.122 97.7463L135.986 97.4874C137.806 96.5885 139.806 96.1135 141.835 96.0979Z" fill="black"/>
<path opacity="0.1" d="M136.018 97.4707L137.122 97.7463L137.458 98.5192C137.441 98.5361 137.425 98.5543 137.41 98.5738L135.93 98.2497L135.926 97.5202C135.926 97.5202 135.946 97.5089 135.986 97.4874C135.995 97.4828 136.007 97.4767 136.018 97.4707Z" fill="white"/>
<path d="M97.1585 98.7024L97.1866 99.323L97.2225 100.128C97.2225 100.128 93.5259 100.337 92.7812 101.124C92.7639 101.141 92.748 101.159 92.7337 101.178L91.2529 100.854L91.2493 100.125C91.2493 100.125 91.2697 100.113 91.3094 100.092C91.3185 100.087 91.3298 100.081 91.3412 100.075C93.1531 99.1879 95.1411 98.7188 97.1585 98.7024Z" fill="#6C63FF"/>
<path opacity="0.1" d="M97.1585 98.7024L97.1867 99.323C95.5474 99.3736 92.4451 100.351 92.4451 100.351L91.3094 100.092C93.1292 99.193 95.1289 98.718 97.1585 98.7024Z" fill="black"/>
<path opacity="0.1" d="M91.3412 100.075L92.4451 100.351L92.7812 101.124C92.7639 101.141 92.748 101.159 92.7337 101.178L91.2529 100.854L91.2493 100.125C91.2493 100.125 91.2697 100.113 91.3094 100.092C91.3185 100.087 91.3298 100.081 91.3412 100.075Z" fill="white"/>
<path d="M164.099 77.5099C163.784 77.1948 163.414 76.9393 163.008 76.7558V68.9712C163.008 68.88 162.972 68.7924 162.907 68.7279C162.842 68.6633 162.755 68.6271 162.664 68.6271H160.737C160.645 68.6271 160.558 68.6633 160.493 68.7279C160.429 68.7924 160.392 68.88 160.392 68.9712V76.6065C159.696 76.8376 159.09 77.2822 158.66 77.8772C158.23 78.4722 157.999 79.1875 157.999 79.9214V96.6205C157.999 96.8214 158.038 97.0204 158.115 97.2061C158.192 97.3918 158.305 97.5605 158.447 97.7026C158.589 97.8447 158.758 97.9574 158.943 98.0343C159.129 98.1112 159.328 98.1507 159.529 98.1507H163.657C164.061 98.1507 164.448 97.9903 164.734 97.7046C165.02 97.419 165.18 97.0315 165.18 96.6276V80.1183C165.181 79.6337 165.085 79.1538 164.9 78.7062C164.714 78.2586 164.442 77.852 164.099 77.5099Z" fill="#3F3D56"/>
<path d="M165.18 82.3694H157.999V91.8559H165.18V82.3694Z" fill="#6C63FF"/>
<path d="M163.163 69.159H163.008V68.9712C163.008 68.88 162.972 68.7924 162.907 68.7279C162.842 68.6633 162.755 68.6271 162.664 68.6271H160.737C160.645 68.6271 160.558 68.6633 160.493 68.7279C160.429 68.7924 160.392 68.88 160.392 68.9712V69.159H160.237V69.957H160.392V74.0353H163.008V69.957H163.163V69.159Z" fill="#6C63FF"/>
<path d="M106.598 84.2667C106.408 83.8611 106.258 83.5742 106.206 83.4755C102.982 84.271 100.831 83.5987 100.492 83.4798C100.326 83.7931 99.2907 85.7952 98.8722 87.7148C98.4942 89.4462 98.7136 90.607 99.5245 91.1648L99.5485 91.1819L99.5538 91.1854C100.449 91.7752 101.303 92.2975 102.091 92.7378C102.198 92.7969 102.298 92.8519 102.392 92.9026L102.402 92.9081L102.409 92.9171C102.517 93.0535 102.618 93.1957 102.711 93.343C102.885 93.5867 102.991 93.8727 103.017 94.1711V102.771L102.963 102.772C100.907 102.814 99.6339 103.162 99.6339 103.461C99.6339 103.789 101.16 104.154 103.35 104.154C105.54 104.154 107.066 103.789 107.066 103.461C107.066 103.167 105.815 102.82 103.794 102.773L103.739 102.772L103.79 94.8174C103.791 94.2788 103.916 93.7478 104.156 93.2654C104.197 93.1843 104.24 93.1054 104.286 93.0311C104.323 92.9713 104.362 92.913 104.402 92.8579L104.409 92.8478L104.42 92.8418C104.521 92.7865 104.629 92.7266 104.742 92.662L104.756 92.6547C105.502 92.2332 106.306 91.7389 107.146 91.1852C107.896 90.6908 108.157 89.6916 107.922 88.2153C107.699 86.8077 107.079 85.2911 106.598 84.2667Z" fill="#D0CDE1"/>
<path d="M106.791 91.0051C105.91 91.5855 105.183 92.0209 104.627 92.3345H104.627C103.815 92.2792 103.001 92.302 102.194 92.4029C101.624 92.0847 100.855 91.6284 99.9092 91.0051C99.9002 90.9991 99.8912 90.9931 99.8822 90.9866V90.9861C99.0145 90.3892 98.9931 89.1251 99.2753 87.8325C99.9934 87.7527 101.138 87.7876 102.677 88.3372C104.498 88.9879 106.405 88.6199 107.51 88.2853C107.692 89.4258 107.581 90.484 106.791 91.0051Z" fill="#6C63FF"/>
<path d="M101.555 87.3646C101.692 87.3646 101.804 87.253 101.804 87.1153C101.804 86.9776 101.692 86.866 101.555 86.866C101.417 86.866 101.305 86.9776 101.305 87.1153C101.305 87.253 101.417 87.3646 101.555 87.3646Z" fill="#6C63FF"/>
<path d="M100.857 89.6586C100.994 89.6586 101.106 89.547 101.106 89.4092C101.106 89.2715 100.994 89.1599 100.857 89.1599C100.719 89.1599 100.607 89.2715 100.607 89.4092C100.607 89.547 100.719 89.6586 100.857 89.6586Z" fill="white"/>
<path d="M102.153 87.8634C102.236 87.8634 102.303 87.7965 102.303 87.7138C102.303 87.6312 102.236 87.5642 102.153 87.5642C102.071 87.5642 102.004 87.6312 102.004 87.7138C102.004 87.7965 102.071 87.8634 102.153 87.8634Z" fill="#6C63FF"/>
<path d="M102.752 90.7058C102.834 90.7058 102.901 90.6389 102.901 90.5562C102.901 90.4736 102.834 90.4066 102.752 90.4066C102.669 90.4066 102.602 90.4736 102.602 90.5562C102.602 90.6389 102.669 90.7058 102.752 90.7058Z" fill="white"/>
<path d="M101.704 90.8553C101.787 90.8553 101.854 90.7883 101.854 90.7057C101.854 90.6231 101.787 90.5562 101.704 90.5562C101.622 90.5562 101.555 90.6231 101.555 90.7057C101.555 90.7883 101.622 90.8553 101.704 90.8553Z" fill="white"/>
<path d="M104.746 85.8687C104.829 85.8687 104.896 85.8017 104.896 85.7191C104.896 85.6364 104.829 85.5695 104.746 85.5695C104.664 85.5695 104.597 85.6364 104.597 85.7191C104.597 85.8017 104.664 85.8687 104.746 85.8687Z" fill="#6C63FF"/>
<path d="M118.294 76.1597C118.104 75.7541 117.954 75.4671 117.901 75.3684C114.678 76.1639 112.527 75.4917 112.188 75.3728C112.022 75.686 110.987 77.6882 110.568 79.6077C110.19 81.3392 110.409 82.4999 111.22 83.0577L111.244 83.0748L111.25 83.0783C112.145 83.6681 112.998 84.1905 113.787 84.6307C113.893 84.6899 113.994 84.7448 114.088 84.7956L114.098 84.8011L114.105 84.81C114.213 84.9464 114.314 85.0886 114.407 85.236C114.581 85.4797 114.687 85.7656 114.713 86.064V94.6636L114.659 94.6648C112.602 94.7067 111.33 95.0553 111.33 95.3541C111.33 95.682 112.856 96.0474 115.046 96.0474C117.236 96.0474 118.762 95.682 118.762 95.3541C118.762 95.0597 117.511 94.7131 115.489 94.6664L115.435 94.6651L115.486 86.7104C115.487 86.1718 115.612 85.6407 115.851 85.1583C115.892 85.0772 115.936 84.9984 115.982 84.9241C116.019 84.8643 116.057 84.8059 116.097 84.7508L116.105 84.7407L116.116 84.7347C116.217 84.6794 116.324 84.6195 116.438 84.5549L116.452 84.5477C117.198 84.1261 118.002 83.6318 118.842 83.0782C119.592 82.5838 119.853 81.5845 119.618 80.1082C119.394 78.7006 118.775 77.1841 118.294 76.1597Z" fill="#D0CDE1"/>
<path d="M118.487 82.898C117.606 83.4784 116.879 83.9138 116.323 84.2274H116.322C115.511 84.1721 114.697 84.1949 113.89 84.2957C113.32 83.9776 112.551 83.5213 111.605 82.898C111.596 82.892 111.587 82.886 111.578 82.8795V82.879C110.71 82.2821 110.689 81.018 110.971 79.7255C111.689 79.6457 112.834 79.6806 114.373 80.2301C116.194 80.8809 118.101 80.5129 119.206 80.1783C119.388 81.3187 119.277 82.3769 118.487 82.898Z" fill="#6C63FF"/>
<path d="M113.251 79.2576C113.388 79.2576 113.5 79.146 113.5 79.0083C113.5 78.8706 113.388 78.7589 113.251 78.7589C113.113 78.7589 113.001 78.8706 113.001 79.0083C113.001 79.146 113.113 79.2576 113.251 79.2576Z" fill="#6C63FF"/>
<path d="M112.552 81.5515C112.69 81.5515 112.802 81.4399 112.802 81.3022C112.802 81.1645 112.69 81.0529 112.552 81.0529C112.415 81.0529 112.303 81.1645 112.303 81.3022C112.303 81.4399 112.415 81.5515 112.552 81.5515Z" fill="white"/>
<path d="M113.849 79.7562C113.932 79.7562 113.999 79.6893 113.999 79.6066C113.999 79.524 113.932 79.457 113.849 79.457C113.766 79.457 113.699 79.524 113.699 79.6066C113.699 79.6893 113.766 79.7562 113.849 79.7562Z" fill="#6C63FF"/>
<path d="M114.447 82.5988C114.53 82.5988 114.597 82.5318 114.597 82.4492C114.597 82.3665 114.53 82.2996 114.447 82.2996C114.365 82.2996 114.298 82.3665 114.298 82.4492C114.298 82.5318 114.365 82.5988 114.447 82.5988Z" fill="white"/>
<path d="M113.4 82.7483C113.483 82.7483 113.55 82.6813 113.55 82.5987C113.55 82.5161 113.483 82.4491 113.4 82.4491C113.318 82.4491 113.251 82.5161 113.251 82.5987C113.251 82.6813 113.318 82.7483 113.4 82.7483Z" fill="white"/>
<path d="M116.442 77.7616C116.525 77.7616 116.592 77.6947 116.592 77.612C116.592 77.5294 116.525 77.4624 116.442 77.4624C116.359 77.4624 116.292 77.5294 116.292 77.612C116.292 77.6947 116.359 77.7616 116.442 77.7616Z" fill="#6C63FF"/>
</svg>
