<svg width="301" height="226" viewBox="0 0 301 226" fill="none" xmlns="http://www.w3.org/2000/svg">
<path d="M282.323 204.267C282.141 211.054 281.004 217.782 278.945 224.252C278.9 224.402 278.849 224.55 278.8 224.7H266.196C266.209 224.566 266.223 224.415 266.236 224.252C267.077 214.591 262.276 156.493 256.483 146.437C256.99 147.253 283.3 173.57 282.323 204.267Z" fill="#ADF9B0"/>
<path d="M281.377 224.252C281.272 224.402 281.162 224.552 281.05 224.7H271.594C271.666 224.572 271.749 224.422 271.846 224.252C273.407 221.433 278.031 213.005 282.322 204.267C286.932 194.877 291.165 185.131 290.809 181.604C290.919 182.399 294.111 206.651 281.377 224.252Z" fill="#4DFF69"/>
<path d="M237.937 183.164H0V0H237.937V183.164Z" fill="white"/>
<path d="M237.937 183.164H0V0H237.937V183.164ZM3.5155 179.649H234.422V3.5155H3.5155V179.649Z" fill="#E5E5E5"/>
<path d="M62.2717 138.071H44.257C43.7692 138.07 43.3015 137.876 42.9566 137.531C42.6116 137.187 42.4176 136.719 42.417 136.231V111.398C42.4176 110.91 42.6116 110.442 42.9566 110.097C43.3015 109.752 43.7692 109.558 44.257 109.558H62.2717C62.7595 109.558 63.2272 109.752 63.5722 110.097C63.9171 110.442 64.1112 110.91 64.1117 111.398V136.231C64.1112 136.719 63.9171 137.187 63.5722 137.531C63.2272 137.876 62.7595 138.07 62.2717 138.071V138.071Z" fill="#FF9696"/>
<path d="M95.1238 138.071H77.1091C76.6213 138.07 76.1536 137.876 75.8086 137.531C75.4637 137.187 75.2696 136.719 75.269 136.231V87.8434C75.2696 87.3556 75.4637 86.8879 75.8086 86.543C76.1536 86.1981 76.6213 86.0041 77.1091 86.0035H95.1238C95.6116 86.0041 96.0793 86.1981 96.4242 86.543C96.7692 86.8879 96.9632 87.3556 96.9638 87.8434V136.231C96.9632 136.719 96.7692 137.187 96.4242 137.531C96.0793 137.876 95.6116 138.07 95.1238 138.071Z" fill="#FF9696"/>
<path d="M127.976 138.071H109.961C109.473 138.07 109.006 137.876 108.661 137.531C108.316 137.187 108.122 136.719 108.121 136.231V111.398C108.122 110.91 108.316 110.442 108.661 110.097C109.006 109.752 109.473 109.558 109.961 109.558H127.976C128.464 109.558 128.931 109.752 129.276 110.097C129.621 110.442 129.815 110.91 129.816 111.398V136.231C129.815 136.719 129.621 137.187 129.276 137.531C128.931 137.876 128.464 138.07 127.976 138.071V138.071Z" fill="#FC67FF"/>
<path d="M160.828 138.071H142.813C142.336 138.081 141.875 137.902 141.53 137.573C141.185 137.244 140.985 136.791 140.973 136.314V78.4623C140.985 77.9856 141.185 77.5331 141.53 77.2038C141.875 76.8746 142.336 76.6955 142.813 76.7057H160.828C161.305 76.6955 161.766 76.8746 162.111 77.2038C162.456 77.5331 162.656 77.9856 162.668 78.4623V136.314C162.656 136.791 162.456 137.244 162.111 137.573C161.766 137.902 161.305 138.081 160.828 138.071Z" fill="#00A8BF"/>
<path d="M193.68 138.071H175.665C175.177 138.07 174.71 137.876 174.365 137.531C174.02 137.187 173.826 136.719 173.825 136.231V61.8097C173.826 61.3219 174.02 60.8542 174.365 60.5093C174.71 60.1644 175.177 59.9704 175.665 59.9698H193.68C194.168 59.9704 194.635 60.1644 194.98 60.5093C195.325 60.8542 195.519 61.3219 195.52 61.8097V136.231C195.519 136.719 195.325 137.187 194.98 137.531C194.635 137.876 194.168 138.07 193.68 138.071Z" fill="#F2F2F2"/>
<path d="M53.2644 102.12C55.3184 102.12 56.9835 100.454 56.9835 98.4005C56.9835 96.3465 55.3184 94.6814 53.2644 94.6814C51.2104 94.6814 49.5453 96.3465 49.5453 98.4005C49.5453 100.454 51.2104 102.12 53.2644 102.12Z" fill="#3F3D56"/>
<path d="M86.1164 77.9455C88.1704 77.9455 89.8355 76.2804 89.8355 74.2264C89.8355 72.1724 88.1704 70.5073 86.1164 70.5073C84.0624 70.5073 82.3973 72.1724 82.3973 74.2264C82.3973 76.2804 84.0624 77.9455 86.1164 77.9455Z" fill="#3F3D56"/>
<path d="M118.969 102.12C121.023 102.12 122.688 100.454 122.688 98.4005C122.688 96.3465 121.023 94.6814 118.969 94.6814C116.915 94.6814 115.25 96.3465 115.25 98.4005C115.25 100.454 116.915 102.12 118.969 102.12Z" fill="#3F3D56"/>
<path d="M151.821 66.1683C153.875 66.1683 155.54 64.5032 155.54 62.4492C155.54 60.3952 153.875 58.7301 151.821 58.7301C149.767 58.7301 148.102 60.3952 148.102 62.4492C148.102 64.5032 149.767 66.1683 151.821 66.1683Z" fill="#3F3D56"/>
<path d="M184.673 52.5316C186.727 52.5316 188.392 50.8665 188.392 48.8125C188.392 46.7585 186.727 45.0934 184.673 45.0934C182.619 45.0934 180.954 46.7585 180.954 48.8125C180.954 50.8665 182.619 52.5316 184.673 52.5316Z" fill="#3F3D56"/>
<path d="M119.047 99.2336L86.1163 74.5685L53.6362 98.8966L52.8928 97.9043L86.1163 73.0193L118.89 97.5673L151.458 61.927L151.589 61.874L184.441 48.6375L184.904 49.7875L152.183 62.9711L119.047 99.2336Z" fill="#3F3D56"/>
<path d="M230.627 219.084L225.031 219.083L222.369 197.499L230.628 197.5L230.627 219.084Z" fill="#FFB6B6"/>
<path d="M232.054 224.508L214.011 224.507V224.279C214.011 222.416 214.751 220.63 216.068 219.313C217.385 217.996 219.171 217.256 221.034 217.256H221.034L232.055 217.257L232.054 224.508Z" fill="#2F2E41"/>
<path d="M210.629 127.728L213.806 178.345L224.472 213.974L232.736 214.572L228.586 171.15L230.406 142.313C230.406 142.313 239.031 135.884 234.262 128.144L210.629 127.728Z" fill="#2F2E41"/>
<path d="M234.279 219.084L228.683 219.083L226.021 197.499L234.28 197.5L234.279 219.084Z" fill="#FFB6B6"/>
<path d="M235.706 224.508L217.662 224.507V224.279C217.662 222.416 218.402 220.63 219.719 219.313C221.037 217.996 222.823 217.256 224.685 217.256H224.686L235.706 217.257L235.706 224.508Z" fill="#2F2E41"/>
<path d="M214.28 127.728L217.457 178.345L228.124 213.974L236.388 214.572L232.238 171.15L234.057 142.313C234.057 142.313 242.683 135.884 237.914 128.144L214.28 127.728Z" fill="#2F2E41"/>
<path d="M231.502 135.566C221.973 135.566 210.757 129.742 210.107 129.4L209.926 129.305L231.797 73.5099L242.629 68.3928C243.463 67.9988 244.387 67.8346 245.305 67.917C246.224 67.9994 247.104 68.3255 247.855 68.8616C248.605 69.3977 249.199 70.1245 249.575 70.9668C249.951 71.8091 250.095 72.7365 249.993 73.6532L245.695 112.214L241.208 132.185L241.161 132.232C238.684 134.679 235.221 135.566 231.502 135.566Z" fill="#3F3D56"/>
<path d="M196.553 98.6306C197.12 98.2712 197.758 98.0405 198.424 97.9547C199.089 97.8689 199.766 97.93 200.405 98.1338C201.044 98.3375 201.631 98.679 202.124 99.1341C202.617 99.5892 203.005 100.147 203.259 100.768L219.545 99.8782L215.272 107.198L200.461 106.921C199.39 107.279 198.224 107.231 197.185 106.787C196.146 106.343 195.307 105.533 194.825 104.511C194.343 103.49 194.253 102.327 194.572 101.243C194.89 100.159 195.595 99.2294 196.553 98.6306V98.6306Z" fill="#FFB6B6"/>
<path d="M228.694 110.089L212.372 109.672L212.583 98.8759L220.301 96.4195L232.96 78.6638C233.594 77.7748 234.399 77.0218 235.329 76.4495C236.259 75.8772 237.294 75.4971 238.374 75.3318C239.453 75.1664 240.554 75.2192 241.613 75.487C242.672 75.7547 243.666 76.2319 244.537 76.8905C245.408 77.5491 246.138 78.3756 246.683 79.3212C247.229 80.2668 247.58 81.3123 247.715 82.3958C247.85 83.4793 247.766 84.5789 247.469 85.6295C247.172 86.6801 246.667 87.6604 245.984 88.5125L228.694 110.089Z" fill="#3F3D56"/>
<path d="M238.144 66.337C244.133 66.337 248.989 61.4815 248.989 55.492C248.989 49.5025 244.133 44.647 238.144 44.647C232.154 44.647 227.299 49.5025 227.299 55.492C227.299 61.4815 232.154 66.337 238.144 66.337Z" fill="#FFB6B6"/>
<path d="M224.423 46.4546C225.518 45.3324 226.94 44.5861 228.485 44.323C229.991 43.9989 231.644 43.8985 232.849 42.9537C234.218 41.8628 234.821 39.7906 236.5 39.3296C237.231 39.1827 237.988 39.2428 238.687 39.503C241.371 40.3126 243.754 41.9013 245.533 44.0674C245.953 44.6881 246.487 45.2227 247.108 45.6421C247.479 45.7993 247.842 45.976 248.194 46.1716C248.581 46.4768 248.885 46.8737 249.08 47.3264C250.291 49.7712 250.57 52.5734 249.865 55.209C249.445 56.7655 248.687 58.2078 248.24 59.7734C247.793 61.339 245.724 64.3172 245.24 63.5778C244.756 62.8384 244.135 62.1491 243.871 61.2956C243.354 59.6167 243.821 57.9271 242.507 56.7609C241.695 56.0398 240.225 55.5559 239.673 56.4871C239.453 56.8476 239.467 57.3041 239.28 57.6784C238.91 58.4087 237.842 58.5547 237.135 58.1348C236.453 57.664 235.974 56.9534 235.793 56.1447C234.729 52.548 232.917 50.2841 229.07 51.8223C227.636 52.3974 225.947 52.7853 224.569 51.7994C222.752 50.5032 223.122 47.9334 224.423 46.4546Z" fill="#2F2E41"/>
<path d="M200.07 144.005H182.055C181.568 144.004 181.1 143.81 180.755 143.465C180.41 143.12 180.216 142.653 180.215 142.165V67.7434C180.216 67.2556 180.41 66.7879 180.755 66.443C181.1 66.0981 181.568 65.904 182.055 65.9035H200.07C200.558 65.904 201.026 66.0981 201.37 66.443C201.715 66.7879 201.909 67.2556 201.91 67.7434V142.165C201.909 142.653 201.715 143.12 201.37 143.465C201.026 143.81 200.558 144.004 200.07 144.005V144.005Z" fill="#6C63FF"/>
<path d="M196.097 105.021C196.663 104.661 197.302 104.431 197.967 104.345C198.633 104.259 199.309 104.32 199.949 104.524C200.588 104.728 201.175 105.069 201.668 105.524C202.161 105.979 202.548 106.537 202.802 107.158L219.089 106.268L214.815 113.588L200.005 113.311C198.933 113.669 197.768 113.621 196.729 113.177C195.69 112.733 194.85 111.923 194.369 110.902C193.887 109.88 193.797 108.717 194.115 107.633C194.434 106.549 195.139 105.619 196.097 105.021H196.097Z" fill="#FFB6B6"/>
<path d="M228.237 116.479L211.916 116.062L212.126 105.266L219.844 102.81L232.503 85.0539C233.137 84.1648 233.943 83.4119 234.873 82.8396C235.803 82.2672 236.838 81.8872 237.917 81.7219C238.997 81.5565 240.098 81.6093 241.157 81.877C242.215 82.1448 243.209 82.622 244.08 83.2806C244.951 83.9392 245.681 84.7657 246.227 85.7113C246.773 86.6569 247.124 87.7024 247.259 88.7859C247.394 89.8694 247.31 90.969 247.013 92.0196C246.715 93.0702 246.21 94.0505 245.527 94.9026L228.237 116.479Z" fill="#3F3D56"/>
<path d="M299.544 225.157H125.641C125.581 225.157 125.521 225.145 125.466 225.122C125.41 225.1 125.36 225.066 125.317 225.024C125.275 224.981 125.241 224.931 125.218 224.875C125.195 224.82 125.183 224.76 125.183 224.7C125.183 224.64 125.195 224.581 125.218 224.525C125.241 224.47 125.275 224.419 125.317 224.377C125.36 224.335 125.41 224.301 125.466 224.278C125.521 224.255 125.581 224.244 125.641 224.244H299.544C299.604 224.244 299.663 224.255 299.719 224.278C299.774 224.301 299.825 224.335 299.867 224.377C299.91 224.419 299.943 224.47 299.966 224.525C299.989 224.581 300.001 224.64 300.001 224.7C300.001 224.76 299.989 224.82 299.966 224.875C299.943 224.931 299.91 224.981 299.867 225.024C299.825 225.066 299.774 225.1 299.719 225.122C299.663 225.145 299.604 225.157 299.544 225.157V225.157Z" fill="#CACACA"/>
</svg>
