<svg width="111" height="108" viewBox="0 0 111 108" fill="none" xmlns="http://www.w3.org/2000/svg">
<g filter="url(#filter0_d_0_1)">
<path d="M55.3928 98.87C83.7763 98.87 106.786 76.7372 106.786 49.435C106.786 22.1328 83.7763 0 55.3928 0C27.0094 0 4 22.1328 4 49.435C4 76.7372 27.0094 98.87 55.3928 98.87Z" fill="#F5F5F5"/>
</g>
<g filter="url(#filter1_d_0_1)">
<path d="M55.4409 99.0654C65.4831 99.0811 75.3079 96.2528 83.6901 90.9333C81.7962 80.978 74.5891 80.4108 74.5891 80.4108H34.8456C34.8456 80.4108 28.0447 80.9476 25.9206 90.1056C34.5627 95.953 44.875 99.0829 55.4409 99.0654V99.0654Z" fill="#6C63FF"/>
</g>
<g filter="url(#filter2_d_0_1)">
<path d="M54.8949 72.2541C68.5948 72.2541 79.7008 61.5712 79.7008 48.3932C79.7008 35.2152 68.5948 24.5323 54.8949 24.5323C41.195 24.5323 30.0891 35.2152 30.0891 48.3932C30.0891 61.5712 41.195 72.2541 54.8949 72.2541Z" fill="#333333"/>
</g>
<g opacity="0.1" filter="url(#filter3_d_0_1)">
<path d="M46.889 68.2676H62.7835V80.499C62.7835 82.5259 61.9466 84.4699 60.4569 85.9034C58.9671 87.337 56.9465 88.1427 54.8393 88.1435V88.1435C52.7315 88.1435 50.7101 87.3381 49.2197 85.9045C47.7293 84.4708 46.892 82.5264 46.892 80.499V68.2676H46.889Z" fill="black"/>
</g>
<g filter="url(#filter4_d_0_1)">
<path d="M47.393 67.7004H62.2855C62.4192 67.7004 62.5473 67.7515 62.6419 67.8424C62.7364 67.9333 62.7895 68.0566 62.7895 68.1851V79.9318C62.7896 80.9361 62.5841 81.9305 62.1847 82.8583C61.7852 83.7861 61.1995 84.6292 60.4612 85.3392C59.7229 86.0492 58.8464 86.6124 57.8818 86.9965C56.9171 87.3806 55.8833 87.5781 54.8392 87.5777V87.5777C52.7315 87.5777 50.7101 86.7723 49.2197 85.3387C47.7293 83.9051 46.892 81.9607 46.892 79.9332V68.1851C46.892 68.0571 46.9447 67.9342 47.0386 67.8434C47.1324 67.7525 47.2598 67.7011 47.393 67.7004V67.7004Z" fill="#FDB797"/>
</g>
<g opacity="0.1" filter="url(#filter5_d_0_1)">
<path d="M46.9176 74.0411C52.0402 75.882 57.679 75.8969 62.812 74.0831V72.202H46.9176V74.0411Z" fill="black"/>
</g>
<g filter="url(#filter6_d_0_1)">
<path d="M54.8949 75.0641C67.4774 75.0641 77.6775 65.2526 77.6775 53.1494C77.6775 41.0463 67.4774 31.2347 54.8949 31.2347C42.3124 31.2347 32.1123 41.0463 32.1123 53.1494C32.1123 65.2526 42.3124 75.0641 54.8949 75.0641Z" fill="#FDB797"/>
</g>
<g opacity="0.1" filter="url(#filter7_d_0_1)">
<path d="M38.6665 33.2157C38.6665 33.2157 48.2684 51.9629 75.3533 41.0758L69.0473 31.5647L57.8689 27.7056L38.6665 33.2157Z" fill="black"/>
</g>
<g filter="url(#filter8_d_0_1)">
<path d="M38.6665 32.9408C38.6665 32.9408 48.2684 51.688 75.3533 40.7979L69.0473 31.2869L57.8689 27.4277L38.6665 32.9408Z" fill="#333333"/>
</g>
<g filter="url(#filter9_d_0_1)">
<path d="M38.5823 31.6703C39.2297 29.7425 40.3487 27.9923 41.8451 26.5668C46.3264 22.3054 53.6734 21.4068 57.4417 16.5478C58.3443 17.8964 57.6463 19.9699 56.0878 20.5487C59.6981 20.5256 63.8816 20.2217 65.9229 17.3653C66.4274 18.495 66.5882 19.7393 66.3866 20.9534C66.185 22.1675 65.6293 23.3017 64.7842 24.2241C67.9838 24.3688 71.4031 26.4524 71.6046 29.5273C71.743 31.5762 70.4012 33.5152 68.6577 34.6902C66.9142 35.8651 64.7902 36.4049 62.7067 36.8462C56.6233 38.1383 34.6125 43.5458 38.5823 31.6703Z" fill="#333333"/>
</g>
<g filter="url(#filter10_d_0_1)">
<path d="M32.1033 56.9521C33.2739 56.9521 34.2228 55.2405 34.2228 53.1292C34.2228 51.0178 33.2739 49.3062 32.1033 49.3062C30.9327 49.3062 29.9837 51.0178 29.9837 53.1292C29.9837 55.2405 30.9327 56.9521 32.1033 56.9521Z" fill="#FDB797"/>
</g>
<g filter="url(#filter11_d_0_1)">
<path d="M77.6745 56.9521C78.8451 56.9521 79.794 55.2405 79.794 53.1292C79.794 51.0178 78.8451 49.3062 77.6745 49.3062C76.5039 49.3062 75.5549 51.0178 75.5549 53.1292C75.5549 55.2405 76.5039 56.9521 77.6745 56.9521Z" fill="#FDB797"/>
</g>
<defs>
<filter id="filter0_d_0_1" x="0" y="0" width="110.786" height="106.87" filterUnits="userSpaceOnUse" color-interpolation-filters="sRGB">
<feFlood flood-opacity="0" result="BackgroundImageFix"/>
<feColorMatrix in="SourceAlpha" type="matrix" values="0 0 0 0 0 0 0 0 0 0 0 0 0 0 0 0 0 0 127 0" result="hardAlpha"/>
<feOffset dy="4"/>
<feGaussianBlur stdDeviation="2"/>
<feComposite in2="hardAlpha" operator="out"/>
<feColorMatrix type="matrix" values="0 0 0 0 0 0 0 0 0 0 0 0 0 0 0 0 0 0 0.25 0"/>
<feBlend mode="normal" in2="BackgroundImageFix" result="effect1_dropShadow_0_1"/>
<feBlend mode="normal" in="SourceGraphic" in2="effect1_dropShadow_0_1" result="shape"/>
</filter>
<filter id="filter1_d_0_1" x="21.9206" y="80.4108" width="65.7695" height="26.6547" filterUnits="userSpaceOnUse" color-interpolation-filters="sRGB">
<feFlood flood-opacity="0" result="BackgroundImageFix"/>
<feColorMatrix in="SourceAlpha" type="matrix" values="0 0 0 0 0 0 0 0 0 0 0 0 0 0 0 0 0 0 127 0" result="hardAlpha"/>
<feOffset dy="4"/>
<feGaussianBlur stdDeviation="2"/>
<feComposite in2="hardAlpha" operator="out"/>
<feColorMatrix type="matrix" values="0 0 0 0 0 0 0 0 0 0 0 0 0 0 0 0 0 0 0.25 0"/>
<feBlend mode="normal" in2="BackgroundImageFix" result="effect1_dropShadow_0_1"/>
<feBlend mode="normal" in="SourceGraphic" in2="effect1_dropShadow_0_1" result="shape"/>
</filter>
<filter id="filter2_d_0_1" x="26.0891" y="24.5323" width="57.6118" height="55.7218" filterUnits="userSpaceOnUse" color-interpolation-filters="sRGB">
<feFlood flood-opacity="0" result="BackgroundImageFix"/>
<feColorMatrix in="SourceAlpha" type="matrix" values="0 0 0 0 0 0 0 0 0 0 0 0 0 0 0 0 0 0 127 0" result="hardAlpha"/>
<feOffset dy="4"/>
<feGaussianBlur stdDeviation="2"/>
<feComposite in2="hardAlpha" operator="out"/>
<feColorMatrix type="matrix" values="0 0 0 0 0 0 0 0 0 0 0 0 0 0 0 0 0 0 0.25 0"/>
<feBlend mode="normal" in2="BackgroundImageFix" result="effect1_dropShadow_0_1"/>
<feBlend mode="normal" in="SourceGraphic" in2="effect1_dropShadow_0_1" result="shape"/>
</filter>
<filter id="filter3_d_0_1" x="42.889" y="68.2676" width="23.8945" height="27.8759" filterUnits="userSpaceOnUse" color-interpolation-filters="sRGB">
<feFlood flood-opacity="0" result="BackgroundImageFix"/>
<feColorMatrix in="SourceAlpha" type="matrix" values="0 0 0 0 0 0 0 0 0 0 0 0 0 0 0 0 0 0 127 0" result="hardAlpha"/>
<feOffset dy="4"/>
<feGaussianBlur stdDeviation="2"/>
<feComposite in2="hardAlpha" operator="out"/>
<feColorMatrix type="matrix" values="0 0 0 0 0 0 0 0 0 0 0 0 0 0 0 0 0 0 0.25 0"/>
<feBlend mode="normal" in2="BackgroundImageFix" result="effect1_dropShadow_0_1"/>
<feBlend mode="normal" in="SourceGraphic" in2="effect1_dropShadow_0_1" result="shape"/>
</filter>
<filter id="filter4_d_0_1" x="42.892" y="67.7004" width="23.8974" height="27.8773" filterUnits="userSpaceOnUse" color-interpolation-filters="sRGB">
<feFlood flood-opacity="0" result="BackgroundImageFix"/>
<feColorMatrix in="SourceAlpha" type="matrix" values="0 0 0 0 0 0 0 0 0 0 0 0 0 0 0 0 0 0 127 0" result="hardAlpha"/>
<feOffset dy="4"/>
<feGaussianBlur stdDeviation="2"/>
<feComposite in2="hardAlpha" operator="out"/>
<feColorMatrix type="matrix" values="0 0 0 0 0 0 0 0 0 0 0 0 0 0 0 0 0 0 0.25 0"/>
<feBlend mode="normal" in2="BackgroundImageFix" result="effect1_dropShadow_0_1"/>
<feBlend mode="normal" in="SourceGraphic" in2="effect1_dropShadow_0_1" result="shape"/>
</filter>
<filter id="filter5_d_0_1" x="42.9176" y="72.202" width="23.8944" height="11.2308" filterUnits="userSpaceOnUse" color-interpolation-filters="sRGB">
<feFlood flood-opacity="0" result="BackgroundImageFix"/>
<feColorMatrix in="SourceAlpha" type="matrix" values="0 0 0 0 0 0 0 0 0 0 0 0 0 0 0 0 0 0 127 0" result="hardAlpha"/>
<feOffset dy="4"/>
<feGaussianBlur stdDeviation="2"/>
<feComposite in2="hardAlpha" operator="out"/>
<feColorMatrix type="matrix" values="0 0 0 0 0 0 0 0 0 0 0 0 0 0 0 0 0 0 0.25 0"/>
<feBlend mode="normal" in2="BackgroundImageFix" result="effect1_dropShadow_0_1"/>
<feBlend mode="normal" in="SourceGraphic" in2="effect1_dropShadow_0_1" result="shape"/>
</filter>
<filter id="filter6_d_0_1" x="28.1123" y="31.2347" width="53.5652" height="51.8294" filterUnits="userSpaceOnUse" color-interpolation-filters="sRGB">
<feFlood flood-opacity="0" result="BackgroundImageFix"/>
<feColorMatrix in="SourceAlpha" type="matrix" values="0 0 0 0 0 0 0 0 0 0 0 0 0 0 0 0 0 0 127 0" result="hardAlpha"/>
<feOffset dy="4"/>
<feGaussianBlur stdDeviation="2"/>
<feComposite in2="hardAlpha" operator="out"/>
<feColorMatrix type="matrix" values="0 0 0 0 0 0 0 0 0 0 0 0 0 0 0 0 0 0 0.25 0"/>
<feBlend mode="normal" in2="BackgroundImageFix" result="effect1_dropShadow_0_1"/>
<feBlend mode="normal" in="SourceGraphic" in2="effect1_dropShadow_0_1" result="shape"/>
</filter>
<filter id="filter7_d_0_1" x="34.6665" y="27.7056" width="44.6868" height="24.7694" filterUnits="userSpaceOnUse" color-interpolation-filters="sRGB">
<feFlood flood-opacity="0" result="BackgroundImageFix"/>
<feColorMatrix in="SourceAlpha" type="matrix" values="0 0 0 0 0 0 0 0 0 0 0 0 0 0 0 0 0 0 127 0" result="hardAlpha"/>
<feOffset dy="4"/>
<feGaussianBlur stdDeviation="2"/>
<feComposite in2="hardAlpha" operator="out"/>
<feColorMatrix type="matrix" values="0 0 0 0 0 0 0 0 0 0 0 0 0 0 0 0 0 0 0.25 0"/>
<feBlend mode="normal" in2="BackgroundImageFix" result="effect1_dropShadow_0_1"/>
<feBlend mode="normal" in="SourceGraphic" in2="effect1_dropShadow_0_1" result="shape"/>
</filter>
<filter id="filter8_d_0_1" x="34.6665" y="27.4277" width="44.6868" height="24.7709" filterUnits="userSpaceOnUse" color-interpolation-filters="sRGB">
<feFlood flood-opacity="0" result="BackgroundImageFix"/>
<feColorMatrix in="SourceAlpha" type="matrix" values="0 0 0 0 0 0 0 0 0 0 0 0 0 0 0 0 0 0 127 0" result="hardAlpha"/>
<feOffset dy="4"/>
<feGaussianBlur stdDeviation="2"/>
<feComposite in2="hardAlpha" operator="out"/>
<feColorMatrix type="matrix" values="0 0 0 0 0 0 0 0 0 0 0 0 0 0 0 0 0 0 0.25 0"/>
<feBlend mode="normal" in2="BackgroundImageFix" result="effect1_dropShadow_0_1"/>
<feBlend mode="normal" in="SourceGraphic" in2="effect1_dropShadow_0_1" result="shape"/>
</filter>
<filter id="filter9_d_0_1" x="34.1067" y="16.5478" width="41.5078" height="30.6487" filterUnits="userSpaceOnUse" color-interpolation-filters="sRGB">
<feFlood flood-opacity="0" result="BackgroundImageFix"/>
<feColorMatrix in="SourceAlpha" type="matrix" values="0 0 0 0 0 0 0 0 0 0 0 0 0 0 0 0 0 0 127 0" result="hardAlpha"/>
<feOffset dy="4"/>
<feGaussianBlur stdDeviation="2"/>
<feComposite in2="hardAlpha" operator="out"/>
<feColorMatrix type="matrix" values="0 0 0 0 0 0 0 0 0 0 0 0 0 0 0 0 0 0 0.25 0"/>
<feBlend mode="normal" in2="BackgroundImageFix" result="effect1_dropShadow_0_1"/>
<feBlend mode="normal" in="SourceGraphic" in2="effect1_dropShadow_0_1" result="shape"/>
</filter>
<filter id="filter10_d_0_1" x="25.9837" y="49.3062" width="12.2391" height="15.6459" filterUnits="userSpaceOnUse" color-interpolation-filters="sRGB">
<feFlood flood-opacity="0" result="BackgroundImageFix"/>
<feColorMatrix in="SourceAlpha" type="matrix" values="0 0 0 0 0 0 0 0 0 0 0 0 0 0 0 0 0 0 127 0" result="hardAlpha"/>
<feOffset dy="4"/>
<feGaussianBlur stdDeviation="2"/>
<feComposite in2="hardAlpha" operator="out"/>
<feColorMatrix type="matrix" values="0 0 0 0 0 0 0 0 0 0 0 0 0 0 0 0 0 0 0.25 0"/>
<feBlend mode="normal" in2="BackgroundImageFix" result="effect1_dropShadow_0_1"/>
<feBlend mode="normal" in="SourceGraphic" in2="effect1_dropShadow_0_1" result="shape"/>
</filter>
<filter id="filter11_d_0_1" x="71.5549" y="49.3062" width="12.2391" height="15.6459" filterUnits="userSpaceOnUse" color-interpolation-filters="sRGB">
<feFlood flood-opacity="0" result="BackgroundImageFix"/>
<feColorMatrix in="SourceAlpha" type="matrix" values="0 0 0 0 0 0 0 0 0 0 0 0 0 0 0 0 0 0 127 0" result="hardAlpha"/>
<feOffset dy="4"/>
<feGaussianBlur stdDeviation="2"/>
<feComposite in2="hardAlpha" operator="out"/>
<feColorMatrix type="matrix" values="0 0 0 0 0 0 0 0 0 0 0 0 0 0 0 0 0 0 0.25 0"/>
<feBlend mode="normal" in2="BackgroundImageFix" result="effect1_dropShadow_0_1"/>
<feBlend mode="normal" in="SourceGraphic" in2="effect1_dropShadow_0_1" result="shape"/>
</filter>
</defs>
</svg>
